<svg width="247" height="60" viewBox="0 0 247 60" fill="none" xmlns="http://www.w3.org/2000/svg">
<path fill-rule="evenodd" clip-rule="evenodd" d="M209.851 6.1518C207.219 9.9208 205.398 10.462 203.136 10.7331L202.226 10.8201L199.147 10.9966L195.602 11.2664C194.152 11.4494 193.063 11.7156 192.15 12.2568C193.34 10.7331 195.15 8.48928 196.692 7.40826C198.328 6.33477 200.232 6.24146 201.406 6.06226L202.132 5.97418H202.226L203.225 5.88611C206.04 5.52358 209.214 4.98646 212.301 2.65057C211.211 4.26761 209.851 6.1518 209.851 6.1518ZM188.714 15.9331C188.714 15.9331 187.715 17.3699 187.525 17.5517C184.355 18.0008 181.089 18.991 177.73 20.5121C173.467 22.5742 169.113 25.4487 164.572 29.398C167.752 25.807 171.922 21.4087 177.73 18.0008C181.362 15.8466 185.712 14.0463 190.886 13.0653C190.523 13.4207 188.714 15.9331 188.714 15.9331ZM213.654 0.77002C210.211 4.35569 206.495 4.80727 203.136 5.25521L201.484 5.4736C199.682 5.67002 198.144 5.7939 196.422 6.96445C194.702 8.03503 192.7 10.462 191.337 12.2568C185.984 13.2419 181.537 15.0365 177.73 17.1964C171.014 21.1452 166.387 26.3495 162.943 30.2091L159.585 34.3349L160.218 34.1543C166.387 28.1416 172.192 23.8317 177.73 21.2348C181.177 19.5297 184.535 18.5368 187.799 18.1811H187.892L191.428 13.3314C192.336 12.4371 193.698 12.0739 195.694 11.8984L199.239 11.6286L202.226 11.4494L203.225 11.3586C205.583 10.9966 207.58 10.462 210.393 6.5102L214.113 1.12575L213.654 0.77002Z" fill="#2B2B2A"/>
<path fill-rule="evenodd" clip-rule="evenodd" d="M159.953 33.9759C170.743 25.7207 176.462 22.4891 189.254 22.3099L186.532 26.2578C185.985 27.335 185.172 27.335 184.355 27.2414C175.19 27.1585 168.843 27.8737 157.773 36.3119L159.953 33.9759Z" fill="url(#paint0_linear)"/>
<path fill-rule="evenodd" clip-rule="evenodd" d="M160.532 33.2994C160.53 33.3176 160.526 33.3349 160.522 33.352C171.061 23.3269 180.015 18.801 187.771 17.8319C188.492 16.935 190.887 13.602 191.61 12.5237C174.087 15.5565 166.042 27.6289 160.532 33.2994Z" fill="url(#paint1_linear)"/>
<path fill-rule="evenodd" clip-rule="evenodd" d="M160.491 33.3504C160.353 33.4899 159.997 33.9193 159.664 34.2496C159.559 34.3444 159.372 34.5896 159.36 34.6053C161.401 32.9237 165.546 29.658 169.34 27.5064C173.117 25.3664 177.723 23.5952 184.265 22.6653C184.9 21.9479 186.859 19.2328 187.771 17.7986C175.7 19.5948 167.753 26.6161 160.491 33.3504Z" fill="url(#paint2_linear)"/>
<path fill-rule="evenodd" clip-rule="evenodd" d="M186.257 26.7048C186.35 26.2585 186.627 25.8963 185.353 25.0946C183.719 24.1027 183.176 24.5507 183.535 23.5656C183.81 22.7582 187.169 21.323 189.704 22.217C189.704 22.217 187.437 24.8232 186.257 26.7048Z" fill="url(#paint3_linear)"/>
<path fill-rule="evenodd" clip-rule="evenodd" d="M195.789 11.3578C193.245 11.6277 191.705 12.3414 190.706 13.6016L187.303 18.4807C188.116 17.7643 190.34 17.369 192.795 17.369H193.155C193.245 17.369 193.34 17.369 193.423 17.369C193.788 17.369 194.152 17.2809 194.51 17.2809C198.051 17.1955 202.86 16.6543 205.764 13.1526L209.986 7.08602L210.453 6.40259C206.736 11.4277 198.418 10.9073 195.789 11.3578Z" fill="url(#paint4_linear)"/>
<path fill-rule="evenodd" clip-rule="evenodd" d="M202.134 5.70267C201.048 5.88708 198.6 5.79487 196.6 7.14316C194.512 8.49025 191.987 11.7732 190.801 13.4799C191.895 12.2235 193.522 11.8099 195.696 11.5374C197.879 11.2674 200.962 11.3596 203.227 10.9976C205.4 10.7341 207.401 10.2824 210.124 6.33574L213.935 0.950073C210.032 4.98744 205.765 5.16398 202.134 5.70267Z" fill="url(#paint5_linear)"/>
<path fill-rule="evenodd" clip-rule="evenodd" d="M197.781 16.742C195.15 17.103 192.151 17.1952 191.251 17.2806C189.8 17.2806 187.799 17.8178 187.259 18.5356C185.533 20.6912 183.996 22.6636 183.535 23.5632C184.535 22.573 187.893 22.6636 191.98 22.4874C196.057 22.3082 200.139 20.4199 203.407 16.5628L205.883 12.9547C204.248 15.1985 201.323 16.2008 197.781 16.742Z" fill="url(#paint6_linear)"/>
<path d="M241.845 19.3246L241.833 19.3366C244.085 21.595 245.568 24.6409 245.81 28.0608C246.342 35.6326 240.614 42.193 233.023 42.7249C229.452 42.9739 226.108 41.8428 223.506 39.791L223.491 39.807C226.19 42.3129 229.883 43.7428 233.856 43.4662C241.449 42.9384 247.175 36.3725 246.642 28.8059C246.374 24.9831 244.557 21.6308 241.845 19.3246Z" fill="#243C77"/>
<path d="M217.413 34.9408C216.975 35.1861 216.877 35.5519 217.102 36.1155C217.308 36.6317 217.635 36.8543 217.98 36.7146C218.26 36.6094 218.307 36.3671 218.19 35.7468L218.14 35.5072C218.029 34.8991 218.008 34.6356 218.081 34.3708C218.153 34.0785 218.324 33.8875 218.583 33.7821C219.208 33.5348 219.796 33.9177 220.145 34.7934C220.525 35.7326 220.32 36.4462 219.581 36.7531L219.398 36.2906C219.912 36.0723 220.044 35.5888 219.766 34.9054C219.541 34.3469 219.184 34.0969 218.809 34.2484C218.505 34.3656 218.435 34.6485 218.545 35.2836L218.588 35.5519L218.632 35.7878C218.712 36.2551 218.719 36.4198 218.677 36.624C218.612 36.8767 218.452 37.0574 218.196 37.1625C217.61 37.3944 217.043 37.0506 216.727 36.2645C216.388 35.4112 216.57 34.7778 217.227 34.4828L217.413 34.9408Z" fill="#243C77"/>
<path d="M217.021 29.9768L219.112 28.2269L219.127 28.8708L217.354 30.3325L217.93 30.9645L219.174 30.9395L219.186 31.4479L215.63 31.5255L215.618 31.0161L217.016 30.9859H217.208L217.393 30.9828L217.274 30.8578L217.15 30.7343L215.577 29.0419L215.561 28.3666L217.021 29.9768Z" fill="#243C77"/>
<path d="M218.592 24.497L219.966 24.9764L219.798 25.4567L218.427 24.9764L215.972 25.7125L216.178 25.1317L217.702 24.7064L217.891 24.655C217.966 24.6284 218.015 24.6207 218.147 24.5919C218.028 24.4497 218.003 24.419 217.876 24.2428L216.934 22.9759L217.131 22.4191L218.592 24.497Z" fill="#243C77"/>
<path d="M221 17.9898L220.251 18.9076L222.491 20.7393L221.956 21.3925L219.711 19.5635L218.962 20.4772L218.453 20.0611L220.492 17.5803L221 17.9898Z" fill="#243C77"/>
<path d="M225.8 14.635L224.008 15.6816L224.389 16.3359L226.036 15.3774L226.34 15.9015L224.694 16.8574L225.136 17.6133L226.964 16.5443L227.3 17.1105L224.735 18.6051L222.937 15.5434L225.468 14.0686L225.8 14.635Z" fill="#243C77"/>
<path d="M230.647 14.1883C230.452 13.8632 230.376 13.7157 230.265 13.4653C230.235 13.7184 230.199 13.9064 230.113 14.2701L229.964 14.9457L231 14.7811L230.647 14.1883ZM232.681 16.0084L231.751 16.0753L231.289 15.3063L229.856 15.5369L229.656 16.4071L228.771 16.6336L229.705 12.7609L230.582 12.6228L232.681 16.0084Z" fill="#243C77"/>
<path d="M238.389 17.1442L237.644 16.864L237.929 15.809C237.96 15.6877 238.003 15.5168 238.068 15.2969C238.126 15.0782 238.179 14.9058 238.216 14.778C238.262 14.6333 238.306 14.488 238.355 14.3342L238.438 14.0811C238.229 14.4436 238.146 14.5661 237.954 14.8557C237.872 14.9845 237.796 15.0913 237.735 15.1808L236.723 16.5899L236.078 16.42L235.873 14.7266C235.86 14.6396 235.854 14.5186 235.841 14.3488C235.829 14.1248 235.818 13.9576 235.812 13.8415C235.808 13.7455 235.808 13.6044 235.808 13.4096L235.721 13.8415C235.615 14.3067 235.568 14.5067 235.428 15.0663L235.13 16.2066L234.346 16.0842L235.235 12.6183L236.432 12.846L236.598 14.488C236.642 14.8729 236.65 15.1939 236.634 15.6523C236.769 15.3888 236.817 15.3032 236.971 15.0663C237.074 14.9017 237.163 14.7672 237.246 14.6437L238.183 13.3085L239.312 13.6914L238.389 17.1442Z" fill="#243C77"/>
<path d="M238.311 28.5752C239.334 27.8839 240.19 27.5176 240.719 27.5363C241.031 27.548 241.407 27.6402 241.407 28.025C241.407 28.4252 241.031 28.7529 240.286 29.0205C239.636 29.2508 238.632 29.3086 237.542 29.1904C237.846 28.9216 238.098 28.7137 238.311 28.5752ZM223.886 29.8317C223.249 29.7895 222.937 29.5312 222.937 29.0426C222.937 28.9795 222.982 27.4281 226.544 27.253C226.95 27.228 227.406 27.2161 228.099 27.2952C228.068 27.2952 227.693 27.6402 227.693 27.6402L227.471 27.8431C226.61 28.6173 225.173 29.9198 223.886 29.8317ZM231.595 23.969C231.164 24.3456 230.308 25.162 229.486 25.9496L228.548 26.845C227.788 26.708 227.032 26.6394 226.259 26.6394C224.525 26.6394 222.941 27.1134 222.215 27.8521C221.943 28.1329 221.802 28.4381 221.812 28.7581C221.83 29.5957 222.788 30.016 223.081 30.1251C224.618 30.6954 225.908 30.5334 227.263 29.5826C228.014 29.0624 228.914 28.2276 229.614 27.5535C230.163 27.676 230.784 27.839 231.452 28.0355L232.068 28.2131C231.273 28.9941 230.452 29.8223 229.692 30.4871L229.632 30.5401C228.577 31.4632 227.813 32.1359 226.709 32.3849C225.934 32.551 225.382 32.3901 225.203 32.2807C225.187 32.2833 225.16 32.3139 225.16 32.3139C225.799 32.8417 226.404 33.1381 227.442 33.0471C228.435 32.9615 229.577 32.3389 230.747 31.2485L232.325 29.7036L233.433 28.608C233.433 28.6148 235.671 29.2639 235.671 29.2639C235.689 29.2691 235.71 29.2732 235.71 29.2732C235.689 29.2732 234.324 30.6151 234.324 30.6151L233.137 31.7951C231.919 32.9734 231.257 33.5804 230.543 34.0848C229.37 34.9171 228.36 35.349 227.476 35.411C227.018 35.4427 226.353 35.4069 225.799 35.0885C225.773 35.0792 225.74 35.1119 225.74 35.1119C226.34 35.6215 227.08 36.2366 228.349 36.2023C229.784 36.1575 231.052 35.473 233.03 33.6663C233.933 32.8417 234.826 31.9186 235.616 31.1008L237.088 29.6169C238.055 29.8317 238.918 29.9198 239.877 29.8988C241.268 29.8709 242.458 29.206 242.472 28.4435C242.486 27.888 242.021 27.5848 241.745 27.4072C241.517 27.2582 240.894 26.9133 240.034 26.9133C238.988 26.9133 237.899 27.3718 236.794 28.2776L236.059 28.9257C236.069 28.9216 235.791 28.8517 235.791 28.8517L233.745 28.2776C234.348 27.7193 234.86 27.2385 235.324 26.8279C236.446 25.8335 237.681 25.4266 238.405 25.3818C238.933 25.3464 239.852 25.3911 240.228 25.6573C240.247 25.6547 240.273 25.6177 240.273 25.6177C239.262 24.7644 238.394 24.6457 237.678 24.6457C236.967 24.6457 235.832 24.8697 234.44 25.9428C233.876 26.3814 233.137 27.1134 232.367 27.8906C232.367 27.8839 231.331 27.5744 231.331 27.5744L231.081 27.4953L229.992 27.1676C230.017 27.1676 230.615 26.5842 230.615 26.5842C231.348 25.8652 232.038 25.1936 232.577 24.7368C234.541 23.0948 235.778 22.8786 236.635 22.8693C237.576 22.8693 238.324 23.063 238.857 23.446C238.873 23.446 238.898 23.4094 238.898 23.4094C237.796 22.4191 237.004 22.103 235.636 22.0873C234.436 22.0821 233 22.7468 231.595 23.969Z" fill="#243C77"/>
<path d="M240.402 14.4755C240.472 14.515 240.583 14.5964 240.632 14.5068C240.665 14.4478 240.593 14.3964 240.534 14.3635L240.385 14.2817L240.307 14.4239L240.402 14.4755ZM240.479 14.9547L240.384 14.9033L240.357 14.5542L240.263 14.5042L240.122 14.7611L240.044 14.7178L240.35 14.162L240.593 14.2937C240.694 14.3489 240.777 14.4291 240.713 14.5505C240.652 14.6599 240.552 14.6583 240.451 14.6042L240.479 14.9547ZM240.821 14.7849C240.952 14.5427 240.859 14.2463 240.624 14.1171C240.39 13.9869 240.085 14.0686 239.95 14.3083C239.819 14.5479 239.916 14.8495 240.148 14.9745C240.384 15.1033 240.687 15.0246 240.821 14.7849ZM239.848 14.3171C239.975 14.0197 240.315 13.8854 240.616 14.0119C240.916 14.1422 241.052 14.4792 240.924 14.7756C240.796 15.0731 240.458 15.209 240.156 15.0798C239.859 14.9506 239.721 14.6125 239.848 14.3171Z" fill="#243C77"/>
<path d="M73.4778 54.2622C77.0723 54.8545 83.9543 55.7806 92.3852 55.9702C100.799 56.1938 110.692 55.6858 120.034 54.2241C129.381 52.803 138.144 50.4342 144.361 47.869C150.634 45.4077 154.138 42.4013 154.119 42.3909C154.155 42.4106 150.502 45.8832 143.863 48.8619C137.29 51.9564 128.011 54.9206 118.243 56.8403C108.479 58.8131 98.2461 59.7086 89.9129 59.7611C81.5876 59.8627 75.1218 59.0804 72.854 58.7063C65.0203 57.4961 59.3314 55.342 55.8612 53.2718C52.3502 51.1874 51.1845 49.3016 51.552 48.9381C51.9419 48.5051 53.6823 49.3819 57.2173 50.5275C60.756 51.6813 66.1421 53.1258 73.4778 54.2622Z" fill="#EE741E"/>
<path fill-rule="evenodd" clip-rule="evenodd" d="M110.95 27.9193L116.335 16.7883H116.432L122.385 27.9193H128.504L120.605 13.533H115.432L108.298 27.9193H110.95Z" fill="#0E5096"/>
<path fill-rule="evenodd" clip-rule="evenodd" d="M26.2982 21.6418L34.7452 21.5407C34.65 23.5489 33.5596 24.6706 32.9928 25.1473C31.5948 26.272 29.5969 26.3708 28.6465 26.3708C27.2496 26.3708 26.0431 26.1719 24.8103 25.4212C24.0241 24.9472 23.1243 24.1453 22.6763 23.4682L22.2957 22.893L19.5428 24.4955C20.3479 25.4426 21.6046 26.3906 22.9325 27.07C24.9713 28.0972 26.8493 28.3511 29.1211 28.3511C31.5432 28.3511 35.3134 27.9983 38.0423 25.9218C39.9412 24.4732 40.8158 22.4925 40.8158 20.7411C40.8158 18.9923 39.9412 16.9923 38.0423 15.5622C35.694 13.7593 32.2583 13.1326 29.1937 13.1326C27.2036 13.1326 25.3786 13.3301 23.5273 14.0401C21.9851 14.5876 20.7734 15.3451 19.5428 16.4365L22.2957 18.014L22.9575 17.2887C23.5023 16.6668 24.4256 16.0849 25.261 15.74C26.3749 15.2342 27.5351 15.0815 28.7457 15.0815C31.1866 15.0815 32.5898 15.8859 33.3723 16.6668C33.89 17.1633 34.58 18.1077 34.7452 19.5694L26.2982 19.4387V21.6418Z" fill="#0E5096"/>
<path fill-rule="evenodd" clip-rule="evenodd" d="M138.228 28.3511C140.791 28.3511 144.365 27.7493 146.762 25.9218C148.664 24.4955 149.562 22.4717 149.562 20.7411C149.562 19.0162 148.664 16.9923 146.762 15.5622C144.365 13.7343 140.791 13.1326 138.228 13.1326C135.688 13.1326 132.085 13.7343 129.665 15.5622C127.765 16.9923 126.89 19.0162 126.89 20.7411C126.89 22.4717 127.765 24.4955 129.665 25.9218C132.085 27.7493 135.688 28.3511 138.228 28.3511ZM138.228 14.8851C139.6 14.8851 141.166 15.192 142.375 16.7616C143.349 18.014 143.513 19.4664 143.513 20.7411C143.513 22.0185 143.349 23.4432 142.375 24.7195C141.166 26.2984 139.6 26.5971 138.228 26.5971C136.851 26.5971 135.281 26.2984 134.076 24.7195C133.105 23.4432 132.936 22.0185 132.936 20.7411C132.936 19.4664 133.105 18.014 134.076 16.7616C135.281 15.192 136.851 14.8851 138.228 14.8851Z" fill="#0E5096"/>
<path fill-rule="evenodd" clip-rule="evenodd" d="M102.011 17.1627C102.484 17.3115 102.912 17.5169 103.245 17.8173C103.882 18.3415 104.405 19.2131 104.405 20.6143C104.405 22.0443 103.882 22.9186 103.245 23.4426C102.912 23.7457 102.484 23.9432 102.011 24.0958C101.463 24.2709 100.873 24.3698 100.229 24.3698H99.6133V16.8891H100.229C100.873 16.8891 101.463 16.9917 102.011 17.1627ZM102.011 26.203C105.07 25.9947 106.683 25.2441 107.537 24.6991C109.149 23.6707 109.884 22.2127 109.884 20.6143C109.884 18.5124 108.581 17.2549 107.537 16.5625C106.089 15.5893 104.047 15.1903 102.011 15.0611C101.463 15.0111 100.918 15.0111 100.376 15.0111H99.7811V13.0331H94.3038V15.0111H93.7315C93.1858 15.0111 92.6372 15.0111 92.0941 15.0611C90.0301 15.1903 87.995 15.5893 86.5652 16.5625C85.5238 17.2549 84.2169 18.5124 84.2169 20.6143C84.2169 22.2127 84.9556 23.6707 86.5652 24.6991C87.4005 25.2441 89.0128 25.9947 92.0941 26.203C92.5923 26.2228 93.1381 26.2504 93.7315 26.2504H94.3038V28.3505H99.7811V26.2504H100.376C100.967 26.2504 101.512 26.2228 102.011 26.203ZM92.0941 17.1627C92.6174 16.9917 93.2348 16.8891 93.8491 16.8891H94.4941V24.3698H93.8491C93.2348 24.3698 92.6174 24.2709 92.0941 24.0958C91.6226 23.9432 91.1956 23.7457 90.8599 23.4426C90.2246 22.9186 89.6998 22.0443 89.6998 20.6143C89.6998 19.2131 90.2246 18.3415 90.8599 17.8173C91.1956 17.5169 91.6226 17.3115 92.0941 17.1627Z" fill="#0E5096"/>
<path fill-rule="evenodd" clip-rule="evenodd" d="M71.6961 28.3511C74.2358 28.3511 77.8393 27.7493 80.234 25.9218C82.1078 24.4955 82.9892 22.4717 82.9892 20.7411C82.9892 19.0162 82.1078 16.9923 80.234 15.5622C77.8393 13.7343 74.2358 13.1326 71.6961 13.1326C69.135 13.1326 65.5315 13.7343 63.1355 15.5622C61.2391 16.9923 60.3603 19.0162 60.3603 20.7411C60.3603 22.4717 61.2391 24.4955 63.1355 25.9218C65.5315 27.7493 69.135 28.3511 71.6961 28.3511ZM71.6961 14.8851C73.0465 14.8851 74.6362 15.192 75.8491 16.7616C76.8219 18.014 76.9882 19.4664 76.9882 20.7411C76.9882 22.0185 76.8219 23.4432 75.8491 24.7195C74.6362 26.2984 73.0465 26.5971 71.6961 26.5971C70.3243 26.5971 68.7319 26.2984 67.528 24.7195C66.5525 23.4432 66.4046 22.0185 66.4046 20.7411C66.4046 19.4664 66.5525 18.014 67.528 16.7616C68.7319 15.192 70.3243 14.8851 71.6961 14.8851Z" fill="#0E5096"/>
<path fill-rule="evenodd" clip-rule="evenodd" d="M51.0151 15.74C51.6811 15.7609 52.5349 15.8874 53.1492 16.2876C53.983 16.834 54.1205 17.5873 54.1205 18.039C54.1205 18.4933 54.0029 19.2913 53.1016 19.8669C52.4884 20.292 51.7273 20.4145 51.0151 20.466H47.9082V15.7082H50.4469C50.6147 15.7082 50.7998 15.7082 51.0151 15.74ZM51.0151 22.6441H52.0352C54.6677 22.6441 56.4954 22.3414 57.8008 21.5407C59.4393 20.5175 59.8121 19.1152 59.8121 18.0155C59.8121 16.9356 59.4393 15.5358 57.8008 14.5585C56.4954 13.7791 54.7415 13.5354 51.7973 13.5354H42.4307V27.9207H47.9082V22.6441H51.0151Z" fill="#0E5096"/>
<path fill-rule="evenodd" clip-rule="evenodd" d="M12.4537 23.77L14.7992 27.9193H20.9175L12.6162 13.533H7.5431L0 27.9193H2.72472L4.88535 23.77H12.4537ZM8.60808 16.9133L11.338 21.8133H5.88068L8.4638 16.8091H8.54209L8.60808 16.9133Z" fill="#0E5096"/>
<path fill-rule="evenodd" clip-rule="evenodd" d="M148.695 15.7069H154.579V27.9193H160.059V15.7069H165.962V13.533H148.695V15.7069Z" fill="#0E5096"/>
<path fill-rule="evenodd" clip-rule="evenodd" d="M11.9753 40.1173C11.9026 39.9382 11.8442 39.7564 11.7861 39.5813L2.9653 40.1173L4.74789 41.0284L11.9753 40.1173ZM13.1736 41.7579C13.0982 41.6985 13.0219 41.6234 12.9519 41.5605C12.7997 41.4234 12.6701 41.2838 12.5713 41.1416L8.1694 42.0225L10.0405 42.6929L13.1736 41.7579ZM16.6636 41.3786C16.8738 41.3498 17.1895 41.2181 17.4395 41.0284L16.1617 38.3498L17.4911 37.6809L16.3677 36.6515L15.916 36.8713L13.9786 37.7944L14.5468 39.1427L15.4612 38.7082L16.6636 41.3786ZM18.8441 35.7941C19.3292 36.4103 19.6873 37.1647 19.8761 38.0367H19.07C19.0093 37.7773 18.9381 37.5231 18.8441 37.2846C18.3024 35.7795 17.1895 34.7089 15.916 33.8175C15.7482 33.7187 15.5945 33.6003 15.4267 33.5066C15.5945 33.5607 15.7482 33.6202 15.916 33.6831C17.0802 34.1744 18.1107 34.85 18.8441 35.7941ZM18.8441 43.899L19.086 44.373L18.8441 44.4969L18.1875 44.8106L17.4395 43.2435C16.9689 43.4197 16.4403 43.5223 15.916 43.5384C15.3514 43.5645 14.7716 43.4806 14.2651 43.3051L13.6257 44.8106C13.4207 44.8288 13.1328 44.8106 12.9519 44.6709C12.8578 44.6127 12.7589 44.5127 12.7286 44.373L12.9519 43.977L13.4923 42.9457C13.3257 42.8299 13.1736 42.7456 13.0219 42.5903L13.4777 42.0162C14.2467 42.5153 15.0911 42.7837 15.916 42.7837C16.7416 42.8101 17.5649 42.5335 18.3354 41.9579L18.8441 42.1136L19.0516 42.195C18.9749 42.2558 18.9183 42.3095 18.8441 42.373C18.6921 42.5335 18.5613 42.6929 18.3171 42.8299L18.8441 43.899ZM29.3697 39.8554L31.7008 38.2961H19.086C19.086 38.8515 19.0093 39.3271 18.8441 39.7434C18.3564 41.0655 17.1393 41.6985 15.916 41.6777C14.7157 41.6448 13.4923 40.9889 12.9519 39.7802C12.7589 39.3402 12.6492 38.8714 12.6492 38.2961H0L2.31015 39.8554L11.9753 39.3271C12.1577 40.0565 12.4997 40.6925 12.9519 41.1654C13.7234 42.0162 14.8281 42.4929 15.916 42.4929C16.9887 42.5153 18.0725 42.0976 18.8441 41.1879C19.255 40.7123 19.5734 40.1002 19.76 39.3625L29.3697 39.8554ZM28.734 40.1173L26.9488 40.9889L19.8169 40.1173C19.8761 39.9382 19.9356 39.7564 19.9874 39.5813L28.734 40.1173ZM23.5736 42.0397L21.622 42.7258L18.8441 41.837L18.601 41.7579C18.6921 41.6777 18.7677 41.6041 18.8441 41.4974C18.9565 41.401 19.0516 41.2682 19.164 41.1654L23.5736 42.0397ZM24.5132 41.924L26.0674 41.1654L19.6492 40.3544C19.5947 40.5717 19.4217 40.7493 19.3104 40.9258L24.5132 41.924ZM7.1888 41.924L5.63194 41.2087L12.085 40.3752C12.2038 40.5717 12.3108 40.7493 12.439 40.9258L7.1888 41.924Z" fill="#0E5096"/>
<path d="M47.9355 39.3586H49.4866C50.0063 39.3586 50.4026 39.1794 50.664 38.9846C51.009 38.7095 51.3316 38.1947 51.3859 37.7457C51.4413 37.2993 51.2773 37.0754 51.2127 36.9961C51.033 36.7976 50.6775 36.7065 50.3141 36.7065H48.7626L47.9355 39.3586ZM50.4569 35.8099C50.8992 35.8099 51.6974 35.8335 52.1826 36.3339C52.5208 36.692 52.5737 37.1451 52.5208 37.5677C52.4256 38.35 51.9907 39.1138 51.3498 39.5811C50.8321 39.9697 50.0391 40.2556 49.233 40.2556H47.6606L46.6061 43.6491H45.558L47.9857 35.8099H50.4569Z" fill="#0E5096"/>
<path d="M56.2868 40.6789C56.4284 40.2455 56.6015 39.5594 56.3755 39.1776C56.2554 38.9644 55.9736 38.8129 55.5894 38.8129C55.1691 38.8129 54.7832 39.004 54.5188 39.2567C54.1183 39.6293 53.8936 40.2007 53.7403 40.6789L53.5871 41.1753C53.4601 41.5677 53.2357 42.2485 53.4931 42.6752C53.5882 42.8413 53.813 43.0492 54.273 43.0492C54.688 43.0492 55.03 42.8898 55.2945 42.6752C55.7927 42.263 55.9698 41.6875 56.1336 41.1753L56.2868 40.6789ZM57.27 38.7983C57.4473 39.1026 57.5117 39.5266 57.4405 40.1022C57.3375 40.9514 56.8959 42.2724 55.9512 43.0597C55.3897 43.518 54.7075 43.7614 54.0561 43.7614C53.0571 43.7614 52.6874 43.2243 52.5881 43.0597C52.3488 42.6527 52.3686 42.1485 52.4136 41.7901C52.5248 40.8935 52.9661 39.5819 53.9097 38.7983C54.4685 38.3389 55.1529 38.0992 55.8073 38.0992C56.5775 38.0992 57.0532 38.4191 57.27 38.7983Z" fill="#0E5096"/>
<path d="M62.029 43.2243C61.8481 43.3127 61.5665 43.4483 61.3076 43.5364C60.9135 43.6827 60.4962 43.7614 60.0152 43.7614C59.3743 43.7614 58.8878 43.5364 58.6367 43.215C58.3618 42.8569 58.2853 42.263 58.3419 41.801C58.4637 40.8263 59.0555 39.2396 60.1366 38.5524C60.6254 38.2414 61.2824 38.0992 61.7896 38.0992C62.1545 38.0992 62.6026 38.1954 62.867 38.3851C63.151 38.5889 63.2554 38.8551 63.2116 39.2265C63.1838 39.4474 63.0902 39.6886 62.991 39.8626L62.095 39.9402C62.2339 39.6068 62.3145 39.2921 62.1823 39.0775C62.0975 38.9446 61.8822 38.8129 61.4833 38.8129C61.2297 38.8129 60.9652 38.8655 60.6996 39.025C60.0984 39.3818 59.8788 39.9574 59.702 40.5273L59.4837 41.2437C59.3409 41.7036 59.2765 42.1918 59.4443 42.5173C59.5447 42.7095 59.7785 42.9779 60.401 42.9779C60.7023 42.9779 60.9191 42.9439 61.2548 42.8413C61.4979 42.7741 61.6987 42.6976 61.9298 42.5871L62.029 43.2243Z" fill="#0E5096"/>
<path d="M67.4813 43.2243C67.3004 43.3127 67.0161 43.4483 66.7583 43.5364C66.3633 43.6827 65.947 43.7614 65.4661 43.7614C64.8225 43.7614 64.3374 43.5364 64.0879 43.215C63.813 42.8569 63.7351 42.263 63.7943 41.801C63.916 40.8263 64.5079 39.2396 65.5878 38.5524C66.0752 38.2414 66.7359 38.0992 67.2409 38.0992C67.6016 38.0992 68.0508 38.1954 68.3193 38.3851C68.6022 38.5889 68.7063 38.8551 68.6628 39.2265C68.6336 39.4474 68.5373 39.6886 68.4407 39.8626L67.5462 39.9402C67.6848 39.6068 67.7683 39.2921 67.6308 39.0775C67.5514 38.9446 67.3319 38.8129 66.9356 38.8129C66.6779 38.8129 66.4163 38.8655 66.1467 39.025C65.5481 39.3818 65.3311 39.9574 65.1518 40.5273L64.9334 41.2437C64.7896 41.7036 64.7288 42.1918 64.8926 42.5173C64.9971 42.7095 65.235 42.9779 65.8519 42.9779C66.1519 42.9779 66.3714 42.9439 66.7029 42.8413C66.9476 42.7741 67.1498 42.6976 67.381 42.5871L67.4813 43.2243Z" fill="#0E5096"/>
<path d="M73.4221 43.6519H72.4811L73.7986 39.3958L69.9979 43.6519H68.8854L70.565 38.208H71.5072L70.1976 42.4615L73.9889 38.208H75.1054L73.4221 43.6519Z" fill="#0E5096"/>
<path d="M81.5429 35.8977C81.5361 35.9649 81.511 36.0888 81.4676 36.2441C81.3777 36.5707 81.2006 36.8749 80.741 37.1172C80.3614 37.3224 80.0378 37.3688 79.685 37.3688C79.4392 37.3688 79.0399 37.3553 78.769 37.1172C78.6754 37.0317 78.4878 36.8301 78.5302 36.4823C78.5484 36.3139 78.6462 36.0663 78.7429 35.8977H79.4801L79.4314 36.032C79.3771 36.1769 79.3242 36.3759 79.4538 36.5443C79.5662 36.68 79.7471 36.6917 79.8925 36.6917C80.0761 36.6917 80.2386 36.6733 80.4168 36.5443C80.639 36.3915 80.6919 36.2258 80.7556 36.044L80.8068 35.8977H81.5429ZM80.0048 43.6514H79.0639L80.3829 39.3953L76.5822 43.6514H75.4709L77.1452 38.2075H78.0899L76.7804 42.4581L80.5731 38.2075H81.6871L80.0048 43.6514Z" fill="#0E5096"/>
<path d="M85.9243 43.2243C85.7445 43.3127 85.458 43.4483 85.203 43.5364C84.8092 43.6827 84.3916 43.7614 83.9106 43.7614C83.2671 43.7614 82.7846 43.5364 82.5321 43.215C82.2575 42.8569 82.1807 42.263 82.2387 41.801C82.3616 40.8263 82.9498 39.2396 84.0294 38.5524C84.5222 38.2414 85.1804 38.0992 85.6839 38.0992C86.0461 38.0992 86.4952 38.1954 86.7608 38.3851C87.0436 38.5889 87.1508 38.8551 87.1044 39.2265C87.0781 39.4474 86.9856 39.6886 86.8863 39.8626L85.9866 39.9402C86.1251 39.6068 86.2113 39.2921 86.0739 39.0775C85.9945 38.9446 85.7764 38.8129 85.3801 38.8129C85.125 38.8129 84.8594 38.8655 84.5924 39.025C83.9937 39.3818 83.7731 39.9574 83.5933 40.5273L83.3779 41.2437C83.2352 41.7036 83.1756 42.1918 83.3396 42.5173C83.4412 42.7095 83.6739 42.9779 84.2949 42.9779C84.5949 42.9779 84.8155 42.9439 85.1474 42.8413C85.3906 42.7741 85.5966 42.6976 85.8228 42.5871L85.9243 43.2243Z" fill="#0E5096"/>
<path d="M90.7404 43.6525L90.5052 41.9364C90.4686 41.7151 90.4565 41.4781 90.3033 41.3217C90.1632 41.1764 89.9714 41.1529 89.801 41.1529H89.0398L88.2708 43.6525H87.3261L89.0109 38.2086H89.9531L89.2882 40.3706H89.9531C90.1089 40.3706 90.3917 40.3564 90.6284 40.1799C90.8158 40.0417 90.9468 39.8283 91.0566 39.6516L91.4436 39.0369C91.6721 38.6786 91.8732 38.3403 92.3103 38.1757C92.4692 38.1149 92.6182 38.0992 92.7584 38.0992C92.9184 38.0992 93.0771 38.1295 93.221 38.1757L92.8973 38.8984C92.7704 38.8655 92.5984 38.8655 92.4692 38.9567C92.3318 39.0593 92.2313 39.2396 92.1639 39.35L91.8586 39.8283C91.7253 40.0417 91.6245 40.2455 91.3552 40.4471C91.19 40.5721 90.9982 40.6591 90.8068 40.7184L90.7895 40.7617C90.9574 40.8081 91.1436 40.9185 91.2679 41.0727C91.4226 41.2859 91.4739 41.6323 91.4739 41.6468L91.7609 43.6525H90.7404Z" fill="#0E5096"/>
<path d="M97.5299 43.6519H96.5905L97.9094 39.3958L94.1048 43.6519H92.9907L94.6719 38.208H95.6151L94.3043 42.4615L98.0981 38.208H99.2138L97.5299 43.6519Z" fill="#0E5096"/>
<path d="M103.421 40.4471L103.478 40.222C103.577 39.8741 103.689 39.4636 103.525 39.1447C103.376 38.8655 103.12 38.8129 102.913 38.8129C102.529 38.8129 102.226 38.9342 101.946 39.1776C101.683 39.4172 101.412 39.7938 101.251 40.3262L101.212 40.4471H103.421ZM100.947 41.3057C100.844 41.7006 100.747 42.2116 100.925 42.5278C101.081 42.7991 101.466 42.9779 101.981 42.9779C102.298 42.9779 102.544 42.9216 102.822 42.8424C103.068 42.7767 103.266 42.6976 103.498 42.5871L103.599 43.2243C103.418 43.3127 103.131 43.4483 102.871 43.5364C102.472 43.6827 102.041 43.7614 101.581 43.7614C100.599 43.7614 100.169 43.2784 100.001 42.9779C99.5042 42.0709 100.116 39.8099 101.264 38.8129C101.808 38.3403 102.459 38.0992 103.08 38.0992C103.831 38.0992 104.222 38.444 104.403 38.742C104.744 39.3358 104.513 40.1022 104.27 40.9212L104.195 41.1649H100.984L100.947 41.3057Z" fill="#0E5096"/>
<path d="M114.142 41.116H113.294C112.764 41.116 112.4 41.2108 112.132 41.3979C111.811 41.6166 111.618 41.9562 111.577 42.2959C111.549 42.5173 111.587 42.6527 111.697 42.7857C111.882 43.0003 112.126 43.0242 112.328 43.0242C112.657 43.0242 112.864 42.9544 113.175 42.7767C113.388 42.6527 113.592 42.4949 113.788 42.2828L114.142 41.116ZM113.657 42.9779H113.615C113.422 43.181 113.187 43.3706 112.87 43.5364C112.526 43.717 112.278 43.7614 111.897 43.7614C111.556 43.7614 111.169 43.7301 110.878 43.4826C110.688 43.3128 110.48 43.0111 110.547 42.487C110.606 41.9918 110.878 41.3411 111.559 40.9055C111.929 40.6711 112.521 40.4471 113.546 40.4471H114.353L114.571 39.7401C114.621 39.5833 114.737 39.2265 114.471 38.9906C114.385 38.9118 114.208 38.8129 113.803 38.8129C113.603 38.8129 113.259 38.8353 112.986 38.9906C112.736 39.1328 112.604 39.3146 112.498 39.6426L111.659 39.5937C111.69 39.1713 111.921 38.742 112.414 38.4519C112.977 38.1295 113.743 38.0992 114.073 38.0992C114.638 38.0992 115.215 38.2294 115.452 38.5997C115.559 38.7696 115.626 39.013 115.577 39.3818C115.547 39.6516 115.468 39.861 115.383 40.1324L114.296 43.6525H113.447L113.657 42.9779Z" fill="#0E5096"/>
<path d="M118.025 40.502H119.209C119.415 40.502 119.702 40.4889 119.97 40.2993C120.24 40.1097 120.392 39.8122 120.428 39.5158C120.458 39.2814 120.365 39.1325 120.262 39.059C120.125 38.9537 119.916 38.9231 119.751 38.9231H118.505L118.025 40.502ZM117.266 42.9317H118.539C118.901 42.9317 119.156 42.8343 119.333 42.7092C119.597 42.5275 119.774 42.2023 119.818 41.857C119.841 41.6648 119.801 41.5079 119.664 41.3871C119.492 41.2318 119.228 41.2172 119.125 41.2172H117.796L117.266 42.9317ZM117.787 38.2057H120.164C120.567 38.2057 120.98 38.2411 121.252 38.6136C121.369 38.7703 121.456 39.0153 121.411 39.359C121.369 39.7081 121.196 40.069 120.91 40.3442C120.641 40.5995 120.387 40.7167 120.199 40.7614L120.196 40.7943C120.48 40.8641 120.63 41.0537 120.691 41.1526C120.776 41.3053 120.849 41.5225 120.812 41.8007C120.766 42.1799 120.578 42.7394 119.961 43.1922C119.471 43.5495 118.982 43.6495 118.453 43.6495H116.117L117.787 38.2057Z" fill="#0E5096"/>
<path d="M126.4 43.6519H125.467L126.782 39.3958L123.009 43.6519H121.903L123.573 38.208H124.51L123.207 42.4615L126.968 38.208H128.074L126.4 43.6519Z" fill="#0E5096"/>
<path d="M131.994 41.116H131.143C130.613 41.116 130.25 41.2108 129.984 41.3979C129.662 41.6166 129.467 41.9562 129.429 42.2959C129.399 42.5173 129.437 42.6527 129.547 42.7857C129.734 43.0003 129.971 43.0242 130.178 43.0242C130.506 43.0242 130.715 42.9544 131.023 42.7767C131.242 42.6527 131.44 42.4949 131.635 42.2828L131.994 41.116ZM131.509 42.9779H131.467C131.27 43.181 131.036 43.3706 130.715 43.5364C130.375 43.717 130.127 43.7614 129.748 43.7614C129.406 43.7614 129.017 43.7301 128.73 43.4826C128.537 43.3128 128.331 43.0111 128.397 42.487C128.455 41.9918 128.73 41.3411 129.409 40.9055C129.781 40.6711 130.368 40.4471 131.397 40.4471H132.204L132.418 39.7401C132.47 39.5833 132.589 39.2265 132.323 38.9906C132.236 38.9118 132.059 38.8129 131.652 38.8129C131.452 38.8129 131.11 38.8353 130.835 38.9906C130.585 39.1328 130.455 39.3146 130.353 39.6426L129.507 39.5937C129.539 39.1713 129.77 38.742 130.265 38.4519C130.823 38.1295 131.59 38.0992 131.924 38.0992C132.488 38.0992 133.062 38.2294 133.305 38.5997C133.408 38.7696 133.475 39.013 133.428 39.3818C133.395 39.6516 133.317 39.861 133.23 40.1324L132.148 43.6525H131.301L131.509 42.9779Z" fill="#0E5096"/>
<path d="M137.579 43.6519H136.646L138.087 38.9889H136.588L136.387 39.5932C136.149 40.3256 135.897 41.0299 135.614 41.7223C135.374 42.2928 135.067 42.9434 134.422 43.3701C134.067 43.6045 133.612 43.7493 133.234 43.7941V43.0079C133.497 42.9538 133.851 42.822 134.097 42.6403C134.471 42.3626 134.685 41.9359 134.85 41.5384C135.077 41.0008 135.515 39.7948 135.725 39.1021L136.005 38.208H139.253L137.579 43.6519Z" fill="#0E5096"/>
<path d="M143.972 43.6519H143.041L144.354 39.3958L140.573 43.6519H139.474L141.146 38.208H142.08L140.778 42.4615L144.542 38.208H145.648L143.972 43.6519Z" fill="#0E5096"/>
<path d="M150.071 43.6519H149.138L149.894 41.1946H147.562L146.8 43.6519H145.865L147.536 38.208H148.472L147.796 40.4123H150.131L150.808 38.208H151.743L150.071 43.6519Z" fill="#0E5096"/>
<path d="M156.466 43.6519H155.528L156.839 39.3958L153.067 43.6519H151.964L153.637 38.208H154.57L153.268 42.4615L157.026 38.208H158.137L156.466 43.6519Z" fill="#0E5096"/>
<path d="M162.854 43.6519H161.922L163.232 39.3958L159.456 43.6519H158.353L160.027 38.208H160.96L159.659 42.4615L163.423 38.208H164.53L162.854 43.6519Z" fill="#0E5096"/>
<defs>
<linearGradient id="paint0_linear" x1="165.283" y1="21.2144" x2="178.417" y2="34.2274" gradientUnits="userSpaceOnUse">
<stop stop-color="#C12222"/>
<stop offset="0.301961" stop-color="#E31F25"/>
<stop offset="0.529412" stop-color="#F6B3B6"/>
<stop offset="0.74902" stop-color="#E31F25"/>
<stop offset="1" stop-color="#C12222"/>
</linearGradient>
<linearGradient id="paint1_linear" x1="160.261" y1="11.4952" x2="191.978" y2="34.6208" gradientUnits="userSpaceOnUse">
<stop stop-color="white"/>
<stop offset="0.341176" stop-color="white"/>
<stop offset="0.541176" stop-color="white"/>
<stop offset="0.909804" stop-color="#D3DAF0"/>
<stop offset="1" stop-color="#D3DAF0"/>
</linearGradient>
<linearGradient id="paint2_linear" x1="165.799" y1="18.5597" x2="183.346" y2="35.9417" gradientUnits="userSpaceOnUse">
<stop stop-color="#0E5096"/>
<stop offset="0.129412" stop-color="#0E5096"/>
<stop offset="0.458824" stop-color="#8A9ED1"/>
<stop offset="0.639216" stop-color="#0E5096"/>
<stop offset="0.921569" stop-color="#0E5096"/>
<stop offset="1" stop-color="#0E5096"/>
</linearGradient>
<linearGradient id="paint3_linear" x1="183.475" y1="21.9867" x2="190.306" y2="26.0934" gradientUnits="userSpaceOnUse">
<stop stop-color="#C12222"/>
<stop offset="0.45098" stop-color="#E31F25"/>
<stop offset="1" stop-color="#F6B3B6"/>
</linearGradient>
<linearGradient id="paint4_linear" x1="189.264" y1="4.47872" x2="209.041" y2="20.9783" gradientUnits="userSpaceOnUse">
<stop stop-color="#D3DDF2"/>
<stop offset="0.0705882" stop-color="#D3DDF2"/>
<stop offset="0.368627" stop-color="#0E5096"/>
<stop offset="0.94902" stop-color="#D3DDF2"/>
<stop offset="1" stop-color="#D3DDF2"/>
</linearGradient>
<linearGradient id="paint5_linear" x1="193.455" y1="-0.169282" x2="211.953" y2="15.2646" gradientUnits="userSpaceOnUse">
<stop stop-color="white"/>
<stop offset="0.168627" stop-color="white"/>
<stop offset="0.388235" stop-color="#E3E7F6"/>
<stop offset="0.701961" stop-color="white"/>
<stop offset="1" stop-color="white"/>
</linearGradient>
<linearGradient id="paint6_linear" x1="186.118" y1="11.1417" x2="202.805" y2="25.0639" gradientUnits="userSpaceOnUse">
<stop stop-color="#F6B3B6"/>
<stop offset="0.0588235" stop-color="#F6B3B6"/>
<stop offset="0.278431" stop-color="#E31F25"/>
<stop offset="0.521569" stop-color="#C12222"/>
<stop offset="0.690196" stop-color="#E31F25"/>
<stop offset="0.890196" stop-color="#F5AAA9"/>
<stop offset="1" stop-color="#F6B3B6"/>
</linearGradient>
</defs>
</svg>
