<svg width="195" height="94" viewBox="0 0 195 94" fill="none" xmlns="http://www.w3.org/2000/svg">
<path fill-rule="evenodd" clip-rule="evenodd" d="M60.2354 61.3153L72.6117 61.3149V65.3383L66.7244 65.3385L66.7253 93.7697L60.2364 93.77L60.2354 61.3153Z" fill="#0074BB"/>
<path fill-rule="evenodd" clip-rule="evenodd" d="M79.9503 81.5758L81.0623 65.3385H81.4336L82.5466 81.5758H79.9503ZM72.7656 93.769L79.1166 93.7688L79.7194 85.1445H82.7788L83.381 93.7686L89.732 93.7684L86.3476 61.3149L76.148 61.3151L72.7656 93.769Z" fill="#0074BB"/>
<path fill-rule="evenodd" clip-rule="evenodd" d="M99.0216 82.4047L99.0218 88.5174C99.0218 89.3515 99.6707 89.5835 100.042 89.5835C100.646 89.5835 101.062 89.0747 101.062 88.5174L101.061 80.9676C101.061 79.9477 100.875 78.8359 98.4647 78.8359L95.823 78.8361V75.2661L98.5587 75.2659C100.411 75.2659 101.061 74.8478 101.061 72.8564L101.061 66.4017C101.061 65.8447 100.645 65.336 100.041 65.336C99.67 65.336 99.02 65.5681 99.02 66.4017L99.0212 71.6962L92.5313 71.6964V67.1051C92.5311 64.8344 92.8087 61.3115 97.3534 61.3113L102.732 61.3112C107.278 61.311 107.555 64.8339 107.555 67.106L107.555 72.3C107.555 75.8218 105.099 76.7958 103.151 76.7028V77.028C107.508 76.9336 107.555 80.2727 107.555 81.4328L107.555 87.9684C107.555 90.2416 107.279 93.7655 102.733 93.7657L97.3545 93.7648C92.8098 93.765 92.5319 90.2421 92.5318 87.9702L92.5316 82.4049L99.0216 82.4047Z" fill="#0074BB"/>
<path fill-rule="evenodd" clip-rule="evenodd" d="M111.822 61.3115L126.846 61.3112L126.847 93.7657L120.358 93.7659L120.357 65.3347H118.315L118.316 93.7659L111.823 93.7663L111.822 61.3115Z" fill="#0074BB"/>
<path fill-rule="evenodd" clip-rule="evenodd" d="M137.605 79.1612L137.605 65.3361H138.439C139.135 65.3359 139.645 65.9377 139.645 66.9576L139.645 77.5378C139.645 78.5568 139.135 79.1612 138.439 79.1612H137.605ZM131.114 93.7652L137.606 93.7648L137.606 82.7286L141.313 82.7284C145.856 82.7284 146.135 79.2067 146.135 76.9338L146.135 67.1046C146.135 64.8341 145.855 61.311 141.312 61.3112L131.113 61.3115L131.114 93.7652Z" fill="#0074BB"/>
<path fill-rule="evenodd" clip-rule="evenodd" d="M158.931 88.5174C158.931 89.0745 158.515 89.5835 157.912 89.5835C157.542 89.5835 156.892 89.3515 156.892 88.5174L156.891 66.4017C156.891 65.5667 157.541 65.3347 157.911 65.3347C158.514 65.3345 158.931 65.8458 158.931 66.4017L158.931 88.5174ZM150.403 87.9702C150.403 90.2421 150.681 93.7661 155.223 93.7659L160.601 93.7657C165.144 93.7655 165.421 90.2416 165.42 87.9696L165.42 67.106C165.42 64.8349 165.143 61.311 160.601 61.3112L155.222 61.3113C150.68 61.3113 150.402 64.8355 150.402 67.1074L150.403 87.9702Z" fill="#0074BB"/>
<path fill-rule="evenodd" clip-rule="evenodd" d="M186.562 61.3113L194.999 61.3112L195 93.7657L188.511 93.7659L188.51 73.41H188.278L184.942 93.7661L179.748 93.7663L176.411 73.4103H176.178L176.178 93.7663L169.69 93.7666L169.688 61.3119L178.124 61.3117L182.346 84.1223L186.562 61.3113Z" fill="#0074BB"/>
<path fill-rule="evenodd" clip-rule="evenodd" d="M51.8187 16.9345C49.8319 8.23269 44.8513 1.15553 44.1646 0C43.0801 1.6243 39.1066 7.87141 37.0873 14.8053C34.8853 22.532 34.5593 29.3914 35.3189 36.1452C36.0766 42.8972 38.9304 49.8275 38.9304 49.8275C40.4461 53.467 42.7203 57.362 44.1981 59.2783C46.3676 56.4607 51.351 48.0603 52.9029 37.0822C53.767 30.9796 53.8045 25.637 51.8187 16.9345ZM44.1664 57.111C43.1888 55.2701 41.6741 51.772 41.5291 46.3624C41.4916 41.1282 43.5861 36.6501 44.1974 35.7111C44.7452 36.649 46.5484 40.5509 46.7615 45.8934C46.9103 51.1228 45.1768 55.2335 44.1664 57.111ZM51.2423 31.7042C51.1679 35.0231 50.7725 38.5248 50.2649 40.6215C50.4487 37.0113 50.0138 31.9199 49.1835 27.9468C48.3518 23.9755 46.0046 17.3326 44.1273 14.2611C42.3952 17.1856 40.2625 22.9286 39.1473 27.9109C38.0252 32.8941 37.99 38.9245 37.99 40.7301C37.6947 39.2073 36.9476 33.7739 37.1594 28.3088C37.3336 23.8004 38.3863 19.1726 38.9644 17.0422C41.1654 9.92906 43.6596 5.38167 44.1271 4.65842C44.5958 5.38167 47.7368 10.9771 49.3657 16.8638C50.9863 22.7483 51.3117 28.3805 51.2423 31.7042Z" fill="#0074BB"/>
<path fill-rule="evenodd" clip-rule="evenodd" d="M47.5388 61.3035L32.4294 61.304L32.4297 71.4449C32.4428 71.4305 32.4545 71.4178 32.4662 71.4024C36.0273 67.843 41.8001 67.8428 45.3605 71.402C48.9219 74.9637 48.9221 80.7382 45.3608 84.2977C45.3479 84.3121 45.3302 84.3261 45.3148 84.3415V84.3438C45.2971 84.3601 45.2785 84.3744 45.2608 84.3921C41.7112 87.9186 37.0702 89.6819 32.4303 89.6821C27.7691 89.6822 23.1089 87.9048 19.5521 84.3493C13.2858 78.0823 12.5424 68.3865 17.3198 61.3054C17.9641 60.3479 18.7071 59.4374 19.5514 58.5916C23.1079 55.0369 27.768 53.2604 32.4292 53.2604L32.4285 28.8857C14.5173 28.8863 -0.000531196 43.4067 1.45774e-08 61.306C0.000531226 79.2155 14.5194 93.7341 32.4304 93.7336C41.7693 93.7332 50.1798 89.785 56.0964 83.4693L56.0957 61.3031L47.5388 61.3035Z" fill="#0074BB"/>
</svg>
