<svg width="226" height="66" viewBox="0 0 226 66" fill="none" xmlns="http://www.w3.org/2000/svg">
<path d="M0 0.77002H226V65.77H0V0.77002Z" fill="#FCEB0B"/>
<path d="M39.6725 13.123H57.4948V15.9725L44.4863 32.7152H57.8131V36.5733H39V33.7593L51.9549 16.9814H39.6725V13.123Z" fill="#252523"/>
<path d="M69.5473 13.0708H73.1756L83.0865 36.5742H78.6973L76.2546 30.5743H66.2554L63.8129 36.5742H59.6719L69.5473 13.0708ZM67.8124 26.7166H74.6795L71.2639 18.3805L67.8124 26.7166Z" fill="#252523"/>
<path d="M84.8736 19.2298C84.8736 15.7078 87.6171 12.77 92.1834 12.77C95.068 12.77 97.4751 13.7438 98.8732 15.2835L96.6609 18.3624C95.5281 17.2474 94.3952 16.6104 92.5192 16.6104C90.4663 16.6104 89.2453 17.6545 89.2453 19.1941C89.2453 24.0436 99.8638 22.504 99.8638 30.309C99.8638 34.2557 96.4131 36.9457 92.0239 36.9457C89.0152 36.9457 85.4932 35.6364 84.3604 33.2642L86.6965 30.4505C88.0773 32.2202 90.289 33.0876 92.0945 33.0876C94.0414 33.0876 95.5101 32.1145 95.5101 30.3442C95.4927 25.7253 84.8736 26.8579 84.8736 19.2298Z" fill="#252523"/>
<path d="M104.13 36.5736V13.1236C105.439 13.1236 109.156 13.0527 110.802 13.0527C117.704 13.0527 119.881 16.7342 119.881 20.5926C119.881 24.5747 116.908 28.2024 111.298 28.2024C110.607 28.2024 109.262 28.2024 108.253 28.0967V36.5736H104.13ZM108.236 16.982V24.1852C109.209 24.2915 110.218 24.3447 111.156 24.3447C113.598 24.3447 115.51 23.1765 115.51 20.5569C115.51 18.1143 114.005 16.9111 111.191 16.9111C110.36 16.9111 109.351 16.9465 108.236 16.982Z" fill="#252523"/>
<path d="M134.411 12.77C141.367 12.77 146.64 17.5664 146.64 24.8579C146.64 31.8844 141.384 36.9457 134.411 36.9457C127.438 36.9457 122.217 32.1496 122.217 24.8579C122.217 18.044 127.208 12.77 134.411 12.77ZM134.411 33.0876C139.331 33.0876 142.287 29.4774 142.287 24.8579C142.287 19.9909 138.836 16.6102 134.411 16.6102C129.916 16.6102 126.57 19.9909 126.57 24.8579C126.57 29.5479 130.022 33.0876 134.411 33.0876Z" fill="#252523"/>
<path d="M150.34 36.5736V13.1236C151.632 13.1236 156.8 13.0527 157.473 13.0527C163.861 13.0527 165.967 16.2383 165.967 20.2916C165.967 24.3089 163.401 26.3264 161.454 26.9992L168.781 36.5736H163.79L157.331 27.7952H154.446V36.5736H150.34ZM154.463 16.982V23.955H157.154C159.526 23.955 161.631 22.7512 161.631 20.3442C161.631 18.5039 160.623 16.9285 157.277 16.9285C156.516 16.9111 155.579 16.9465 154.463 16.982Z" fill="#252523"/>
<path d="M168.162 13.123H187.488V16.9814H179.878V36.5733H175.755V16.9814H168.162V13.123Z" fill="#252523"/>
<path d="M39.5788 50.0417C39.5788 49.1211 40.2979 48.3491 41.4905 48.3491C42.2448 48.3491 42.876 48.6037 43.2446 49.0072L42.6657 49.814C42.3677 49.5243 42.0694 49.3577 41.5783 49.3577C41.0434 49.3577 40.7188 49.6294 40.7188 50.0329C40.7188 51.3046 43.4989 50.9011 43.4989 52.9447C43.4989 53.9793 42.5955 54.681 41.4468 54.681C40.6577 54.681 39.7368 54.339 39.4385 53.7161L40.0522 52.9798C40.412 53.4444 40.9906 53.6724 41.4646 53.6724C41.9731 53.6724 42.3589 53.4181 42.3589 52.9529C42.3589 51.7429 39.5788 52.0415 39.5788 50.0417Z" fill="#32302D"/>
<path d="M52.9129 49.4537V51.3392C53.1672 51.3658 53.4304 51.3829 53.6758 51.3829C54.3161 51.3829 54.8158 51.0764 54.8158 50.3923C54.8158 49.7523 54.4213 49.4363 53.6847 49.4363C53.4652 49.4363 53.2024 49.4448 52.9129 49.4537ZM51.834 54.5845V48.4454C52.1761 48.4454 53.1495 48.4277 53.5792 48.4277C55.3859 48.4277 55.9558 49.3926 55.9558 50.4012C55.9558 51.4447 55.1752 52.3915 53.7109 52.3915C53.527 52.3915 53.1758 52.3915 52.9129 52.3652V54.5845H51.834Z" fill="#32302D"/>
<path d="M66.9134 53.6724C68.2023 53.6724 68.9744 52.7252 68.9744 51.5149C68.9744 50.2437 68.0709 49.3577 66.9134 49.3577C65.7383 49.3577 64.861 50.2437 64.861 51.5149C64.861 52.743 65.7642 53.6724 66.9134 53.6724ZM66.9134 48.3491C68.7374 48.3491 70.1144 49.6032 70.1144 51.5149C70.1144 53.3566 68.7374 54.681 66.9134 54.681C65.0891 54.681 63.7207 53.4266 63.7207 51.5149C63.7207 49.7348 65.0279 48.3491 66.9134 48.3491Z" fill="#32302D"/>
<path d="M79.5369 49.4537V51.2784H80.2383C80.8613 51.2784 81.4135 50.9623 81.4135 50.3309C81.4135 49.8486 81.1507 49.4363 80.2732 49.4363C80.0718 49.4363 79.8263 49.4448 79.5369 49.4537ZM78.458 54.5845V48.4454C78.8 48.4454 80.1509 48.4277 80.326 48.4277C82.0013 48.4277 82.5538 49.2609 82.5538 50.3217C82.5538 51.3747 81.8781 51.9003 81.3698 52.0761L83.2904 54.5845H81.9835L80.2909 52.287H79.5369V54.5845H78.458Z" fill="#32302D"/>
<path d="M90.248 48.4456H95.3088V49.4539H93.3176V54.5846H92.239V49.4539H90.248V48.4456Z" fill="#32302D"/>
<path d="M105.091 50.1905C105.389 50.1905 105.609 49.954 105.609 49.6823C105.609 49.3928 105.372 49.1649 105.091 49.1649C104.802 49.1649 104.574 49.3837 104.574 49.6823C104.574 49.954 104.793 50.1905 105.091 50.1905ZM106.24 53.1376L104.995 51.4364C104.407 51.9098 104.118 52.2515 104.118 52.7167C104.118 53.2515 104.539 53.6724 105.074 53.6724C105.617 53.6724 105.994 53.4703 106.24 53.1376ZM106.845 53.9441C106.503 54.3213 105.968 54.681 105.038 54.681C103.793 54.681 102.978 53.9356 102.978 52.9184C102.978 51.892 103.609 51.366 104.337 50.8574C103.916 50.6554 103.635 50.2606 103.635 49.6823C103.635 48.8491 104.328 48.3491 105.091 48.3491C105.854 48.3491 106.547 48.8491 106.547 49.6823C106.547 50.226 106.188 50.7254 105.758 50.8657L106.951 52.4186C107.161 52.0061 107.363 51.4269 107.363 50.638H108.363C108.363 51.6115 108.055 52.5586 107.556 53.2249L108.617 54.5847H107.363L106.845 53.9441Z" fill="#32302D"/>
<path d="M121.626 53.9878C121.24 54.4004 120.459 54.681 119.661 54.681C117.784 54.681 116.495 53.4266 116.495 51.5149C116.495 49.7526 117.609 48.3491 119.635 48.3491C120.433 48.3491 121.099 48.6037 121.503 48.9717L121.021 49.77C120.652 49.5243 120.249 49.3577 119.635 49.3577C118.495 49.3577 117.635 50.182 117.635 51.5149C117.635 52.7952 118.503 53.6724 119.758 53.6724C120.275 53.6724 120.792 53.5061 121.213 53.1815L121.626 53.9878Z" fill="#32302D"/>
<path d="M131.092 52.0058H132.89L131.996 49.8223L131.092 52.0058ZM131.549 48.4277H132.495L135.091 54.5845H133.943L133.303 53.0144H130.68L130.04 54.5845H128.952L131.549 48.4277Z" fill="#32302D"/>
<path d="M142.786 50.0417C142.786 49.1211 143.505 48.3491 144.698 48.3491C145.452 48.3491 146.084 48.6037 146.452 49.0072L145.873 49.814C145.574 49.5243 145.277 49.3577 144.786 49.3577C144.251 49.3577 143.926 49.6294 143.926 50.0329C143.926 51.3046 146.706 50.9011 146.706 52.9447C146.706 53.9793 145.803 54.681 144.654 54.681C143.864 54.681 142.944 54.339 142.646 53.7161L143.26 52.9798C143.62 53.4444 144.198 53.6724 144.672 53.6724C145.18 53.6724 145.566 53.4181 145.566 52.9529C145.566 51.7429 142.786 52.0415 142.786 50.0417Z" fill="#32302D"/>
<path d="M160.006 52.0414C160.006 53.9177 158.857 54.6809 157.568 54.6809C156.042 54.6809 154.954 53.7774 154.954 51.9799V48.4456H156.033V51.7516C156.033 52.9005 156.506 53.6723 157.568 53.6723C158.497 53.6723 158.936 53.0146 158.936 51.8216V48.4456H160.006V52.0414Z" fill="#32302D"/>
<path d="M170.076 52.0058H171.874L170.98 49.8223L170.076 52.0058ZM170.533 48.4277H171.479L174.075 54.5845H172.927L172.287 53.0144H169.664L169.024 54.5845H167.937L170.533 48.4277Z" fill="#32302D"/>
<path d="M182.086 48.4456H183.165V53.576H185.927V54.5846H182.086V48.4456Z" fill="#32302D"/>
</svg>
