<svg width="157" height="90" viewBox="0 0 157 90" fill="none" xmlns="http://www.w3.org/2000/svg">
<path d="M76.9692 80.7819V71.9782H71.5744V89.346H76.5785L82.4214 80.6176V89.346H87.8171V71.9782H82.8125L76.9692 80.7819ZM45.8662 78.9989C45.8662 79.632 45.5398 80.8516 43.8926 80.8516H41.9803V76.2555H44.1253C44.7005 76.2555 45.8662 76.7159 45.8662 78.0704V78.9989ZM44.7069 71.9788L36.2884 71.9782V89.346H41.9803V85.0837H44.7069C48.3905 85.0837 51.4036 83.0918 51.4036 79.5454V77.5171C51.4036 73.9719 48.3905 71.9788 44.7069 71.9788ZM125.339 81.169C125.339 83.8127 124.629 84.1979 123.615 84.657C123.168 84.8571 121.969 84.8132 121.969 84.8132V89.346H124.2C128.991 89.346 130.76 86.6132 130.833 80.4821C130.849 79.0942 130.818 77.728 130.833 76.5096H134.026V89.346H139.719V71.9782H125.339V81.169ZM28.6387 83.5052C28.6387 84.6551 27.6793 85.5962 26.507 85.5962H26.0226C24.8503 85.5962 23.8915 84.6551 23.8915 83.5052V77.8729C23.8915 76.7228 24.8503 75.7812 26.0226 75.7812H26.507C27.6793 75.7812 28.6387 76.7228 28.6387 77.8729V83.5052ZM27.6595 71.6953H24.87C21.1871 71.6953 18.1741 74.2699 18.1741 78.2668V83.1163C18.1741 87.132 21.1871 89.6885 24.87 89.6885H27.6595C31.3425 89.6885 34.356 87.1062 34.356 83.1163V78.2668C34.356 74.0603 31.3425 71.6953 27.6595 71.6953ZM106.565 71.9782H100.407L97.4028 78.5447H95.9966V71.9782H90.3048V89.346H95.9966V83.1739H97.3944L100.465 89.346H106.999L102.174 80.5843L106.565 71.9782ZM113.621 82.7555H120.038V78.6249H113.621V76.5096H120.618V71.9782H107.929V89.346H121.14V84.8132H113.621V82.7555ZM149.72 85.0686H147.575V81.2787H149.488C151.095 81.2787 151.462 82.4388 151.462 83.1903C151.462 84.7455 150.155 85.0686 149.72 85.0686ZM150.302 77.046H147.575V71.9782H141.884V89.346H150.302C153.986 89.346 157 87.3534 157 83.8075V82.5843C157 79.0391 153.986 77.046 150.302 77.046ZM63.3937 78.4055H58.5367V71.9782H52.8448V89.346H58.5367V83.1739H63.3937V89.346H69.0863V71.9782H63.3937V78.4055ZM10.5495 78.4055H5.69183V71.9782H0V89.346H5.69183V83.1739H10.5495V89.346H16.2419V71.9782H10.5495V78.4055Z" fill="#626261"/>
<path d="M63.7003 35.3002L90.2407 52.8718V18.3434L63.7003 0.771606V35.3002Z" fill="#00589C"/>
<path d="M63.7002 0.771606C49.0409 0.771606 37.1586 12.4349 37.1586 26.8222C37.1586 41.2093 49.0409 52.8725 63.7002 52.8725V0.771606Z" fill="#0080C8"/>
<path d="M90.2412 52.8716C104.899 52.8716 116.782 41.2084 116.782 26.8211C116.782 12.434 104.899 0.77002 90.2412 0.77002V52.8716Z" fill="#0080C8"/>
</svg>
