<svg width="465" height="220" viewBox="0 0 465 220" fill="none" xmlns="http://www.w3.org/2000/svg">
<mask id="mask0" mask-type="alpha" maskUnits="userSpaceOnUse" x="0" y="0" width="465" height="220">
<rect width="465" height="220" rx="4" fill="#A884E4"/>
</mask>
<g mask="url(#mask0)">
<path opacity="0.15" d="M125.739 168.932C63.7521 156.398 15.9657 158.782 -11.7923 161.78C-17.2314 177.078 -24.8461 209.344 -11.7923 216.019C4.52502 224.364 151.381 227.94 251.616 232.112C331.804 235.45 681.305 238.867 834.377 232.112C850.694 206.483 873.538 126.494 834.377 126.018C785.425 125.421 671.099 140.012 591.734 173.986C488.002 218.391 447.209 158.186 331.822 151.332C265.819 147.411 187.836 181.489 125.739 168.932Z" fill="white"/>
<path opacity="0.15" d="M124.51 176.558C74.0029 171.08 29.7122 176.163 -3.77582 176.558C-9.22736 191.761 -16.8595 223.826 -3.77582 230.461C12.5788 238.753 159.77 242.307 260.234 246.454C340.605 249.771 690.906 237.174 844.327 230.461C860.682 204.99 883.578 141.491 844.327 141.017C795.264 140.425 680.676 154.925 601.13 188.688C497.161 232.817 332.447 222.155 274.037 206.754C226.965 194.343 189.928 183.653 124.51 176.558Z" fill="white"/>
</g>
</svg>
