<svg width="22" height="22" viewBox="0 0 22 22" fill="none" xmlns="http://www.w3.org/2000/svg">
<g clip-path="url(#clip0)">
<path d="M10.053 16.4062L6.7553 15.3069L5.78859 15.3015L4.09764 20.1598C4.04375 20.3145 4.16914 20.4728 4.33212 20.4557L6.7024 20.2075C6.76862 20.2006 6.83445 20.2235 6.88206 20.27L8.58598 21.9363C8.70311 22.0508 8.89965 22.0047 8.95349 21.8499L10.6555 16.9599L10.053 16.4062Z" fill="#0083FD"/>
<path d="M10.6559 16.9596L10.9999 15.9716L6.13195 14.3162L5.78906 15.3013C7.17136 16.2877 8.84508 16.8915 10.6559 16.9596Z" fill="#0072FC"/>
<path d="M11.9452 16.4062L15.2429 15.3069L16.2096 15.3015L17.9006 20.1598C17.9545 20.3145 17.8291 20.4728 17.6661 20.4557L15.2959 20.2075C15.2296 20.2006 15.1638 20.2235 15.1162 20.27L13.4123 21.9363C13.2952 22.0509 13.0986 22.0047 13.0448 21.8499L11.3428 16.9599L11.9452 16.4062Z" fill="#0083FD"/>
<path d="M11.3439 16.9596L11 15.9716L15.8679 14.3162L16.2108 15.3013C14.8285 16.2877 13.1548 16.8915 11.3439 16.9596Z" fill="#0072FC"/>
<path d="M10.9996 15.3014C3.02379 15.3014 3.01717 7.71667 3.02379 7.58334C3.23343 3.3599 6.72417 0 10.9996 0C15.2751 0 18.7659 3.3599 18.9755 7.58334C18.9821 7.71667 18.9755 15.3014 10.9996 15.3014Z" fill="#FF9838"/>
<path d="M10.9995 15.1666C6.72402 15.1666 3.23341 11.8067 3.02373 7.58325C3.01711 7.71658 3.01367 7.85078 3.01367 7.98574C3.01367 12.3962 6.58906 15.9716 10.9995 15.9716C15.4099 15.9716 18.9853 12.3962 18.9853 7.98574C18.9853 7.85078 18.9819 7.71658 18.9753 7.58325C18.7656 11.8067 15.275 15.1666 10.9995 15.1666Z" fill="#FF8709"/>
<path d="M17.2903 7.98596C17.2903 10.6798 14.4736 13.8904 10.9991 13.8904C7.52465 13.8904 4.70801 10.5032 4.70801 7.98596C4.70801 7.85074 4.71226 7.71655 4.72068 7.58343C4.92822 4.2965 7.65987 1.69482 10.9991 1.69482C14.3384 1.69482 17.0701 4.2965 17.2776 7.58343C17.286 7.71655 17.2903 7.85074 17.2903 7.98596Z" fill="#CE7430"/>
<path d="M10.9991 13.4719C7.65992 13.4719 4.92878 10.8701 4.7212 7.58325C4.71278 7.71637 4.70801 7.85048 4.70801 7.98574C4.70801 11.4602 7.52465 14.2769 10.9991 14.2769C14.4736 14.2769 17.2903 11.4602 17.2903 7.98574C17.2903 7.85048 17.2855 7.71637 17.2771 7.58325C17.0695 10.8701 14.3384 13.4719 10.9991 13.4719Z" fill="#BC672E"/>
<path d="M11.008 11.7227C9.65306 11.7227 8.79093 10.7887 8.62499 9.68056C8.60991 9.57976 8.60514 9.36341 8.60514 9.36341C8.72051 9.06946 9.00677 8.86132 9.34162 8.86132C9.7784 8.86132 10.1325 9.21538 10.1325 9.6522C10.1325 10.135 10.5252 10.5277 11.008 10.5277C11.4907 10.5277 11.8835 10.135 11.8835 9.6522C11.8835 9.50706 11.848 9.37007 11.7853 9.24942C11.7853 9.24942 11.7259 8.50365 11.0504 8.50365C10.3727 8.50365 10.3274 7.58292 10.3274 7.58292C10.4652 7.35067 10.7184 7.195 11.008 7.195C11.4908 7.195 11.8836 6.80226 11.8836 6.31951C11.8836 5.83676 11.4908 5.44402 11.008 5.44402C10.5253 5.44402 10.1325 5.83676 10.1325 6.31951C10.1325 6.75633 9.77844 7.11039 9.34166 7.11039C8.90489 7.11039 8.55078 6.75633 8.55078 6.31951C8.55078 4.96462 9.6531 3.8623 11.008 3.8623C12.3629 3.8623 13.4652 4.96462 13.4652 6.31951C13.4652 6.96198 13.2175 7.54756 12.8124 7.98588C13.1311 8.33075 13.3525 8.76679 13.4324 9.24997C13.4324 9.24997 13.4348 9.51518 13.4118 9.65023C13.2158 10.8027 12.3629 11.7227 11.008 11.7227Z" fill="#FFAA5C"/>
<path d="M11.0076 7.9716C10.718 7.9716 10.4655 7.81546 10.3277 7.58325C10.2577 7.70124 10.2168 7.83857 10.2168 7.98574C10.2168 8.42256 10.5709 8.77662 11.0077 8.77662C11.3453 8.77662 11.6383 8.96904 11.7843 9.24967C11.8471 9.12901 11.8832 8.99233 11.8832 8.84718C11.8832 8.36434 11.4904 7.9716 11.0076 7.9716Z" fill="#EA9957"/>
<path d="M11.008 11.3044C9.8303 11.3044 8.84383 10.4713 8.60587 9.36365C8.57076 9.45311 8.55078 9.55022 8.55078 9.65219C8.55078 11.0071 9.6531 12.1095 11.008 12.1095C12.363 12.1095 13.4653 11.0071 13.4653 9.65219C13.4653 9.51516 13.4534 9.38097 13.4317 9.25C13.2389 10.4139 12.2258 11.3044 11.008 11.3044Z" fill="#EA9957"/>
</g>
<defs>
<clipPath id="clip0">
<rect width="22" height="22" fill="white"/>
</clipPath>
</defs>
</svg>
