<svg width="46" height="50" viewBox="0 0 46 50" fill="none" xmlns="http://www.w3.org/2000/svg">
<path d="M42.3374 17.8848H41.1368V12.0918C41.1368 12.0554 41.1311 12.0193 41.1263 11.9823C41.1244 11.7523 41.0511 11.5264 40.8936 11.3476L31.2535 0.335132C31.2505 0.332305 31.2477 0.331302 31.2458 0.328475C31.1883 0.264276 31.1214 0.210655 31.0504 0.164694C31.0295 0.150376 31.0083 0.138613 30.9864 0.126484C30.9251 0.0931987 30.8599 0.0652026 30.7929 0.0450491C30.7747 0.0403071 30.7584 0.0328293 30.7403 0.0279049C30.6674 0.0107607 30.5919 0 30.5153 0H6.82309C5.74127 0 4.86236 0.879916 4.86236 1.96082V17.8842H3.6619C2.11427 17.8842 0.859375 19.1387 0.859375 20.6866V35.26C0.859375 36.8072 2.11427 38.0629 3.6619 38.0629H4.86236V48.0393C4.86236 49.1203 5.74127 50 6.82309 50H39.176C40.2569 50 41.1367 49.1203 41.1367 48.0393V38.063H42.3373C43.8845 38.063 45.1396 36.8078 45.1396 35.2606V20.6871C45.1397 19.1392 43.8846 17.8848 42.3374 17.8848ZM6.82309 1.96128H29.5349V11.993C29.5349 12.5347 29.9742 12.9734 30.5153 12.9734H39.1761V17.8851H6.82309V1.96128ZM31.5171 30.6267C32.2323 30.6267 33.0261 30.4716 33.4929 30.2839L33.85 32.1352C33.4152 32.3519 32.4357 32.5865 31.1604 32.5865C27.5357 32.5865 25.6703 30.3313 25.6703 27.3455C25.6703 23.7684 28.2208 21.7778 31.3937 21.7778C32.6216 21.7778 33.5554 22.0274 33.9754 22.2446L33.4934 24.1268C33.0113 23.9238 32.343 23.738 31.5025 23.738C29.6202 23.738 28.1591 24.8728 28.1591 27.2058C28.1586 29.3035 29.4028 30.6267 31.5171 30.6267ZM24.5956 27.0814C24.5956 30.518 22.5115 32.6019 19.4483 32.6019C16.3375 32.6019 14.5179 30.2529 14.5179 27.2676C14.5179 24.1263 16.5237 21.7773 19.6192 21.7773C22.8395 21.7773 24.5956 24.1886 24.5956 27.0814ZM4.17513 32.3846V22.0887C5.0462 21.949 6.18127 21.8721 7.37872 21.8721C9.36945 21.8721 10.6599 22.2293 11.6698 22.9916C12.7591 23.7999 13.4439 25.091 13.4439 26.9413C13.4439 28.9469 12.7128 30.3319 11.7017 31.1868C10.5973 32.104 8.91778 32.5402 6.8644 32.5402C5.63686 32.5397 4.76588 32.4616 4.17513 32.3846ZM39.1761 47.5083H6.82309V38.063H39.176V47.5083H39.1761ZM40.9736 32.4305L40.0243 30.5333C39.6356 29.8027 39.3867 29.2575 39.0914 28.6515H39.0602C38.8424 29.2585 38.5787 29.8027 38.2521 30.5333L37.381 32.4305H34.6749L37.7074 27.1269L34.7843 21.9485H37.5063L38.4235 23.8621C38.7348 24.4985 38.9673 25.0124 39.2164 25.6031H39.2469C39.4958 24.9345 39.6988 24.4681 39.9622 23.8621L40.8486 21.9485H43.5555L40.6003 27.0646L43.7104 32.4305H40.9736Z" fill="#01499B"/>
<path d="M10.9248 27.0182C10.9398 24.8415 9.66507 23.6902 7.6282 23.6902C7.09865 23.6902 6.75713 23.7371 6.55469 23.7838V30.6415C6.75768 30.6879 7.08415 30.6879 7.3797 30.6879C9.52582 30.7043 10.9248 29.5229 10.9248 27.0182Z" fill="#01499B"/>
<path d="M17.0234 27.2202C17.0234 29.2734 17.9878 30.7195 19.574 30.7195C21.176 30.7195 22.0925 29.1963 22.0925 27.1589C22.0925 25.2766 21.191 23.6592 19.5572 23.6592C17.9557 23.6596 17.0234 25.1838 17.0234 27.2202Z" fill="#01499B"/>
</svg>
