<svg width="70" height="95" viewBox="0 0 70 95" fill="none" xmlns="http://www.w3.org/2000/svg">
<g clip-path="url(#clip0)">
<path d="M66.6447 57.0993C65.5549 56.0413 64.2047 55.3251 62.7515 54.9976C62.469 51.6486 61.6253 48.3952 60.265 45.3046C59.5263 43.626 58.6161 42.0268 57.5565 40.5354C56.947 39.6788 56.285 38.865 55.621 38.0511C55.5625 37.9799 55.0963 37.3675 55.3627 37.7317C55.2113 37.5262 55.0599 37.3227 54.9126 37.1132C54.628 36.7083 54.3556 36.2953 54.0952 35.8741C53.6048 35.0785 53.1607 34.2545 52.7672 33.4061C52.6764 33.2087 52.5593 33.0032 52.4947 32.7957C52.6602 33.3288 52.4624 32.7123 52.4079 32.5678C52.2445 32.1466 52.0931 31.7234 51.9538 31.2941C51.7056 30.5312 51.4977 29.7539 51.3262 28.9686C51.2454 28.5983 51.1748 28.2259 51.1102 27.8515C51.084 27.6928 51.0577 27.5341 51.0335 27.3734C51.0275 27.3327 51.0234 27.29 51.0174 27.2452C51.0113 27.2167 51.0073 27.1883 51.0032 27.1659V27.1638C50.9992 27.1435 50.9972 27.1232 50.9931 27.1048C50.9952 27.115 50.9972 27.1211 50.9992 27.1313C50.7409 24.9461 50.7913 22.7589 50.9467 20.5696C51.1223 18.0752 50.7832 15.5115 49.9295 13.1493C50.8438 12.8116 51.6874 12.2704 52.3837 11.5094C53.9297 9.82271 54.5291 7.53986 54.0447 5.2977C53.0901 0.876455 47.6065 -1.37384 43.8788 1.18775C42.8414 1.90191 41.9917 2.8887 41.4528 4.01792C36.9562 1.96702 31.5069 1.85918 26.984 3.75342C26.5803 3.92229 26.1888 4.10134 25.8073 4.29259C25.4662 3.39736 24.9375 2.5713 24.2371 1.89784C22.5438 0.268102 20.0916 -0.385014 17.8211 0.225374C15.5727 0.831693 13.7482 2.66896 13.1165 4.92129C12.4707 7.22042 13.1327 9.73929 14.7634 11.4565C15.5667 12.3009 16.6525 12.9581 17.7807 13.2633C17.5829 13.8228 17.4154 14.3905 17.2802 14.9642C16.8987 16.5777 16.6687 18.3234 16.7696 19.9857C16.8947 22.0203 17.0461 24.0285 16.8947 26.0692C16.8685 26.409 16.8382 26.7467 16.7998 27.0845C16.7938 27.1394 16.7776 27.2269 16.7635 27.3042C16.7716 27.2615 16.7837 27.2106 16.7958 27.1496C16.7534 27.347 16.7373 27.5545 16.705 27.7539C16.5778 28.5311 16.4164 29.3022 16.2146 30.0612C15.9905 30.9076 15.7221 31.7397 15.4052 32.5556C15.377 32.6289 15.3467 32.7021 15.3184 32.7733C15.2559 32.7998 15.0843 33.3064 15.052 33.3735C14.8381 33.8354 14.608 34.2891 14.3618 34.7347C13.8855 35.6014 13.3527 36.4377 12.7694 37.2353C12.7553 37.2536 12.7149 37.3105 12.6765 37.3614C12.6321 37.4204 12.5615 37.514 12.5413 37.5384C12.3799 37.7419 12.2164 37.9392 12.0509 38.1386C11.7421 38.5049 11.4373 38.8752 11.1447 39.2536C9.90952 40.8467 8.80755 42.5253 7.92154 44.3422C6.12932 48.0106 5.08185 52.027 4.90626 56.1085C2.35115 57.2031 0.445911 59.6752 0.0725332 62.4748C-0.371483 65.8096 1.24716 69.2623 4.26647 70.827C5.6187 71.5289 7.11625 71.8463 8.60774 71.7527C11.3546 76.6684 15.486 80.6013 20.4024 83.2321C19.8272 84.5709 19.6072 86.05 19.807 87.5455C20.1078 89.7999 21.2884 91.7185 23.0847 93.0756C24.8567 94.4164 27.0869 94.8233 29.2464 94.4876C31.3696 94.158 33.2063 92.8498 34.4495 91.1244C34.7603 90.6931 35.0207 90.2271 35.2326 89.7388C35.3456 89.9443 35.4707 90.1478 35.6039 90.3411C36.8048 92.0807 38.6212 93.4439 40.7243 93.8203C42.8636 94.2028 45.1422 93.8508 46.9304 92.5466C48.6439 91.2973 49.9517 89.4601 50.2928 87.3237C50.5875 85.4803 50.313 83.6085 49.4795 81.9991C53.6956 79.2727 57.2134 75.4333 59.5324 70.9572C60.8564 71.2176 62.2328 71.1667 63.5346 70.7069C65.3349 70.0701 66.8425 68.8981 67.8718 67.2725C69.8881 64.0903 69.325 59.6996 66.6447 57.0993Z" fill="black"/>
<path d="M48.5485 85.8159C48.5485 85.8037 48.5485 85.7468 48.5485 85.7325C49.2871 85.5189 49.2104 84.6847 48.4233 84.6338C48.4173 84.6094 48.4132 84.5829 48.4072 84.5585C49.1075 84.2167 48.8774 83.3907 48.0822 83.4985C48.0722 83.4761 48.0641 83.4517 48.054 83.4293C48.6817 82.9593 48.3063 82.1882 47.5414 82.4466C47.5272 82.4262 47.5131 82.4039 47.499 82.3835C47.7977 82.0539 47.7613 81.6938 47.5494 81.5147C47.396 81.8036 46.9964 81.8301 46.6533 81.4456C46.6311 81.4578 46.6109 81.47 46.5887 81.4801C46.7825 82.2472 46.1366 82.5483 45.6523 81.9603C45.6301 81.9705 45.6079 81.9807 45.5877 81.9929C45.7471 82.7477 45.1013 83.0509 44.6351 82.4364C44.6129 82.4466 44.5907 82.4568 44.5685 82.4669C44.6916 83.2238 44.0377 83.5005 43.5977 82.8657C43.5755 82.8739 43.5513 82.884 43.527 82.8922C43.6158 83.6491 42.9559 83.8912 42.5421 83.2523C42.5179 83.2604 42.4937 83.2706 42.4695 83.2788C42.526 84.0356 41.86 84.2472 41.4725 83.5941C41.4462 83.6023 41.422 83.6084 41.3958 83.6165C41.42 84.3978 40.7419 84.5463 40.3887 83.8912C40.3624 83.8973 40.3362 83.9054 40.3099 83.9115C40.2958 84.6745 39.6258 84.8251 39.2928 84.1394C39.2665 84.1455 39.2403 84.1496 39.214 84.1557C39.1696 84.9024 38.4955 85.055 38.1867 84.3408C38.1605 84.3449 38.1343 84.349 38.108 84.353C38.0354 85.0997 37.3451 85.2157 37.0727 84.4955C37.0464 84.4975 37.0222 84.5016 36.996 84.5036C36.893 85.2584 36.1947 85.3236 35.9546 84.6013C35.9303 84.6033 35.9041 84.6053 35.8799 84.6074C35.8577 84.7335 35.8193 84.8352 35.7709 84.9207C35.8456 85.055 35.9808 85.175 36.1846 85.2483C36.1826 85.2747 36.1806 85.2991 36.1786 85.3256C35.4116 85.4619 35.4016 86.3063 36.1826 86.4345C36.1846 86.4609 36.1887 86.4874 36.1907 86.5138C35.4702 86.7844 35.6155 87.6186 36.4006 87.6003C36.4087 87.6267 36.4167 87.6532 36.4248 87.6796C35.7729 88.0906 36.0716 88.8679 36.8365 88.7031C36.8486 88.7275 36.8628 88.7519 36.8769 88.7783C36.3239 89.2992 36.7538 90.0134 37.4783 89.7021C37.4965 89.7244 37.5126 89.7448 37.5308 89.7672C37.0787 90.3938 37.6499 91.0022 38.2977 90.5566C38.3179 90.5749 38.3401 90.5912 38.3603 90.6075C38.0273 91.3115 38.7054 91.8079 39.2625 91.2382C39.2847 91.2504 39.3069 91.2626 39.3311 91.2769C39.1293 92.0399 39.8962 92.3979 40.3362 91.7285C40.3604 91.7367 40.3846 91.7448 40.4088 91.753C40.3544 92.5383 41.1717 92.7479 41.4785 92.0093C41.5048 92.0134 41.531 92.0175 41.5572 92.0195C41.6581 92.8008 42.4876 92.8374 42.6531 92.0683C42.6814 92.0663 42.7076 92.0643 42.7359 92.0643C42.9862 92.813 43.7995 92.6746 43.8197 91.9056C43.8479 91.8995 43.8742 91.8913 43.9024 91.8832C44.2879 92.5627 45.0629 92.2759 44.9338 91.5129C44.96 91.5007 44.9842 91.4885 45.0105 91.4763C45.517 92.0704 46.2295 91.6411 45.951 90.9106C45.9732 90.8944 45.9954 90.8801 46.0156 90.8638C46.6352 91.3644 47.2487 90.7865 46.8329 90.1253C46.8511 90.107 46.8673 90.0886 46.8834 90.0683C47.5797 90.4488 48.1044 89.7712 47.5535 89.1873C47.5656 89.167 47.5797 89.1466 47.5938 89.1263C48.3749 89.3806 48.7261 88.5891 48.0923 88.1354C48.1004 88.113 48.1105 88.0906 48.1186 88.0662C48.9117 88.1639 49.1459 87.3358 48.4274 87.0001C48.4314 86.9757 48.4375 86.9492 48.4415 86.9248C49.2326 86.8536 49.2851 86.0153 48.5485 85.8159Z" fill="#75C4F4"/>
<path d="M22.784 82.2839C22.79 82.3079 22.796 82.3318 22.804 82.3558C22.806 82.3358 22.808 82.3159 22.812 82.2959C22.802 82.2939 22.792 82.2899 22.784 82.2839Z" fill="#D55849"/>
<path d="M34.0152 86.4529C34.0152 86.4407 34.0152 86.3837 34.0152 86.3694C34.7519 86.1558 34.6792 85.3216 33.8901 85.2707C33.884 85.2463 33.88 85.2199 33.8739 85.1955C33.9123 85.1772 33.9466 85.1568 33.9789 85.1344C33.8618 85.0429 33.7629 84.8903 33.7105 84.6746C33.6862 84.6746 33.66 84.6746 33.6358 84.6726C33.44 85.4355 32.7377 85.3969 32.5883 84.64C32.5641 84.638 32.5399 84.638 32.5157 84.6359C32.2957 85.3745 31.5873 85.3481 31.4682 84.5586C31.444 84.5566 31.4218 84.5546 31.3975 84.5525C31.1513 85.2809 30.4328 85.2321 30.3521 84.4345C30.3299 84.4325 30.3077 84.4284 30.2855 84.4243C30.007 85.1609 29.2864 85.0469 29.242 84.2616C29.2198 84.2575 29.1997 84.2534 29.1775 84.2494C28.8707 84.9757 28.1542 84.8333 28.1401 84.0439C28.1179 84.0398 28.0977 84.0357 28.0755 84.0296C27.7405 84.7519 27.03 84.5749 27.0482 83.7814C27.028 83.7753 27.0058 83.7712 26.9856 83.7651C26.6123 84.4874 25.918 84.2616 25.9684 83.4762C25.9483 83.4701 25.9261 83.464 25.9059 83.4559C25.5083 84.1497 24.816 83.9259 24.9008 83.1242C24.8806 83.1161 24.8584 83.11 24.8382 83.1018C24.4184 83.7672 23.7262 83.5332 23.8493 82.7295C23.8291 82.7214 23.8089 82.7132 23.7887 82.7051C23.4133 83.2463 22.8845 83.1405 22.8038 82.64C22.1257 82.4263 21.7563 83.112 22.3053 83.6064C22.2932 83.6308 22.2811 83.6553 22.269 83.6776C21.4879 83.5149 21.2054 84.3145 21.8734 84.7112C21.8653 84.7356 21.8593 84.7621 21.8532 84.7865C21.058 84.7723 20.9228 85.6166 21.6554 85.8771C21.6534 85.9035 21.6514 85.9279 21.6494 85.9544C20.8663 86.0927 20.8905 86.9371 21.6534 87.0632C21.6554 87.0897 21.6595 87.1161 21.6615 87.1426C20.941 87.4132 21.0863 88.2474 21.8714 88.2291C21.8795 88.2555 21.8875 88.282 21.8956 88.3084C21.2437 88.7174 21.5424 89.4967 22.3073 89.3319C22.3194 89.3563 22.3336 89.3807 22.3477 89.4071C21.7927 89.93 22.2306 90.6381 22.9491 90.3309C22.9673 90.3532 22.9834 90.3736 23.0016 90.396C22.5515 91.0186 23.1146 91.633 23.7685 91.1854C23.7887 91.2037 23.8109 91.22 23.8311 91.2363C23.4961 91.9443 24.1803 92.4326 24.7333 91.867C24.7555 91.8792 24.7777 91.8914 24.8019 91.9056C24.6001 92.6707 25.369 93.0227 25.807 92.3573C25.8312 92.3655 25.8554 92.3736 25.8796 92.3818C25.8251 93.1692 26.6405 93.3767 26.9493 92.6381C26.9755 92.6422 27.0018 92.6463 27.028 92.6483C27.1269 93.4276 27.9584 93.4662 28.1239 92.6971C28.1522 92.6951 28.1784 92.693 28.2067 92.693C28.4569 93.4398 29.2703 93.3055 29.2905 92.5344C29.3187 92.5282 29.345 92.5201 29.3732 92.512C29.7607 93.1956 30.5317 92.8986 30.4046 92.1417C30.4308 92.1295 30.455 92.1173 30.4813 92.1051C30.9858 92.6951 31.7003 92.2719 31.4218 91.5394C31.444 91.5231 31.4662 91.5089 31.4863 91.4926C32.0999 91.9891 32.7235 91.4214 32.3037 90.7541C32.3219 90.7357 32.3381 90.7174 32.3542 90.6971C33.0566 91.0796 33.5712 90.396 33.0243 89.8161C33.0364 89.7957 33.0505 89.7754 33.0646 89.7551C33.8275 90.0033 34.215 89.2322 33.5631 88.7642C33.5712 88.7418 33.5813 88.7194 33.5894 88.695C34.4007 88.7947 34.5965 87.9544 33.8982 87.6289C33.9022 87.6045 33.9083 87.578 33.9123 87.5536C34.6853 87.4926 34.768 86.6563 34.0152 86.4529Z" fill="#D55849"/>
<path d="M60.9434 57.4757C60.9434 57.4534 60.9434 57.431 60.9434 57.4066C61.7003 57.2275 61.6862 56.4971 60.9233 56.3445C60.9233 56.3201 60.9212 56.2977 60.9212 56.2733C61.6862 56.0596 61.6196 55.3353 60.8607 55.2153C60.8587 55.1929 60.8587 55.1685 60.8566 55.1461C61.6155 54.8958 61.5106 54.1796 60.7517 54.0901C60.7497 54.0677 60.7456 54.0433 60.7436 54.0209C61.4924 53.7402 61.3612 53.0301 60.5963 52.9711C60.5923 52.9467 60.5882 52.9243 60.5862 52.8999C61.3107 52.5906 61.1695 51.8866 60.3985 51.8581C60.3945 51.8337 60.3884 51.8113 60.3824 51.7869C61.0847 51.4492 60.9273 50.7513 60.1503 50.7554C60.1442 50.731 60.1381 50.7086 60.1321 50.6842C60.8102 50.322 60.6407 49.6302 59.8596 49.6628C59.8536 49.6384 59.8475 49.6139 59.8395 49.5895C60.4934 49.1989 60.2976 48.5173 59.5226 48.5824C59.5145 48.558 59.5064 48.5336 59.4984 48.5112C60.1281 48.0982 59.9182 47.4227 59.1432 47.5183C59.1331 47.4939 59.125 47.4694 59.1169 47.445C59.7204 47.0076 59.4883 46.3443 58.7193 46.4704C58.7092 46.446 58.6971 46.4216 58.687 46.3992C59.2723 45.9353 59.0059 45.2843 58.2491 45.443C58.237 45.4185 58.2269 45.3962 58.2147 45.3718C58.7859 44.8794 58.4751 44.2486 57.7384 44.4338C57.7263 44.4094 57.7142 44.387 57.7001 44.3626C58.2491 43.8437 57.908 43.2313 57.1814 43.449C57.1673 43.4266 57.1552 43.4043 57.141 43.3819C57.6759 42.8386 57.2985 42.2384 56.586 42.4866C56.5719 42.4643 56.5578 42.4439 56.5436 42.4215C57.0543 41.858 56.6587 41.272 55.9523 41.5507C55.9382 41.5304 55.922 41.51 55.9079 41.4897C56.3983 40.9037 55.9745 40.336 55.2802 40.6433C55.2641 40.6229 55.2499 40.6026 55.2338 40.5843C55.698 39.982 55.258 39.4306 54.5779 39.7623C54.5678 39.7501 54.5435 39.7196 54.5294 39.7033C54.9734 39.0888 54.5819 38.5944 53.8916 38.9016C53.8755 38.8813 53.8594 38.8609 53.8432 38.8386C54.3054 38.2526 53.9461 37.7378 53.2418 38.0105C53.2276 37.9881 53.2115 37.9677 53.1974 37.9454C53.6939 37.3675 53.3225 36.865 52.6343 37.0928C52.6201 37.0705 52.606 37.0481 52.5899 37.0237C53.0985 36.4804 52.7695 35.9535 52.0671 36.1468C52.053 36.1223 52.0409 36.0979 52.0268 36.0755C52.5495 35.5628 52.2589 35.0155 51.5444 35.1783C51.5323 35.1539 51.5202 35.1274 51.5081 35.103C52.0288 34.635 51.8209 34.0531 51.0701 34.1854C51.058 34.1589 51.0459 34.1345 51.0358 34.1081C51.609 33.6381 51.3608 33.0806 50.6402 33.1721C50.6301 33.1457 50.62 33.1192 50.61 33.0928C51.2215 32.6431 50.9632 32.0816 50.2568 32.1365C50.2487 32.11 50.2386 32.0856 50.2305 32.0592C50.8421 31.6563 50.6645 31.0581 49.9217 31.0846C49.9137 31.0581 49.9056 31.0337 49.8995 31.0073C50.5413 30.6268 50.3799 30.0266 49.6351 30.0184C49.6291 29.992 49.623 29.9676 49.617 29.9411C50.287 29.5912 50.1377 28.9747 49.397 28.9381C49.393 28.9136 49.3869 28.8892 49.3829 28.8628C50.057 28.5515 49.9702 27.9208 49.2093 27.8495C49.2052 27.8251 49.2012 27.7987 49.1972 27.7743C49.9016 27.4874 49.8087 26.8546 49.0741 26.7529C49.072 26.7264 49.068 26.702 49.066 26.6756C49.7663 26.4212 49.7199 25.7925 48.9933 25.6521C48.9913 25.6237 48.9913 25.5972 48.9893 25.5687C49.6715 25.3429 49.6695 24.7284 48.961 24.5514C48.961 24.5209 48.961 24.4904 48.961 24.4578C49.6392 24.2523 49.6452 23.6521 48.9651 23.4486C48.9651 23.4161 48.9671 23.3815 48.9671 23.3489C49.6452 23.1618 49.6594 22.5656 48.9954 22.3418C48.9974 22.3092 48.9974 22.2747 48.9994 22.2421C49.6937 22.0753 49.7118 21.4628 49.0418 21.2268C49.0438 21.1963 49.0438 21.1658 49.0458 21.1373C49.7764 20.9888 49.7885 20.3296 49.0942 20.1017C49.0963 20.0752 49.0963 20.0488 49.0983 20.0203C49.841 19.8758 49.8612 19.1332 49.1205 18.9562C49.1205 18.9257 49.1205 18.8972 49.1205 18.8667C49.839 18.6367 49.7623 17.9551 49.064 17.8209C49.062 17.7883 49.0579 17.7578 49.0539 17.7252C49.732 17.4567 49.6311 16.773 48.9207 16.6876C48.9146 16.6571 48.9106 16.6265 48.9065 16.594C49.5524 16.2827 49.4414 15.599 48.6946 15.5645C48.6866 15.536 48.6805 15.5055 48.6724 15.477C49.3405 15.1046 49.1165 14.4291 48.3818 14.4597C48.3737 14.4332 48.3657 14.4088 48.3576 14.3823C48.9954 13.9795 48.7552 13.2796 47.9903 13.3833C47.9802 13.361 47.9701 13.3365 47.96 13.3142C48.5897 12.8503 48.2789 12.1666 47.514 12.3416C47.5039 12.3213 47.4938 12.3009 47.4837 12.2806C47.6532 12.1381 47.7703 11.9632 47.8268 11.6885C47.855 11.6865 47.8833 11.6844 47.9115 11.6824C48.182 12.4393 49.0478 12.2378 49.0115 11.4667C49.0377 11.4586 49.066 11.4504 49.0922 11.4403C49.5342 12.0852 50.3294 11.7068 50.0993 10.9459C50.1236 10.9296 50.1458 10.9153 50.17 10.8991C50.7613 11.424 51.4435 10.8401 51.0217 10.1625C51.0398 10.1422 51.058 10.1239 51.0742 10.1035C51.7886 10.4779 52.3033 9.72711 51.724 9.17776C51.7361 9.15538 51.7483 9.133 51.7583 9.11266C52.5354 9.30391 52.8765 8.4514 52.1701 8.05668C52.1761 8.03023 52.1822 8.00582 52.1882 7.97937C52.9895 7.96106 53.0864 7.06786 52.3335 6.85625C52.3356 6.77894 52.3356 6.86236 52.3335 6.7708C53.0823 6.54699 52.9713 5.65786 52.1721 5.65176C52.166 5.62531 52.158 5.60089 52.1519 5.57444C52.8522 5.16548 52.495 4.32518 51.7261 4.52457C51.7139 4.50219 51.7018 4.47981 51.6897 4.45743C52.2548 3.89994 51.7341 3.15934 51.0257 3.54388C51.0076 3.52354 50.9894 3.50319 50.9712 3.48488C51.383 2.79514 50.6806 2.23358 50.1054 2.76665C50.0812 2.75241 50.057 2.73613 50.0348 2.72189C50.2547 1.95484 49.4474 1.59471 49.0176 2.24375C48.9913 2.23562 48.9631 2.22544 48.9368 2.21731C48.959 1.44822 48.0932 1.25696 47.8328 2.01588C47.8046 2.01384 47.7763 2.01384 47.7461 2.01181C47.5705 1.23865 46.6885 1.30783 46.6279 2.09726C46.6017 2.10337 46.5755 2.10743 46.5492 2.11354C46.2001 1.40956 45.3403 1.67609 45.4836 2.47367C45.4594 2.48588 45.4352 2.49808 45.4089 2.51029C44.8821 1.90601 44.1414 2.40246 44.4644 3.12068C44.4422 3.13899 44.422 3.15527 44.3998 3.17358C43.756 2.7341 43.1465 3.37908 43.6389 4.00371C43.6228 4.02609 43.6066 4.0505 43.5905 4.07289C42.8417 3.80228 42.434 4.60392 43.0617 5.07189C43.0516 5.09834 43.0415 5.12275 43.0334 5.1492C42.2423 5.07189 42.0324 5.94881 42.765 6.2479C42.763 6.26621 42.761 6.28656 42.7589 6.30487C42.5753 6.28656 42.3674 6.37812 42.1918 6.55106C42.1696 6.53682 42.1454 6.52258 42.1232 6.50833C42.3311 5.7718 41.6913 5.42795 41.1968 6.00375C41.1726 5.99154 41.1484 5.97933 41.1242 5.96712C41.2735 5.21228 40.6156 4.92743 40.1635 5.53171C40.1392 5.52154 40.115 5.51137 40.0888 5.50119C40.1816 4.75855 39.5156 4.48591 39.0998 5.13903C39.0736 5.13089 39.0474 5.12275 39.0232 5.11258C39.0655 4.33535 38.3672 4.16648 38.012 4.82163C37.9858 4.81552 37.9595 4.80942 37.9353 4.80332C37.9232 4.04847 37.2289 3.8857 36.906 4.58358C36.8798 4.57951 36.8535 4.5734 36.8273 4.56933C36.7647 3.81042 36.0563 3.70869 35.7879 4.42081C35.7616 4.41877 35.7354 4.4147 35.7072 4.41267C35.5921 3.65375 34.8817 3.60899 34.6597 4.33332C34.6334 4.33128 34.6072 4.33128 34.581 4.32925C34.4215 3.59475 33.7071 3.56626 33.5295 4.32111C33.5032 4.32111 33.475 4.32314 33.4487 4.32314C33.2348 3.5744 32.5223 3.64358 32.3992 4.38215C32.373 4.38418 32.3468 4.38825 32.3205 4.39029C32.0662 3.6802 31.3558 3.74938 31.2771 4.5205C31.2508 4.52457 31.2246 4.52864 31.1984 4.53271C30.8916 3.82873 30.1892 3.97319 30.165 4.7321C30.1388 4.73821 30.1125 4.74431 30.0883 4.75042C29.7331 4.06678 29.0449 4.26007 29.0711 5.02102C29.0469 5.02916 29.0207 5.03526 28.9944 5.0434C28.6049 4.39639 27.9126 4.61613 27.9974 5.38929C27.9732 5.39946 27.949 5.4076 27.9248 5.41777C27.4706 4.7728 26.8127 5.09223 26.954 5.83691C26.9318 5.84708 26.9096 5.85725 26.8874 5.86743C26.403 5.26925 25.741 5.59682 25.9469 6.36184C25.9267 6.37405 25.9065 6.38626 25.8843 6.39846C25.3454 5.81656 24.7117 6.22552 24.9801 6.96206C24.962 6.97426 24.9418 6.98851 24.9236 7.00071C24.8772 6.95799 24.8288 6.91933 24.7803 6.88881C24.6794 6.76266 24.5401 6.68535 24.3867 6.64262C24.3888 6.5653 24.3888 6.64872 24.3867 6.55717C25.1335 6.33539 25.0245 5.44422 24.2253 5.43812C24.2192 5.41167 24.2112 5.38725 24.2051 5.3608C24.9054 4.95184 24.5482 4.11154 23.7793 4.31094C23.7671 4.28856 23.755 4.26617 23.7429 4.24379C24.3101 3.68427 23.7853 2.94774 23.0789 3.33025C23.0608 3.3099 23.0426 3.28955 23.0244 3.27124C23.4341 2.58354 22.7378 2.01791 22.1586 2.55302C22.1344 2.53878 22.1102 2.5225 22.088 2.50826C22.3079 1.74527 21.5027 1.377 21.0708 2.03012C21.0445 2.02198 21.0163 2.01181 20.99 2.00367C21.0122 1.22848 20.1464 1.04739 19.886 1.80224C19.8578 1.80021 19.8295 1.80021 19.7993 1.79817C19.6216 1.02298 18.7417 1.09623 18.6811 1.88363C18.6549 1.88973 18.6287 1.8938 18.6024 1.8999C18.2533 1.19389 17.3955 1.46653 17.5368 2.26003C17.5126 2.27224 17.4883 2.28445 17.4621 2.29666C16.9394 1.69644 16.1926 2.18272 16.5176 2.90704C16.4954 2.92536 16.4752 2.94163 16.453 2.95994C15.8071 2.52046 15.2017 3.16748 15.6921 3.79007C15.676 3.81245 15.6598 3.83687 15.6437 3.85925C14.9009 3.58864 14.4852 4.39029 15.1149 4.85825C15.1048 4.8847 15.0947 4.90912 15.0866 4.93557C14.2975 4.85825 14.0835 5.73314 14.8182 6.03427C14.8142 6.06072 14.8121 6.08717 14.8081 6.11362C14.023 6.23162 14.0351 7.13907 14.8142 7.24487C14.8182 7.27132 14.8222 7.2998 14.8263 7.32625C14.1017 7.64162 14.3278 8.5043 15.1088 8.42088C15.1189 8.44733 15.129 8.47378 15.1391 8.50023C14.5296 8.97634 14.9474 9.76577 15.6881 9.48499C15.7042 9.50737 15.7224 9.53179 15.7405 9.55417C15.2562 10.189 15.8838 10.8197 16.5196 10.368C16.5398 10.3843 16.562 10.4026 16.5822 10.4209C16.2673 11.1473 17.0221 11.6315 17.5388 11.015C17.563 11.0272 17.5872 11.0374 17.6115 11.0476C17.4783 11.8472 18.3461 12.1076 18.6832 11.3914C18.7094 11.3975 18.7356 11.4016 18.7619 11.4057C18.8345 12.1972 19.7185 12.2521 19.882 11.4728C19.9103 11.4708 19.9385 11.4688 19.9668 11.4667C20.0414 11.6743 20.1706 11.8472 20.3805 11.9143C20.3987 11.9326 20.4168 11.951 20.435 11.9693C20.4229 11.9917 20.4108 12.012 20.4007 12.0344C19.6398 11.8472 19.3351 12.5288 19.9345 12.9947C19.9244 13.0191 19.9143 13.0415 19.9042 13.0659C19.1574 12.952 18.8769 13.6275 19.5227 14.0588C19.5147 14.0853 19.5046 14.1097 19.4965 14.1362C18.7255 14.0812 18.5439 14.7872 19.1938 15.1555C19.1877 15.1799 19.1817 15.2064 19.1756 15.2308C18.4329 15.2328 18.2412 15.9388 18.9556 16.2725C18.9516 16.2969 18.9455 16.3234 18.9415 16.3478C18.1665 16.4027 18.0696 17.1311 18.7982 17.4038C18.7962 17.4282 18.7942 17.4506 18.7921 17.475C17.9929 17.5767 17.9727 18.3295 18.7175 18.5432C18.7175 18.5635 18.7155 18.5859 18.7134 18.6062C17.9081 18.7486 17.9364 19.5299 18.7013 19.6866C18.7013 19.707 18.7013 19.7273 18.7013 19.7477C17.9748 19.943 17.9324 20.6795 18.7397 20.8118C18.7417 20.8362 18.7437 20.8626 18.7437 20.887C18.0333 21.1251 18.0636 21.7802 18.8103 21.9206C18.8123 21.9471 18.8123 21.9735 18.8143 21.9979C18.1019 22.2218 18.1241 22.8627 18.8547 23.0275C18.8547 23.0539 18.8547 23.0804 18.8567 23.1068C18.1483 23.3083 18.1423 23.9431 18.8648 24.1343C18.8648 24.1608 18.8648 24.1892 18.8648 24.2157C18.1544 24.3907 18.1221 25.0194 18.8345 25.2411C18.8325 25.2676 18.8325 25.2961 18.8305 25.3225C18.108 25.4711 18.0636 26.0977 18.7619 26.3439C18.7599 26.3704 18.7578 26.3988 18.7558 26.4253C18.0131 26.5474 17.9687 27.174 18.6468 27.4446C18.6428 27.4711 18.6408 27.4975 18.6367 27.524C17.9102 27.6074 17.7931 28.228 18.4854 28.5372C18.4813 28.5637 18.4773 28.5901 18.4712 28.6146C17.7204 28.6654 17.6074 29.288 18.2734 29.6217C18.2674 29.6461 18.2613 29.6726 18.2573 29.697C17.5186 29.7112 17.3471 30.3216 18.0131 30.6939C18.007 30.7184 17.999 30.7428 17.9929 30.7692C17.23 30.7489 17.0726 31.3593 17.7003 31.754C17.6922 31.7784 17.6841 31.8028 17.676 31.8272C16.9192 31.7682 16.7254 32.3725 17.335 32.7957C17.3269 32.8201 17.3168 32.8425 17.3087 32.8669C16.5862 32.7754 16.3077 33.3451 16.9212 33.8171C16.9111 33.8415 16.901 33.8639 16.8909 33.8883C16.1482 33.7601 15.8859 34.3278 16.4611 34.8181C16.4489 34.8405 16.4389 34.8649 16.4267 34.8873C15.676 34.7144 15.4156 35.2922 15.9504 35.7948C15.9383 35.8171 15.9262 35.8395 15.9141 35.8619C15.1835 35.6544 14.8747 36.2098 15.3914 36.7449C15.3773 36.7653 15.3651 36.7877 15.351 36.808C14.6507 36.572 14.2874 37.0867 14.7819 37.6585C14.7657 37.6809 14.7516 37.7032 14.7354 37.7236C14.0735 37.4713 13.6617 37.9352 14.128 38.5415C14.1098 38.5639 14.0936 38.5863 14.0755 38.6086C13.4135 38.3258 13.0078 38.7938 13.4478 39.4103C13.4317 39.4306 13.4155 39.451 13.3994 39.4734C12.7111 39.1336 12.2954 39.6972 12.7475 40.2954C12.7333 40.3137 12.7172 40.334 12.7031 40.3523C11.9926 40.0207 11.5809 40.6005 12.0613 41.1886C12.0471 41.2089 12.031 41.2292 12.0169 41.2496C11.2943 40.9525 10.9169 41.5446 11.4094 42.1082C11.3952 42.1306 11.3791 42.153 11.365 42.1753C10.6404 41.917 10.2852 42.5172 10.7998 43.0604C10.7857 43.0828 10.7716 43.1072 10.7575 43.1296C10.0168 42.9017 9.69586 43.5182 10.2287 44.037C10.2166 44.0614 10.2024 44.0838 10.1903 44.1082C9.44761 43.9129 9.14084 44.5376 9.70191 45.0381C9.6898 45.0625 9.6777 45.0849 9.66559 45.1093C8.91883 44.9465 8.62821 45.5793 9.21552 46.0595C9.20543 46.0839 9.19332 46.1083 9.18323 46.1327C8.43849 46.0025 8.15593 46.6414 8.7715 47.1012C8.76141 47.1256 8.75131 47.15 8.74324 47.1744C8.00052 47.0747 7.73008 47.7217 8.37188 48.1592C8.36381 48.1836 8.35372 48.208 8.34565 48.2324C7.60091 48.1653 7.35267 48.8225 8.01667 49.2335C8.0086 49.2579 8.00052 49.2823 7.99447 49.3088C7.24973 49.2721 7.02571 49.9395 7.70384 50.322C7.69779 50.3464 7.69173 50.3729 7.68366 50.3973C6.92681 50.3912 6.75324 51.0768 7.43541 51.4227C7.42936 51.4471 7.4233 51.4736 7.41926 51.498C6.66444 51.5245 6.52316 52.2183 7.21341 52.5336C7.20937 52.5581 7.20331 52.5845 7.19928 52.6089C6.44647 52.6659 6.33748 53.3638 7.0358 53.6506C7.03176 53.6771 7.02975 53.7015 7.02571 53.728C6.27895 53.8154 6.19822 54.5174 6.90461 54.7758C6.89856 54.8429 6.89856 54.8551 6.89856 54.8551C6.15382 54.9732 6.10538 55.6771 6.82388 55.905C6.82186 55.9315 6.82186 55.9579 6.81984 55.9844C6.06098 56.139 6.07309 56.8389 6.78554 57.0363C6.78554 57.0627 6.78352 57.0892 6.78352 57.1176C6.03474 57.3069 6.06905 58.0047 6.79764 58.1696C6.79764 58.196 6.79966 58.2225 6.79966 58.2489C6.04887 58.4646 6.11951 59.1665 6.85416 59.3008C6.85617 59.3273 6.85617 59.3517 6.85819 59.3781C6.11951 59.6223 6.21033 60.3303 6.9591 60.43C6.96112 60.4544 6.96516 60.4789 6.96718 60.5033C6.24464 60.7698 6.3395 61.486 7.10846 61.5531C7.11249 61.5776 7.11451 61.5999 7.11855 61.6243C6.40207 61.9234 6.53325 62.6376 7.30423 62.6681C7.30827 62.6905 7.31432 62.7129 7.31835 62.7373C6.62004 63.0608 6.75123 63.775 7.5444 63.775C7.55046 63.7973 7.55449 63.8197 7.56055 63.8421C6.8703 64.1961 7.03782 64.9062 7.83099 64.8696C7.83705 64.892 7.8431 64.9123 7.84915 64.9347C7.16497 65.3213 7.37083 66.0191 8.15997 65.952C8.16602 65.9744 8.1741 65.9947 8.18015 66.0171C7.50202 66.4383 7.75834 67.1199 8.53335 67.0202C8.54142 67.0405 8.54949 67.0629 8.55756 67.0833C7.88952 67.5349 8.18822 68.2043 8.94911 68.0721C8.95718 68.0924 8.96525 68.1128 8.97535 68.1331C8.33959 68.6011 8.64233 69.2705 9.40725 69.1036C9.41734 69.124 9.42743 69.1443 9.43551 69.1647C8.82398 69.6591 9.15093 70.3142 9.90576 70.1169C9.91585 70.1372 9.92594 70.1576 9.93603 70.1779C9.35881 70.6886 9.68375 71.3356 10.4446 71.1077C10.4567 71.1281 10.4689 71.1484 10.481 71.1688C9.92594 71.7059 10.2832 72.3306 11.0259 72.0742C11.038 72.0945 11.0521 72.1149 11.0642 72.1352C10.5294 72.7029 10.927 73.2929 11.6455 73.0162C11.6596 73.0366 11.6738 73.0569 11.6879 73.0773C11.1732 73.6714 11.6092 74.2329 12.3034 73.9318C12.3176 73.9522 12.3337 73.9725 12.3479 73.9929C11.8695 74.5951 12.3115 75.1506 12.9977 74.8209C13.0139 74.8413 13.03 74.8596 13.0462 74.88C12.6042 75.4924 13.0542 76.0397 13.7304 75.6775C13.7485 75.6958 13.7647 75.7162 13.7828 75.7365C13.3731 76.3632 13.8272 76.8942 14.4973 76.5056C14.5155 76.5239 14.5356 76.5422 14.5538 76.5626C14.1663 77.2137 14.6547 77.7081 15.3006 77.2991C15.3207 77.3174 15.3389 77.3357 15.3591 77.354C14.9938 78.0316 15.5205 78.4873 16.1361 78.056C16.1563 78.0723 16.1765 78.0906 16.1946 78.1069C15.8515 78.8068 16.4086 79.23 17.002 78.7763C17.0221 78.7925 17.0423 78.8088 17.0625 78.8231C16.7476 79.525 17.3148 79.9502 17.8981 79.4599C17.9182 79.4741 17.9384 79.4884 17.9586 79.5026C17.674 80.2168 18.2553 80.6278 18.8224 80.1028C18.8426 80.1171 18.8628 80.1293 18.883 80.1435C18.6266 80.8679 19.218 81.2687 19.771 80.7071C19.7912 80.7193 19.8114 80.7315 19.8315 80.7437C19.5994 81.4884 20.215 81.8546 20.7438 81.2727C20.764 81.285 20.7842 81.2951 20.8043 81.3053C20.5944 82.0785 21.2423 82.3959 21.7388 81.7956C21.759 81.8058 21.7792 81.816 21.7993 81.8262C21.6157 82.6136 22.2878 82.9004 22.756 82.2779C22.7762 82.286 22.7964 82.2962 22.8145 82.3043C22.6611 83.0836 23.3393 83.3684 23.7893 82.7173C23.8095 82.7255 23.8297 82.7336 23.8499 82.7417C23.7288 83.5454 24.4211 83.7794 24.8388 83.1141C24.859 83.1222 24.8812 83.1283 24.9014 83.1365C24.8166 83.9361 25.5089 84.1599 25.9065 83.4681C25.9267 83.4742 25.9489 83.4803 25.9691 83.4885C25.9186 84.2738 26.6129 84.4997 26.9863 83.7774C27.0064 83.7835 27.0286 83.7896 27.0488 83.7936C27.0307 84.5851 27.7411 84.7642 28.0761 84.0419C28.0983 84.0459 28.1185 84.05 28.1407 84.0561C28.1548 84.8456 28.8713 84.99 29.1781 84.2616C29.2003 84.2657 29.2205 84.2698 29.2427 84.2738C29.2871 85.0572 30.0076 85.1711 30.2861 84.4366C30.3083 84.4407 30.3305 84.4427 30.3527 84.4468C30.4355 85.2443 31.1519 85.2952 31.3982 84.5648C31.4224 84.5668 31.4446 84.5688 31.4688 84.5709C31.5879 85.3603 32.2963 85.3868 32.5163 84.6482C32.5405 84.6502 32.5647 84.6502 32.5889 84.6523C32.7383 85.4091 33.4407 85.4478 33.6364 84.6848C33.6606 84.6848 33.6869 84.6848 33.7111 84.6869C33.8887 85.4213 34.5931 85.4498 34.7586 84.6746C34.7828 84.6746 34.809 84.6726 34.8333 84.6726C35.0452 85.4071 35.7495 85.3725 35.8787 84.6177C35.9029 84.6156 35.9292 84.6136 35.9534 84.6116C36.1936 85.3339 36.8939 85.2688 36.9948 84.5139C37.021 84.5119 37.0453 84.5078 37.0715 84.5058C37.344 85.226 38.0342 85.1101 38.1069 84.3633C38.1331 84.3593 38.1593 84.3552 38.1856 84.3511C38.4944 85.0653 39.1685 84.9127 39.2129 84.166C39.2391 84.1599 39.2653 84.1558 39.2916 84.1497C39.6246 84.8354 40.2967 84.6848 40.3088 83.9218C40.335 83.9157 40.3613 83.9076 40.3875 83.9015C40.7407 84.5566 41.4188 84.4101 41.3946 83.6268C41.4208 83.6187 41.4451 83.6126 41.4713 83.6044C41.8588 84.2596 42.5268 84.0459 42.4683 83.2891C42.4925 83.2809 42.5168 83.2708 42.541 83.2626C42.9527 83.9015 43.6147 83.6594 43.5259 82.9025C43.5481 82.8943 43.5723 82.8842 43.5965 82.876C44.0365 83.5088 44.6904 83.2321 44.5673 82.4772C44.5895 82.4671 44.6117 82.4569 44.6339 82.4467C45.1001 83.0612 45.748 82.758 45.5865 82.0032C45.6087 81.993 45.6309 81.9828 45.6511 81.9706C46.1355 82.5586 46.7813 82.2575 46.5876 81.4904C46.6098 81.4782 46.63 81.466 46.6522 81.4559C47.1628 82.0256 47.7945 81.6939 47.5664 80.933C47.5866 80.9208 47.6068 80.9085 47.629 80.8963C48.1659 81.4518 48.7794 81.0876 48.5231 80.3409C48.5433 80.3287 48.5634 80.3144 48.5836 80.3002C49.1508 80.8394 49.7401 80.4324 49.4535 79.704C49.4737 79.6898 49.4918 79.6776 49.512 79.6634C50.1074 80.1863 50.6685 79.7427 50.3597 79.0347C50.3779 79.0204 50.398 79.0062 50.4162 78.9899C51.0338 79.4884 51.5747 79.0143 51.2356 78.3246C51.2538 78.3103 51.2719 78.2941 51.2901 78.2798C51.9158 78.7478 52.4546 78.2676 52.0833 77.584C52.1015 77.5677 52.1176 77.5514 52.1358 77.5372C52.7755 77.9706 53.2983 77.4741 52.8987 76.8067C52.9148 76.7905 52.933 76.7742 52.9491 76.7559C53.6051 77.1608 54.1076 76.6501 53.6838 75.999C53.6999 75.9807 53.7181 75.9624 53.7342 75.9441C54.3942 76.3103 54.8887 75.8016 54.4325 75.1546C54.4487 75.1363 54.4648 75.116 54.481 75.0976C55.1591 75.4374 55.6213 74.9044 55.149 74.2838C55.1652 74.2635 55.1813 74.2431 55.1975 74.2228C55.8978 74.5341 56.3176 73.9725 55.8272 73.3804C55.8413 73.3601 55.8574 73.3377 55.8716 73.3174C56.5901 73.6022 56.9715 73.0142 56.469 72.4526C56.4831 72.4303 56.4992 72.4099 56.5134 72.3875C57.246 72.6419 57.5911 72.0315 57.0704 71.4964C57.0845 71.474 57.0966 71.4516 57.1108 71.4292C57.8353 71.649 58.1845 71.0386 57.6335 70.5157C57.6456 70.4933 57.6597 70.4709 57.6718 70.4465C58.4065 70.6337 58.7233 70.005 58.1522 69.5106C58.1643 69.4882 58.1744 69.4638 58.1865 69.4414C58.9292 69.6001 59.2259 68.9571 58.6305 68.4851C58.6406 68.4607 58.6527 68.4383 58.6628 68.4139C59.4015 68.538 59.6921 67.8951 59.0644 67.4393C59.0745 67.4149 59.0826 67.3905 59.0907 67.3681C59.8394 67.4637 60.1038 66.8065 59.4519 66.3772C59.46 66.3528 59.4681 66.3304 59.4762 66.306C60.233 66.3732 60.4671 65.7038 59.7991 65.3009C59.8072 65.2765 59.8132 65.2521 59.8193 65.2297C60.5923 65.2663 60.7779 64.5786 60.0958 64.2083C60.1018 64.1839 60.1079 64.1615 60.1139 64.1371C60.899 64.1453 61.0464 63.4433 60.3521 63.1056C60.3561 63.0811 60.3622 63.0588 60.3682 63.0344C61.1594 63.0099 61.2684 62.2978 60.562 61.9926C60.566 61.9702 60.57 61.9458 60.5721 61.9234C61.3693 61.8685 61.4399 61.1462 60.7234 60.8736C60.7255 60.8512 60.7295 60.8288 60.7315 60.8044C61.5207 60.7169 61.5711 59.9926 60.8425 59.7484C60.8445 59.726 60.8466 59.7016 60.8466 59.6792C61.6236 59.5633 61.6599 58.8328 60.9132 58.6192C60.9132 58.5968 60.9152 58.5744 60.9152 58.5521C61.6882 58.3913 61.6983 57.6589 60.9434 57.4757Z" fill="#5B7BBB"/>
<path d="M67.4963 63.0811C67.3449 62.9652 67.131 62.9021 66.8908 62.9041C67.7123 62.9041 67.9989 62.1371 67.4015 61.8421C67.2299 61.7566 67.0079 61.7363 66.7738 61.783C67.6114 61.6142 67.6941 60.8064 67.0765 60.6416C66.8908 60.5908 66.6688 60.6131 66.4489 60.7047C67.0241 60.4666 67.1573 59.9661 66.9009 59.6792C66.7254 59.4982 66.3358 59.4371 65.9261 59.7057C66.6365 59.2357 66.4287 58.4564 65.7869 58.5317C65.5971 58.5541 65.3973 58.6579 65.2278 58.8247C65.3973 58.6579 65.5104 58.4585 65.5386 58.2652C65.6315 57.6121 64.8544 57.4045 64.3761 58.0922C64.8686 57.3822 64.3761 56.7433 63.815 57.0546C63.6455 57.1482 63.5002 57.317 63.4033 57.5368C63.8857 56.4442 62.6121 56.019 62.3437 57.1767C62.5657 56.2102 61.6757 55.9152 61.3507 56.55C61.6434 56.8287 61.5102 57.2743 60.9431 57.4086C60.9431 57.431 60.9431 57.4534 60.9431 57.4778C61.6979 57.6609 61.6878 58.3934 60.9168 58.5419C60.9168 58.5643 60.9148 58.5867 60.9148 58.609C61.6636 58.8227 61.6252 59.5531 60.8482 59.6691C60.8462 59.6915 60.8442 59.7159 60.8421 59.7383C61.5707 59.9824 61.5203 60.7088 60.7311 60.7942C60.7291 60.8166 60.7251 60.839 60.7231 60.8634C61.4395 61.136 61.3669 61.8583 60.5717 61.9133C60.5676 61.9356 60.5636 61.9601 60.5616 61.9824C61.268 62.2876 61.159 63.0018 60.3679 63.0242C60.3638 63.0486 60.3578 63.071 60.3517 63.0954C61.046 63.4331 60.8987 64.1351 60.1136 64.1269C60.1075 64.1514 60.1014 64.1737 60.0954 64.1982C60.7776 64.5664 60.5919 65.2541 59.8189 65.2195C59.8108 65.2439 59.8048 65.2684 59.7987 65.2907C60.4667 65.6936 60.2326 66.363 59.4758 66.2958C59.4677 66.3203 59.4596 66.3426 59.4516 66.3671C60.1035 66.7964 59.8391 67.4536 59.0903 67.3579C59.0802 67.3823 59.0721 67.4067 59.0641 67.4291C59.6917 67.8849 59.4011 68.5278 58.6624 68.4037C58.6523 68.4281 58.6402 68.4505 58.6301 68.4749C58.8158 68.6214 58.9147 68.7842 58.9409 68.9348C59.0136 68.8412 59.0782 68.7252 59.1286 68.5767C58.7532 69.7079 60.057 70.0131 60.2185 68.833C60.0651 70.0131 61.3972 70.0701 61.3366 68.8778C61.4052 70.066 62.7292 69.8686 62.4426 68.7089C62.7373 69.887 63.9906 69.4007 63.4961 68.3305C63.9967 69.4068 65.1572 68.7272 64.4588 67.7587C65.1511 68.7191 66.1623 67.832 65.2984 67.012C66.1582 67.8239 66.9857 66.7597 65.9826 66.1209C66.9817 66.7577 67.5912 65.5491 66.4872 65.1137C67.2723 65.423 67.789 64.8024 67.3571 64.3182C67.234 64.1758 67.0261 64.072 66.7919 64.0293C67.6154 64.1798 68.017 63.4759 67.4963 63.0811Z" fill="#D55849"/>
<path d="M61.0687 56.3838C61.0327 56.3353 60.9927 56.295 60.9506 56.2627C60.9406 56.2667 60.9306 56.2708 60.9206 56.2728C60.9206 56.297 60.9226 56.3192 60.9226 56.3434C60.9746 56.3535 61.0227 56.3676 61.0687 56.3838Z" fill="#D55849"/>
<path d="M42.3977 20.1911C42.3937 20.1667 42.3937 20.1443 42.3896 20.1199C42.9002 19.8981 42.7872 19.3366 42.2221 19.3346C42.216 19.3142 42.212 19.2939 42.206 19.2735C42.7045 18.9765 42.5067 18.423 41.9315 18.5126C41.9234 18.4963 41.9173 18.478 41.9093 18.4597C42.3755 18.0975 42.101 17.5563 41.5319 17.7394C41.5218 17.7231 41.5137 17.7069 41.5036 17.6926C41.9254 17.2613 41.5722 16.773 41.0354 17.0293C41.0233 17.0151 41.0111 17.0008 41.0011 16.9866C41.3522 16.5044 40.9385 16.0751 40.4521 16.3945C40.438 16.3803 40.4218 16.366 40.4077 16.3538C40.668 15.8452 40.2281 15.4789 39.7881 15.8431C39.7699 15.8309 39.7518 15.8187 39.7336 15.8045C39.9031 15.2775 39.4409 14.9886 39.0575 15.3874C38.9929 15.3528 39.0474 15.3833 38.9889 15.3548C39.0736 14.8421 38.5791 14.5878 38.2542 15.0537C38.228 15.0456 38.2038 15.0374 38.1775 15.0293C38.1775 14.4901 37.6851 14.3701 37.4287 14.8238C37.4025 14.8177 37.3742 14.8116 37.348 14.8055C37.2976 14.305 36.8313 14.1788 36.5952 14.6712C36.5669 14.6671 36.5387 14.663 36.5125 14.659C36.4277 14.1361 35.9514 14.0852 35.7516 14.5776C35.7253 14.5756 35.6991 14.5735 35.6749 14.5715C35.5659 14.0343 35.0795 14.0282 34.9079 14.5247C34.8837 14.5227 34.8595 14.5227 34.8353 14.5206C34.7081 13.9937 34.2177 13.9916 34.0683 14.5003C34.0441 14.5003 34.0179 14.5003 33.9937 14.5003C33.8463 13.9977 33.362 13.9896 33.2287 14.5105C33.2025 14.5105 33.1763 14.5125 33.148 14.5145C32.9765 14.0282 32.5022 14.0343 32.3871 14.5613C32.3589 14.5634 32.3326 14.5654 32.3044 14.5674C32.1026 14.0791 31.6303 14.1401 31.5475 14.6569C31.5193 14.661 31.4931 14.6651 31.4648 14.6692C31.2287 14.1727 30.7544 14.3029 30.71 14.8095C30.6857 14.8156 30.6595 14.8197 30.6353 14.8258C30.381 14.364 29.8764 14.4779 29.8805 15.0293C29.8562 15.0374 29.832 15.0456 29.8078 15.0537C29.4829 14.5837 28.9803 14.8319 29.0711 15.3548C29.0489 15.365 29.0288 15.3752 29.0066 15.3874C28.6271 14.9866 28.1609 15.2653 28.3244 15.7902C28.3042 15.8045 28.284 15.8167 28.2638 15.8309C27.8319 15.481 27.402 15.835 27.6422 16.3314C27.6261 16.3477 27.6079 16.362 27.5918 16.3782C27.1155 16.0812 26.7239 16.4962 27.0448 16.9642C27.0307 16.9805 27.0186 16.9988 27.0044 17.0151C26.4837 16.7811 26.1507 17.2531 26.5402 17.6743C26.5281 17.6926 26.518 17.7109 26.508 17.7292C25.963 17.5685 25.6926 18.0853 26.1386 18.4475C26.1305 18.4678 26.1205 18.4861 26.1124 18.5065C25.5533 18.4312 25.3616 18.9704 25.846 19.2654C25.8399 19.2878 25.8339 19.3081 25.8278 19.3305C25.2728 19.3386 25.1598 19.8941 25.6684 20.1179C25.6643 20.1423 25.6623 20.1647 25.6603 20.1891C25.1214 20.2786 25.0831 20.8341 25.6139 20.9887C25.6139 21.0131 25.6139 21.0375 25.6159 21.062C25.0911 21.2308 25.1436 21.7842 25.6845 21.8575C25.6885 21.8819 25.6906 21.9063 25.6966 21.9307C25.2021 22.1729 25.3313 22.7141 25.8783 22.71C25.8863 22.7344 25.8944 22.7588 25.9005 22.7812C25.4524 23.0884 25.6502 23.6174 26.1951 23.5259C26.2072 23.5503 26.2173 23.5727 26.2294 23.5951C25.8278 23.9837 26.1366 24.4598 26.6432 24.2828C26.6593 24.3051 26.6735 24.3255 26.6896 24.3479C26.3687 24.7955 26.7522 25.2228 27.2265 24.9481C27.2446 24.9664 27.2648 24.9827 27.283 24.999C27.063 25.4649 27.4787 25.8576 27.9147 25.4893C27.9369 25.5056 27.9611 25.5198 27.9853 25.5341C27.8582 26.0325 28.2739 26.3032 28.6493 25.9267C28.6776 25.941 28.7038 25.9573 28.7321 25.9715C28.6635 26.4761 29.0913 26.6714 29.4223 26.2889C29.4506 26.3011 29.4808 26.3113 29.5091 26.3235C29.4788 26.8301 29.9208 26.9929 30.2236 26.5819C30.2518 26.59 30.2801 26.6002 30.3083 26.6104C30.3083 27.1394 30.7745 27.2533 31.045 26.8179C31.0712 26.824 31.0975 26.8301 31.1237 26.8362C31.1499 27.3713 31.6343 27.4731 31.8785 26.997C31.9028 27.001 31.927 27.0071 31.9512 27.0112C32.0057 27.5463 32.5062 27.6318 32.7181 27.1251C32.7423 27.1272 32.7666 27.1292 32.7928 27.1333C32.8897 27.6847 33.4084 27.6948 33.5698 27.1902C33.5941 27.1902 33.6183 27.1902 33.6425 27.1923C33.7797 27.7152 34.2803 27.7152 34.4175 27.1902C34.4417 27.1902 34.4639 27.1882 34.4881 27.1862C34.6496 27.6969 35.1723 27.6826 35.2672 27.1272C35.2914 27.1251 35.3136 27.1211 35.3378 27.119C35.5497 27.6358 36.0583 27.5443 36.1088 27.0051C36.131 27.001 36.1552 26.997 36.1774 26.9929C36.4237 27.4792 36.9181 27.3734 36.9363 26.824C36.9605 26.8179 36.9827 26.8118 37.0069 26.8057C37.2794 27.2655 37.7678 27.1373 37.7496 26.586C37.7739 26.5778 37.7961 26.5717 37.8203 26.5636C38.1291 27.0112 38.6013 26.8322 38.5469 26.293C38.5489 26.293 38.5549 26.2909 38.6135 26.2645C38.9545 26.6958 39.4147 26.472 39.3219 25.943C39.3441 25.9328 39.3643 25.9206 39.3865 25.9084C39.7679 26.3235 40.218 26.0386 40.0686 25.5137C40.0868 25.5015 40.107 25.4893 40.1251 25.4771C40.5651 25.8738 41.0132 25.473 40.7669 24.9827C40.7831 24.9684 40.7992 24.9542 40.8154 24.9399C41.2998 25.2411 41.7014 24.7975 41.3664 24.3438C41.3805 24.3255 41.3946 24.3051 41.4087 24.2848C41.9133 24.47 42.2403 23.9918 41.8326 23.5991C41.8447 23.5767 41.8548 23.5523 41.8669 23.53C42.4058 23.6215 42.6136 23.1006 42.1696 22.7893C42.1777 22.7649 42.1838 22.7385 42.1918 22.712C42.7307 22.7141 42.8579 22.1851 42.3775 21.9389C42.3815 21.9124 42.3856 21.8839 42.3896 21.8575C42.9164 21.7802 42.9689 21.2369 42.4562 21.066C42.4562 21.0396 42.4582 21.0131 42.4582 20.9867C42.9749 20.83 42.9345 20.2807 42.3977 20.1911Z" fill="white"/>
<path d="M26.1397 15.8106C26.8835 15.6577 27.3635 14.926 27.2119 14.1763C27.0603 13.4265 26.3345 12.9426 25.5908 13.0954C24.847 13.2482 24.367 13.9799 24.5186 14.7297C24.6702 15.4794 25.396 15.9634 26.1397 15.8106Z" fill="white"/>
<path d="M42.6677 13.3345C41.935 13.3365 41.3457 13.9367 41.3477 14.6753C41.3497 15.4139 41.9451 16.008 42.6778 16.0059C43.4104 16.0039 43.9997 15.4037 43.9977 14.6651C43.9937 13.9286 43.3983 13.3324 42.6677 13.3345Z" fill="white"/>
<path d="M9.4289 69.1525C9.41881 69.1321 9.40871 69.1118 9.40064 69.0914C8.63572 69.2583 8.33298 68.5889 8.96874 68.1209C8.96066 68.1006 8.95259 68.0802 8.9425 68.0599C8.18161 68.1921 7.88291 67.5227 8.55095 67.071C8.54288 67.0507 8.53481 67.0283 8.52674 67.008C7.75375 67.1077 7.49541 66.4261 8.17354 66.0049C8.16547 65.9825 8.15941 65.9622 8.15336 65.9398C7.36422 66.009 7.15836 65.309 7.84255 64.9225C7.83649 64.9001 7.83044 64.8797 7.82438 64.8574C7.03121 64.894 6.86369 64.1859 7.55394 63.8299C7.54788 63.8075 7.54385 63.7851 7.53779 63.7627C6.74462 63.7648 6.61343 63.0486 7.31174 62.7251C7.30771 62.7027 7.30166 62.6803 7.29762 62.6559C6.52463 62.6254 6.39546 61.9112 7.11194 61.6121C7.1079 61.5877 7.10589 61.5653 7.10185 61.5409C6.33289 61.4738 6.24005 60.7576 6.96057 60.491C6.95855 60.4666 6.95451 60.4422 6.95249 60.4178C6.20574 60.3161 6.1129 59.6101 6.85158 59.3659C6.84956 59.3394 6.84956 59.315 6.84755 59.2886C6.1129 59.1543 6.04428 58.4523 6.79306 58.2367C6.79306 58.2102 6.79104 58.1838 6.79104 58.1573C6.06245 57.9925 6.02813 57.2926 6.77691 57.1054C6.77691 57.0932 6.77691 57.081 6.77691 57.0708C6.41967 56.8735 5.98777 57.1441 6.03419 57.7239C6.00997 57.7321 5.98373 57.7402 5.95952 57.7504C5.50944 57.0932 4.75462 57.4635 4.9625 58.2163C4.9403 58.2306 4.91608 58.2428 4.89388 58.257C4.32876 57.7036 3.66476 58.2062 4.00383 58.902C3.98364 58.9203 3.96144 58.9386 3.94126 58.9569C3.28129 58.5236 2.73232 59.1482 3.19248 59.7626C3.17634 59.785 3.15817 59.8074 3.14203 59.8298C2.4094 59.5287 1.98961 60.255 2.56077 60.7678C2.54866 60.7922 2.53655 60.8166 2.52444 60.839C1.74539 60.6782 1.46082 61.4758 2.12886 61.8726C2.12079 61.897 2.11474 61.9234 2.10868 61.9478C1.31954 61.9356 1.16616 62.7739 1.9109 63.0384C1.90888 63.0649 1.90686 63.0893 1.90484 63.1157C1.1379 63.252 1.12781 64.0964 1.90888 64.2246C1.91089 64.251 1.91493 64.2775 1.91695 64.3039C1.19038 64.5786 1.34578 65.4087 2.12684 65.3904C2.13492 65.4169 2.143 65.4433 2.15107 65.4698C1.50321 65.8767 1.79787 66.658 2.56279 66.4932C2.5749 66.5176 2.58903 66.542 2.60316 66.5685C2.05015 67.0893 2.48004 67.8035 3.2046 67.4922C3.22276 67.5146 3.2389 67.5349 3.25707 67.5573C2.807 68.1799 3.37009 68.7944 4.02401 68.3467C4.04419 68.3651 4.06639 68.3813 4.08657 68.3976C3.75154 69.1057 4.43573 69.594 4.98873 69.0283C5.01094 69.0406 5.03314 69.0528 5.05735 69.067C4.85553 69.83 5.62246 70.1861 6.06244 69.5187C6.08666 69.5268 6.11088 69.535 6.1351 69.5431C6.08061 70.3285 6.89598 70.538 7.20478 69.7995C7.23101 69.8035 7.25725 69.8076 7.28349 69.8096C7.3844 70.5909 8.2139 70.6276 8.3794 69.8585C8.40766 69.8564 8.4339 69.8544 8.46215 69.8544C8.6559 70.4343 9.18872 70.4811 9.42688 70.1108C9.03937 69.9867 8.96873 69.5228 9.4289 69.1525Z" fill="white"/>
<path d="M34.0274 19.125C35.4631 19.125 36.6269 18.3816 36.6269 17.4647C36.6269 16.5478 35.4631 15.8044 34.0274 15.8044C32.5918 15.8044 31.4279 16.5478 31.4279 17.4647C31.4279 18.3816 32.5918 19.125 34.0274 19.125Z" fill="#081110"/>
<path d="M35.9993 21.3305C35.1759 22.0549 33.0466 22.0488 32.1303 21.3977C31.8538 21.2003 31.5894 21.6602 31.8659 21.8555C32.9336 22.6144 35.3252 22.6266 36.3727 21.707C36.625 21.4811 36.2536 21.1067 35.9993 21.3305Z" fill="#081110"/>
<path d="M25.8698 15.0069C26.1741 15.0069 26.4208 14.7582 26.4208 14.4514C26.4208 14.1447 26.1741 13.896 25.8698 13.896C25.5655 13.896 25.3188 14.1447 25.3188 14.4514C25.3188 14.7582 25.5655 15.0069 25.8698 15.0069Z" fill="#081110"/>
<path d="M42.6721 14.1157C42.3674 14.1157 42.1212 14.3639 42.1212 14.6712C42.1212 14.9784 42.3674 15.2266 42.6721 15.2266C42.9769 15.2266 43.2231 14.9784 43.2231 14.6712C43.2231 14.3639 42.9769 14.1157 42.6721 14.1157Z" fill="#081110"/>
<path d="M34.6632 51.0259C34.752 52.0636 34.2313 53.5102 32.4047 55.2254C30.5802 56.9386 28.0009 58.6721 28.3299 60.9244C28.6225 62.9305 30.992 64.0597 30.992 64.0597L32.5319 62.7454C32.5319 62.7454 30.5136 61.2459 32.1444 59.3537C34.9235 56.1186 37.3172 55.2254 37.0387 52.5255C36.7601 49.8235 33.6641 48.7329 33.6641 48.7329C33.6641 48.7329 34.5441 49.6627 34.6632 51.0259Z" fill="white"/>
<path d="M31.4886 50.6924C31.2504 52.3201 28.1928 53.5795 27.3148 55.3924C26.4369 57.2052 27.775 59.13 27.775 59.13C27.775 59.13 27.6095 58.2002 29.214 56.7434C31.4482 54.7087 33.8519 53.0648 33.7268 51.3028C33.5472 48.8063 30.873 47.9558 30.873 47.9558C30.873 47.9558 31.7267 49.0647 31.4886 50.6924Z" fill="white"/>
<path d="M37.87 53.1318C37.87 53.1501 37.87 53.1705 37.8679 53.1888C37.8256 54.6761 36.9839 55.6303 36.1605 56.491C34.1846 58.5642 32.6851 59.3801 32.6851 61.1258C32.6851 62.7637 35.44 64.0598 35.44 64.0598L36.8406 62.7718C36.8406 62.7718 35.884 62.1899 35.886 61.1909C35.886 60.6314 36.1867 59.9396 37.1192 59.1461C39.2 57.3801 40.0759 56.1573 40.0759 54.7737C40.0759 54.5642 40.0557 54.3505 40.0154 54.1308C39.6339 52.0229 37.2382 51.0789 37.2382 51.0789C37.2382 51.0789 37.8679 52.2121 37.87 53.1318Z" fill="white"/>
<path d="M30.8911 67.5755C30.9536 67.5674 31.0182 67.5654 31.0828 67.5654C32.0051 67.5654 32.7701 68.249 32.9033 69.1422C33.0264 69.1829 33.1535 69.2093 33.2847 69.2236C33.1858 68.0862 32.2372 67.1951 31.0828 67.1951C31.0202 67.1951 30.9556 67.1971 30.8931 67.2032C30.8971 67.2622 30.8991 67.3212 30.8991 67.3823C30.8991 67.4453 30.8971 67.5104 30.8911 67.5755Z" fill="white"/>
<path d="M32.9217 69.5329C32.8631 70.5055 32.0639 71.2746 31.085 71.2746C30.0699 71.2746 29.2444 70.4444 29.2444 69.419C29.2444 68.597 29.7752 67.8971 30.5139 67.657C30.528 67.5675 30.5341 67.4739 30.5341 67.3803C30.5341 67.3416 30.532 67.303 30.53 67.2664C29.5794 67.5146 28.8771 68.3854 28.8771 69.421C28.8771 70.652 29.864 71.6469 31.085 71.6469C32.2455 71.6469 33.1982 70.7456 33.287 69.598C33.1618 69.5858 33.0387 69.5655 32.9217 69.5329Z" fill="white"/>
<path d="M28.8774 69.4189C28.8774 69.3538 28.8794 69.2887 28.8854 69.2236C28.8229 69.2297 28.7583 69.2317 28.6917 69.2317C27.6765 69.2317 26.851 68.4016 26.851 67.3782C26.851 66.3527 27.6745 65.5226 28.6917 65.5226C29.7089 65.5226 30.5343 66.3527 30.5343 67.3782C30.5343 68.2001 30.0015 68.898 29.2669 69.1422C29.2527 69.2317 29.2467 69.3253 29.2467 69.4189C29.2467 69.4575 29.2487 69.4962 29.2507 69.5349C30.2033 69.2866 30.9037 68.4158 30.9037 67.3802C30.9037 66.1492 29.9147 65.1543 28.6937 65.1543C27.4747 65.1543 26.4857 66.1513 26.4857 67.3802C26.4857 68.6091 27.4747 69.6061 28.6937 69.6061C28.7583 69.6061 28.8229 69.604 28.8854 69.5979H28.8874C28.8794 69.5389 28.8774 69.4799 28.8774 69.4189Z" fill="white"/>
<path d="M31.6401 67.2643C31.6966 66.2938 32.4978 65.5226 33.4767 65.5226C34.4939 65.5226 35.3173 66.3528 35.3173 67.3782C35.3173 68.2002 34.7845 68.8981 34.0499 69.1422C34.0358 69.2318 34.0297 69.3253 34.0297 69.4189C34.0297 69.4576 34.0317 69.4963 34.0337 69.5329C34.9843 69.2826 35.6867 68.4118 35.6867 67.3782C35.6867 66.1473 34.6957 65.1523 33.4767 65.1523C32.3162 65.1523 31.3636 66.0537 31.2748 67.2012C31.3999 67.2134 31.523 67.2338 31.6401 67.2643Z" fill="white"/>
<path d="M33.6617 69.4189C33.6617 69.3538 33.6637 69.2887 33.6698 69.2236C33.6052 69.2297 33.5426 69.2317 33.476 69.2317C32.5537 69.2317 31.7888 68.5481 31.6576 67.6549C31.5365 67.6142 31.4073 67.5877 31.2761 67.5735C31.375 68.7129 32.3216 69.604 33.476 69.604C33.5406 69.604 33.6032 69.602 33.6677 69.5959C33.6637 69.5389 33.6617 69.4799 33.6617 69.4189Z" fill="white"/>
<path d="M38.2615 65.1523C37.101 65.1523 36.1504 66.0557 36.0616 67.2012C36.1868 67.2114 36.3079 67.2338 36.427 67.2643C36.4855 66.2938 37.2847 65.5226 38.2636 65.5226C39.2788 65.5226 40.1042 66.3528 40.1042 67.3782C40.1042 68.4016 39.2788 69.2318 38.2636 69.2318C37.3392 69.2318 36.5763 68.5481 36.4451 67.6549C36.324 67.6142 36.1969 67.5878 36.0657 67.5735C36.1646 68.7129 37.1111 69.6041 38.2656 69.6041C39.4866 69.6041 40.4756 68.6071 40.4756 67.3782C40.4715 66.1493 39.4826 65.1523 38.2615 65.1523Z" fill="white"/>
<path d="M35.6788 67.5755C35.7413 67.5674 35.8059 67.5654 35.8705 67.5654C36.7928 67.5654 37.5557 68.249 37.691 69.1422C37.8121 69.1829 37.9392 69.2093 38.0704 69.2236C37.9715 68.0862 37.0249 67.1951 35.8705 67.1951C35.8059 67.1951 35.7434 67.1971 35.6808 67.2032C35.6848 67.2622 35.6868 67.3212 35.6868 67.3823C35.6868 67.4453 35.6848 67.5104 35.6788 67.5755Z" fill="white"/>
<path d="M37.7067 69.535C37.6482 70.5055 36.8469 71.2746 35.8701 71.2746C34.8529 71.2746 34.0294 70.4444 34.0294 69.419C34.0294 68.597 34.5602 67.8971 35.2969 67.657C35.311 67.5655 35.3171 67.4739 35.3171 67.3803C35.3171 67.3416 35.3151 67.303 35.313 67.2664C34.3624 67.5146 33.6601 68.3854 33.6601 69.421C33.6601 70.652 34.649 71.6469 35.8681 71.6469C37.0286 71.6469 37.9792 70.7456 38.07 69.598C37.9469 69.5858 37.8258 69.5655 37.7067 69.535Z" fill="white"/>
<path d="M22.142 63.7851C21.5324 64.19 21.2236 64.7861 21.597 65.3558C21.9502 65.897 22.5961 65.9174 23.252 65.482C23.9745 64.9855 24.1138 64.3772 23.7989 63.895C23.4599 63.3761 22.8383 63.3232 22.142 63.7851ZM23.0482 65.1687C22.5194 65.5186 22.0875 65.5206 21.8675 65.1829C21.6394 64.8329 21.8412 64.428 22.3377 64.0984C22.8786 63.7383 23.3105 63.7383 23.5325 64.0761C23.7606 64.4281 23.5608 64.8289 23.0482 65.1687ZM22.8766 63.1015L23.1834 62.9713C22.9311 62.3731 22.3761 62.4667 21.1833 62.9774L20.8139 63.1361L20.5536 62.5175L22.584 61.6488L22.4427 61.3151L20.1116 62.312L20.6464 63.5857L21.2963 63.309C22.1198 62.9529 22.7373 62.7719 22.8766 63.1015ZM22.2106 60.4951L20.0652 59.899L21.9866 59.4737L21.9078 59.1095L19.4355 59.6568L19.5202 60.0455L21.6717 60.6436L21.6737 60.6538L19.7463 61.0811L19.823 61.4392L22.2953 60.8919L22.2106 60.4951ZM21.8412 58.3099L20.0228 58.3323L21.1086 57.7952L21.1046 57.5022L19.9844 56.9772V56.9691L21.8251 56.9467L21.8211 56.5805L19.2902 56.611L19.2942 56.9874L20.6666 57.6466L19.3103 58.314L19.3144 58.7087L21.8453 58.6782L21.8412 58.3099ZM21.9442 55.7788L19.7766 55.3719L19.9481 54.4401L22.1157 54.847L22.1823 54.4889L19.6938 54.0209L19.3891 55.671L21.8776 56.139L21.9442 55.7788ZM22.4427 53.6811L20.9875 51.9843L22.8201 52.7066L22.9553 52.3586L20.596 51.4308L20.4527 51.8011L21.9139 53.5021L21.9099 53.5102L20.0712 52.7859L19.938 53.1277L22.2953 54.0555L22.4427 53.6811ZM21.3871 49.7482C21.5587 49.4756 21.5587 49.2619 21.3125 49.1032L21.3084 49.0931L21.151 49.3189C21.3104 49.4206 21.2701 49.5468 21.2115 49.6383C21.1349 49.7604 21.044 49.8092 20.9007 49.7197L20.7655 49.9578C21.0117 50.1124 21.2095 50.029 21.3871 49.7482ZM21.7746 49.3942L22.8827 51.3474L22.8786 51.3556L21.2115 50.2874L21.0158 50.5966L23.1531 51.9639L23.3691 51.6221L22.2631 49.675L23.9301 50.7309L24.1239 50.4237L21.9866 49.0564L21.7746 49.3942ZM24.8888 49.1419C24.5639 49.5 24.1158 49.4288 23.6617 49.0117C23.1834 48.5702 23.1047 48.1327 23.4074 47.797C23.5063 47.6892 23.6617 47.5589 23.8171 47.5162L23.583 47.2843C23.4175 47.3433 23.2681 47.4816 23.1632 47.5976C22.695 48.1164 22.8524 48.7777 23.4256 49.3047C23.9846 49.8194 24.6224 49.9374 25.0906 49.4206C25.2279 49.2701 25.3247 49.1093 25.3591 48.9425L25.3611 48.9262L25.1189 48.7105C25.0926 48.8835 24.9716 49.0503 24.8888 49.1419ZM25.2844 45.7786L24.9655 46.037L25.1673 47.3026L25.0523 47.3962L24.36 46.5294L24.0775 46.7593L25.6638 48.7472L25.9464 48.5173L25.2521 47.6485L25.3712 47.5528L26.5357 48.0412L26.8687 47.7705L25.4781 47.207L25.2844 45.7786ZM26.4752 45.0482L27.012 47.6627L27.341 47.4796L27.1694 46.737L27.8314 46.3687L28.3602 46.9119L28.6952 46.7247L26.8102 44.859L26.4752 45.0482ZM26.8606 45.3697L27.6034 46.1327L27.0968 46.4134L26.8546 45.3717L26.8606 45.3697ZM28.8708 43.9597C28.4248 44.1123 28.2936 44.5579 28.4369 44.9811C28.5721 45.3799 28.8547 45.5447 29.0565 45.567L28.891 46.6474L29.2704 46.5172L29.4097 45.5019L29.7609 45.3819L30.0535 46.2486L30.3946 46.1306L29.5792 43.7155L28.8708 43.9597ZM29.2745 45.2252C29.0504 45.3025 28.8769 45.1398 28.784 44.861C28.7195 44.6372 28.7396 44.3503 29.0323 44.2506L29.329 44.1489L29.6479 45.097L29.2745 45.2252ZM33.0284 43.1682L32.6228 43.2069L32.098 44.3727L31.9507 44.387L31.8498 43.2781L31.4865 43.3127L31.7206 45.8539L32.0839 45.8193L31.981 44.7084L32.1323 44.6942L32.8367 45.7502L33.2626 45.7115L32.4108 44.4683L33.0284 43.1682ZM34.4896 43.1804C33.8478 43.1336 33.4381 43.6382 33.3836 44.4276C33.3352 45.3066 33.7288 45.7888 34.2999 45.8295C34.9155 45.8743 35.3353 45.4083 35.3938 44.5701C35.4463 43.8376 35.1658 43.2293 34.4896 43.1804ZM35.0285 44.5355C34.9821 45.1866 34.7197 45.5345 34.3201 45.504C33.9044 45.4734 33.7106 45.0706 33.753 44.4521C33.7974 43.8152 34.0598 43.4693 34.4614 43.4978C34.8751 43.5304 35.0709 43.9373 35.0285 44.5355ZM37.9752 43.9088L36.958 45.0482L36.7077 43.5487L36.3303 43.4409L35.6421 45.8967L35.9912 45.9963L36.4857 44.2323L36.6875 45.4328L36.9681 45.5121L37.7855 44.5782L37.7956 44.5802L37.295 46.3666L37.6442 46.4663L38.3324 44.0106L37.9752 43.9088ZM39.7432 44.6576L37.8965 46.5721L38.2315 46.7451L38.7441 46.1856L39.4182 46.5335L39.2669 47.2802L39.6079 47.4552L40.0843 44.8346L39.7432 44.6576ZM39.4848 46.2079L38.9702 45.9434L39.6907 45.1581L39.6968 45.1601L39.4848 46.2079ZM41.269 48.7146L42.8109 46.6902L42.5223 46.4663L41.8563 47.3412L41.0086 46.6841L41.6746 45.8092L41.386 45.5854L39.8441 47.6098L40.1327 47.8336L40.8108 46.9424L41.6585 47.5996L40.9804 48.4908L41.269 48.7146ZM42.9381 50.0554L44.589 48.5824L43.6909 47.561L43.1823 48.0147C42.5425 48.5864 42.0722 48.916 41.8139 48.7797L41.7231 48.6719L41.0046 49.3128L41.2367 49.5773L41.711 49.1541L42.6434 50.2162L42.1691 50.6394L42.4012 50.9059L43.1197 50.265L42.9381 50.0554ZM42.0924 49.0971C42.4456 49.0279 42.8715 48.7512 43.3841 48.2934L43.6707 48.0371L44.0965 48.5213L42.6898 49.7767L42.0924 49.0971ZM43.1803 50.971L43.9109 50.7737L44.2984 51.4288L43.7777 51.9802L43.9734 52.3118L45.7616 50.3525L45.5638 50.0188L42.9885 50.6475L43.1803 50.971ZM45.255 50.4095L45.2591 50.4156L44.5264 51.1887L44.2298 50.6862L45.255 50.4095ZM44.5123 53.7361L45.3337 53.4777L45.4528 53.8622C45.5557 54.1939 45.9735 54.3709 46.4458 54.2224C46.8535 54.0942 47.1784 53.7585 47.0553 53.3597L46.8232 52.6272L44.4074 53.3861L44.5123 53.7361ZM46.6254 53.0728L46.7122 53.3556C46.7889 53.6059 46.577 53.7849 46.3388 53.8602C46.1128 53.9314 45.8242 53.9253 45.7434 53.6608L45.6567 53.378L46.6254 53.0728ZM46.1431 54.8022C45.2772 54.9263 44.8857 55.4106 44.9583 55.9823C45.0371 56.6008 45.5719 56.9223 46.3974 56.8185C47.1219 56.7249 47.6588 56.3282 47.574 55.6507C47.4933 55.0077 46.9221 54.7025 46.1431 54.8022ZM47.2571 55.6852C47.3096 56.1003 46.9524 56.375 46.361 56.4503C45.7172 56.5337 45.3297 56.3404 45.2792 55.9396C45.2268 55.5225 45.582 55.2519 46.1915 55.1725C46.8192 55.0932 47.2067 55.2844 47.2571 55.6852ZM46.3832 57.3231C45.6284 57.2865 45.0613 57.6059 45.027 58.3038C45.0169 58.5073 45.0431 58.6945 45.1218 58.845L45.1299 58.8593L45.4528 58.8694C45.362 58.7209 45.3499 58.5134 45.3559 58.3893C45.3802 57.905 45.7717 57.6731 46.3832 57.7016C47.0311 57.7341 47.3681 58.021 47.348 58.4747C47.3399 58.6212 47.3015 58.8206 47.2107 58.9529L47.5397 58.9813C47.6285 58.8288 47.6568 58.6273 47.6648 58.4707C47.6971 57.7687 47.1562 57.3618 46.3832 57.3231ZM46.2601 59.2886C45.5194 59.138 44.9099 59.3679 44.7727 60.0536C44.7323 60.255 44.7303 60.4422 44.7848 60.6029L44.7908 60.6172L45.1077 60.6762C45.0391 60.5155 45.0593 60.3079 45.0835 60.1859C45.1783 59.7097 45.6001 59.5388 46.2016 59.663C46.8373 59.7932 47.128 60.1289 47.0392 60.5724C47.0109 60.7169 46.9423 60.9081 46.8313 61.0241L47.1522 61.1035C47.2632 60.9671 47.3217 60.7698 47.354 60.6172C47.4933 59.9295 47.019 59.4452 46.2601 59.2886ZM44.4941 61.2968L45.9453 62.9957L44.1147 62.2693L43.9795 62.6152L46.3348 63.5491L46.4801 63.1788L45.0229 61.4738L45.027 61.4656L46.8636 62.194L46.9968 61.8522L44.6415 60.9183L44.4941 61.2968ZM43.5637 63.3517L44.6637 65.3009L43.0047 64.2327L42.8049 64.5481L44.9382 65.9215L45.1521 65.5858L44.0481 63.6305L44.0521 63.6223L45.7152 64.6926L45.911 64.3833L43.7777 63.0099L43.5637 63.3517Z" fill="white"/>
</g>
<defs>
<clipPath id="clip0">
<rect width="69.0829" height="94.6" fill="white"/>
</clipPath>
</defs>
</svg>
