<svg width="92" height="107" viewBox="0 0 92 107" fill="none" xmlns="http://www.w3.org/2000/svg">
<path fill-rule="evenodd" clip-rule="evenodd" d="M11.3391 65.3481L6.90012 61.1112L11.04 56.2437H8.75981L4.59571 61.1436L4.38548 61.1678V56.2437H0.180964C0.13245 56.2437 0.0920186 56.2598 0.0515904 56.3002C-0.0130946 56.3649 -0.0211803 56.4781 0.0515904 56.5509C0.0596761 56.559 0.0758542 56.5671 0.0839399 56.5752C0.504393 56.9471 0.84399 57.4161 1.07039 57.9416V66.9248H4.38548V62.5666L8.97814 66.9248H11.3472C12.3498 66.9248 12.0668 66.0758 11.3391 65.3481ZM17.6621 56.1062C21.1066 56.1062 23.8961 58.5561 23.8961 61.5802C23.8961 64.6042 21.1066 67.0542 17.6621 67.0542C14.2176 67.0542 11.4281 64.6042 11.4281 61.5802C11.4281 58.5561 14.2176 56.1062 17.6621 56.1062ZM17.6621 65.1702C19.2711 65.1702 20.581 63.5692 20.581 61.5883C20.581 59.6073 19.2711 58.0063 17.6621 58.0063C16.0531 58.0063 14.7432 59.6073 14.7432 61.5883C14.7432 63.5612 16.0531 65.1702 17.6621 65.1702ZM48.3713 56.2437H43.4634C43.4148 56.2437 43.3744 56.2598 43.334 56.3002C43.2693 56.3649 43.2612 56.4781 43.334 56.5509C43.3421 56.559 43.3582 56.5671 43.3663 56.5752C43.6736 56.8501 43.9323 57.1654 44.1344 57.5212L40.0593 66.9329H41.1589C42.3394 66.9329 42.6467 66.2294 42.8973 65.6472L43.3987 64.491H48.4279L49.5033 66.9409H51.2336C52.2039 66.9409 52.8184 66.375 52.3009 65.2025L48.3713 56.2437ZM44.1587 62.7445L45.8971 58.7259L47.6679 62.7445H44.1587ZM91.8154 65.1864L87.8696 56.2356H82.9616C82.9131 56.2356 82.8727 56.2518 82.8323 56.2922C82.7676 56.3569 82.7595 56.4701 82.8323 56.5428C82.8404 56.5509 82.8565 56.559 82.8646 56.5671C83.1719 56.842 83.4306 57.1573 83.6409 57.5131L79.5657 66.9248H80.6654C81.8459 66.9248 82.1531 66.2213 82.4037 65.6392L82.905 64.4748H87.9343L89.0178 66.9248H90.7481C91.7184 66.9248 92.3248 66.3588 91.8154 65.1864ZM83.6571 62.7445L85.3954 58.7259L87.1662 62.7445H83.6571ZM61.4296 60.715V56.2437H64.7366V66.9329H61.4296V62.4615H57.0957V66.9329H53.7806V57.9497C53.5542 57.4242 53.2146 56.9552 52.7942 56.5833C52.7861 56.5752 52.7699 56.5671 52.7618 56.559C52.6971 56.4862 52.6971 56.373 52.7618 56.3083C52.7942 56.276 52.8427 56.2517 52.8912 56.2517H57.0957V60.7231H61.4296V60.715ZM77.52 56.2437H67.5343C67.4858 56.2437 67.4453 56.2598 67.4049 56.3002C67.3402 56.3649 67.3321 56.4781 67.4049 56.5509C67.413 56.559 67.4292 56.5671 67.4373 56.5752C67.8577 56.9471 68.1973 57.4161 68.4237 57.9416V62.5828C68.4237 64.022 67.3564 65.1864 65.9252 65.1864V68.453H68.3186L68.5207 66.9248H76.4365L76.6387 68.453H79.032V65.1864H77.52V56.2437ZM74.213 65.1864H69.9115C70.4209 64.4344 70.7119 63.5369 70.7119 62.5828H70.7281V57.974H74.2211V65.1864H74.213ZM35.3777 56.2437L32.3375 64.0382L29.2326 56.2437H24.2196C24.171 56.2437 24.1306 56.2598 24.0902 56.3002C24.0255 56.3649 24.0174 56.4781 24.0902 56.5509C24.0983 56.559 24.1144 56.5671 24.1225 56.5752C24.543 56.9471 24.8826 57.4161 25.109 57.9416V66.4396V66.9329H26.1601C26.9687 66.9329 27.3972 66.2537 27.3972 65.7281V59.6477L30.3323 66.9329H32.2001C32.9844 66.9329 33.5827 66.658 33.9142 65.809L35.9194 60.3593V66.9329H38.0379C38.9597 66.9329 39.2346 66.2698 39.2346 65.4613V56.2437H35.3777Z" fill="white"/>
<path fill-rule="evenodd" clip-rule="evenodd" d="M78.8948 70.3125L74.5852 77.3308V70.3125H70.3806C70.3321 70.3125 70.2917 70.3287 70.2513 70.3691C70.1866 70.4338 70.1785 70.547 70.2513 70.6198C70.2594 70.6279 70.2755 70.6359 70.2836 70.644C70.7041 71.016 71.0437 71.4849 71.2701 72.0105V80.9936H74.6095L78.911 73.9753V80.9936H82.2261V70.3044H78.8948V70.3125ZM16.8699 70.3125H8.88134C8.83283 70.3125 8.7924 70.3287 8.75197 70.3691C8.68728 70.4338 8.6792 70.547 8.75197 70.6198C8.76005 70.6279 8.77621 70.6359 8.78429 70.644C9.20475 71.016 9.54434 71.4849 9.77074 72.0105V80.9936H11.8892C12.811 80.9936 13.0859 80.3306 13.0859 79.522V77.533H16.8699C18.859 77.533 20.468 75.9159 20.468 73.9187C20.468 71.9296 18.859 70.3125 16.8699 70.3125ZM15.2285 75.7946H13.0859V72.0509H15.2285C16.2554 72.0509 17.0883 72.8918 17.0883 73.9187C17.0883 74.9537 16.2554 75.7946 15.2285 75.7946ZM40.7872 72.0671C41.7494 71.9377 43.1644 72.2288 44.5066 73.094L45.4526 71.679C43.7547 70.5632 42.1375 70.175 40.5123 70.175C37.2781 70.175 34.2783 72.625 34.2783 75.649C34.2783 78.6731 37.27 81.123 40.5123 81.123C42.1375 81.123 43.7547 80.7349 45.4526 79.6191L45.202 79.2471C44.7734 78.5922 44.0619 78.576 43.31 78.8186C43.1968 78.8671 43.0835 78.9075 42.9703 78.948C42.1537 79.2229 41.3856 79.3037 40.7872 79.231C38.8952 78.9722 37.5934 77.63 37.5934 75.649C37.5934 73.6761 38.8952 72.3258 40.7872 72.0671ZM52.0909 72.0671C53.0531 71.9377 54.4681 72.2288 55.8104 73.094L56.7564 71.679C55.0584 70.5632 53.4412 70.175 51.816 70.175C48.5818 70.175 45.582 72.625 45.582 75.649C45.582 78.6731 48.5737 81.123 51.816 81.123C53.4412 81.123 55.0584 80.7349 56.7564 79.6191L56.5057 79.2471C56.0772 78.5922 55.3656 78.576 54.6137 78.8186C54.5005 78.8671 54.3873 78.9075 54.2741 78.948C53.4574 79.2229 52.6893 79.3037 52.0909 79.231C50.1989 78.9722 48.8971 77.63 48.8971 75.649C48.8971 73.6761 50.1989 72.3258 52.0909 72.0671ZM27.2519 70.175C23.8074 70.175 21.0179 72.625 21.0179 75.649C21.0179 78.6731 23.8074 81.123 27.2519 81.123C30.6964 81.123 33.4859 78.6731 33.4859 75.649C33.4859 72.625 30.6964 70.175 27.2519 70.175ZM27.2519 79.2391C25.6429 79.2391 24.333 77.6381 24.333 75.6571C24.333 73.6761 25.6429 72.0752 27.2519 72.0752C28.8609 72.0752 30.1708 73.6761 30.1708 75.6571C30.1708 77.63 28.8609 79.2391 27.2519 79.2391ZM61.4622 77.3308V70.3125H57.2577C57.2092 70.3125 57.1687 70.3287 57.1283 70.3691C57.0636 70.4338 57.0555 70.547 57.1283 70.6198C57.1364 70.6279 57.1526 70.6359 57.1606 70.644C57.5811 71.016 57.9207 71.4849 58.1471 72.0105V80.9936H61.4864L65.788 73.9753V80.9936H69.1031V70.3044H65.7638L61.4622 77.3308Z" fill="white"/>
<path fill-rule="evenodd" clip-rule="evenodd" d="M44.1117 34.2349C42.1549 35.7955 41.3464 38.3424 41.3706 40.663C41.3868 42.9351 42.3813 45.1829 44.1117 46.9132L45.373 48.1746L46.4646 49.2661L46.5131 49.3146C46.602 49.3955 46.7152 49.444 46.8365 49.444C47.0953 49.444 47.3055 49.25 47.3298 48.9912C47.3298 48.9831 47.3298 48.9831 47.3298 48.9831C47.3378 48.967 47.3378 48.9508 47.3378 48.9427C47.3378 48.9104 47.3298 48.878 47.3298 48.8457C47.3298 48.8457 47.3217 48.8457 47.3298 48.8376C47.2732 47.8997 47.3378 46.9617 47.5157 46.0399C47.9119 44.0347 48.8903 42.1265 50.4346 40.566C50.8632 40.1374 51.3241 39.7493 51.8011 39.4097C51.8011 39.4097 60.2748 32.6501 63.0563 30.4266C66.9051 27.354 66.5412 21.2737 63.0725 17.7645L60.6872 15.3631C60.5983 15.2741 60.4689 15.2175 60.3395 15.2175C60.0727 15.2175 59.8625 15.4277 59.8463 15.7027C59.8544 15.7431 59.8544 15.7754 59.8544 15.8159C60.0646 19.325 59.531 21.2818 56.7414 24.0794C56.3129 24.516 55.852 24.9041 55.3749 25.2356V25.2437C55.3588 25.2599 46.974 31.9548 44.1117 34.2349Z" fill="white"/>
<path fill-rule="evenodd" clip-rule="evenodd" d="M36.5352 26.6263C34.5785 28.1868 33.77 30.7338 33.7942 33.0543C33.8104 35.3264 34.8049 37.5742 36.5352 39.3045L37.7966 40.5659L38.8882 41.6575L38.9367 41.706C39.0175 41.7868 39.1388 41.8353 39.2601 41.8353C39.5188 41.8353 39.7291 41.6413 39.7533 41.3825C39.7533 41.3745 39.7533 41.3745 39.7533 41.3745C39.7614 41.3664 39.7614 41.3502 39.7614 41.3421C39.7614 41.3098 39.7533 41.2774 39.7533 41.2451C39.7533 41.2451 39.7453 41.2451 39.7533 41.237C39.6967 40.2991 39.7614 39.3611 39.9393 38.4394C40.3355 36.4341 41.3139 34.5259 42.8582 32.9654C43.2868 32.5369 43.7476 32.1488 44.2247 31.8092C44.2247 31.8092 52.6984 25.0496 55.4799 22.826C59.3286 19.7535 58.9648 13.6731 55.4961 10.1639L53.1108 7.76249C53.0219 7.67355 52.8925 7.61694 52.7631 7.61694C52.4963 7.61694 52.2861 7.82717 52.2699 8.10209C52.278 8.14251 52.278 8.17486 52.278 8.21528C52.4882 11.7244 51.9545 13.6812 49.165 16.4788C48.7365 16.9154 48.2756 17.3035 47.7985 17.6351V17.6431C47.7824 17.6512 39.3976 24.3461 36.5352 26.6263Z" fill="white"/>
<path fill-rule="evenodd" clip-rule="evenodd" d="M28.9665 19.0174C27.0098 20.5779 26.2012 23.1249 26.2254 25.4455C26.2416 27.7176 27.2362 29.9653 28.9665 31.6957L30.2278 32.957L31.3194 34.0486L31.3679 34.0971C31.4569 34.178 31.5701 34.2184 31.6913 34.2184C31.942 34.2184 32.1603 34.0243 32.1846 33.7656C32.1846 33.7575 32.1846 33.7575 32.1846 33.7575C32.1926 33.7494 32.1926 33.7333 32.1926 33.7252C32.1926 33.6928 32.1846 33.6605 32.1846 33.6282C32.1846 33.6282 32.1765 33.6281 32.1846 33.6201C32.128 32.6821 32.1926 31.7442 32.3705 30.8224C32.7667 28.8172 33.7451 26.909 35.2894 25.3484C35.718 24.9199 36.1789 24.5318 36.6559 24.1922C36.6559 24.1922 45.1297 17.4326 47.9111 15.2091C51.7599 12.1365 51.396 6.05615 47.9273 2.54698L45.542 0.145548C45.4531 0.0566058 45.3237 0 45.1943 0C44.9275 0 44.7173 0.210231 44.7011 0.485143C44.7092 0.525571 44.7092 0.557913 44.7092 0.598341C44.9194 4.10751 44.3858 6.06423 41.5962 8.86186C41.1677 9.29848 40.7068 9.68659 40.2298 10.0181V10.0262C40.2136 10.0343 31.8288 16.7292 28.9665 19.0174Z" fill="white"/>
<path fill-rule="evenodd" clip-rule="evenodd" d="M52.9088 94.4562C55.5689 94.4562 57.7763 96.421 58.1563 98.9923C58.504 99.1055 58.876 99.1863 59.2479 99.2267C58.9649 95.9601 56.232 93.3889 52.9088 93.3889C52.7228 93.3889 52.5368 93.397 52.359 93.4132C52.3751 93.583 52.3832 93.7527 52.3832 93.9225C52.3832 94.1085 52.3751 94.2945 52.359 94.4805C52.5368 94.4562 52.7228 94.4562 52.9088 94.4562ZM58.2049 100.116C58.5525 100.205 58.8921 100.27 59.2641 100.302C58.9972 103.601 56.2562 106.188 52.9088 106.188C49.3915 106.188 46.5373 103.326 46.5373 99.7846C46.5373 96.801 48.5587 94.3026 51.3078 93.5911C51.3078 93.6962 51.3159 93.8093 51.3159 93.9225C51.3159 94.1894 51.2916 94.4562 51.2593 94.723C49.1328 95.4184 47.6046 97.4236 47.6046 99.7927C47.6046 102.736 49.9818 105.129 52.9088 105.129C55.7307 105.121 58.0351 102.906 58.2049 100.116Z" fill="white"/>
<path fill-rule="evenodd" clip-rule="evenodd" d="M66.1776 93.9224C66.1776 97.4558 63.3233 100.318 59.8061 100.318C56.4749 100.318 53.75 97.755 53.4589 94.4803C53.8389 94.5207 54.2028 94.6016 54.5585 94.7148C54.9386 97.278 57.146 99.2428 59.8061 99.2428C62.7331 99.2428 65.1183 96.8575 65.1183 93.9143C65.1183 90.9631 62.7412 88.5778 59.8061 88.5778C56.9843 88.5778 54.6798 90.7933 54.51 93.5828C54.1704 93.4939 53.8228 93.4292 53.4589 93.3968C53.7177 90.0979 56.4587 87.5105 59.8061 87.5105C63.3314 87.5186 66.1776 90.3809 66.1776 93.9224Z" fill="white"/>
<path fill-rule="evenodd" clip-rule="evenodd" d="M38.572 93.9233C38.572 90.3818 35.7178 87.5195 32.2005 87.5195C28.6833 87.5195 25.829 90.3818 25.829 93.9233C25.829 97.4568 28.6833 100.319 32.2005 100.319C32.3865 100.319 32.5725 100.311 32.7503 100.295C32.7423 100.125 32.7342 99.9552 32.7342 99.7774C32.7342 99.5914 32.7423 99.4054 32.7584 99.2113C32.5805 99.2275 32.3865 99.2356 32.2005 99.2356C29.2735 99.2356 26.8963 96.8503 26.8963 93.9072C26.8963 90.9559 29.2735 88.5707 32.2005 88.5707C35.1356 88.5707 37.5128 90.9559 37.5128 93.9072C37.5128 96.2682 35.9765 98.2815 33.8581 98.9769C33.8176 99.2356 33.7934 99.5024 33.7934 99.7693C33.7934 99.8825 33.8015 99.9957 33.8015 100.101C36.5506 99.4054 38.572 96.8989 38.572 93.9233Z" fill="white"/>
<path fill-rule="evenodd" clip-rule="evenodd" d="M46.0039 87.5188C42.6565 87.5188 39.9074 90.1143 39.6486 93.4051C40.0125 93.4375 40.3601 93.4941 40.6997 93.5911C40.8695 90.8016 43.174 88.5861 45.9958 88.5861C48.9309 88.5861 51.3 90.9713 51.3 93.9226C51.3 96.2836 49.7637 98.2969 47.6453 98.9923C47.6049 99.2511 47.5887 99.5179 47.5887 99.7847C47.5887 99.8898 47.5887 100.011 47.5968 100.116C50.3378 99.3966 52.3673 96.8981 52.3673 93.9226C52.3835 90.3811 49.5212 87.5188 46.0039 87.5188ZM46.0039 99.2511C46.1899 99.2511 46.3759 99.243 46.5618 99.2268C46.5457 99.4128 46.5376 99.5987 46.5376 99.7847C46.5376 99.9626 46.5457 100.124 46.5618 100.294C46.3759 100.31 46.1899 100.318 46.012 100.318C42.6888 100.318 39.9478 97.7552 39.6648 94.4805C40.0448 94.5209 40.4087 94.6018 40.7644 94.715C41.1364 97.2782 43.3437 99.2511 46.0039 99.2511Z" fill="white"/>
<path fill-rule="evenodd" clip-rule="evenodd" d="M38.5483 94.4805C38.5645 94.2945 38.5726 94.1085 38.5726 93.9225C38.5726 93.7527 38.5645 93.583 38.5564 93.4132C38.7343 93.397 38.9203 93.3889 39.1062 93.3889C42.4375 93.3889 45.1705 95.9521 45.4535 99.2267C45.0734 99.1863 44.7096 99.1055 44.3538 98.9923C43.9738 96.421 41.7664 94.4562 39.1062 94.4562C38.9203 94.4562 38.7343 94.4562 38.5483 94.4805ZM45.4535 100.302C45.0896 100.27 44.7419 100.205 44.4023 100.116C44.2326 102.906 41.9281 105.121 39.1062 105.121C36.1792 105.121 33.8021 102.728 33.8021 99.7846C33.8021 97.4236 35.3383 95.4103 37.4649 94.7149C37.5053 94.4562 37.5215 94.1813 37.5215 93.9145C37.5215 93.8013 37.5215 93.6962 37.5134 93.583C34.7723 94.2945 32.7429 96.801 32.7429 99.7766C32.7429 103.318 35.589 106.18 39.1062 106.18C42.4537 106.188 45.2028 103.601 45.4535 100.302Z" fill="white"/>
</svg>
