<svg width="94" height="89" viewBox="0 0 94 89" fill="none" xmlns="http://www.w3.org/2000/svg">
<g clip-path="url(#clip0)">
<path d="M92.0108 67.6375C93.3453 58.7002 95.1517 46.6242 91.9403 34.7665C92.8277 33.5455 92.553 32.1768 91.4474 29.2493C91.9967 28.3802 92.0389 27.3176 91.5777 26.4098C89.5459 22.4372 86.6127 19.0207 83.5527 15.9243C84.1161 14.837 83.94 13.4859 83.0421 12.5816C79.7533 9.27057 74.2284 6.13899 67.4887 3.76392C56.7771 -0.00803805 41.7765 -2.10514 31.755 3.16223C30.9381 3.5915 30.3958 4.37616 30.2585 5.25582C24.8745 8.33109 20.4553 12.6273 17.1066 18.0566C13.5043 23.894 12.367 29.0699 12.0465 31.0227C11.9127 31.8355 12.1099 32.6483 12.5923 33.2746C12.3564 34.4428 12.1522 35.6919 11.9796 37.0079C5.81037 40.5933 1.87712 48.2147 1.11653 49.7805C0.79257 50.449 0.743268 51.1985 0.968628 51.8881C-0.246206 54.8719 -1.04905 57.8451 0.968628 60.3504C3.15181 63.0597 7.47239 63.3342 9.71543 60.4771C11.1556 59.8296 11.2754 58.5735 11.5183 57.7712C12.124 70.2694 13.2296 76.237 12.4655 79.7098C11.6451 83.4325 13.9128 85.6739 17.4199 85.023C18.8566 86.1982 21.1243 86.0398 22.8251 85.3995C24.804 86.8597 29.0155 85.3783 31.086 82.9611C34.9769 78.422 34.1178 75.4558 34.7058 68.8303C35.4523 68.4291 36.0967 67.6551 36.2763 66.3602C36.3573 65.7831 36.3326 64.8014 36.2446 63.7283C39.1813 64.6466 43.0618 65.382 47.3964 65.382C51.1783 65.382 54.6784 64.7839 57.675 63.6403C58.2595 64.2737 59.0518 64.6677 59.9004 64.7522C60.4885 65.4066 61.323 65.7831 62.2244 65.7831C62.4146 65.7831 62.6047 65.7655 62.7949 65.7304C65.0485 65.3187 66.8936 64.7944 68.3197 64.1611C68.6754 68.9851 70.0064 77.9963 73.5101 82.5072C75.1299 84.5902 78.7251 86.4726 80.8343 84.8435C82.6935 85.2165 84.845 85.3045 86.0669 83.8653C91.2326 84.3791 93.1517 80.973 91.3136 77.8309C90.5495 76.529 91.7713 69.249 92.0108 67.6375Z" fill="black"/>
<path d="M10.754 53.7143C9.57436 52.518 8.09896 51.6982 7.26794 51.1739C7.07427 51.0543 7.02849 50.8009 7.16229 50.6179C7.42991 50.252 7.5919 49.9811 7.90881 50.0972C8.5532 50.3365 9.24337 50.6813 9.83494 51.0085C10.0603 51.1317 10.2716 50.8185 10.0709 50.6602C9.75747 50.4139 9.3983 50.164 8.99335 49.9529C8.75039 49.8227 8.70814 49.492 8.91941 49.3125C9.5145 48.8058 9.68352 48.5701 9.98283 48.7531C10.4723 49.0451 11.092 49.4251 11.7294 49.8614C11.7892 48.7671 11.8773 47.6588 12.0076 46.5997C11.8914 46.6982 11.7751 46.7967 11.666 46.8882C11.4019 47.1099 11.011 47.0852 10.7822 46.8319C10.0638 46.0332 8.66939 44.6222 7.53555 43.8833C6.42987 45.2274 5.48618 46.6067 4.72206 47.8558C5.98972 49.1612 6.78552 49.0522 6.50382 49.5448C6.41931 49.6925 6.22917 49.7453 6.08128 49.6574C5.4721 49.3055 4.96151 48.9642 4.39459 48.4047C3.72555 49.5377 3.19383 50.5933 3.11285 50.7974C4.07767 51.9621 5.50731 52.8839 6.89116 53.5349C7.29963 53.7284 7.47217 54.2175 7.26441 54.6186C6.95454 55.2133 6.11297 56.7052 5.81718 57.4089C5.66225 57.7783 5.25378 57.9754 4.86996 57.8628C3.88049 57.5707 2.88044 57.064 1.979 56.4237C1.77829 58.8128 3.65865 60.2836 5.49675 60.2836C6.63411 60.2836 7.75388 59.7241 8.35953 58.4715C8.67292 58.5806 9.05322 58.4117 9.14125 58.0422C9.2645 57.525 9.39478 57.1168 9.39126 57.1239C9.0004 56.7931 8.56729 56.5152 8.106 56.297C7.73627 56.1211 8.00036 55.5616 8.3701 55.7375C8.80673 55.9416 9.21519 56.1985 9.59549 56.494C9.70817 56.1844 10.3702 54.3899 10.754 53.7143Z" fill="white"/>
<path d="M89.2851 33.6264C89.3942 33.6933 89.5069 33.725 89.6196 33.725C89.9964 33.725 90.3309 33.3801 90.2429 32.9614C89.9013 31.3393 89.3802 30.0374 88.6689 28.2922C88.7358 28.3063 88.8097 28.3239 88.8801 28.3415C88.933 28.352 88.9823 28.3591 89.0315 28.3591C89.4858 28.3591 89.8168 27.8665 89.595 27.4301C87.2639 22.8735 83.6335 19.0523 79.9291 15.4915C80.2531 15.4 80.5665 15.3331 81.1193 15.2381C81.6299 15.1502 81.827 14.5274 81.4608 14.1579C75.3057 7.9581 59.9706 2.23682 46.6919 2.23682C41.5262 2.23682 36.6739 3.1024 32.79 5.1432C32.2547 5.42469 32.378 6.22694 32.9766 6.3325C19.7507 13.0038 15.1766 25.7166 14.24 31.3956C14.166 31.8355 14.4442 32.1521 14.8175 32.1521C14.9196 32.1521 15.0287 32.1275 15.1414 32.0782C15.1449 32.0747 15.1485 32.0747 15.1485 32.0747C15.1485 32.0747 15.1449 32.0747 15.1414 32.0782C14.6555 34.0522 14.2998 36.195 14.0463 38.4399C12.5744 39.1436 11.2117 40.1429 9.97925 41.2794C10.6694 41.8741 11.6976 42.7995 12.5146 43.6967C12.8702 42.2611 13.3561 41.1492 14.0217 40.6602C13.5498 44.0627 13.5216 49.5341 13.5815 53.3483C13.7716 60.3644 14.3738 67.2926 14.7893 72.7852C15.0816 76.6345 14.9689 78.7316 14.6449 80.2024C14.166 82.3769 15.1485 82.9258 16.24 82.9258C17.2647 82.9258 18.3845 82.4473 18.4972 82.3664C18.3669 83.2918 19.1627 83.6788 20.1874 83.6788C21.5466 83.6788 23.3072 82.9962 23.846 81.9723C23.8777 82.208 23.4762 83.7738 24.6876 83.7738C24.7298 83.7738 24.7756 83.7703 24.8214 83.7668C26.8919 83.5908 28.4307 82.6514 29.3955 81.5254C33.0048 77.3136 31.716 75.0793 32.6738 66.8035C32.8991 66.902 33.1175 66.9654 33.3146 66.9654C33.6914 66.9654 33.9766 66.7296 34.0717 66.0646C34.1492 65.5122 34.0752 64.2033 33.9238 62.8767C32.9449 62.4862 31.973 62.0358 31.1561 61.5573C30.3427 62.7712 28.3074 62.6867 26.825 61.8211C24.7932 60.6389 22.5713 57.0499 22.5713 54.6748C23.9058 56.8001 25.9235 58.7248 27.7511 59.7311C28.8602 60.3433 30.2758 59.6502 29.6455 58.3729C33.4238 60.463 37.6352 61.8211 37.6352 61.8211C37.6352 61.8211 37.6388 61.8282 37.6388 61.8317C40.4135 62.6164 43.8538 63.1688 47.3962 63.1688C51.4069 63.1688 55.5514 62.4651 59.0234 60.5967C59.0304 60.7585 59.0198 60.9239 58.9917 61.0822C58.8614 61.8704 59.4987 62.5565 60.2558 62.5565C60.3579 62.5565 60.4636 62.5425 60.5692 62.5178C60.8544 62.4439 61.1396 62.356 61.4143 62.2469C61.0974 62.8662 61.5692 63.5664 62.2207 63.5664C62.277 63.5664 62.3334 63.5629 62.3897 63.5523C64.4919 63.1688 67.7033 62.3947 69.1188 61.1033C69.1505 61.1245 69.1505 61.1209 69.1822 61.142C69.0273 61.7578 69.5167 62.3067 70.0942 62.3067C70.2034 62.3067 70.3161 62.2856 70.4287 62.2434L70.4499 62.2363C70.4499 62.2434 70.4499 62.2504 70.4499 62.2539C71.3337 61.9161 72.1858 61.4904 72.9852 60.9802L72.9746 60.9978C70.8126 64.1399 78.0663 62.8591 81.9433 57.6199C81.2108 62.4932 73.5556 66.5255 71.9887 63.7353C71.4605 64.0308 70.9464 64.2349 70.5731 64.3651C70.964 69.2314 72.3091 77.3383 75.274 81.1595C76.2177 82.3769 77.9009 83.2531 78.8974 83.2531C79.4854 83.2531 79.834 82.9469 79.6474 82.2256C80.0805 82.4086 81.6862 82.8695 82.9433 82.8695C84.0771 82.8695 84.9293 82.4966 84.38 81.2123C85.1089 81.5219 86.1054 81.7084 87.0456 81.7084C88.9153 81.7084 90.5563 80.9695 89.3942 78.9779C86.6336 74.2489 95.3945 52.9613 89.2851 33.6264Z" fill="white"/>
<path d="M78.894 83.2353C78.8131 83.2353 78.725 83.2282 78.637 83.2177C79.3412 84.8187 79.3166 88.3162 71.2247 84.8151C68.2845 83.5449 63.0378 82.6899 61.5202 85.9235C61.3054 85.92 61.1645 86.11 61.006 86.2754C60.8018 86.3739 60.6011 86.4759 60.4039 86.585C60.2419 86.673 60.175 86.8665 60.2384 87.0389C60.2173 87.06 60.1962 87.0811 60.175 87.1022C59.8264 87.4611 60.3757 88.0839 61.0131 87.5702C60.9955 87.7813 61.161 87.9748 61.3899 87.9678C61.4145 88.2282 61.6892 88.383 61.9251 88.2669C62.1223 88.4991 62.566 88.4499 62.5836 87.9537C63.2526 88.1121 63.0942 86.9263 62.7808 86.3141C64.0062 84.1607 68.4183 85.0122 70.7071 86.0044C80.7744 90.3569 80.9223 84.7764 79.6546 82.2642C79.806 82.9468 79.4645 83.2353 78.894 83.2353Z" fill="#75C4F4"/>
<path d="M15.1446 32.0676C15.1374 32.0712 15.1338 32.0749 15.1338 32.0749C15.1302 32.0749 15.1338 32.0748 15.1446 32.0676Z" fill="#081110"/>
<path d="M70.0502 21.4731C70.0573 21.2443 69.8671 21.1423 69.691 21.1669C69.5009 20.5653 68.4797 20.4527 68.5572 21.9868C68.4445 21.5258 68.6804 21.0438 68.8706 20.6356C69.0467 20.2626 68.4903 19.9319 68.3142 20.3084C67.2156 22.6412 68.5502 23.2042 69.0361 22.9333C69.5713 23.1268 69.9164 22.4794 70.0115 21.8777C70.0502 21.7932 70.0467 21.5821 70.0502 21.4731Z" fill="#D55849"/>
<path d="M26.789 19.3936C25.877 18.9995 25.6269 20.1712 25.3206 21.0333C25.2572 19.2142 25.3276 19.0171 25.134 18.7145C24.8558 18.2817 24.4227 18.3697 24.1198 18.7251C23.9649 18.9081 23.8311 19.1262 23.7079 19.3514C23.6233 19.1332 23.2783 19.0242 23.1233 19.2916C22.7008 20.0129 22.4156 20.7659 22.2606 21.5857C22.2184 21.8109 22.405 22.0678 22.6585 21.9833C23.324 21.7546 23.7149 20.6603 24.0494 20.1044C24.1375 19.9601 24.4931 19.1297 24.6586 19.0875C24.4931 19.1297 24.6973 21.7054 24.7114 22.0748C24.7255 22.4337 25.31 22.7539 25.8558 21.4731C26.3664 20.2733 26.3206 19.7455 26.6059 20.1255C26.7573 20.3296 26.7185 20.9066 26.7678 21.1459C27.0636 22.6237 28.0284 21.818 27.6059 21.4696C27.0038 20.9735 27.6165 19.749 26.789 19.3936Z" fill="#D55849"/>
<path d="M65.0775 23.7916C65.0317 23.584 64.8486 23.5277 64.6937 23.5769C64.6021 23.4045 64.5071 23.2462 64.4226 23.116C64.2782 22.8873 63.9049 22.9154 63.831 23.1934C63.7887 23.3588 63.7641 23.5242 63.7605 23.6895C63.5739 23.6966 63.3802 23.8514 63.4295 24.0907C63.5563 24.7064 63.926 25.2166 64.4578 25.5474C64.5599 25.6107 64.7148 25.6002 64.8134 25.5227C64.9402 25.5157 65.0564 25.4488 65.0881 25.2975C65.1902 24.7873 65.1902 24.2983 65.0775 23.7916Z" fill="black"/>
<path d="M21.4034 31.0364C21.1992 30.9308 20.9034 31.0575 20.9175 31.3143C20.921 31.3777 20.921 31.441 20.921 31.5043C20.7133 31.0293 20.4597 30.5086 19.9809 30.6986C19.8576 30.7478 19.752 30.8428 19.6604 30.9554C19.5196 30.864 19.3083 30.8569 19.1851 31.0328C18.6956 31.7331 18.4209 32.4931 18.3118 33.3375C18.2695 33.6613 18.7731 33.7668 18.9139 33.4994C19.1005 33.144 20.1147 31.529 20.1393 31.3742C20.1393 31.3742 20.2414 31.6416 20.8295 32.9962C20.9422 33.2531 21.3612 33.1722 21.4211 32.9188C21.4774 32.6725 21.5161 32.4262 21.5408 32.1799C21.752 32.2644 22.0619 32.0955 21.995 31.7999C21.9176 31.4551 21.7274 31.2017 21.4034 31.0364Z" fill="black"/>
<path d="M42.28 21.5573C42.3152 21.779 42.3293 21.9901 42.3328 22.2012C42.2976 22.0886 42.2659 21.976 42.2342 21.8634C42.199 21.1878 42.0899 20.5087 42.0406 19.9704C42.0053 19.5622 41.4138 19.5481 41.3926 19.9704C41.3187 21.6065 41.7624 21.793 41.5405 22.9471C40.8891 21.4447 40.9736 19.71 40.4736 18.1513C40.3785 17.8522 39.9419 17.8381 39.8503 18.1513C39.7693 18.4327 39.7024 18.7178 39.6461 19.0028C39.6602 18.6263 39.0792 18.475 39.0193 18.8691C38.7587 20.6213 38.6038 22.3666 39.3503 24.0238C39.4912 24.3335 39.9419 24.154 39.9525 23.862C39.9982 22.4862 39.9771 21.0823 40.1778 19.717C40.4278 21.1526 40.5158 22.6269 41.3117 23.9007C41.4419 24.1118 41.7377 24.1083 41.868 23.9007C41.9736 23.7388 42.0476 23.5559 42.1075 23.3623C42.1427 23.4362 42.1779 23.5101 42.2166 23.584C42.3469 23.8303 42.7378 23.7705 42.8082 23.5066C42.9948 22.7923 43.0195 22.1203 42.9068 21.3919C42.8399 20.9767 42.2166 21.1491 42.28 21.5573Z" fill="#F7D145"/>
<path d="M53.3286 7.95084C53.2406 8.16899 52.885 9.24218 52.392 8.86568C52.1068 8.64753 51.9483 7.12396 51.325 6.88117C51.075 6.78265 50.8849 6.87765 50.7018 7.04303C50.5081 7.21544 50.4588 7.50397 50.2581 7.67639C50.2933 7.3773 50.2687 7.29285 50.4342 6.74746C50.5468 6.34634 49.9236 6.17393 49.8109 6.57506C49.6736 7.06414 49.2545 8.17955 49.9905 8.40122C50.5257 8.56308 50.825 7.9262 51.0081 7.74675C51.0504 7.6799 51.0926 7.61656 51.1314 7.54971C51.1877 7.70101 51.2546 7.8488 51.3286 7.99658C51.5821 8.58067 51.7969 9.69256 52.6244 9.72071C53.2089 9.74182 53.5575 9.09087 53.7829 8.54549C54.0223 8.46808 53.9766 8.24992 53.9625 8.0388C53.9413 7.65879 53.4625 7.61657 53.3286 7.95084Z" fill="#F7D145"/>
<path d="M72.9814 12.3106C72.9391 12.0115 72.5976 12.0256 72.4356 12.2121C72.3018 11.9798 71.5658 11.2092 71.4849 11.1107C71.263 10.8574 70.8722 11.1283 70.9461 11.4239C71.0377 11.7969 71.0658 12.1487 71.0377 12.5076C70.6961 12.2296 70.3933 11.9165 70.1116 11.5681C69.851 11.2444 69.3967 11.7054 69.6538 12.0256C70.0728 12.5463 70.5552 12.9862 71.1081 13.3662C71.2771 13.4823 71.5377 13.3662 71.5834 13.1726C71.6504 12.8876 71.682 12.6061 71.6891 12.3247C71.7384 12.3809 71.7877 12.4408 71.8405 12.4971C71.9884 12.666 72.1292 12.856 72.3546 12.9193C72.7736 13.0389 73.0342 12.6941 72.9814 12.3106Z" fill="#F7D145"/>
<path d="M38.8132 9.68535C38.5808 9.58683 38.4188 9.42498 38.3167 9.19275C38.1371 8.87256 37.623 9.08719 37.7251 9.44257C38.4258 11.8563 37.8272 11.0928 37.4434 10.8465C37.042 10.5896 36.6405 10.3363 36.2356 10.0794C35.9539 9.89999 35.644 10.2483 35.7919 10.5228C35.88 10.6811 36.718 12.2715 36.6053 12.3102C36.5208 12.3419 34.7109 10.8852 34.644 10.8289C34.3236 10.5685 33.8658 11.0224 34.1862 11.2863C34.7813 11.7754 35.3905 12.2434 36.0173 12.6867C36.306 12.8908 36.7215 13.299 37.1124 13.0632C37.5596 12.7923 37.3413 12.071 37.0208 11.406C38.211 12.1695 38.8308 12.0112 38.5632 10.2765C38.8977 10.3539 39.1477 9.87184 38.8132 9.68535Z" fill="#7BB85E"/>
<path d="M86.3452 28.3271C86.0318 28.0878 85.5494 28.2989 85.5107 28.9323C85.5072 28.9323 85.5072 28.9287 85.5037 28.9287C85.229 28.7493 84.9508 28.5558 84.6128 28.2989C84.2818 28.0491 83.9578 28.6086 84.2853 28.8549C85.2501 29.5867 85.4262 29.6641 85.6128 29.6606C85.8945 29.6571 86.1586 29.4073 86.1586 28.9674C86.1621 28.9569 86.1621 28.9499 86.1621 28.9428C86.4333 28.9745 86.6234 28.5417 86.3452 28.3271Z" fill="#7BB85E"/>
<path d="M52.3242 32.0707C52.2854 32.2502 52.2291 32.4156 52.1657 32.5774C51.9967 32.4719 51.7432 32.5035 51.6974 32.7534C51.6411 33.0489 51.6728 33.3023 51.796 33.5767C51.9052 33.823 52.2291 33.7491 52.3524 33.5767C52.6446 33.1791 52.8453 32.7252 52.9475 32.2432C53.0355 31.8385 52.4122 31.6661 52.3242 32.0707Z" fill="#75C4F4"/>
<path d="M60.7479 15.0372C60.336 14.7733 59.9028 14.6326 59.4169 14.5728C59.2127 14.5481 59.0472 14.7979 59.107 14.9809C59.1387 15.0759 59.1599 15.1674 59.1669 15.2589C58.9732 15.0548 58.7937 14.8437 58.6282 14.6115C58.3887 14.2772 57.8288 14.5974 58.0718 14.9387C58.3817 15.375 58.7267 15.7691 59.1282 16.121C59.2725 16.2476 59.5402 16.2547 59.6352 16.0541C59.7514 15.8043 59.8148 15.558 59.8148 15.3046C60.0296 15.3715 60.2303 15.4665 60.424 15.5932C60.7726 15.8219 61.0965 15.2624 60.7479 15.0372Z" fill="#75C4F4"/>
<path d="M73.9506 44.5165C75.6373 41.6171 77.2289 33.5982 75.1514 31.9022C72.5104 29.7453 66.9715 35.2343 66.2215 35.9345C66.0771 33.4152 70.8238 29.9705 74.2288 29.6925C74.8309 29.6432 75.3979 29.981 75.6725 30.5194C75.7676 30.7023 75.831 30.7938 75.831 30.7938C75.8415 30.7868 75.8556 30.7833 75.8662 30.7762C76.6866 30.4033 77.6479 30.8572 77.8839 31.7227C78.8311 35.2238 78.7818 42.7677 73.9506 44.5165Z" fill="black"/>
<path d="M29.7832 43.1125C28.2866 40.1147 27.2091 32.0078 29.3888 30.449C32.16 28.4645 37.3398 34.2949 38.044 35.0408C37.4313 31.8635 32.9734 28.0317 29.336 28.2499C29.0684 28.943 28.7831 29.2984 28.7831 29.2984C27.6423 28.6827 27.181 28.8199 27.181 28.8199C25.8041 31.8283 24.1421 38.943 29.7832 43.1125Z" fill="black"/>
<path d="M62.4643 44.0276C59.5945 43.9326 57.1894 46.1493 57.0979 48.9607C57.0099 51.7721 59.2705 54.1331 62.1368 54.2246C62.1932 54.2281 62.2495 54.2281 62.3094 54.2281C65.1017 54.2281 67.4152 52.0466 67.5032 49.295C67.5948 46.4801 65.3341 44.1191 62.4643 44.0276Z" fill="#DC7D43"/>
<path d="M62.4478 44.5833C62.3949 44.5833 62.3456 44.5798 62.2963 44.5798C59.8033 44.5798 57.7363 46.5221 57.6588 48.9746C57.5779 51.4799 59.5991 53.5805 62.159 53.6649C64.7225 53.7494 66.8705 51.7754 66.9479 49.2737C67.0289 46.7684 65.0077 44.6643 62.4478 44.5833Z" fill="#F7D145"/>
<path d="M62.2397 50.3154C62.8971 50.3154 63.4299 49.7829 63.4299 49.1261C63.4299 48.4692 62.8971 47.9368 62.2397 47.9368C61.5824 47.9368 61.0496 48.4692 61.0496 49.1261C61.0496 49.7829 61.5824 50.3154 62.2397 50.3154Z" fill="black"/>
<path d="M62.2388 47.11C62.6745 47.11 63.0276 46.7572 63.0276 46.3219C63.0276 45.8866 62.6745 45.5337 62.2388 45.5337C61.8032 45.5337 61.4501 45.8866 61.4501 46.3219C61.4501 46.7572 61.8032 47.11 62.2388 47.11Z" fill="white"/>
<path d="M42.1893 44.0276C39.3194 43.9326 36.9144 46.1493 36.8229 48.9607C36.7348 51.7721 38.9955 54.1331 41.8618 54.2246C41.9181 54.2281 41.9745 54.2281 42.0343 54.2281C44.8267 54.2281 47.1401 52.0466 47.2282 49.295C47.3197 46.4801 45.0591 44.1191 42.1893 44.0276Z" fill="#DC7D43"/>
<path d="M42.1727 44.5833C42.1199 44.5833 42.0706 44.5798 42.0213 44.5798C39.5283 44.5798 37.4613 46.5221 37.3838 48.9746C37.3028 51.4799 39.324 53.5805 41.884 53.6649C44.4475 53.7494 46.5955 51.7754 46.6729 49.2737C46.7539 46.7684 44.7327 44.6643 42.1727 44.5833Z" fill="#F7D145"/>
<path d="M42.0335 50.3154C42.6908 50.3154 43.2237 49.7829 43.2237 49.1261C43.2237 48.4692 42.6908 47.9368 42.0335 47.9368C41.3762 47.9368 40.8433 48.4692 40.8433 49.1261C40.8433 49.7829 41.3762 50.3154 42.0335 50.3154Z" fill="black"/>
<path d="M42.035 47.1381C42.4707 47.1381 42.8238 46.7852 42.8238 46.3499C42.8238 45.9147 42.4707 45.5618 42.035 45.5618C41.5994 45.5618 41.2463 45.9147 41.2463 46.3499C41.2463 46.7852 41.5994 47.1381 42.035 47.1381Z" fill="white"/>
<path d="M54.1463 51.3885L50.1602 51.2618C49.6532 51.2442 49.4102 51.8741 49.794 52.2048L51.7378 53.8621C51.9279 54.024 52.2061 54.0345 52.4068 53.8832L54.4527 52.3526C54.8541 52.05 54.6534 51.4061 54.1463 51.3885Z" fill="black"/>
<path d="M53.5674 54.411C53.099 54.2386 52.6202 54.1577 52.1448 54.1577C51.5638 54.1577 50.9933 54.2809 50.4687 54.5096C50.1271 54.6574 49.9722 55.055 50.1201 55.3927C50.268 55.7341 50.6659 55.8889 51.0039 55.7411C51.3631 55.5828 51.7504 55.5018 52.1448 55.5018C52.4652 55.5018 52.7857 55.5546 53.1026 55.6707C53.4512 55.7974 53.8385 55.6179 53.9653 55.2696C54.092 54.9248 53.916 54.5377 53.5674 54.411Z" fill="black"/>
<path d="M47.7519 56.6666C45.5335 58.4576 43.2411 61.6314 42.2552 65.7165C42.2199 65.8678 42.3115 66.0156 42.4594 66.0543C42.6108 66.0895 42.7587 65.998 42.7974 65.8502C43.7517 61.8918 45.9807 58.8095 48.1005 57.1029C48.2202 57.0079 48.2378 56.832 48.1427 56.7124C48.0476 56.5892 47.8716 56.5716 47.7519 56.6666Z" fill="black"/>
<path d="M44.7703 56.0578C44.9077 55.9874 44.964 55.822 44.8936 55.6848C44.8232 55.5476 44.6577 55.4913 44.5203 55.5616C43.1647 56.2478 41.5801 57.3526 40.1469 58.841C38.7138 60.3294 37.432 62.2013 36.6926 64.418C36.6433 64.5623 36.7243 64.7206 36.8686 64.7699C37.013 64.8191 37.1715 64.7382 37.2208 64.5939C37.9285 62.4722 39.161 60.6672 40.5483 59.228C41.9322 57.7854 43.4745 56.7122 44.7703 56.0578Z" fill="black"/>
<path d="M46.5098 56.6313C46.6366 56.5469 46.6718 56.3745 46.5873 56.2443C46.5028 56.1176 46.3302 56.0824 46.1999 56.1669C44.9147 57.0219 43.5414 58.1725 42.3336 59.6679C41.1258 61.1633 40.0835 63 39.4602 65.2203C39.418 65.3681 39.506 65.5229 39.6539 65.5651C39.8018 65.6073 39.9567 65.5194 39.999 65.3716C40.6011 63.2323 41.6047 61.4624 42.7702 60.0198C43.9358 58.5736 45.2633 57.4582 46.5098 56.6313Z" fill="black"/>
<path d="M57.576 56.392C57.4633 56.2864 57.2873 56.297 57.1816 56.4096C57.076 56.5221 57.0865 56.6981 57.1992 56.8036C59.2944 58.7248 61.4177 62.1484 62.0198 66.413C62.041 66.5643 62.1818 66.6699 62.3367 66.6487C62.4882 66.6276 62.5938 66.4869 62.5727 66.3321C61.9459 61.9303 59.7698 58.4081 57.576 56.392Z" fill="black"/>
<path d="M67.5889 65.0477C67.0185 62.7501 66.0008 60.7621 64.793 59.1541C63.5852 57.5461 62.1873 56.3145 60.8527 55.5264C60.7189 55.449 60.5499 55.4912 60.4724 55.6249C60.395 55.7586 60.4372 55.9275 60.571 56.0049C61.8352 56.7473 63.1803 57.9331 64.3494 59.4883C65.5149 61.04 66.5008 62.9612 67.0502 65.1815C67.0889 65.3292 67.2368 65.4207 67.3882 65.3855C67.5361 65.3503 67.6276 65.199 67.5889 65.0477Z" fill="black"/>
<path d="M59.1342 56.026C59.0109 55.9345 58.8384 55.9556 58.7433 56.0787C58.6517 56.2019 58.6729 56.3743 58.7961 56.4693C61.2258 58.3201 63.3914 61.3954 64.2505 65.9625C64.2787 66.1138 64.4231 66.2124 64.5745 66.1842C64.7259 66.1561 64.8245 66.0118 64.7963 65.8605C63.916 61.1667 61.6765 57.9577 59.1342 56.026Z" fill="black"/>
<path d="M39.5028 86.4269C39.4218 86.1806 39.3091 86.1982 38.1858 85.8991C38.1647 85.8921 38.14 85.8885 38.1189 85.8885C35.2068 83.4712 27.7558 89.0659 25.7382 87.4403C25.0198 86.8526 25.1853 85.0652 25.5762 83.6577C25.3332 83.7035 25.0797 83.7387 24.8191 83.7598C24.7733 83.7633 24.7276 83.7668 24.6853 83.7668C24.4952 83.7668 24.3508 83.7246 24.2311 83.6612C23.6993 85.6598 23.7381 88.1018 25.5163 88.802C28.4988 89.9842 35.066 85.4487 37.1752 86.8104C37.1787 86.8421 37.1787 86.8632 37.1893 86.8914C37.1646 87.2538 37.1752 87.6267 37.228 88.0138C37.3161 88.6014 38.0485 88.5275 38.052 88.0631C38.1083 88.042 38.1647 87.9997 38.2105 87.9399C38.3407 88.0596 38.471 88.1757 38.6084 88.2847C38.9534 88.5627 39.4077 88.1018 39.1295 87.7605C39.0591 87.676 38.9851 87.5916 38.9112 87.5106C38.957 87.493 38.9992 87.4684 39.038 87.4332C39.2492 87.4508 39.4394 87.2854 39.4394 87.0638C39.6964 86.9371 39.7316 86.5958 39.5028 86.4269Z" fill="#75C4F4"/>
</g>
<defs>
<clipPath id="clip0">
<rect width="94" height="89" fill="white"/>
</clipPath>
</defs>
</svg>
