<svg width="110" height="92" viewBox="0 0 110 92" fill="none" xmlns="http://www.w3.org/2000/svg">
<path d="M3.78822 59.3979C3.85643 59.3979 3.89666 59.7759 3.82845 59.7759C3.03269 59.8285 2.81757 59.979 2.77735 60.329C2.72313 60.7735 2.72313 61.9759 2.72313 62.907C2.72313 63.7978 2.75112 65.1454 2.79134 65.5917C2.83157 65.9435 3.11489 66.1185 3.86867 66.1728C3.93688 66.1728 3.89666 66.5491 3.82845 66.5491C3.35799 66.5368 2.66892 66.5088 2.15648 66.5088C1.30651 66.5088 0.982958 66.5368 0.512499 66.5491C0.444291 66.5491 0.404066 66.1728 0.472274 66.1728C1.22606 66.1185 1.50938 65.9435 1.54961 65.5917C1.58983 65.1454 1.61782 63.7978 1.61782 62.907C1.61782 61.9759 1.58983 60.7875 1.53737 60.343C1.49539 59.9912 1.30651 59.8285 0.512499 59.7759C0.444291 59.7759 0.484516 59.3979 0.552724 59.3979C1.02493 59.4119 1.64405 59.4242 2.15648 59.4242C2.66892 59.4242 3.31602 59.4119 3.78822 59.3979Z" fill="white"/>
<path d="M12.6988 64.4991V62.8522C12.6988 61.6919 12.6725 61.2193 12.6043 60.4772C12.5641 60.0992 12.3752 59.7894 11.5392 59.7614C11.4571 59.7614 11.499 59.3974 11.5795 59.3974H14.5736C14.6681 59.3974 14.7065 59.7614 14.6278 59.7614C13.6834 59.8157 13.5085 60.1412 13.4263 60.7748C13.3599 61.3138 13.3459 61.7461 13.3459 62.8522C13.3459 63.9321 13.3599 65.0119 13.4263 66.3875C13.4263 66.5363 13.2252 66.6185 13.1168 66.496C11.7824 65.0662 9.05753 62.2589 7.61468 60.6663V63.0815C7.61468 64.2436 7.64266 64.7144 7.71087 65.4564C7.74934 65.8345 7.93823 66.146 8.77421 66.1723C8.85641 66.1723 8.81444 66.5363 8.73398 66.5363H5.73984C5.64714 66.5363 5.60692 66.1723 5.68562 66.1723C6.63004 66.118 6.80668 65.7942 6.88713 65.1607C6.95534 64.6199 6.96758 64.1876 6.96758 63.0815C6.96758 62.0016 6.95533 60.9358 6.87314 60.3565C6.81892 59.9242 6.54959 59.7492 5.78181 59.7772C5.67338 59.7772 5.60692 59.3974 5.83428 59.3974H7.7371C7.95222 59.3974 8.03267 59.4534 8.12711 59.6004C8.18133 59.6827 8.20756 59.7352 8.28976 59.8157L12.6988 64.4991Z" fill="white"/>
<path d="M21.3591 66.1723C21.4256 66.1723 21.4134 66.5503 21.3451 66.5503C20.8729 66.5363 20.1594 66.5083 19.6469 66.5083C18.797 66.5083 18.4332 66.5363 17.961 66.5503C17.8928 66.5503 17.8928 66.1723 17.961 66.1723C18.7148 66.118 18.9998 65.943 19.0401 65.5912C19.0803 65.1467 19.1065 64.0266 19.1065 62.8785V59.8979C18.7148 59.8979 18.4454 59.8979 18.1079 59.9242C16.7472 60.0047 16.6388 60.0852 16.4639 60.8815C16.4517 60.9358 16.1544 60.9498 16.1544 60.829C16.1666 60.7205 16.1666 60.5035 16.1666 60.3302V59.5199C16.1666 59.3851 16.1666 59.3851 16.3555 59.3851H16.5723C17.111 59.3851 18.3248 59.4114 18.7288 59.4114H22.4907C22.7076 59.4114 22.802 59.3309 22.8282 59.2224C22.8422 59.1541 23.206 59.1821 23.206 59.2906V60.7608C23.22 60.8693 22.8824 60.843 22.8685 60.801C22.7338 60.0992 22.4505 59.9784 21.13 59.8979C20.9009 59.8979 20.6036 59.8839 20.1996 59.8839C20.1856 60.7205 20.2119 61.9894 20.2119 62.9205C20.2119 63.8113 20.2398 65.1467 20.2801 65.5912C20.3203 65.943 20.6036 66.118 21.3591 66.1723Z" fill="white"/>
<path d="M25.0304 66.1588C25.786 66.1046 26.0291 65.9296 26.0693 65.5778C26.1095 65.1332 26.1358 63.7979 26.1358 62.907C26.1358 61.9759 26.1095 60.7736 26.0553 60.329C26.0151 59.979 25.8262 59.8565 25.0304 59.8022C24.964 59.8022 25.0304 59.4242 25.0987 59.4242H30.0866C30.2894 59.4242 30.3979 59.412 30.4241 59.3157C30.4643 59.1949 30.6934 59.1687 30.6934 59.412V60.5723C30.7354 60.7736 30.4504 60.7736 30.4241 60.6791C30.3034 60.0595 29.9659 60.0053 28.6717 59.9388H27.2953C27.2953 59.9388 27.2691 60.0053 27.2691 60.14C27.2551 60.5863 27.2288 61.5962 27.2288 62.501H27.3355C28.2939 62.501 28.8728 62.501 29.0757 62.4887C29.5339 62.4345 29.6423 62.2997 29.6826 62.1772C29.749 62.0705 29.9659 62.0827 29.9659 62.2717C29.9659 62.2717 29.9519 62.8248 29.9519 62.907C29.9519 63.2431 29.9659 63.4181 29.9799 63.6491C29.9799 63.8504 29.749 63.8381 29.7088 63.7296C29.6021 63.1503 29.4395 63.1626 27.7815 63.082C27.6066 63.068 27.2288 63.068 27.2288 63.068C27.2288 64.0131 27.2813 65.0107 27.3758 65.457C27.4579 65.807 28.0648 65.9961 28.5895 65.9961C28.6577 65.9961 29.1019 66.0101 29.345 66.0101C30.4381 66.0101 30.6532 65.7668 30.8141 64.9582C30.8421 64.89 31.1114 64.9302 31.1254 64.9985C31.0712 65.3765 31.045 66.0101 31.045 66.3618C31.045 66.5229 31.045 66.5369 30.7739 66.5369H25.0584C24.9902 66.5369 24.964 66.1588 25.0304 66.1588Z" fill="white"/>
<path d="M37.3822 63.1359C37.8002 63.6609 38.8128 64.9035 38.9999 65.0926C39.5263 65.6719 40.1874 66.0779 40.7401 66.2529C40.7681 66.2792 40.7943 66.5907 40.539 66.5767C39.4581 66.5224 38.7306 66.1724 38.0293 65.5651C37.6253 65.2133 36.0477 63.0676 36.0477 63.0676L36.088 62.8523C37.3017 62.9329 38.2059 62.4743 38.2059 61.4225C38.2059 60.5456 37.6393 59.9383 36.5339 59.9383H36.1824C35.9655 59.9383 35.6437 59.9506 35.4951 60.0048C35.4129 60.0311 35.3202 60.2078 35.3062 60.5316C35.2922 60.8817 35.266 61.6517 35.266 62.8786C35.266 63.8779 35.3062 65.1871 35.4006 65.6316C35.4811 65.9834 35.6298 66.1321 36.5339 66.1847C36.6144 66.1847 36.6284 66.5627 36.5339 66.5627C36.06 66.5627 35.1575 66.5224 34.7518 66.5224C34.2411 66.5224 33.5398 66.5627 33.0676 66.5627C32.9994 66.5627 32.9731 66.1847 33.0396 66.1847C33.7951 66.1321 34.0785 65.9151 34.1187 65.5651C34.1607 65.1188 34.1869 63.7974 34.1869 62.9066C34.1869 61.9755 34.1607 60.7749 34.1064 60.3286C34.0662 59.9786 33.8756 59.8158 33.0798 59.7616C33.0134 59.7616 33.0676 59.3853 33.134 59.3853C33.6063 59.3975 34.2936 59.4238 34.6853 59.4238C35.2922 59.4238 36.1544 59.3853 36.6004 59.3853C38.5557 59.3853 39.6348 60.0591 39.6348 61.1652C39.6348 62.2048 38.8932 62.7718 37.3822 63.1359Z" fill="white"/>
<path d="M49.1677 64.4991V62.8522C49.1677 61.6919 49.1414 61.2193 49.0732 60.4772C49.033 60.0992 48.8441 59.7894 48.0081 59.7614C47.9277 59.7614 47.9679 59.3974 48.0484 59.3974H51.0425C51.137 59.3974 51.1772 59.7614 51.0967 59.7614C50.1523 59.8157 49.9774 60.1412 49.897 60.7748C49.8288 61.3138 49.8148 61.7461 49.8148 62.8522C49.8148 63.9321 49.8288 65.0119 49.897 66.3875C49.897 66.5363 49.6941 66.6185 49.5857 66.496C48.2512 65.0662 45.5264 62.2589 44.0853 60.6663V63.0815C44.0853 64.2436 44.1116 64.7144 44.1798 65.4564C44.2182 65.8345 44.4071 66.146 45.2449 66.1723C45.3253 66.1723 45.2833 66.5363 45.2029 66.5363H42.2105C42.116 66.5363 42.0758 66.1723 42.1563 66.1723C43.0989 66.118 43.2756 65.7942 43.356 65.1607C43.4242 64.6199 43.4365 64.1876 43.4365 63.0815C43.4365 62.0016 43.4242 60.9358 43.342 60.3565C43.2878 59.9242 43.0185 59.7492 42.2507 59.7772C42.1423 59.7772 42.0758 59.3974 42.3032 59.3974H44.206C44.4211 59.3974 44.5016 59.4534 44.596 59.6004C44.6502 59.6827 44.6782 59.7352 44.7587 59.8157L49.1677 64.4991Z" fill="white"/>
<path d="M54.4129 63.6754C54.9114 63.6754 55.91 63.6894 56.746 63.6894L55.6004 60.8419L54.4129 63.6754ZM56.1129 59.5065C56.732 60.8821 58.5666 65.1333 58.8237 65.5516C59.0511 65.9296 59.6859 66.1046 60.1984 66.1589C60.2648 66.1589 60.2526 66.5352 60.1844 66.5352C58.9444 66.5352 57.9055 66.5352 57.8793 66.5089L56.9349 64.1742C56.1129 64.1882 54.8169 64.2162 54.1838 64.2162C53.9687 64.7552 53.7658 65.254 53.6032 65.6846C53.4965 65.9576 54.3989 66.1729 54.67 66.1851C54.7785 66.1851 54.7102 66.5352 54.6018 66.5352H51.6619C51.5552 66.5352 51.5552 66.1851 51.6357 66.1729C52.323 66.0504 52.755 65.8753 52.9841 65.3625C53.8463 63.4059 55.0338 61.1114 55.6949 59.5065C55.8156 59.195 55.9765 59.195 56.1129 59.5065Z" fill="white"/>
<path d="M65.8066 66.1723C65.8748 66.1723 65.8608 66.5503 65.7926 66.5503C65.3221 66.5363 64.6068 66.5083 64.0944 66.5083C63.2462 66.5083 62.8806 66.5363 62.4102 66.5503C62.342 66.5503 62.342 66.1723 62.4102 66.1723C63.164 66.118 63.4473 65.943 63.4875 65.5912C63.5277 65.1467 63.554 64.0266 63.554 62.8785V59.8979C63.164 59.8979 62.8946 59.8979 62.5571 59.9242C61.1964 60.0047 61.088 60.0852 60.9131 60.8815C60.8991 60.9358 60.6018 60.9498 60.6018 60.829C60.6158 60.7205 60.6158 60.5035 60.6158 60.3302V59.5199C60.6158 59.3851 60.6158 59.3851 60.8047 59.3851H61.0215C61.5602 59.3851 62.774 59.4114 63.178 59.4114H66.9381C67.155 59.4114 67.2494 59.3309 67.2774 59.2224C67.2897 59.1541 67.6552 59.1821 67.6552 59.2906V60.7608C67.6674 60.8693 67.3299 60.843 67.3176 60.801C67.1812 60.0992 66.8997 59.9784 65.5775 59.8979C65.3484 59.8979 65.051 59.8839 64.647 59.8839C64.6331 60.7205 64.661 61.9894 64.661 62.9205C64.661 63.8113 64.6873 65.1467 64.7275 65.5912C64.7695 65.943 65.051 66.118 65.8066 66.1723Z" fill="white"/>
<path d="M72.8866 59.3979C72.9548 59.3979 72.995 59.7759 72.9268 59.7759C72.131 59.8285 71.9159 59.979 71.8757 60.329C71.8215 60.7735 71.8215 61.9759 71.8215 62.907C71.8215 63.7978 71.8495 65.1454 71.8879 65.5917C71.9299 65.9435 72.2115 66.1185 72.967 66.1728C73.0352 66.1728 72.995 66.5491 72.9268 66.5491C72.4563 66.5368 71.7673 66.5088 71.2548 66.5088C70.4049 66.5088 70.0813 66.5368 69.6091 66.5491C69.5426 66.5491 69.5024 66.1728 69.5706 66.1728C70.3244 66.1185 70.6077 65.9435 70.648 65.5917C70.6882 65.1454 70.7162 63.7978 70.7162 62.907C70.7162 61.9759 70.6882 60.7875 70.634 60.343C70.5937 59.9912 70.4049 59.8285 69.6091 59.7759C69.5426 59.7759 69.5829 59.3979 69.6511 59.3979C70.1233 59.4119 70.7424 59.4242 71.2548 59.4242C71.7673 59.4242 72.4144 59.4119 72.8866 59.3979Z" fill="white"/>
<path d="M78.4771 59.7354C76.98 59.7354 75.8065 61.2196 75.8065 62.8665C75.8065 64.7951 76.9275 66.1725 78.7604 66.1725C80.2033 66.1725 81.4292 64.6464 81.4292 63.0695C81.4292 61.1793 80.2435 59.7354 78.4771 59.7354ZM78.6257 59.2769C81.1074 59.2769 82.7252 60.8415 82.7252 62.8385C82.7252 64.8634 80.971 66.6433 78.5855 66.6433C76.1702 66.6433 74.5123 65.0384 74.5123 63.0537C74.5123 61.0043 76.2385 59.2769 78.6257 59.2769Z" fill="white"/>
<path d="M90.9727 64.4991V62.8522C90.9727 61.6919 90.9447 61.2193 90.8782 60.4772C90.838 60.0992 90.6491 59.7894 89.8131 59.7614C89.7327 59.7614 89.7747 59.3974 89.8551 59.3974H92.8475C92.942 59.3974 92.9804 59.7614 92.9017 59.7614C91.9573 59.8157 91.7824 60.1412 91.7002 60.7748C91.6338 61.3138 91.6198 61.7461 91.6198 62.8522C91.6198 63.9321 91.6338 65.0119 91.7002 66.3875C91.7002 66.5363 91.4991 66.6185 91.3907 66.496C90.0562 65.0662 87.3332 62.2589 85.8903 60.6663V63.0815C85.8903 64.2436 85.9165 64.7144 85.9848 65.4564C86.025 65.8345 86.2139 66.146 87.0498 66.1723C87.132 66.1723 87.0901 66.5363 87.0096 66.5363H84.0155C83.921 66.5363 83.8808 66.1723 83.9613 66.1723C84.9057 66.118 85.0806 65.7942 85.1628 65.1607C85.2292 64.6199 85.2432 64.1876 85.2432 63.0815C85.2432 62.0016 85.2292 60.9358 85.1488 60.3565C85.0946 59.9242 84.8252 59.7492 84.0557 59.7772C83.9473 59.7772 83.8808 59.3974 84.1099 59.3974H86.011C86.2279 59.3974 86.3083 59.4534 86.4027 59.6004C86.457 59.6827 86.4832 59.7352 86.5636 59.8157L90.9727 64.4991Z" fill="white"/>
<path d="M96.2181 63.6754C96.7166 63.6754 97.7152 63.6894 98.5512 63.6894L97.4039 60.8419L96.2181 63.6754ZM97.9163 59.5065C98.5372 60.8821 100.372 65.1333 100.627 65.5516C100.856 65.9296 101.491 66.1046 102.004 66.1589C102.07 66.1589 102.056 66.5352 101.99 66.5352C100.75 66.5352 99.7107 66.5352 99.6827 66.5089L98.7383 64.1742C97.9163 64.1882 96.6221 64.2162 95.989 64.2162C95.7722 64.7552 95.571 65.254 95.4084 65.6846C95.3 65.9576 96.2041 66.1729 96.4735 66.1851C96.5819 66.1851 96.5155 66.5352 96.407 66.5352H93.4671C93.3587 66.5352 93.3587 66.1851 93.4409 66.1729C94.1282 66.0504 94.5602 65.8753 94.7893 65.3625C95.6515 63.4059 96.839 61.1114 97.4983 59.5065C97.6208 59.195 97.7817 59.195 97.9163 59.5065Z" fill="white"/>
<path d="M104.956 66.536C104.335 66.536 103.688 66.536 103.216 66.55C103.15 66.55 103.136 66.172 103.202 66.172C103.958 66.1178 104.241 65.9427 104.281 65.5927C104.321 65.1464 104.349 63.797 104.349 62.9062C104.349 61.9751 104.321 60.7745 104.269 60.33C104.227 59.9782 104.038 59.8154 103.244 59.7612C103.176 59.7612 103.202 59.3849 103.27 59.3849C103.743 59.3971 104.363 59.4251 104.876 59.4251C105.28 59.4251 106.062 59.3971 106.534 59.3849C106.6 59.3849 106.628 59.7612 106.562 59.7612C105.766 59.8154 105.549 59.9782 105.509 60.33C105.455 60.7745 105.441 61.6513 105.441 62.88C105.441 63.8776 105.481 64.7684 105.509 65.1324C105.589 65.808 105.603 66.0092 106.251 66.0092C106.411 66.0092 106.655 65.997 106.857 65.983L107.249 65.9567C108.515 65.8745 108.624 65.5385 108.785 64.7281C108.813 64.6196 109.162 64.7019 109.15 64.8226C109.096 65.1867 109.042 65.808 109.042 66.172V66.3208C109.042 66.4958 108.961 66.536 108.746 66.536H104.956Z" fill="white"/>
<path d="M28.528 72.3279C27.031 72.3279 25.8574 73.812 25.8574 75.459C25.8574 77.3876 26.9785 78.765 28.8114 78.765C30.2542 78.765 31.4802 77.2406 31.4802 75.662C31.4802 73.7718 30.2944 72.3279 28.528 72.3279ZM28.6767 71.8694C31.1584 71.8694 32.7762 73.434 32.7762 75.4309C32.7762 77.4559 31.0237 79.2375 28.6365 79.2375C26.223 79.2375 24.5632 77.6309 24.5632 75.648C24.5632 73.5968 26.2894 71.8694 28.6767 71.8694Z" fill="white"/>
<path d="M36.026 79.1291C35.4051 79.1291 34.758 79.1291 34.2858 79.1431C34.2193 79.1431 34.2053 78.765 34.2718 78.765C35.0273 78.7108 35.3106 78.5358 35.3509 78.1857C35.3911 77.7394 35.4191 76.3901 35.4191 75.4992C35.4191 74.5681 35.3911 73.3675 35.3386 72.923C35.2967 72.5712 35.1078 72.4084 34.3138 72.3542C34.2456 72.3542 34.2718 71.9779 34.34 71.9779C34.8122 71.9901 35.4331 72.0182 35.9455 72.0182C36.3495 72.0182 37.1313 71.9901 37.6035 71.9779C37.6699 71.9779 37.6979 72.3542 37.6297 72.3542C36.8357 72.4084 36.6188 72.5712 36.5786 72.923C36.5244 73.3675 36.5104 74.2444 36.5104 75.473C36.5104 76.4706 36.5524 77.3614 36.5786 77.7272C36.6591 78.401 36.6731 78.604 37.3202 78.604C37.4811 78.604 37.7242 78.59 37.927 78.576L38.3188 78.5498C39.585 78.4675 39.6934 78.1315 39.8543 77.3211C39.8823 77.2126 40.2339 77.2949 40.2199 77.4157C40.1657 77.7797 40.1114 78.401 40.1114 78.765V78.9138C40.1114 79.0888 40.031 79.1291 39.8159 79.1291H36.026Z" fill="white"/>
<path d="M46.316 78.7653C46.3842 78.7653 46.3842 79.1433 46.316 79.1433C45.8438 79.1293 45.1163 79.1013 44.6038 79.1013C43.7539 79.1013 43.3901 79.1293 42.9179 79.1433C42.8514 79.1433 42.8514 78.7653 42.9179 78.7653C43.6734 78.711 43.9567 78.536 43.997 78.1842C44.0232 77.7922 44.0512 76.7001 44.0652 75.972C43.2817 74.8379 41.9875 72.8672 41.7723 72.638C41.5432 72.3964 41.3404 72.3684 40.8279 72.3422C40.7212 72.3282 40.7475 71.9641 40.8542 71.9641C42.0557 71.9641 42.8777 71.9904 42.8777 71.9904C43.7679 73.422 44.7385 75.2299 44.8872 75.4855C45.2649 74.8782 46.1132 73.5165 46.6396 72.638C46.748 72.4629 46.5731 72.3684 46.302 72.3684C46.1551 72.3684 46.2076 71.9641 46.3563 71.9641C46.8827 71.9641 48.2171 71.9782 48.6631 71.9782C48.7558 71.9782 48.7977 72.3142 48.7033 72.3282C48.016 72.4087 47.6784 72.3964 47.3689 72.841C46.6658 73.8666 45.8176 74.9604 45.1705 75.8915C45.1705 76.6056 45.1967 77.7659 45.2369 78.1842C45.2789 78.536 45.5605 78.711 46.316 78.7653Z" fill="white"/>
<path d="M57.3043 79.1426C57.2238 79.1426 57.1836 78.7645 57.264 78.7645C57.9111 78.7243 58.1665 78.509 58.2347 77.6444C58.2347 77.4029 58.2067 76.4578 58.1665 75.5005C58.1403 74.7969 58.1 73.8536 58.0336 73.0695C56.9667 75.2432 55.8212 77.5639 55.1339 78.9956C55.0394 79.1706 54.8366 79.1566 54.7701 78.9816L54.3241 77.9962C53.6508 76.5261 52.6119 74.1231 52.1257 72.9365L52.0593 75.5005C52.0453 76.6591 52.0593 77.2944 52.1117 78.0365C52.1397 78.4145 52.4633 78.7383 53.2993 78.7645C53.3815 78.7645 53.3815 79.1286 53.2993 79.1286H50.1442C50.0498 79.1286 49.9955 78.7645 50.076 78.7645C51.0204 78.712 51.2093 78.3743 51.3037 77.739C51.3842 77.2122 51.3982 76.6066 51.4122 75.5005C51.4244 74.4206 51.4524 73.4336 51.3982 72.9488C51.344 72.5305 51.1411 72.3152 50.2789 72.3677C50.2124 72.3677 50.1844 71.9914 50.3191 71.9914H51.3982C51.8704 71.9914 52.3951 71.9774 52.6119 71.9774C52.9355 71.9774 53.0562 72.1122 53.1646 72.422L55.2808 77.3609L57.6016 72.5182V72.5305C57.6278 72.45 57.6278 72.3152 57.6278 72.261C57.6278 72.1402 57.6278 72.0037 57.8569 72.0037C58.1 72.0037 58.5582 72.0177 58.5582 72.0177C59.1249 72.0177 59.8262 71.9914 60.2984 71.9774C60.3649 71.9774 60.3929 72.3555 60.3247 72.3555C59.4887 72.4097 59.2998 72.639 59.2858 72.8945C59.2456 73.5701 59.312 74.4732 59.354 75.5005C59.368 76.4578 59.5551 78.1992 59.5551 78.1992C59.5691 78.495 59.8385 78.7383 60.5135 78.7505C60.594 78.7505 60.5678 79.1286 60.4873 79.1286C60.0413 79.1286 59.2998 79.1023 58.8538 79.1023C58.3291 79.1023 57.7485 79.1426 57.3043 79.1426Z" fill="white"/>
<path d="M68.9685 73.9475C68.9685 75.1079 67.9716 76.0127 66.2857 76.0127L65.6928 75.9865L65.6648 75.6749L66.0566 75.6207C67.2021 75.4457 67.6201 74.8926 67.6201 74.056C67.6201 73.0427 66.973 72.5299 65.6788 72.5299H65.6526C65.4357 72.5299 65.1786 72.5456 65.0317 72.5982C64.9512 72.6244 64.8428 72.8012 64.8288 73.125C64.8148 73.475 64.7886 74.2451 64.7886 75.4719C64.7886 76.4713 64.8288 77.7804 64.9233 78.2249C65.0037 78.575 65.1524 78.7237 66.0566 78.7797C66.137 78.7797 66.151 79.156 66.0566 79.156C65.5844 79.156 64.6819 79.1158 64.2762 79.1158C63.7637 79.1158 63.0624 79.156 62.5902 79.156C62.5237 79.156 62.4958 78.7797 62.564 78.7797C63.3178 78.7237 63.6011 78.5084 63.6431 78.1584C63.6833 77.7121 63.7095 76.3908 63.7095 75.4999C63.7095 74.5688 63.6833 73.3682 63.6291 72.9219C63.5871 72.5719 63.4 72.4091 62.6042 72.3549C62.536 72.3549 62.5902 71.9768 62.6584 71.9768C63.1306 71.9908 63.8179 72.0171 64.208 72.0171C64.8148 72.0171 65.4497 71.9768 66.0023 71.9768C67.8632 71.9768 68.9685 72.8152 68.9685 73.9475Z" fill="white"/>
<path d="M73.9987 71.9909C74.0651 71.9909 74.1071 72.369 74.0389 72.369C73.2431 72.4215 73.0263 72.5702 72.9878 72.922C72.9336 73.3683 72.9336 74.5689 72.9336 75.5C72.9336 76.3908 72.9598 77.7385 73 78.1848C73.042 78.5348 73.3236 78.7116 74.0791 78.7658C74.1456 78.7658 74.1071 79.1421 74.0389 79.1421C73.5667 79.1298 72.8794 79.1018 72.3669 79.1018C71.517 79.1018 71.1934 79.1298 70.7212 79.1421C70.653 79.1421 70.6145 78.7658 70.681 78.7658C71.4365 78.7116 71.7198 78.5348 71.7601 78.1848C71.8003 77.7385 71.8283 76.3908 71.8283 75.5C71.8283 74.5689 71.8003 73.3806 71.7461 72.936C71.7058 72.5842 71.517 72.4215 70.7212 72.369C70.653 72.369 70.695 71.9909 70.7632 71.9909C71.2336 72.0049 71.8545 72.0172 72.3669 72.0172C72.8794 72.0172 73.5265 72.0049 73.9987 71.9909Z" fill="white"/>
<path d="M80.1419 72.3684C78.3352 72.3684 77.041 73.611 77.041 75.5397C77.041 77.3476 78.4699 78.7512 80.1156 78.7512C81.5305 78.7512 82.2056 78.1719 82.7985 77.1323L82.8387 77.1061C82.8789 77.0921 83.094 77.1183 83.094 77.1989C83.094 77.5226 82.9996 78.2787 82.9331 78.4135C82.7862 78.697 81.6669 79.2378 79.8865 79.2378C77.3786 79.2378 75.7731 77.8079 75.7731 75.6745C75.7731 73.422 77.4853 71.8696 80.1559 71.8696C81.1807 71.8696 81.868 71.9781 82.6096 72.2336C82.7862 72.5032 82.9331 73.1507 82.8667 73.4885C82.8527 73.569 82.676 73.583 82.6498 73.5288C82.1794 72.9757 81.5445 72.3684 80.1419 72.3684Z" fill="white"/>
<path d="M18.6192 85.0527C16.8126 85.0527 15.5184 86.2936 15.5184 88.224C15.5184 90.0319 16.9473 91.4356 18.5912 91.4356C20.0079 91.4356 20.683 90.8545 21.2758 89.8167L21.3161 89.7887C21.3563 89.7747 21.5714 89.8027 21.5714 89.8832C21.5714 90.207 21.477 90.963 21.4105 91.0978C21.2618 91.3813 20.1425 91.9221 18.3639 91.9221C15.8542 91.9221 14.2504 90.4905 14.2504 88.3588C14.2504 86.1063 15.9626 84.5539 18.6332 84.5539C19.6581 84.5539 20.3454 84.6607 21.087 84.918C21.2618 85.1875 21.4105 85.835 21.344 86.1728C21.3283 86.2533 21.1534 86.2673 21.1272 86.2131C20.655 85.66 20.0201 85.0527 18.6192 85.0527Z" fill="white"/>
<path d="M27.0336 85.012C25.5365 85.012 24.363 86.4962 24.363 88.1431C24.363 90.0717 25.4823 91.4491 27.3169 91.4491C28.7598 91.4491 29.9858 89.9247 29.9858 88.3461C29.9858 86.4559 28.8 85.012 27.0336 85.012ZM27.1822 84.5535C29.664 84.5535 31.2817 86.1181 31.2817 88.1151C31.2817 90.14 29.5275 91.9199 27.142 91.9199C24.7268 91.9199 23.0688 90.315 23.0688 88.3303C23.0688 86.2809 24.795 84.5535 27.1822 84.5535Z" fill="white"/>
<path d="M39.642 91.8264C39.5615 91.8264 39.5196 91.4484 39.6018 91.4484C40.2489 91.4081 40.5042 91.1911 40.5724 90.3283C40.5724 90.0868 40.5462 89.1417 40.5042 88.1826C40.478 87.4808 40.4377 86.5374 40.3695 85.7533C39.3044 87.927 38.1589 90.2478 37.4716 91.6777C37.3771 91.8527 37.1743 91.8404 37.1078 91.6654L36.6618 90.6801C35.9867 89.2082 34.9496 86.8069 34.4634 85.6203L34.397 88.1826C34.383 89.3429 34.397 89.9782 34.4494 90.7203C34.4774 91.0983 34.801 91.4221 35.637 91.4484C35.7174 91.4484 35.7174 91.8124 35.637 91.8124H32.4819C32.3875 91.8124 32.3333 91.4484 32.4137 91.4484C33.3581 91.3941 33.547 91.0581 33.6414 90.4228C33.7219 89.896 33.7359 89.2904 33.7481 88.1826C33.7621 87.1045 33.7901 86.1174 33.7359 85.6326C33.6817 85.2143 33.4788 84.999 32.6166 85.0515C32.5501 85.0515 32.5221 84.6752 32.6568 84.6752H33.7359C34.2081 84.6752 34.7328 84.6612 34.9496 84.6612C35.2732 84.6612 35.3939 84.796 35.5023 85.1058L37.6185 90.0447L39.9375 85.2003V85.2143C39.9655 85.1338 39.9655 84.999 39.9655 84.9448C39.9655 84.824 39.9655 84.6875 40.1946 84.6875C40.4377 84.6875 40.896 84.7015 40.896 84.7015C41.4626 84.7015 42.1639 84.6752 42.6361 84.6612C42.7026 84.6612 42.7306 85.0393 42.6624 85.0393C41.8264 85.0935 41.6375 85.3228 41.6235 85.5783C41.5833 86.2539 41.6497 87.157 41.6917 88.1826C41.7057 89.1417 41.8928 90.8831 41.8928 90.8831C41.9068 91.1789 42.1762 91.4221 42.8512 91.4361C42.9317 91.4361 42.9055 91.8124 42.825 91.8124C42.379 91.8124 41.6375 91.7862 41.1915 91.7862C40.6668 91.7862 40.0862 91.8264 39.642 91.8264Z" fill="white"/>
<path d="M51.7733 91.8264C51.6928 91.8264 51.6508 91.4484 51.733 91.4484C52.3801 91.4081 52.6355 91.1911 52.7037 90.3283C52.7037 90.0868 52.6775 89.1417 52.6355 88.1826C52.6093 87.4808 52.569 86.5374 52.5008 85.7533C51.4357 87.927 50.2902 90.2478 49.6029 91.6777C49.5084 91.8527 49.3055 91.8404 49.2391 91.6654L48.7931 90.6801C48.1198 89.2082 47.0809 86.8069 46.5947 85.6203L46.5283 88.1826C46.5143 89.3429 46.5283 89.9782 46.5825 90.7203C46.6087 91.0983 46.9323 91.4221 47.7682 91.4484C47.8487 91.4484 47.8487 91.8124 47.7682 91.8124H44.6132C44.5188 91.8124 44.4645 91.4484 44.545 91.4484C45.4894 91.3941 45.6783 91.0581 45.7727 90.4228C45.8532 89.896 45.8672 89.2904 45.8812 88.1826C45.8934 87.1045 45.9214 86.1174 45.8672 85.6326C45.813 85.2143 45.6101 84.999 44.7479 85.0515C44.6814 85.0515 44.6534 84.6752 44.7881 84.6752H45.8672C46.3394 84.6752 46.8641 84.6612 47.0809 84.6612C47.4045 84.6612 47.5251 84.796 47.6336 85.1058L49.7498 90.0447L52.0706 85.2003V85.2143C52.0968 85.1338 52.0968 84.999 52.0968 84.9448C52.0968 84.824 52.0968 84.6875 52.3259 84.6875C52.569 84.6875 53.0272 84.7015 53.0272 84.7015C53.5939 84.7015 54.2952 84.6752 54.7674 84.6612C54.8339 84.6612 54.8619 85.0393 54.7936 85.0393C53.9577 85.0935 53.7688 85.3228 53.7548 85.5783C53.7146 86.2539 53.7828 87.157 53.823 88.1826C53.837 89.1417 54.0241 90.8831 54.0241 90.8831C54.0381 91.1789 54.3074 91.4221 54.9825 91.4361C55.063 91.4361 55.0367 91.8124 54.9563 91.8124C54.5103 91.8124 53.7688 91.7862 53.3228 91.7862C52.7981 91.7862 52.2192 91.8264 51.7733 91.8264Z" fill="white"/>
<path d="M60.3679 84.6745C60.4343 84.6745 60.4763 85.0526 60.4081 85.0526C59.6141 85.1051 59.3972 85.2556 59.357 85.6056C59.3028 86.0519 59.3028 87.2525 59.3028 88.1836C59.3028 89.0744 59.3308 90.4221 59.371 90.8683C59.4112 91.2201 59.6946 91.3951 60.4483 91.4494C60.5165 91.4494 60.4763 91.8257 60.4081 91.8257C59.9359 91.8134 59.2486 91.7854 58.7362 91.7854C57.8862 91.7854 57.5644 91.8134 57.0904 91.8257C57.024 91.8257 56.9837 91.4494 57.0519 91.4494C57.8057 91.3951 58.0891 91.2201 58.1293 90.8683C58.1695 90.4221 58.1975 89.0744 58.1975 88.1836C58.1975 87.2525 58.1695 86.0641 58.117 85.6196C58.0751 85.2678 57.8862 85.1051 57.0904 85.0526C57.024 85.0526 57.0642 84.6745 57.1324 84.6745C57.6046 84.6885 58.2237 84.7008 58.7362 84.7008C59.2486 84.7008 59.8957 84.6885 60.3679 84.6745Z" fill="white"/>
<path d="M67.5453 91.4489C67.6135 91.4489 67.5995 91.8269 67.5313 91.8269C67.0591 91.8129 66.3455 91.7849 65.8331 91.7849C64.9831 91.7849 64.6194 91.8129 64.1471 91.8269C64.0789 91.8269 64.0789 91.4489 64.1471 91.4489C64.9027 91.3946 65.186 91.2196 65.2262 90.8678C65.2665 90.4233 65.2927 89.3032 65.2927 88.1568V85.1745C64.9027 85.1745 64.6333 85.1745 64.2958 85.2008C62.9334 85.2813 62.825 85.3618 62.6501 86.1581C62.6361 86.2124 62.3405 86.2264 62.3405 86.1056C62.3528 85.9971 62.3528 85.7818 62.3528 85.6068V84.7965C62.3528 84.6617 62.3528 84.6617 62.5416 84.6617H62.7585C63.2972 84.6617 64.5109 84.688 64.9149 84.688H68.6768C68.8937 84.688 68.9882 84.6075 69.0144 84.499C69.0284 84.4325 69.3922 84.4587 69.3922 84.5672V86.0374C69.4061 86.1459 69.0686 86.1196 69.0564 86.0776C68.9199 85.3758 68.6384 85.255 67.3162 85.1745C67.0871 85.1745 66.7898 85.1605 66.3858 85.1605C66.3718 85.9971 66.3998 87.266 66.3998 88.1971C66.3998 89.0879 66.426 90.4233 66.4662 90.8678C66.5082 91.2196 66.7898 91.3946 67.5453 91.4489Z" fill="white"/>
<path d="M75.9863 91.4489C76.0545 91.4489 76.0405 91.8269 75.9723 91.8269C75.5018 91.8129 74.7865 91.7849 74.2741 91.7849C73.4241 91.7849 73.0603 91.8129 72.5881 91.8269C72.5217 91.8269 72.5217 91.4489 72.5881 91.4489C73.3437 91.3946 73.627 91.2196 73.6672 90.8678C73.7074 90.4233 73.7354 89.3032 73.7354 88.1568V85.1745C73.3437 85.1745 73.0743 85.1745 72.7368 85.2008C71.3744 85.2813 71.2677 85.3618 71.0911 86.1581C71.0771 86.2124 70.7815 86.2264 70.7815 86.1056C70.7955 85.9971 70.7955 85.7818 70.7955 85.6068V84.7965C70.7955 84.6617 70.7955 84.6617 70.9826 84.6617H71.1995C71.7382 84.6617 72.9519 84.688 73.3559 84.688H77.1196C77.3347 84.688 77.4291 84.6075 77.4571 84.499C77.4694 84.4325 77.8349 84.4587 77.8349 84.5672V86.0374C77.8471 86.1459 77.5113 86.1196 77.4973 86.0776C77.3609 85.3758 77.0794 85.255 75.7572 85.1745C75.5281 85.1745 75.2307 85.1605 74.8267 85.1605C74.8128 85.9971 74.8407 87.266 74.8407 88.1971C74.8407 89.0879 74.867 90.4233 74.9072 90.8678C74.9492 91.2196 75.2307 91.3946 75.9863 91.4489Z" fill="white"/>
<path d="M79.4656 91.4357C80.2212 91.3814 80.4643 91.2064 80.5045 90.8546C80.5447 90.4101 80.5709 89.0747 80.5709 88.1821C80.5709 87.2528 80.5447 86.0522 80.4905 85.6059C80.4503 85.2559 80.2614 85.1334 79.4656 85.0791C79.3992 85.0791 79.4656 84.7011 79.5321 84.7011H84.5217C84.7246 84.7011 84.8331 84.6888 84.8593 84.5943C84.8995 84.4718 85.1286 84.4455 85.1286 84.6888V85.8492C85.1706 86.0522 84.8855 86.0522 84.8593 85.9559C84.7386 85.3364 84.4011 85.2821 83.1069 85.2156H81.7305C81.7305 85.2156 81.7042 85.2821 81.7042 85.4169C81.6902 85.8632 81.664 86.873 81.664 87.7796H81.7724C82.7291 87.7796 83.308 87.7796 83.5109 87.7656C83.9691 87.7113 84.0775 87.5766 84.1177 87.4541C84.186 87.3473 84.4011 87.3613 84.4011 87.5486C84.4011 87.5486 84.3871 88.1016 84.3871 88.1821C84.3871 88.5199 84.4011 88.6967 84.4151 88.926C84.4151 89.1272 84.186 89.115 84.1457 89.0065C84.0373 88.4272 83.8764 88.4394 82.2167 88.3589C82.0418 88.3449 81.664 88.3449 81.664 88.3449C81.664 89.29 81.7182 90.2876 81.8127 90.7339C81.8931 91.0839 82.5 91.2729 83.0264 91.2729C83.0929 91.2729 83.5389 91.2869 83.782 91.2869C84.8733 91.2869 85.0884 91.0436 85.2493 90.2351C85.2773 90.1668 85.5466 90.2071 85.5606 90.2753C85.5064 90.6534 85.4801 91.2869 85.4801 91.6387C85.4801 91.7997 85.4802 91.8137 85.2108 91.8137H79.4919C79.4254 91.8137 79.3992 91.4357 79.4656 91.4357Z" fill="white"/>
<path d="M87.3137 91.4357C88.0692 91.3814 88.3123 91.2064 88.3525 90.8546C88.3927 90.4101 88.419 89.0747 88.419 88.1821C88.419 87.2528 88.3927 86.0522 88.3385 85.6059C88.2983 85.2559 88.1094 85.1334 87.3137 85.0791C87.2472 85.0791 87.3137 84.7011 87.3801 84.7011H92.3698C92.5744 84.7011 92.6811 84.6888 92.7073 84.5943C92.7475 84.4718 92.9767 84.4455 92.9767 84.6888V85.8492C93.0186 86.0522 92.7336 86.0522 92.7073 85.9559C92.5866 85.3364 92.2491 85.2821 90.9549 85.2156H89.5785C89.5785 85.2156 89.5523 85.2821 89.5523 85.4169C89.5383 85.8632 89.512 86.873 89.512 87.7796H89.6205C90.5771 87.7796 91.156 87.7796 91.3589 87.7656C91.8171 87.7113 91.9256 87.5766 91.9658 87.4541C92.0322 87.3473 92.2491 87.3613 92.2491 87.5486C92.2491 87.5486 92.2351 88.1016 92.2351 88.1821C92.2351 88.5199 92.2491 88.6967 92.2631 88.926C92.2631 89.1272 92.0322 89.115 91.992 89.0065C91.8853 88.4272 91.7244 88.4394 90.0647 88.3589C89.8898 88.3449 89.512 88.3449 89.512 88.3449C89.512 89.29 89.5663 90.2876 89.659 90.7339C89.7412 91.0839 90.348 91.2729 90.8745 91.2729C90.9409 91.2729 91.3851 91.2869 91.6282 91.2869C92.7213 91.2869 92.9382 91.0436 93.0991 90.2351C93.1253 90.1668 93.3946 90.2071 93.4086 90.2753C93.3544 90.6534 93.3282 91.2869 93.3282 91.6387C93.3282 91.7997 93.3282 91.8137 93.0589 91.8137H87.3416C87.2734 91.8137 87.2472 91.4357 87.3137 91.4357Z" fill="white"/>
<path d="M83.206 30.1044C82.809 36.664 77.3646 41.8585 70.7152 41.8585C63.7965 41.8585 58.1982 36.251 58.1982 29.3308C58.1982 23.7723 61.8097 19.0609 66.8169 17.421C66.9078 16.8119 66.9568 16.1871 66.9568 15.5518C66.9568 15.2893 66.9463 15.0338 66.934 14.7782C60.4665 16.4566 55.6902 22.3354 55.6902 29.3308C55.6902 37.6336 62.4131 44.3665 70.7152 44.3665C78.6046 44.3665 85.0773 38.2724 85.6877 30.5279C84.8377 30.4562 84.0087 30.3127 83.206 30.1044ZM70.7152 16.8032C76.9903 16.8032 82.1916 21.4288 83.0941 27.4634C83.9195 27.7312 84.7818 27.9167 85.6772 28.0129C85.0074 20.3262 78.5626 14.2987 70.7152 14.2987C70.2762 14.2987 69.8425 14.3162 69.4158 14.3547C69.4437 14.7485 69.4612 15.1475 69.4612 15.5518C69.4612 15.9963 69.4385 16.4374 69.4053 16.8714C69.8338 16.8259 70.271 16.8032 70.7152 16.8032Z" fill="white"/>
<path d="M53.137 30.5279C52.5301 38.2724 46.0591 44.3665 38.1645 44.3665C29.8641 44.3665 23.1378 37.6336 23.1378 29.3308C23.1378 22.3354 27.9141 16.4566 34.3851 14.7782C34.3955 15.0338 34.4043 15.2893 34.4043 15.5518C34.4043 16.1871 34.3571 16.8119 34.2661 17.421C29.2607 19.0609 25.6492 23.7723 25.6492 29.3308C25.6492 36.251 31.2457 41.8585 38.1645 41.8585C44.8156 41.8585 50.26 36.664 50.657 30.1044C51.4562 30.3127 52.2887 30.4562 53.137 30.5279ZM36.8528 16.8714C36.8878 16.4374 36.9105 15.9963 36.9105 15.5518C36.9105 15.1475 36.893 14.7485 36.8668 14.3547C37.2935 14.3179 37.7255 14.2987 38.1645 14.2987C46.0119 14.2987 52.4636 20.3262 53.1317 28.0129C52.2345 27.9167 51.3671 27.7312 50.5451 27.4634C49.6409 21.4288 44.4378 16.8032 38.1645 16.8032C37.7202 16.8032 37.283 16.8259 36.8528 16.8714Z" fill="white"/>
<path d="M102.012 15.5506C102.012 23.8534 95.2875 30.5845 86.9872 30.5845C79.1328 30.5845 72.6898 24.5552 72.0199 16.8702C72.9189 16.9647 73.7793 17.152 74.6083 17.4215C75.5073 23.4526 80.7051 28.08 86.9872 28.08C93.9007 28.08 99.5059 22.469 99.5059 15.5506C99.5059 8.6322 93.9007 3.02118 86.9872 3.02118C80.3308 3.02118 74.8899 8.21741 74.4929 14.777C73.6884 14.5705 72.8629 14.427 72.0077 14.3535C72.6233 6.60901 79.0926 0.516703 86.9872 0.516703C95.2875 0.516703 102.012 7.24782 102.012 15.5506Z" fill="white"/>
<path d="M54.435 28.0797C48.1599 28.0797 42.9586 23.4523 42.0544 17.4213C41.2289 17.1517 40.3685 16.9645 39.4695 16.87C40.1376 24.5567 46.5806 30.5842 54.435 30.5842C54.8758 30.5842 55.3095 30.5667 55.738 30.5282C55.7082 30.1362 55.6907 29.7354 55.6907 29.3311C55.6907 28.8883 55.7135 28.4455 55.7485 28.0132C55.3182 28.057 54.8792 28.0797 54.435 28.0797ZM54.435 0.516455C46.5404 0.516455 40.0729 6.60877 39.4625 14.3532C40.3125 14.4267 41.1362 14.5703 41.9442 14.7785C42.3377 8.21716 47.7821 3.02094 54.435 3.02094C61.352 3.02094 66.9555 8.6337 66.9555 15.5503C66.9555 21.1071 63.3405 25.822 58.3334 27.4619C58.2442 28.0692 58.1987 28.6958 58.1987 29.3311C58.1987 29.5919 58.2004 29.8492 58.2179 30.1047C64.6854 28.4263 69.4617 22.5475 69.4617 15.5503C69.4617 7.24933 62.7354 0.516455 54.435 0.516455Z" fill="white"/>
<path d="M36.911 15.5506C36.911 7.24782 30.1865 0.516703 21.8861 0.516703C13.591 0.516703 6.86462 7.24782 6.86462 15.5506C6.86462 23.8534 13.591 30.5845 21.8861 30.5845C22.3251 30.5845 22.757 30.5652 23.1855 30.5285C23.1558 30.1347 23.1383 29.7339 23.1383 29.3314C23.1383 28.8868 23.1628 28.4458 23.1978 28.0135C22.7658 28.0555 22.3286 28.08 21.8861 28.08C14.9726 28.08 9.36558 22.469 9.36558 15.5506C9.36558 8.6322 14.9726 3.02118 21.8861 3.02118C28.8031 3.02118 34.4048 8.6322 34.4048 15.5506C34.4048 21.1073 30.7898 25.8223 25.7809 27.4622C25.6935 28.0695 25.648 28.6943 25.648 29.3314C25.648 29.5921 25.6498 29.8494 25.6672 30.1032C32.1365 28.4265 36.911 22.5477 36.911 15.5506Z" fill="white"/>
</svg>
