<svg width="30" height="30" viewBox="0 0 30 30" fill="none" xmlns="http://www.w3.org/2000/svg">
<ellipse cx="15" cy="14.775" rx="15" ry="14.775" fill="#01499B"/>
<g clip-path="url(#clip0)">
<path d="M19.9858 9.76983C19.0081 8.10789 17.2716 7.09255 15.3404 7.05375C15.258 7.05207 15.175 7.05207 15.0926 7.05375C13.1615 7.09255 11.4249 8.10789 10.4471 9.76983C9.44777 11.4686 9.42043 13.5091 10.374 15.2283L14.3688 22.4306C14.3706 22.4338 14.3724 22.4369 14.3743 22.4401C14.55 22.741 14.8649 22.9206 15.2166 22.9206C15.5682 22.9206 15.8831 22.741 16.0588 22.4401C16.0607 22.4369 16.0624 22.4338 16.0642 22.4306L20.0591 15.2283C21.0126 13.5091 20.9852 11.4686 19.9858 9.76983ZM15.2165 14.2428C13.9673 14.2428 12.9511 13.2417 12.9511 12.0113C12.9511 10.7809 13.9673 9.77984 15.2165 9.77984C16.4657 9.77984 17.4819 10.7809 17.4819 12.0113C17.4819 13.2417 16.4657 14.2428 15.2165 14.2428Z" fill="white"/>
</g>
<defs>
<clipPath id="clip0">
<rect width="16.1098" height="15.8681" fill="white" transform="translate(7.16016 7.05249)"/>
</clipPath>
</defs>
</svg>
