<svg width="16" height="22" viewBox="0 0 16 22" fill="none" xmlns="http://www.w3.org/2000/svg">
<path d="M3.66179 15.2588L2.78961 15.3013L1.09861 20.1596C1.04473 20.3144 1.17011 20.4726 1.33309 20.4555L3.70338 20.2073C3.7696 20.2004 3.83542 20.2233 3.88303 20.2698L5.58696 21.9361C5.70409 22.0507 5.90063 22.0045 5.95447 21.8498L7.65651 16.9597L7.15463 16.4726L3.66179 15.2588Z" fill="#FF4755"/>
<path d="M7.65596 16.9599L7.99988 15.9718L3.13195 14.3164L2.78906 15.3016C4.17137 16.2879 5.84508 16.8917 7.65596 16.9599Z" fill="#FC2B3A"/>
<path d="M12.3394 15.2588L13.2116 15.3013L14.9026 20.1596C14.9565 20.3144 14.8311 20.4726 14.6681 20.4555L12.2978 20.2073C12.2316 20.2004 12.1658 20.2233 12.1182 20.2698L10.4143 21.9361C10.2971 22.0507 10.1006 22.0045 10.0468 21.8498L8.34473 16.9597L8.8466 16.4726L12.3394 15.2588Z" fill="#FF4755"/>
<path d="M8.34392 16.9599L8 15.9718L12.8679 14.3164L13.2108 15.3016C11.8285 16.2879 10.1548 16.8917 8.34392 16.9599Z" fill="#FC2B3A"/>
<path d="M8.00065 15.4737C0.014818 15.4737 0.0181698 7.71663 0.024787 7.5833C0.234432 3.3599 3.72517 0 8.00065 0C12.2761 0 15.7669 3.3599 15.9765 7.58334C15.9831 7.71667 15.9865 15.4737 8.00065 15.4737Z" fill="#FFE27A"/>
<path d="M8.00048 15.1668C3.725 15.1668 0.234391 11.8069 0.0247032 7.5835C0.018086 7.71683 0.0146484 7.85102 0.0146484 7.98598C0.0146484 12.3964 3.59004 15.9718 8.00048 15.9718C12.4109 15.9718 15.9863 12.3964 15.9863 7.98598C15.9863 7.85098 15.9829 7.71683 15.9763 7.5835C15.7666 11.8069 12.276 15.1668 8.00048 15.1668Z" fill="#F9CF58"/>
<path d="M8.0007 13.7554C1.72223 13.7554 1.71381 7.58154 1.72223 7.44842C1.92982 4.16149 4.66143 1.55981 8.0007 1.55981C11.34 1.55981 14.0716 4.16149 14.2792 7.44842C14.2876 7.5815 14.2792 13.7554 8.0007 13.7554Z" fill="#FFBA57"/>
<path d="M8.00012 13.4722C4.66089 13.4722 1.92976 10.8704 1.72218 7.5835C1.71375 7.71661 1.70898 7.85076 1.70898 7.98598C1.70898 11.4605 4.52563 14.2771 8.00012 14.2771C11.4746 14.2771 14.2913 11.4605 14.2913 7.98598C14.2913 7.85072 14.2865 7.71661 14.2781 7.5835C14.0705 10.8704 11.3394 13.4722 8.00012 13.4722Z" fill="#FFAC3E"/>
<path d="M8.35867 11.7228C7.92189 11.7228 7.56779 11.3688 7.56779 10.932V10.5137V6.49968C7.56779 6.49968 7.09457 6.97427 6.52837 6.68952C6.08691 6.4675 6.08691 5.89606 6.08691 5.89606L7.062 4.2501C7.2044 4.00973 7.46307 3.8623 7.74246 3.8623H8.35867C8.79545 3.8623 9.14955 4.21637 9.14955 4.65319V10.5137V10.932C9.14955 11.3688 8.79545 11.7228 8.35867 11.7228Z" fill="#FFE27A"/>
<path d="M7.45924 5.87813C7.24934 6.23249 6.80302 6.38615 6.43079 6.20976C6.28014 6.13839 6.16399 6.02749 6.08678 5.89652C5.86717 6.26803 5.98606 6.74597 6.35172 6.97177C6.72882 7.20466 7.23271 7.06561 7.45856 6.68427L7.56795 6.49954V5.90782C7.56795 5.84844 7.48954 5.827 7.45924 5.87813Z" fill="#F9CF58"/>
<path d="M8.35924 11.3046C7.92247 11.3046 7.56836 10.9505 7.56836 10.5137V11.3187C7.56836 11.7555 7.92247 12.1096 8.35924 12.1096C8.79602 12.1096 9.15013 11.7555 9.15013 11.3187V10.5137C9.15013 10.9505 8.79602 11.3046 8.35924 11.3046Z" fill="#F9CF58"/>
</svg>
