<svg width="136" height="136" viewBox="0 0 136 136" fill="none" xmlns="http://www.w3.org/2000/svg">
<path d="M136 68C136 30.4 105.6 0 68 0C30.4 0 0 30.4 0 68C0 105.6 30.4 136 68 136C105.6 136 136 105.6 136 68Z" fill="#E94A3E"/>
<path d="M53.2 90.3999C52.8 90.3999 52.6 90.3999 52.2 90.3999C48.6 90.5999 45.1999 92.3999 42.7999 94.9999C40.3999 97.7999 39.1999 101.2 39.3999 104.8C39.7999 112 45.8 117.6 53 117.6C53.4 117.6 53.6 117.6 54 117.6C57.6 117.4 60.9999 115.6 63.3999 113C65.7999 110.2 66.9999 106.8 66.7999 103.2C66.3999 95.9999 60.4 90.3999 53.2 90.3999ZM61.3999 111.2C59.3999 113.4 56.8 114.6 54 114.8C53.8 114.8 53.4 114.8 53.2 114.8C47.6 114.8 42.7999 110.4 42.3999 104.6C42.1999 101.8 43.2 98.9999 45 96.7999C47 94.5999 49.5999 93.1999 52.3999 93.1999C52.5999 93.1999 53 93.1999 53.2 93.1999C58.8 93.1999 63.6 97.5999 64 103.4C64.2 106.2 63.3999 109 61.3999 111.2Z" fill="white"/>
<path d="M111 87.6002C110.6 80.4002 104.6 74.8002 97.3999 74.8002C96.9999 74.8002 96.7999 74.8002 96.3999 74.8002C94.7999 75.0002 92.9999 75.4002 91.5999 76.0001C89.9999 71.6001 89.3999 66.6002 89.3999 60.6002C89.3999 60.0002 88.7999 59.4002 88.1999 59.2002C78.9999 57.0002 67.7999 51.4002 57.7999 39.2002C54.1999 34.8002 44.5999 32.2002 39.7999 43.2002C35.7999 52.2002 34.3999 59.6002 36.5999 65.2002C38.5999 70.2002 47.1999 74.6002 50.3999 76.8002C53.5999 79.0002 64.9999 88.0002 71.3999 98.8002C71.9999 99.8002 73.3999 99.6002 72.7999 98.0001C67.7999 79.8001 57.5999 70.4002 54.3999 67.2002C52.7999 65.6002 49.7999 63.2002 49.9999 60.2002C50.1999 57.8002 52.3999 51.4002 56.7999 53.4002C65.5999 57.6002 74.9999 60.8002 86.5999 60.4002V60.6002C86.5999 67.0002 87.3999 72.6002 89.1999 77.4002C88.3999 78.0002 87.7999 78.6002 86.9999 79.4002C84.5999 82.2002 83.3999 85.6002 83.5999 89.2002C83.9999 96.4002 89.9999 102 97.1999 102C97.5999 102 97.7999 102 98.1999 102C105.8 101.6 111.4 95.0002 111 87.6002ZM97.9999 99.4002C97.7999 99.4002 97.3999 99.4002 97.1999 99.4002C91.5999 99.4002 86.7999 95.0002 86.3999 89.2002C86.1999 86.4002 87.1999 83.6002 88.9999 81.4002C89.3999 81.0002 89.7999 80.6002 90.1999 80.2002C91.7999 83.4002 93.5999 86.4002 96.1999 89.4002C96.3999 89.8002 96.7999 89.8002 97.1999 89.8002C97.5999 89.8002 97.7999 89.6002 98.1999 89.4002C98.7999 88.8002 98.7999 88.0002 98.3999 87.4002C95.9999 84.6002 93.9999 81.6002 92.5999 78.6002C93.7999 78.0002 95.1999 77.6002 96.5999 77.6002C96.7999 77.6002 97.1999 77.6002 97.3999 77.6002C103 77.6002 107.8 82.0002 108.2 87.8002C108.6 93.8002 104 99.0002 97.9999 99.4002Z" fill="white"/>
<path d="M51.7999 33.6C53.9999 34.4 58.1999 36.4 62.3999 39C64.1999 40.2 65.9999 39.2 67.5999 38C69.3999 36.6 69.7999 35.2 67.9999 34.4C67.3999 34 65.9999 33.4 65.1999 33C65.3999 31.6 65.3999 30 64.7999 28.2C65.1999 28.2 65.7999 28 66.1999 28C69.9999 27.6 78.5999 29.4 72.5999 25.4C66.3999 21.4 58.1999 17 53.1999 19.2C47.1999 21.8 48.9999 29 49.3999 30.4C49.7999 31.6 50.5999 33 51.7999 33.6Z" fill="white"/>
</svg>
