<svg width="136" height="136" viewBox="0 0 136 136" fill="none" xmlns="http://www.w3.org/2000/svg">
<path d="M136 68C136 30.4 105.6 0 68 0C30.4 0 0 30.4 0 68C0 105.6 30.4 136 68 136C105.6 136 136 105.4 136 68Z" fill="#E94A3E"/>
<path d="M38.6001 65C28.2001 65 19.6001 73.4 19.6001 84C19.6001 94.4 28.0001 103 38.6001 103C49.0001 103 57.6001 94.6 57.6001 84C57.6001 73.6 49.0001 65 38.6001 65Z" fill="white"/>
<path d="M96.4001 65.0001C97.0001 63.0001 97.8001 61.0001 98.8001 59.6001C99.2001 59.0001 99.0001 58.2001 98.4001 57.6001C98.0001 57.4001 97.4002 57.4001 97.0002 57.6001C97.0002 57.6001 97.0001 57.6001 96.8001 57.6001C87.4001 59.4001 79.0001 59.8001 78.8001 49.2001C78.8001 45.4001 79.2001 35.0001 65.4001 37.2001C53.0001 39.2001 47.2002 44.8001 46.0002 50.4001C44.4002 57.2001 48.8001 59.0001 57.8001 62.6001C65.2001 65.6001 67.0002 69.4001 65.0002 77.2001C64.4002 79.8 63.0001 82.6001 61.4001 86.2001C60.8001 87.4001 62.0001 87.8001 62.6001 87.0001C68.4001 80.4001 73.2001 74.0001 72.4001 66.8001C71.4001 56.4001 60.6001 53.2001 61.4001 51.2001C62.0001 49.8001 65.0001 48.8001 67.8001 50.0001C69.0001 50.4001 70.0001 51.8001 70.6001 53.2001C75.0001 65.4001 88.2001 63.0001 95.6001 59.4001C94.8001 61.0001 94.0001 62.8001 93.6001 64.8001C84.6001 66.2001 77.6001 74.0001 77.6001 83.6001C77.6001 94.0001 86.0001 102.6 96.6001 102.6C107 102.6 115.6 94.2001 115.6 83.6001C115.4 73.6001 107 65.0001 96.4001 65.0001ZM96.4001 100.2C87.4001 100.2 80.2002 93.0001 80.2002 84.0001C80.2002 76.2001 85.6001 69.8001 92.8001 68.2001C92.0001 73.2001 92.6002 79.0001 95.0002 84.6001C95.2002 85.2001 95.8002 85.4001 96.2002 85.4001C96.4002 85.4001 96.6001 85.4001 96.8001 85.2001C97.6001 84.8 97.8001 84.0001 97.6001 83.4001C95.2001 78.0001 94.8001 72.4001 95.8001 67.8001C96.0001 67.8001 96.2001 67.8001 96.4001 67.8001C105.4 67.8001 112.6 75.0001 112.6 84.0001C112.6 92.8001 105.4 100.2 96.4001 100.2Z" fill="white"/>
<path d="M80.4001 40.6C83.0001 44.8 87.0001 46.4 89.8001 44.6C92.4001 43 93.6001 38.6 90.2001 34.8C87.2001 31.4 82.6001 31.2 80.2001 31.2C76.6001 31.2 72.2001 32.6 69.6001 34.8C76.6001 34.2 79.0001 38.4 80.4001 40.6Z" fill="white"/>
</svg>
