<svg width="136" height="136" viewBox="0 0 136 136" fill="none" xmlns="http://www.w3.org/2000/svg">
<path d="M136 68C136 30.4 105.6 0 68 0C30.4 0 0 30.4 0 68C0 105.6 30.4 136 68 136C105.4 136 136 105.6 136 68Z" fill="#E94A3E"/>
<path d="M85.6001 106.4C94.8001 106.4 102.2 98.9997 102.2 89.7997C102.2 85.3997 100.4 81.1996 97.4001 77.9996C96.2001 76.7996 95.0001 75.7996 93.6001 75.1996C95.0001 73.5996 96.6001 71.9997 98.4001 70.7997C99.0001 70.3997 99.2001 69.5997 98.8001 68.7997C98.6001 68.5997 98.6001 68.3996 98.4001 68.3996C94.0001 63.7996 89.4001 56.3996 84.8001 44.1996C84.0001 41.9996 83.2001 38.9996 78.6001 36.3996C75.6001 34.5996 68.0001 31.7996 57.2001 33.1996C52.0001 33.7996 48.2001 38.9996 54.0001 47.9996C57.4001 53.1996 59.0001 56.9996 58.4001 60.3996C58.2001 61.5996 57.2001 62.5996 55.4001 62.9996C55.0001 58.9996 53.2001 55.3996 50.4001 52.5996C47.2001 49.5996 43.2001 47.9996 39.0001 47.9996C34.4001 47.9996 30.2001 49.7996 27.0001 53.1996C24.0001 56.3996 22.2001 60.5996 22.4001 64.9996C22.4001 69.3996 24.4001 73.5996 27.6001 76.5996L24.2001 73.9996L22.2001 69.7997C22.2001 69.5997 22.0001 69.3996 21.8001 69.3996L13.0001 63.9996C12.6001 63.7996 12.0001 63.7996 11.6001 64.3996C11.4001 64.7996 11.4001 65.3997 12.0001 65.7997L20.6001 70.9996L22.6001 75.1996C22.6001 75.3996 22.8001 75.3996 23.0001 75.5996L36.0001 85.1996L37.8001 88.5996C38.0001 88.7996 38.2001 88.9996 38.4001 88.9996L50.6001 93.3996L57.8001 98.7997C58.0001 98.7997 58.0001 98.9996 58.2001 98.9996L72.2001 101.8L78.8001 107.8C79.0001 108 79.0001 108 79.2001 108L90.2001 110.6L99.0001 116.8C99.2001 117 99.4001 117 99.6001 117C100 117 100.2 116.8 100.4 116.6C100.8 116.2 100.6 115.6 100.2 115.2L91.4001 109C91.2001 109 91.2001 108.8 91.0001 108.8L80.0001 106.2L77.6001 104C79.4001 105.6 82.4001 106.4 85.6001 106.4ZM95.4001 79.9996C98.0001 82.5996 99.4001 85.9997 99.4001 89.7997C99.4001 97.3997 93.2001 103.6 85.6001 103.6V105V103.6C82.0001 103.6 78.4001 102.2 75.8001 99.5996C73.2001 96.9996 71.8001 93.5997 71.8001 89.7997C71.8001 82.1997 78.0001 75.9996 85.6001 75.9996C86.8001 75.9996 88.0001 76.1996 89.2001 76.3996C86.8001 80.1996 85.0001 84.5996 84.2001 89.5996C84.0001 90.3996 84.6001 90.9996 85.4001 91.1996H85.6001C86.2001 91.1996 86.8001 90.7996 87.0001 89.9996C87.8001 85.1996 89.4001 80.9996 91.8001 77.3996C93.2001 77.9996 94.4001 78.9996 95.4001 79.9996ZM24.8001 64.7997C24.8001 61.1997 26.0001 57.5996 28.6001 54.9996C31.2001 52.1996 34.8001 50.7997 38.6001 50.7997C42.2001 50.7997 45.6001 52.1996 48.2001 54.5996C50.8001 56.9996 52.2001 60.1996 52.4001 63.5996C49.4001 63.9996 45.0001 63.9996 38.8001 63.9996C37.8001 63.9996 37.6001 64.9996 38.8001 65.1996C44.2001 66.5996 48.6001 67.5997 52.2001 67.7997C51.6001 70.1997 50.4001 72.1996 48.8001 73.9996C46.2001 76.7996 42.6001 78.1996 38.8001 78.1996C35.2001 78.1996 31.8001 76.7996 29.2001 74.3996C26.4001 71.9996 24.8001 68.3997 24.8001 64.7997ZM72.6001 100.2C72.4001 99.9996 72.4001 99.9996 72.2001 99.9996L58.0001 97.1996L50.8001 91.7997L50.6001 91.5996L38.6001 87.3996L37.0001 84.1996C37.0001 83.9996 36.8001 83.9997 36.8001 83.7997L30.4001 78.9996C32.8001 80.3996 35.8001 81.1996 38.6001 81.1996C43.2001 81.1996 47.4001 79.3996 50.6001 75.9996C52.8001 73.7996 54.2001 70.9996 54.8001 67.9996C72.8001 68.1996 68.2001 53.7996 66.6001 49.3996C65.4001 46.3996 74.0001 47.5996 76.8001 51.3996C79.4001 54.7996 87.6001 64.9996 96.2001 69.1996C94.2001 70.5996 92.6001 72.1996 91.0001 74.1996C89.4001 73.5996 87.6001 73.3996 85.8001 73.3996C76.6001 73.3996 69.2001 80.7996 69.2001 89.9996C69.0001 93.5996 70.2001 97.1996 72.6001 100.2Z" fill="white"/>
<path d="M107.4 45.1999C103.2 39.1999 96.8003 32.1999 91.4003 32.5999C85.2003 32.9999 84.4003 39.5999 86.6003 44.7999C88.0003 48.1999 90.4003 51.9999 92.8003 54.5999C94.2003 55.9999 96.2002 56.1999 98.2002 55.5999C100.4 54.9999 101.2 53.5999 99.8003 52.3999C99.2003 51.7999 98.2003 50.7998 97.6003 49.9998C98.4003 48.7998 98.8002 47.1999 99.0002 45.1999C99.4002 45.1999 100 45.3999 100.4 45.5999C104.2 46.1999 111.8 50.9999 107.4 45.1999Z" fill="white"/>
</svg>
