<svg width="136" height="136" viewBox="0 0 136 136" fill="none" xmlns="http://www.w3.org/2000/svg">
<path d="M136 67.9002C136 30.3554 105.445 0 67.9002 0C30.3554 0 0 30.5551 0 68.0999C0 105.645 30.555 136 68.0998 136C105.645 135.8 136 105.445 136 67.9002Z" fill="#E94A3E"/>
<path d="M55.5184 46.5318C51.724 47.73 49.9267 53.1221 51.724 59.313C53.5214 65.3041 57.9149 69.6977 61.7093 68.4995C65.7035 67.3012 67.3011 61.1103 65.5038 55.1191C63.5067 48.9282 59.1131 45.5332 55.5184 46.5318Z" fill="white"/>
<path d="M119.624 90.4669C119.225 89.4684 118.026 89.069 117.028 89.4684C101.451 96.0587 86.6725 96.0587 68.6989 89.4684C50.7254 82.8781 33.1512 82.8781 17.3744 89.4684C16.3758 89.8678 15.9764 91.066 16.3758 92.0646C16.7752 93.0631 17.9735 93.4625 18.9721 93.0631C33.7503 86.8722 50.3259 86.8722 67.301 93.0631C76.6872 96.6578 85.4743 98.2554 93.8619 98.2554C102.25 98.2554 110.438 96.4581 118.626 93.0631C119.624 92.6637 120.023 91.4654 119.624 90.4669Z" fill="white"/>
<path d="M110.038 100.253C96.6577 104.047 82.4786 103.448 68.6989 98.2555C50.3259 91.4654 36.1467 90.8663 21.1687 96.6578C20.1702 97.0572 19.5711 98.2555 19.9705 99.254C20.3699 100.253 21.5681 100.852 22.5667 100.452C36.5461 95.0602 49.9264 95.6593 67.3009 102.05C75.6886 105.245 84.276 106.643 92.6636 106.643C98.8545 106.643 105.045 105.844 111.037 104.047C112.035 103.648 112.634 102.649 112.435 101.65C112.235 100.652 111.037 100.053 110.038 100.253Z" fill="white"/>
<path d="M55.7182 81.2806C69.6977 83.8768 84.4759 83.8768 93.4627 70.6962C94.0619 69.6976 93.263 68.8988 92.4642 69.4979C81.4804 76.8871 68.1 73.6917 62.5082 72.4935C48.3291 69.0985 47.1309 55.5185 49.727 48.5287C55.1191 33.5508 72.4936 31.5537 81.6801 31.354C82.6786 31.354 82.6786 30.1558 81.6801 29.956C65.9033 25.3628 47.9297 28.5581 36.147 44.1352C26.3614 57.1161 26.9605 73.2924 28.7579 81.68C37.7447 79.683 45.3335 79.4832 55.7182 81.2806Z" fill="white"/>
<path d="M80.4815 22.3671L91.8648 62.5081C91.8648 62.5081 91.8648 62.5081 91.8648 62.7078L96.2583 77.6858C95.0601 80.6814 94.2613 85.8737 95.6592 92.2643C99.4536 92.2643 104.446 91.2658 106.843 90.6667C104.646 83.0779 100.852 79.0837 98.2554 77.0867L86.8722 36.9457C86.8722 36.9457 86.8722 36.9457 86.8722 36.746L82.4786 21.768C83.6768 18.5727 84.6754 12.9809 82.6783 5.59178C82.2789 3.99413 81.6797 2.5962 81.0806 1.19825C77.6856 0.599131 74.2906 0.199706 70.6959 0C70.6959 2.59618 71.0953 5.59178 71.8942 8.58738C74.0909 16.3759 77.6856 20.37 80.4815 22.3671Z" fill="white"/>
</svg>
