<svg width="136" height="136" viewBox="0 0 136 136" fill="none" xmlns="http://www.w3.org/2000/svg">
<path d="M135.999 67.8996C135.999 30.3551 105.444 0 67.8996 0C30.3551 0 0 30.5548 0 68.0993C0 105.644 30.5549 135.999 68.0994 135.999C105.844 135.799 136.199 105.444 135.999 67.8996Z" fill="#E94A3E"/>
<path d="M123.617 80.2814C106.442 72.8924 84.2751 72.8924 67.3002 80.2814C51.5235 87.0714 30.1552 87.0714 14.1788 80.2814C13.1802 79.882 11.982 80.2814 11.5826 81.28C11.1832 82.2785 11.5826 83.4767 12.5812 83.8761C21.1685 87.4708 30.954 89.2681 40.7395 89.2681C50.525 89.2681 60.3105 87.4708 68.8978 83.8761C84.6745 77.0862 106.043 77.0862 122.019 83.8761C123.018 84.2755 124.216 83.8761 124.615 82.8776C125.015 81.8791 124.615 80.6808 123.617 80.2814Z" fill="white"/>
<path d="M120.622 88.4691C100.052 81.6791 86.0726 82.0786 67.3004 89.6673C53.1214 95.8582 33.75 96.4573 17.9733 91.265C16.9748 90.8655 15.7766 91.4647 15.3772 92.4632C14.9777 93.4617 15.5769 94.66 16.5755 95.0594C23.9645 97.4558 32.3521 98.6541 40.54 98.6541C50.5253 98.6541 60.3108 96.8567 68.6984 93.262C86.4721 86.0726 99.6526 85.8729 119.224 92.2635C120.222 92.6629 121.42 92.0638 121.82 91.0653C122.419 89.867 121.82 88.6688 120.622 88.4691Z" fill="white"/>
<path d="M20.1701 48.9277C28.7574 48.1289 45.3328 49.3272 53.321 59.1127C57.5148 64.305 53.1214 71.6941 45.1332 79.882C59.3122 80.4811 71.2945 71.095 85.0741 70.2961C101.849 69.4973 111.435 63.9056 118.025 55.9174C118.824 55.1186 118.425 53.7206 116.827 54.3198C106.442 59.1127 89.4676 63.9056 71.2945 53.3212C50.9246 41.3389 29.5562 42.3375 19.1716 47.3301C18.3727 48.1289 18.7722 49.5268 20.1701 48.9277Z" fill="white"/>
<path d="M71.0945 50.9246C75.8875 55.1184 81.2794 55.9172 83.8756 53.1214C86.272 50.5252 85.2736 45.1332 80.6804 40.7397C76.2868 36.5459 70.096 35.3476 67.3001 38.3432C64.7039 40.9394 66.5013 46.7308 71.0945 50.9246Z" fill="white"/>
</svg>
