<svg width="136" height="136" viewBox="0 0 136 136" fill="none" xmlns="http://www.w3.org/2000/svg">
<path d="M68.2673 135.733C105.675 135.585 135.88 105.141 135.733 67.7328C135.585 30.325 105.141 0.119689 67.7327 0.26729C30.325 0.414891 0.119655 30.8595 0.267256 68.2673C0.414857 105.675 30.8595 135.88 68.2673 135.733Z" fill="#E94A3E"/>
<path d="M42.2924 80.1481C53.05 80.945 60.2217 78.156 69.5847 74.3709C86.3187 67.7968 96.2795 58.8322 106.639 53.055C107.037 52.8558 107.435 52.4574 107.037 51.8598C106.838 51.2621 106.24 51.2621 105.842 51.4613C93.2912 54.6487 87.1156 59.0314 71.5769 61.6212C64.8036 62.8165 57.4327 61.8204 50.4602 54.6487C41.6948 45.6841 43.0893 31.1415 49.4642 22.1769C49.6634 21.7784 49.6634 21.38 49.4642 21.1808C49.265 20.7824 48.4681 20.5832 48.0697 20.9816C30.5388 34.3289 35.5192 57.6369 44.683 67.9961C47.8704 71.5819 45.8783 75.7654 42.2924 80.1481Z" fill="white"/>
<path d="M57.6316 55.844C62.6119 59.6291 68.7875 60.426 71.1781 57.2385C73.5687 53.8519 71.1781 47.8755 66.1977 44.2896C60.819 40.5046 55.241 40.5045 53.0497 43.4928C50.4599 46.6802 52.452 51.8598 57.6316 55.844Z" fill="white"/>
<path d="M123.372 80.3474C106.24 72.9765 84.1271 72.9765 67.1939 80.3474C51.456 87.1207 30.1401 87.1207 14.203 80.3474C13.2069 79.949 12.0117 80.3474 11.6133 81.3435C11.2148 82.3395 11.6133 83.5348 12.6093 83.9333C21.1755 87.5191 30.937 89.312 40.6984 89.312C50.4599 89.312 60.2215 87.5191 68.7877 83.9333C84.5256 77.16 105.841 77.16 121.779 83.9333C122.775 84.3317 123.97 83.9333 124.368 82.9372C124.966 81.9411 124.368 80.7458 123.372 80.3474Z" fill="white"/>
<path d="M120.583 88.5154C100.064 81.7421 86.1191 82.1405 67.393 89.7107C53.2488 95.8863 33.925 96.4839 18.1871 91.3044C17.1911 90.9059 15.9958 91.5036 15.5974 92.4997C15.1989 93.4957 15.7965 94.691 16.7926 95.0894C24.1635 97.48 32.5305 98.6753 40.6983 98.6753C50.659 98.6753 60.4205 96.8824 68.7875 93.2965C86.5176 86.1248 99.6657 85.9256 119.189 92.3004C120.185 92.6989 121.38 92.1012 121.778 91.1052C122.177 89.9099 121.579 88.7146 120.583 88.5154Z" fill="white"/>
<path d="M67.9909 25.3644C71.776 25.3644 74.9634 22.3762 74.9634 18.3919C74.9634 14.4076 71.9752 11.4194 67.9909 11.4194C64.2059 11.4194 61.0184 14.4076 61.0184 18.3919C61.0184 22.3762 64.2059 25.3644 67.9909 25.3644Z" fill="white"/>
</svg>
