<svg width="136" height="136" viewBox="0 0 136 136" fill="none" xmlns="http://www.w3.org/2000/svg">
<path d="M136 68C136 30.4 105.6 0 68 0C30.4 0 0 30.4 0 68C0 105.6 30.4 136 68 136C105.6 136 136 105.4 136 68Z" fill="#E94A3E"/>
<path d="M100.4 26.5999C98.9998 22.3999 98.1997 19.3999 94.5997 19.3999C94.5997 19.3999 94.5998 19.3999 94.3998 19.3999H55.5997C55.3997 19.3999 55.1998 19.3999 54.9998 19.5999C37.9998 28.7999 44.5997 46.1999 53.5997 52.3999C63.5997 59.3999 25.5997 71.1999 48.5997 120C48.9997 121 50.1998 120.4 49.9998 119.6C47.5998 102.2 50.5998 88.5999 52.7998 83.9999C53.7998 93.5999 54.1998 105.6 68.1998 120.6C68.7998 121.2 69.5998 120.6 69.1998 119.8C63.1998 106 62.7998 92.5999 63.9998 85.5999C65.3998 78.1999 68.5998 72.5999 72.9998 64.7999C77.1998 56.9999 77.1998 51.5999 70.3998 48.9999C63.7998 46.1999 40.3998 36.7999 55.3998 21.5999H55.5997H93.5997C94.1997 21.7999 94.5997 22.1999 94.5997 22.9999C94.9997 24.9999 95.1998 26.5999 95.3998 27.5999C95.5998 28.5999 96.3998 28.7999 97.9998 28.7999C99.1998 28.5999 101 28.3999 100.4 26.5999Z" fill="white"/>
<path d="M86.1996 115.6C84.9996 115.6 83.9995 116.6 83.9995 117.8C83.9995 119 84.9996 120 86.1996 120C87.3996 120 88.3995 119 88.3995 117.8C88.3995 116.6 87.3996 115.6 86.1996 115.6Z" fill="white"/>
<path d="M70.3999 32.9998C67.5999 34.5998 67.1999 39.3998 69.7999 43.9998C72.3999 48.5998 76.7999 51.1998 79.5999 49.3998C82.5999 47.5998 82.7999 42.3998 79.9999 37.7998C77.3999 33.1998 73.1999 31.3998 70.3999 32.9998Z" fill="white"/>
</svg>
