<svg width="136" height="136" viewBox="0 0 136 136" fill="none" xmlns="http://www.w3.org/2000/svg">
<path d="M68.3627 135.637C105.718 135.437 135.838 104.992 135.637 67.6372C135.437 30.2821 104.992 0.162299 67.6373 0.362623C30.2822 0.562947 0.162395 31.0076 0.362718 68.3626C0.563042 105.718 31.0077 135.837 68.3627 135.637Z" fill="#E94A3E"/>
<path d="M117.321 91.6664C101.606 84.9027 82.9058 84.9027 67.1901 91.6664C52.469 97.8333 34.9629 97.8333 20.2419 91.6664C19.2472 91.2686 18.0536 91.6664 17.6558 92.6611C17.2579 93.6558 17.6558 94.8493 18.6504 95.2472C26.4088 98.6291 35.1619 100.221 43.716 100.221C52.2701 100.221 61.0231 98.6291 68.7815 95.2472C83.5026 89.0803 101.009 89.0803 115.73 95.2472C116.724 95.6451 117.918 95.2472 118.316 94.2525C118.913 93.2579 118.316 92.0643 117.321 91.6664Z" fill="white"/>
<path d="M113.144 99.0269C98.4226 93.0589 84.8952 93.4568 67.7869 100.221C51.6733 106.586 38.3448 104.995 27.2046 102.409C26.2099 102.21 25.0164 102.807 24.8174 104C24.6185 104.995 25.2153 106.189 26.4089 106.387C31.979 107.581 38.1459 108.775 45.1086 108.775C52.4691 108.775 60.4264 107.581 69.3784 104C85.492 97.6344 98.0248 97.2365 111.751 102.807C112.746 103.205 113.939 102.807 114.337 101.812C114.735 100.618 114.138 99.4248 113.144 99.0269Z" fill="white"/>
<path d="M123.09 78.1389C121.499 74.5581 120.305 71.5741 118.117 66.7997C114.138 57.8478 111.154 52.6755 98.0249 53.2723C90.8633 53.6702 76.5401 56.2563 67.5881 61.8264L65.3999 57.052C65.2009 56.4552 64.6041 56.2563 64.0073 56.4552C63.4105 56.6541 63.2116 57.251 63.4105 57.8478L72.3625 78.1389H69.1796C67.5881 74.5581 66.3945 71.5741 64.2063 66.7997C60.2276 57.8478 57.2436 52.6755 44.114 53.2723C36.9524 53.6702 22.6292 56.2563 13.6773 61.8264L11.489 57.052C11.2901 56.4552 10.6932 56.2563 10.0964 56.4552C9.49963 56.6541 9.30072 57.251 9.49965 57.8478L18.4516 78.1389H13.4783C12.6826 78.1389 12.0858 78.7357 12.0858 79.5315C12.0858 80.3272 12.6826 80.924 13.4783 80.924H19.6453L20.6399 83.3112C20.6399 83.5101 20.8389 83.5101 20.8389 83.7091C20.441 85.3005 20.0431 87.4888 20.441 90.2738C22.8282 91.2685 28.0004 92.86 31.3823 93.6557C31.1834 93.0589 30.9845 92.661 30.7855 92.0642C28.3983 86.6931 25.0164 84.3059 22.6292 83.1123C22.6292 82.9133 22.6292 82.9133 22.6292 82.7144L22.0324 81.1229H73.5561L74.5508 83.5101C74.5508 83.709 74.7497 83.709 74.7497 83.908C74.5508 84.9026 74.1529 86.2952 74.1529 87.6877C75.7444 87.0909 78.5295 86.4941 80.5188 86.2952C79.1263 84.9026 77.5348 83.908 76.3412 83.3112C76.3412 83.1122 76.3412 83.1122 76.3412 82.9133L75.7444 81.3218H122.693C123.488 81.3218 124.085 80.725 124.085 79.9293C124.483 78.7357 123.886 78.1389 123.09 78.1389ZM14.6719 63.4179C29.5919 60.6328 39.9364 62.0253 43.7162 63.6168C47.8938 65.2083 48.8884 69.3859 49.6842 70.7784C44.9098 69.7837 28.5972 66.7997 34.3663 78.1389H21.2367L14.6719 63.4179ZM68.3839 63.4179C83.3038 60.6328 93.6484 62.0253 97.4281 63.6168C101.606 65.2083 102.6 69.3859 103.396 70.7784C98.6217 69.7837 82.3092 66.7997 88.0782 78.1389H74.9486L68.3839 63.4179Z" fill="white"/>
<path d="M102.799 50.4869C106.778 47.9008 108.966 43.7232 107.176 40.9382C105.584 38.352 100.81 38.551 96.8314 41.336C92.6538 44.1211 91.0624 47.9008 92.6538 50.4869C94.2453 52.8741 98.6218 53.0731 102.799 50.4869Z" fill="white"/>
<path d="M49.2861 50.4869C53.2648 47.9008 55.4531 43.7232 53.6627 40.9382C52.0712 38.352 47.2968 38.551 43.3181 41.336C39.1405 44.1211 37.5491 47.9008 39.1405 50.4869C40.732 52.8741 44.9096 53.0731 49.2861 50.4869Z" fill="white"/>
</svg>
