<svg width="136" height="136" viewBox="0 0 136 136" fill="none" xmlns="http://www.w3.org/2000/svg">
<path d="M136 68C136 30.4 105.6 0 68 0C30.4 0 0 30.4 0 68C0 105.6 30.4 136 68 136C105.6 136 136 105.4 136 68Z" fill="#E94A3E"/>
<path d="M113 70.7999C103.8 58.3999 93.0001 50.9999 75.2001 47.5999C61.8001 44.9999 49.0001 37.9999 44.4001 26.7999C43.8001 25.3999 42.8001 25.7999 42.8001 26.9999C44.0001 38.9999 50.4001 46.7999 58.0001 52.7999C60.8001 54.9999 64.4001 56.9999 64.0001 61.1999C63.4001 67.7999 59.8001 74.9999 53.8001 80.3999C47.8001 85.7999 37.8001 83.1999 29.2001 76.9999C28.2001 76.3999 27.4001 77.3999 28.0001 78.1999C45.0001 100.8 61.4001 91.3999 65.0001 85.9999C63.6001 90.3999 58.8001 102.4 46.4001 117.4C45.6001 118.4 46.4001 119.2 47.2001 118.6C66.0001 108.2 75.8001 90.3999 79.0001 80.1999C84.2001 64.1999 80.0001 60.9999 89.0001 61.3999C97.4001 61.9999 105.4 66.5999 111.8 71.9999C113 72.9999 113.6 71.5999 113 70.7999Z" fill="white"/>
<path d="M73.8001 44.2C77.6001 47.6 82.8001 48.6 85.2001 46C87.4001 43.6 85.6001 38.6 81.6001 35.4C77.6001 32 72.8001 31.4 70.6001 33.8C68.8001 36 69.8001 40.4 73.8001 44.2Z" fill="white"/>
<path d="M52.1999 29.3999C55.3999 28.7999 57.5999 25.7999 57.1999 22.5999C56.5999 19.3999 53.5999 17.1999 50.3999 17.5999C47.1999 18.1999 44.9999 21.1999 45.3999 24.3999C45.9999 27.5999 48.9999 29.9999 52.1999 29.3999Z" fill="white"/>
</svg>
