<svg width="23" height="23" viewBox="0 0 23 23" fill="none" xmlns="http://www.w3.org/2000/svg">
<path d="M15.6456 3.13107C16.7273 3.1343 17.7639 3.56546 18.5288 4.3304C19.2938 5.09534 19.7249 6.13189 19.7282 7.21367V15.378C19.7249 16.4598 19.2938 17.4963 18.5288 18.2612C17.7639 19.0262 16.7273 19.4574 15.6456 19.4606H7.48124C6.39946 19.4574 5.36292 19.0262 4.59798 18.2612C3.83304 17.4963 3.40188 16.4598 3.39865 15.378V7.21367C3.40188 6.13189 3.83304 5.09534 4.59798 4.3304C5.36292 3.56546 6.39946 3.1343 7.48124 3.13107H15.6456ZM15.6456 1.49829H7.48124C4.33772 1.49829 1.76587 4.07014 1.76587 7.21367V15.378C1.76587 18.5215 4.33772 21.0934 7.48124 21.0934H15.6456C18.7891 21.0934 21.3609 18.5215 21.3609 15.378V7.21367C21.3609 4.07014 18.7891 1.49829 15.6456 1.49829Z" fill="white"/>
<path d="M16.8701 7.21366C16.6279 7.21366 16.3911 7.14184 16.1897 7.00727C15.9883 6.8727 15.8314 6.68142 15.7387 6.45764C15.646 6.23386 15.6217 5.98761 15.669 5.75005C15.7162 5.51248 15.8329 5.29426 16.0042 5.12299C16.1754 4.95171 16.3936 4.83507 16.6312 4.78781C16.8688 4.74056 17.115 4.76481 17.3388 4.85751C17.5626 4.9502 17.7539 5.10717 17.8884 5.30857C18.023 5.50997 18.0948 5.74675 18.0948 5.98897C18.0952 6.1499 18.0637 6.30931 18.0023 6.45805C17.9409 6.60679 17.8507 6.74194 17.7369 6.85573C17.6231 6.96952 17.488 7.05972 17.3392 7.12114C17.1905 7.18257 17.0311 7.21401 16.8701 7.21366Z" fill="white"/>
<path d="M11.5633 8.02987C12.2093 8.02987 12.8407 8.22142 13.3778 8.58029C13.9149 8.93916 14.3335 9.44924 14.5807 10.046C14.8279 10.6428 14.8926 11.2995 14.7665 11.933C14.6405 12.5666 14.3295 13.1485 13.8727 13.6053C13.416 14.062 12.834 14.3731 12.2005 14.4991C11.5669 14.6251 10.9103 14.5604 10.3135 14.3132C9.71669 14.066 9.20662 13.6474 8.84775 13.1103C8.48887 12.5733 8.29733 11.9418 8.29733 11.2959C8.29825 10.43 8.64265 9.59977 9.25494 8.98748C9.86723 8.37519 10.6974 8.0308 11.5633 8.02987ZM11.5633 6.39709C10.5944 6.39709 9.64731 6.6844 8.84171 7.22269C8.03611 7.76097 7.40822 8.52605 7.03745 9.42118C6.66667 10.3163 6.56966 11.3013 6.75868 12.2516C6.9477 13.2018 7.41426 14.0747 8.09937 14.7598C8.78447 15.4449 9.65735 15.9115 10.6076 16.1005C11.5579 16.2895 12.5429 16.1925 13.438 15.8217C14.3331 15.451 15.0982 14.8231 15.6365 14.0175C16.1748 13.2119 16.4621 12.2647 16.4621 11.2959C16.4621 9.99663 15.946 8.75061 15.0273 7.83191C14.1086 6.91321 12.8625 6.39709 11.5633 6.39709Z" fill="white"/>
</svg>
