<svg width="140" height="80" viewBox="0 0 140 80" fill="none" xmlns="http://www.w3.org/2000/svg">
<path fill-rule="evenodd" clip-rule="evenodd" d="M49.7755 30.8674H56.0071V32.8952H53.0425V47.2083H49.7755V30.8674Z" fill="white"/>
<path fill-rule="evenodd" clip-rule="evenodd" d="M59.701 41.0658L60.2583 32.8895H60.4481L61.0113 41.0658H59.701ZM56.0842 47.2084H59.28L59.5824 42.8683H61.124L61.4264 47.2084H64.6222L62.9205 30.8735H57.7858L56.0842 47.2084Z" fill="white"/>
<path fill-rule="evenodd" clip-rule="evenodd" d="M69.3004 41.4866V44.5639C69.3004 44.9848 69.6265 45.1034 69.8162 45.1034C70.1186 45.1034 70.332 44.8485 70.332 44.5639V40.7632C70.332 40.2474 70.2372 39.6901 69.0276 39.6901H67.6995V37.8935H69.0751C70.0059 37.8935 70.338 37.686 70.338 36.678V33.4288C70.338 33.1502 70.1305 32.8952 69.8221 32.8952C69.6324 32.8952 69.3063 33.0138 69.3063 33.4288V36.097H66.0393V33.7846C66.0393 32.6403 66.1816 30.8674 68.4644 30.8674H71.174C73.4627 30.8674 73.605 32.6403 73.605 33.7846V36.3994C73.605 38.1722 72.3717 38.6643 71.3874 38.6169V38.7829C73.5812 38.7355 73.605 40.4194 73.605 41.0004V44.2911C73.605 45.4355 73.4627 47.2083 71.174 47.2083H68.4644C66.1757 47.2083 66.0334 45.4355 66.0334 44.2911V41.4866H69.3004Z" fill="white"/>
<path fill-rule="evenodd" clip-rule="evenodd" d="M75.7454 30.8674H83.311V47.2083H80.044V32.8952H79.0183V47.2083H75.7454V30.8674Z" fill="white"/>
<path fill-rule="evenodd" clip-rule="evenodd" d="M88.7303 39.8561V32.8952H89.1513C89.5011 32.8952 89.7561 33.1976 89.7561 33.7135V39.0379C89.7561 39.5537 89.5011 39.8561 89.1513 39.8561H88.7303ZM85.4574 47.2083H88.7244V41.6526H90.5921C92.8807 41.6526 93.023 39.8798 93.023 38.7355V33.7846C93.023 32.6403 92.8807 30.8674 90.5921 30.8674H85.4574V47.2083Z" fill="white"/>
<path fill-rule="evenodd" clip-rule="evenodd" d="M99.4622 44.5639C99.4622 44.8425 99.2546 45.1034 98.9463 45.1034C98.7625 45.1034 98.4305 44.9848 98.4305 44.5639V33.4288C98.4305 33.0079 98.7566 32.8893 98.9463 32.8893C99.2487 32.8893 99.4622 33.1442 99.4622 33.4288V44.5639ZM95.1694 44.2852C95.1694 45.4295 95.3117 47.2024 97.5945 47.2024H100.304C102.593 47.2024 102.729 45.4295 102.729 44.2852V33.7846C102.729 32.6403 102.587 30.8674 100.304 30.8674H97.5945C95.3058 30.8674 95.1694 32.6403 95.1694 33.7846V44.2852Z" fill="white"/>
<path fill-rule="evenodd" clip-rule="evenodd" d="M113.378 30.8674H117.623V47.2024H114.356V36.9567H114.238L112.56 47.2024H109.945L108.267 36.9567H108.148V47.2024H104.881V30.8674H109.127L111.255 42.3523L113.378 30.8674Z" fill="white"/>
<path fill-rule="evenodd" clip-rule="evenodd" d="M45.5362 8.52618C44.5342 4.14451 42.0261 0.581061 41.6822 0C41.1367 0.818228 39.1386 3.9607 38.1188 7.45299C37.01 11.3425 36.844 14.7933 37.2294 18.1967C37.6089 21.5941 39.0497 25.0864 39.0497 25.0864C39.8145 26.9185 40.9589 28.8811 41.7 29.8416C42.791 28.4245 45.299 24.197 46.0817 18.6651C46.5204 15.5997 46.5382 12.9078 45.5362 8.52618ZM41.6822 28.7506C41.1901 27.8257 40.4252 26.0647 40.3541 23.3373C40.3363 20.7047 41.3917 18.4457 41.7 17.9773C41.9787 18.4516 42.8858 20.4142 42.9926 23.106C43.0637 25.7386 42.1921 27.8079 41.6822 28.7506ZM45.2456 15.9614C45.2101 17.6334 45.0085 19.3944 44.7535 20.4498C44.8484 18.6295 44.629 16.0681 44.208 14.07C43.7871 12.0718 42.6072 8.72777 41.6644 7.18025C40.7928 8.65069 39.7197 11.5441 39.1564 14.0522C38.5931 16.5602 38.5753 19.596 38.5753 20.5031C38.4271 19.7383 38.0476 16.999 38.1543 14.2478C38.2433 11.977 38.771 9.64679 39.0615 8.57361C40.1703 4.99238 41.4273 2.70372 41.6585 2.34204C41.8957 2.70372 43.4787 5.52007 44.297 8.48467C45.1211 11.4552 45.2812 14.2894 45.2456 15.9614Z" fill="white"/>
<path fill-rule="evenodd" clip-rule="evenodd" d="M43.3839 30.8563H35.7767V35.9613C35.7827 35.9554 35.7886 35.9494 35.7945 35.9376C37.5851 34.147 40.4964 34.147 42.287 35.9376C44.0776 37.7282 44.0776 40.6394 42.287 42.43C42.2811 42.436 42.2692 42.4419 42.2633 42.4538C42.2514 42.4597 42.2455 42.4715 42.2336 42.4775C40.4489 44.2503 38.1069 45.1397 35.7767 45.1397C33.4288 45.1397 31.0808 44.2444 29.2902 42.4538C26.1359 39.2994 25.7623 34.4197 28.1637 30.8503C28.4898 30.3701 28.8633 29.9076 29.2843 29.4866C31.0749 27.696 33.4229 26.8007 35.7708 26.8007V14.5332C26.7525 14.5332 19.4418 21.8439 19.4418 30.8563C19.4418 39.8746 26.7525 47.1793 35.7708 47.1793C40.4727 47.1793 44.7061 45.193 47.6885 42.015V30.8563H43.3839Z" fill="white"/>
<path fill-rule="evenodd" clip-rule="evenodd" d="M21.6712 59.9798V66.7924H22.4301V60.6616H24.873V59.9798H21.6712ZM25.7742 59.9798V66.7924H29.2013V66.1105H26.5331V63.5551H29.0234V62.8732H26.5331V60.6616H29.1894V59.9798H25.7742ZM31.1757 59.9798H30.4168V66.7924H31.1757V63.5551H33.7786V66.7924H34.5375V59.9798H33.7786V62.8732H31.1757V59.9798ZM36.0258 59.9798V66.7924H39.4528V66.1105H36.7847V63.5551H39.2749V62.8732H36.7847V60.6616H39.441V59.9798H36.0258ZM41.4272 60.6616H42.3819C43.289 60.6616 43.8286 60.9343 43.8286 61.9008C43.8286 63.0629 43.206 63.223 42.1625 63.223H41.4272V60.6616ZM41.4272 63.9049H42.4174C43.6507 63.9049 44.6112 63.4898 44.6112 61.9008C44.6112 60.5549 43.793 59.9798 42.5597 59.9798H40.6683V66.7924H41.4272V63.9049ZM44.712 66.7924H45.5421L46.0461 64.8358H48.1925L48.732 66.7924H49.568L47.6588 59.9798H46.6568L44.712 66.7924ZM48.0264 64.1539H46.2299L47.1311 60.5312H47.1489L48.0264 64.1539ZM50.9673 59.9798V62.9503C50.9673 65.1382 50.908 66.1936 50.2084 66.1936C50.1254 66.1936 50.0186 66.1817 49.9178 66.1461V66.822C50.0661 66.8576 50.2262 66.8813 50.3685 66.8813C51.6907 66.8813 51.7203 64.8832 51.7203 63.3594V60.6616H54.009V66.7924H54.7679V59.9798H50.9673ZM57.0151 63.5551H57.6614C58.7108 63.5551 59.3275 63.7804 59.3275 64.8713C59.3275 65.8378 58.7879 66.1105 57.8807 66.1105H57.021L57.0151 63.5551ZM57.0151 59.9798H56.2562V66.7924H58.0586C59.2919 66.7924 60.1042 66.2232 60.1042 64.8713C60.1042 63.2942 59.1437 62.8732 57.9104 62.8732H57.0092V59.9798H57.0151ZM62.126 59.9798H61.3671V66.7924H62.126V63.5551H64.729V66.7924H65.4879V59.9798H64.729V62.8732H62.126V59.9798ZM67.7291 63.5551H68.3754C69.4249 63.5551 70.0415 63.7804 70.0415 64.8713C70.0415 65.8378 69.502 66.1105 68.5948 66.1105H67.7351L67.7291 63.5551ZM67.7291 59.9798H66.9702V66.7924H68.7727C70.0059 66.7924 70.8182 66.2232 70.8182 64.8713C70.8182 63.2942 69.8577 62.8732 68.6244 62.8732H67.7232V59.9798H67.7291ZM72.6148 59.9798H71.8558V66.7924H72.6148V59.9798ZM74.103 59.9798V66.7924H75.1999L77.3285 61.4265C77.4471 61.1122 77.5242 60.7268 77.5894 60.3177H77.6072C77.6012 60.6557 77.5894 61.0114 77.5894 61.3612V66.7924H78.3483V59.9798H77.2514L75.1347 65.3634C74.9865 65.7429 74.9568 65.986 74.8619 66.3003H74.8442C74.8501 66.0512 74.8619 65.7904 74.8619 65.5413V59.9798H74.103ZM74.9153 58.4026C74.9153 59.209 75.4727 59.5647 76.1367 59.5647C76.866 59.5647 77.4115 59.2149 77.4115 58.4026H77.0261C76.9194 58.8947 76.6348 59.0548 76.1723 59.0548C75.7276 59.0548 75.4134 58.8769 75.3007 58.4026H74.9153ZM85.9377 62.0253C85.9377 60.8039 85.2855 59.8493 83.9988 59.8493C82.1371 59.8493 81.8525 61.7704 81.8525 63.3001C81.8525 64.9069 82.0126 66.9525 84.0166 66.9525C85.4633 66.9525 85.8487 65.903 85.9377 64.3318H85.1787C85.1017 65.4583 84.9416 66.2706 83.9573 66.2706C82.7063 66.2706 82.6351 64.6638 82.6351 63.2823C82.6351 62.3811 82.641 60.5312 83.9573 60.5312C84.906 60.5312 85.1787 61.2012 85.1787 62.0253H85.9377ZM87.2006 59.9798V66.7924H87.9595V60.6616H90.5624V66.7924H91.3214V59.9798H87.2006ZM94.8552 66.9525C96.8415 66.9525 97.1083 65.2567 97.1083 63.3772C97.1083 61.8178 96.8533 59.8493 94.8552 59.8493C92.8689 59.8493 92.6139 61.8178 92.6139 63.3772C92.608 65.2567 92.863 66.9525 94.8552 66.9525ZM96.3197 63.2586C96.3197 65.2271 96.1003 66.2647 94.8552 66.2647C93.6041 66.2647 93.3966 65.2212 93.3966 63.2467C93.3966 61.7229 93.6693 60.5193 94.8315 60.5193C96.0351 60.5312 96.3197 61.7407 96.3197 63.2586ZM99.1598 59.9798H98.4008V66.7924H99.1598V63.5551H101.763V66.7924H102.522V59.9798H101.763V62.8732H99.1598V59.9798ZM107.905 62.0194C107.905 60.798 107.253 59.8434 105.966 59.8434C104.105 59.8434 103.82 61.7644 103.82 63.2942C103.82 64.901 103.98 66.9466 105.984 66.9466C107.431 66.9466 107.816 65.8971 107.905 64.3258H107.146C107.069 65.4524 106.909 66.2647 105.925 66.2647C104.674 66.2647 104.603 64.6579 104.603 63.2764C104.603 62.3751 104.609 60.5252 105.925 60.5252C106.874 60.5252 107.146 61.1952 107.146 62.0194H107.905ZM111.214 66.9525C113.2 66.9525 113.467 65.2567 113.467 63.3772C113.467 61.8178 113.212 59.8493 111.214 59.8493C109.228 59.8493 108.973 61.8178 108.973 63.3772C108.973 65.2567 109.228 66.9525 111.214 66.9525ZM112.684 63.2586C112.684 65.2271 112.465 66.2647 111.22 66.2647C109.969 66.2647 109.761 65.2271 109.761 63.2467C109.761 61.7229 110.034 60.5252 111.196 60.5252C112.4 60.5252 112.684 61.7348 112.684 63.2586ZM115.524 60.6616H116.479C117.386 60.6616 117.926 60.9343 117.926 61.9008C117.926 63.0629 117.303 63.223 116.26 63.223H115.524V60.6616ZM115.524 63.9049H116.515C117.748 63.9049 118.708 63.4898 118.708 61.9008C118.708 60.5549 117.89 59.9798 116.657 59.9798H114.765V66.7924H115.524V63.9049Z" fill="white"/>
<path fill-rule="evenodd" clip-rule="evenodd" d="M2.24123 77.9572C4.22751 77.9572 4.49434 76.2614 4.49434 74.3819C4.49434 72.8225 4.23937 70.854 2.24123 70.854C0.254954 70.854 0 72.8225 0 74.3819C0 76.2614 0.249025 77.9572 2.24123 77.9572ZM3.70574 74.2633C3.70574 76.2318 3.48636 77.2694 2.24123 77.2694C0.990174 77.2694 0.782657 76.2259 0.782657 74.2514C0.782657 72.7276 1.05539 71.524 2.21751 71.524C3.42114 71.5359 3.70574 72.7454 3.70574 74.2633ZM6.27309 70.9845V73.955C6.27309 76.1429 6.2138 77.1982 5.51416 77.1982C5.43115 77.1982 5.32441 77.1864 5.22361 77.1508V77.8267C5.37184 77.8623 5.53194 77.886 5.67424 77.886C6.99645 77.886 7.02609 75.8879 7.02609 74.3641V71.6663H9.31475V77.7971H10.0737V70.9845H6.27309ZM11.5619 70.9845V77.7971H12.6588L14.7874 72.4312C14.906 72.1169 14.9831 71.7315 15.0483 71.3224H15.0661C15.0601 71.6604 15.0483 72.0161 15.0483 72.366V77.7971H15.8072V70.9845H14.7103L12.5936 76.3682C12.4454 76.7476 12.4157 76.9907 12.3209 77.305H12.3031C12.309 77.0559 12.3209 76.7951 12.3209 76.546V70.9845H11.5619ZM17.2955 70.9845V77.7971H18.0544V72.2059C18.0544 71.9153 18.0247 71.6841 18.0247 71.3284H18.0425C18.1255 71.696 18.1848 71.9213 18.2382 72.1584L19.6671 77.7971H20.5684L21.9973 72.2355C22.0625 71.9568 22.1277 71.7256 22.2226 71.3284H22.2522C22.2522 71.5833 22.2226 71.8975 22.2226 72.1881V77.7971H22.9815V70.9845H21.6475L20.2956 76.2911C20.1889 76.6824 20.1711 76.967 20.1237 77.305H20.1059C20.0703 76.8662 20.0288 76.5816 19.9636 76.3029L18.6295 70.9845H17.2955ZM24.4698 70.9845V77.7971H25.2287V71.6663H27.8316V77.7971H28.5905V70.9845H24.4698ZM30.0728 70.9845V77.7971H31.1698L33.2983 72.4312C33.4169 72.1169 33.494 71.7315 33.5592 71.3224H33.577C33.5711 71.6604 33.5592 72.0161 33.5592 72.36V77.7912H34.3181V70.9785H33.2212L31.1045 76.3622C30.9563 76.7417 30.9266 76.9848 30.8318 77.299H30.814C30.8199 77.05 30.8318 76.7891 30.8318 76.5401V70.9785H30.0728V70.9845ZM35.8064 70.9845V77.7971H36.9033L39.0319 72.4312C39.1504 72.1169 39.2275 71.7315 39.2927 71.3224H39.3105C39.3046 71.6604 39.2927 72.0161 39.2927 72.36V77.7912H40.0517V70.9785H38.9548L36.8381 76.3622C36.6898 76.7417 36.6602 76.9848 36.5653 77.299H36.5475C36.5535 77.05 36.5653 76.7891 36.5653 76.5401V70.9785H35.8064V70.9845ZM36.6187 69.4014C36.6187 70.2077 37.176 70.5635 37.8401 70.5635C38.5694 70.5635 39.1149 70.2137 39.1149 69.4014H38.7295C38.6227 69.8935 38.3381 70.0536 37.8757 70.0536C37.431 70.0536 37.1167 69.8757 37.0041 69.4014H36.6187ZM45.4354 73.0241C45.4354 71.8027 44.7832 70.8481 43.4965 70.8481C41.6348 70.8481 41.3502 72.7691 41.3502 74.2989C41.3502 75.9057 41.5103 77.9512 43.5143 77.9512C44.961 77.9512 45.3464 76.9018 45.4354 75.3306H44.6764C44.5994 76.4571 44.4393 77.2694 43.455 77.2694C42.204 77.2694 42.1328 75.6626 42.1328 74.2811C42.1328 73.3798 42.1387 71.5299 43.455 71.5299C44.4037 71.5299 44.6764 72.1999 44.6764 73.0241H45.4354ZM47.4513 70.9845H46.6924V77.7971H47.4513V75.4254L48.2458 74.4293L50.0601 77.7971H50.9436L48.6964 73.8364L50.8725 70.9904H49.9238L47.4454 74.4886L47.4513 70.9845ZM53.7066 77.9572C55.6929 77.9572 55.9597 76.2614 55.9597 74.3819C55.9597 72.8225 55.7047 70.854 53.7066 70.854C51.7203 70.854 51.4654 72.8225 51.4654 74.3819C51.4654 76.2614 51.7203 77.9572 53.7066 77.9572ZM55.1711 74.2633C55.1711 76.2318 54.9517 77.2694 53.7066 77.2694C52.4555 77.2694 52.248 76.2318 52.248 74.2514C52.248 72.7276 52.5208 71.5299 53.6829 71.5299C54.8865 71.5299 55.1711 72.7395 55.1711 74.2633ZM57.2582 70.9845V77.7971H58.3551L60.4837 72.4312C60.6022 72.1169 60.6793 71.7315 60.7445 71.3224H60.7623C60.7564 71.6604 60.7445 72.0161 60.7445 72.36V77.7912H61.5035V70.9785H60.4066L58.2899 76.3622C58.1416 76.7417 58.112 76.9848 58.0171 77.299H57.9993C58.0053 77.05 58.0171 76.7891 58.0171 76.5401V70.9785H57.2582V70.9845ZM58.0705 69.4014C58.0705 70.2077 58.6278 70.5635 59.2919 70.5635C60.0212 70.5635 60.5667 70.2137 60.5667 69.4014H60.1813C60.0745 69.8935 59.7899 70.0536 59.3275 70.0536C58.8828 70.0536 58.5685 69.8757 58.4559 69.4014H58.0705ZM65.9504 70.9845H65.1914V77.7971H65.9504V75.4254L66.7449 74.4293L68.5592 77.7971H69.4427L67.1955 73.8364L69.3715 70.9904H68.4228L65.9444 74.4886V70.9845H65.9504ZM72.1997 77.9512C74.186 77.9512 74.4528 76.2555 74.4528 74.3759C74.4528 72.8166 74.1979 70.8481 72.1997 70.8481C70.2135 70.8481 69.9585 72.8166 69.9585 74.3759C69.9585 76.2614 70.2135 77.9512 72.1997 77.9512ZM73.6702 74.2633C73.6702 76.2318 73.4508 77.2694 72.2057 77.2694C70.9546 77.2694 70.7471 76.2318 70.7471 74.2514C70.7471 72.7276 71.0198 71.5299 72.1819 71.5299C73.3856 71.5299 73.6702 72.7395 73.6702 74.2633ZM75.7513 70.9785V77.7912H76.5103V72.1999C76.5103 71.9094 76.4806 71.6782 76.4806 71.3224H76.4984C76.5814 71.69 76.6407 71.9153 76.6941 72.1525L78.123 77.7912H79.0242L80.4532 72.2296C80.5184 71.9509 80.5836 71.7197 80.6785 71.3224H80.7081C80.7081 71.5774 80.6785 71.8916 80.6785 72.1821V77.7912H81.4374V70.9785H80.1033L78.7515 76.2851C78.6448 76.6765 78.627 76.9611 78.5795 77.299H78.5618C78.5262 76.8603 78.4847 76.5757 78.4195 76.297L77.0854 70.9785H75.7513ZM82.3564 77.7912H83.1865L83.6905 75.8345H85.8369L86.3764 77.7912H87.2124L85.2973 70.9785H84.2953L82.3564 77.7912ZM85.6708 75.1527H83.8743L84.7755 71.5299H84.7933L85.6708 75.1527ZM88.8845 70.9785H88.1255V77.7912H88.8845V74.5538H91.4874V77.7912H92.2463V70.9785H91.4874V73.872H88.8845V70.9785ZM94.3986 70.9785V72.7158C94.3986 74.7495 94.3215 75.9887 93.6752 77.1034H93.2246V79.3742H93.9421V77.7852H97.8316V79.3742H98.549V77.1034H98.0095V70.9726L94.3986 70.9785ZM97.2506 71.6604V77.1093H94.4876C94.9323 76.214 95.1516 75.0341 95.1516 73.4332V71.6663H97.2506V71.6604ZM100.28 74.5538H100.927C101.976 74.5538 102.593 74.7791 102.593 75.8701C102.593 76.8366 102.053 77.1093 101.146 77.1093H100.28V74.5538ZM100.28 70.9785H99.5214V77.7912H101.324C102.557 77.7912 103.369 77.222 103.369 75.8701C103.369 74.2929 102.409 73.872 101.176 73.872H100.28V70.9785ZM105.172 70.9785H104.413V77.7912H105.172V70.9785ZM109.613 71.6604H110.568C111.475 71.6604 112.014 71.9331 112.014 72.8996C112.014 74.0617 111.392 74.2218 110.348 74.2218H109.613V71.6604ZM109.613 74.9037H110.603C111.836 74.9037 112.797 74.4886 112.797 72.8996C112.797 71.5537 111.979 70.9785 110.745 70.9785H108.854V77.7912H109.613V74.9037ZM116.153 77.9512C118.139 77.9512 118.406 76.2555 118.406 74.3759C118.406 72.8166 118.151 70.8481 116.153 70.8481C114.167 70.8481 113.912 72.8166 113.912 74.3759C113.912 76.2555 114.167 77.9512 116.153 77.9512ZM117.623 74.2633C117.623 76.2318 117.404 77.2694 116.159 77.2694C114.908 77.2694 114.7 76.2318 114.7 74.2514C114.7 72.7276 114.973 71.5299 116.135 71.5299C117.339 71.5299 117.623 72.7395 117.623 74.2633ZM123.6 73.0241C123.6 71.8027 122.948 70.8481 121.661 70.8481C119.799 70.8481 119.515 72.7691 119.515 74.2989C119.515 75.9057 119.675 77.9512 121.679 77.9512C123.126 77.9512 123.511 76.9018 123.6 75.3306H122.841C122.764 76.4571 122.604 77.2694 121.62 77.2694C120.368 77.2694 120.297 75.6626 120.297 74.2811C120.297 73.3798 120.303 71.5299 121.62 71.5299C122.568 71.5299 122.841 72.1999 122.841 73.0241H123.6ZM128.758 73.0241C128.758 71.8027 128.106 70.8481 126.819 70.8481C124.958 70.8481 124.673 72.7691 124.673 74.2989C124.673 75.9057 124.833 77.9512 126.837 77.9512C128.284 77.9512 128.669 76.9018 128.758 75.3306H127.999C127.922 76.4571 127.762 77.2694 126.778 77.2694C125.527 77.2694 125.456 75.6626 125.456 74.2811C125.456 73.3798 125.462 71.5299 126.778 71.5299C127.727 71.5299 127.999 72.1999 127.999 73.0241H128.758ZM130.021 70.9785V77.7912H131.118L133.247 72.4252C133.365 72.111 133.442 71.7256 133.508 71.3165H133.525C133.519 71.6544 133.508 72.0102 133.508 72.3541V77.7852H134.266V70.9726H133.17L131.053 76.3563C130.905 76.7358 130.875 76.9789 130.78 77.2931H130.762C130.768 77.0441 130.78 76.7832 130.78 76.5342V70.9726L130.021 70.9785ZM135.755 70.9785V77.7912H136.852L138.98 72.4252C139.099 72.111 139.176 71.7256 139.241 71.3165H139.259C139.253 71.6544 139.241 72.0102 139.241 72.3541V77.7852H140V70.9726H138.903L136.786 76.3563C136.638 76.7358 136.609 76.9789 136.514 77.2931H136.496C136.502 77.0441 136.514 76.7832 136.514 76.5342V70.9726H135.755V70.9785Z" fill="white"/>
</svg>
