<svg width="70" height="80" viewBox="0 0 70 80" fill="none" xmlns="http://www.w3.org/2000/svg">
<path fill-rule="evenodd" clip-rule="evenodd" d="M8.54264 49.2317L5.19839 46.0397L8.31725 42.3726H6.59944L3.4623 46.0641L3.30392 46.0823V42.3726H0.136334C0.0997846 42.3726 0.0693247 42.3848 0.038867 42.4152C-0.0098652 42.464 -0.0159567 42.5492 0.038867 42.6041C0.0449586 42.6102 0.0571468 42.6163 0.0632384 42.6224C0.379998 42.9026 0.635843 43.2559 0.806406 43.6518V50.4195H3.30392V47.1362L6.76392 50.4195H8.54873C9.30408 50.4195 9.09087 49.7799 8.54264 49.2317ZM13.3062 42.269C15.9012 42.269 18.0028 44.1148 18.0028 46.393C18.0028 48.6712 15.9012 50.517 13.3062 50.517C10.7112 50.517 8.60965 48.6712 8.60965 46.393C8.60965 44.1148 10.7112 42.269 13.3062 42.269ZM13.3062 49.0976C14.5184 49.0976 15.5053 47.8915 15.5053 46.3991C15.5053 44.9067 14.5184 43.7006 13.3062 43.7006C12.094 43.7006 11.1072 44.9067 11.1072 46.3991C11.1072 47.8854 12.094 49.0976 13.3062 49.0976ZM36.4419 42.3726H32.7443C32.7077 42.3726 32.6773 42.3848 32.6468 42.4152C32.5981 42.464 32.592 42.5492 32.6468 42.6041C32.6529 42.6102 32.6651 42.6163 32.6712 42.6224C32.9027 42.8295 33.0976 43.067 33.2499 43.3351L30.1798 50.4256H31.0082C31.8976 50.4256 32.129 49.8956 32.3179 49.457L32.6955 48.586H36.4845L37.2947 50.4317H38.5982C39.3292 50.4317 39.7922 50.0053 39.4023 49.122L36.4419 42.3726ZM33.2682 47.2702L34.5778 44.2427L35.9119 47.2702H33.2682ZM69.1716 49.1098L66.199 42.3665H62.5014C62.4649 42.3665 62.4344 42.3787 62.4039 42.4092C62.3552 42.4579 62.3491 42.5432 62.4039 42.598C62.41 42.6041 62.4222 42.6102 62.4283 42.6163C62.6598 42.8234 62.8547 43.0609 63.0131 43.329L59.943 50.4195H60.7714C61.6608 50.4195 61.8922 49.8896 62.0811 49.451L62.4588 48.5738H66.2477L67.064 50.4195H68.3675C69.0985 50.4195 69.5554 49.9931 69.1716 49.1098ZM63.0253 47.2702L64.335 44.2427L65.669 47.2702H63.0253ZM46.2797 45.7412V42.3726H48.7711V50.4256H46.2797V47.057H43.0146V50.4256H40.5171V43.6579C40.3465 43.262 40.0907 42.9087 39.7739 42.6284C39.7678 42.6223 39.7556 42.6163 39.7495 42.6102C39.7008 42.5553 39.7008 42.4701 39.7495 42.4213C39.7739 42.397 39.8105 42.3787 39.847 42.3787H43.0146V45.7473H46.2797V45.7412ZM58.4018 42.3726H50.8788C50.8422 42.3726 50.8118 42.3848 50.7813 42.4152C50.7326 42.464 50.7265 42.5492 50.7813 42.6041C50.7874 42.6102 50.7996 42.6163 50.8057 42.6224C51.1225 42.9026 51.3783 43.2559 51.5488 43.6518V47.1484C51.5488 48.2327 50.7447 49.1098 49.6665 49.1098V51.5708H51.4696L51.6219 50.4195H57.5855L57.7378 51.5708H59.5409V49.1098H58.4018V42.3726ZM55.9104 49.1098H52.6697C53.0535 48.5433 53.2728 47.8672 53.2728 47.1484H53.2849V43.6762H55.9165V49.1098H55.9104ZM26.6528 42.3726L24.3623 48.2448L22.0232 42.3726H18.2465C18.2099 42.3726 18.1794 42.3848 18.149 42.4152C18.1003 42.464 18.0942 42.5492 18.149 42.6041C18.1551 42.6102 18.1673 42.6163 18.1733 42.6224C18.4901 42.9026 18.7459 43.2559 18.9165 43.6518V50.054V50.4256H19.7084C20.3176 50.4256 20.6404 49.9139 20.6404 49.518V44.9371L22.8517 50.4256H24.2588C24.8497 50.4256 25.3004 50.2185 25.5502 49.5789L27.0609 45.4732V50.4256H28.6569C29.3513 50.4256 29.5584 49.9261 29.5584 49.3169V42.3726H26.6528Z" fill="white"/>
<path fill-rule="evenodd" clip-rule="evenodd" d="M59.4376 52.9717L56.1908 58.2592V52.9717H53.0232C52.9866 52.9717 52.9562 52.9839 52.9257 53.0144C52.877 53.0631 52.8709 53.1484 52.9257 53.2032C52.9318 53.2093 52.944 53.2154 52.9501 53.2215C53.2668 53.5017 53.5227 53.855 53.6933 54.251V61.0186H56.2091L59.4498 55.7312V61.0186H61.9473V52.9656H59.4376V52.9717ZM12.7094 52.9717H6.69102C6.65447 52.9717 6.62401 52.9839 6.59355 53.0144C6.54482 53.0631 6.53873 53.1484 6.59355 53.2032C6.59965 53.2093 6.61182 53.2154 6.61791 53.2215C6.93467 53.5017 7.19051 53.855 7.36107 54.251V61.0186H8.95707C9.65151 61.0186 9.85861 60.5191 9.85861 59.91V58.4115H12.7094C14.208 58.4115 15.4202 57.1932 15.4202 55.6885C15.4202 54.19 14.208 52.9717 12.7094 52.9717ZM11.4729 57.1018H9.85861V54.2814H11.4729C12.2465 54.2814 12.8739 54.9149 12.8739 55.6885C12.8739 56.4683 12.2465 57.1018 11.4729 57.1018ZM30.7282 54.2936C31.4531 54.1961 32.5191 54.4154 33.5303 55.0672L34.243 54.0012C32.9638 53.1606 31.7455 52.8682 30.5211 52.8682C28.0845 52.8682 25.8245 54.7139 25.8245 56.9921C25.8245 59.2704 28.0784 61.1161 30.5211 61.1161C31.7455 61.1161 32.9638 60.8237 34.243 59.9831L34.0542 59.7029C33.7313 59.2094 33.1953 59.1973 32.6287 59.38C32.5435 59.4166 32.4582 59.447 32.3729 59.4775C31.7577 59.6846 31.179 59.7455 30.7282 59.6907C29.3028 59.4958 28.322 58.4846 28.322 56.9921C28.322 55.5058 29.3028 54.4885 30.7282 54.2936ZM39.2441 54.2936C39.969 54.1961 41.0351 54.4154 42.0463 55.0672L42.759 54.0012C41.4797 53.1606 40.2614 52.8682 39.037 52.8682C36.6004 52.8682 34.3405 54.7139 34.3405 56.9921C34.3405 59.2704 36.5943 61.1161 39.037 61.1161C40.2614 61.1161 41.4797 60.8237 42.759 59.9831L42.5701 59.7029C42.2473 59.2094 41.7112 59.1973 41.1447 59.38C41.0594 59.4166 40.9741 59.447 40.8889 59.4775C40.2736 59.6846 39.6949 59.7455 39.2441 59.6907C37.8187 59.4958 36.838 58.4846 36.838 56.9921C36.838 55.5058 37.8187 54.4885 39.2441 54.2936ZM20.531 52.8682C17.936 52.8682 15.8344 54.7139 15.8344 56.9921C15.8344 59.2704 17.936 61.1161 20.531 61.1161C23.126 61.1161 25.2275 59.2704 25.2275 56.9921C25.2275 54.7139 23.126 52.8682 20.531 52.8682ZM20.531 59.6968C19.3188 59.6968 18.3319 58.4906 18.3319 56.9982C18.3319 55.5058 19.3188 54.2997 20.531 54.2997C21.7432 54.2997 22.73 55.5058 22.73 56.9982C22.73 58.4846 21.7432 59.6968 20.531 59.6968ZM46.3042 58.2592V52.9717H43.1366C43.1001 52.9717 43.0696 52.9839 43.0392 53.0144C42.9905 53.0631 42.9844 53.1484 43.0392 53.2032C43.0453 53.2093 43.0575 53.2154 43.0635 53.2215C43.3803 53.5017 43.6361 53.855 43.8067 54.251V61.0186H46.3225L49.5632 55.7312V61.0186H52.0607V52.9656H49.5449L46.3042 58.2592Z" fill="white"/>
<path fill-rule="evenodd" clip-rule="evenodd" d="M33.2334 25.7916C31.7592 26.9673 31.1501 28.8861 31.1684 30.6344C31.1806 32.3461 31.9298 34.0396 33.2334 35.3432L34.1837 36.2934L35.006 37.1158L35.0426 37.1523C35.1096 37.2133 35.1949 37.2498 35.2862 37.2498C35.4812 37.2498 35.6395 37.1036 35.6578 36.9087C35.6578 36.9026 35.6578 36.9026 35.6578 36.9026C35.6639 36.8904 35.6639 36.8782 35.6639 36.8721C35.6639 36.8478 35.6578 36.8234 35.6578 36.799C35.6578 36.799 35.6517 36.799 35.6578 36.7929C35.6152 36.0863 35.6639 35.3797 35.7979 34.6853C36.0964 33.1746 36.8335 31.737 37.997 30.5613C38.3198 30.2384 38.667 29.9461 39.0264 29.6902C39.0264 29.6902 45.4103 24.5977 47.5058 22.9225C50.4054 20.6077 50.1313 16.0269 47.518 13.3832L45.721 11.574C45.654 11.507 45.5566 11.4644 45.4591 11.4644C45.2581 11.4644 45.0997 11.6227 45.0875 11.8298C45.0936 11.8603 45.0936 11.8847 45.0936 11.9151C45.252 14.5588 44.8499 16.033 42.7484 18.1407C42.4255 18.4696 42.0783 18.762 41.7189 19.0118V19.0179C41.7067 19.03 35.3898 24.0738 33.2334 25.7916Z" fill="white"/>
<path fill-rule="evenodd" clip-rule="evenodd" d="M27.5264 20.0595C26.0522 21.2351 25.4431 23.154 25.4613 24.9022C25.4735 26.6139 26.2228 28.3074 27.5264 29.611L28.4766 30.5613L29.299 31.3836L29.3355 31.4202C29.3965 31.4811 29.4878 31.5176 29.5792 31.5176C29.7741 31.5176 29.9325 31.3714 29.9508 31.1765C29.9508 31.1704 29.9508 31.1704 29.9508 31.1704C29.9569 31.1643 29.9569 31.1521 29.9569 31.146C29.9569 31.1217 29.9508 31.0973 29.9508 31.073C29.9508 31.073 29.9447 31.073 29.9508 31.0669C29.9081 30.3603 29.9569 29.6536 30.0909 28.9592C30.3894 27.4485 31.1265 26.0109 32.2899 24.8352C32.6128 24.5124 32.96 24.22 33.3194 23.9641C33.3194 23.9641 39.7033 18.8716 41.7988 17.1964C44.6984 14.8817 44.4243 10.3008 41.811 7.65712L40.014 5.84793C39.947 5.78093 39.8495 5.73828 39.7521 5.73828C39.551 5.73828 39.3926 5.89666 39.3805 6.10378C39.3866 6.13423 39.3866 6.1586 39.3866 6.18906C39.5449 8.83278 39.1429 10.3069 37.0413 12.4146C36.7185 12.7435 36.3713 13.0359 36.0119 13.2857V13.2918C35.9997 13.2979 29.6828 18.3417 27.5264 20.0595Z" fill="white"/>
<path fill-rule="evenodd" clip-rule="evenodd" d="M21.8232 14.3273C20.3491 15.5029 19.7399 17.4218 19.7582 19.1701C19.7704 20.8818 20.5197 22.5752 21.8232 23.8788L22.7735 24.8291L23.5959 25.6514L23.6324 25.688C23.6994 25.7489 23.7847 25.7793 23.8761 25.7793C24.0649 25.7793 24.2294 25.6332 24.2477 25.4382C24.2477 25.4321 24.2477 25.4321 24.2477 25.4321C24.2538 25.4261 24.2538 25.4139 24.2538 25.4078C24.2538 25.3834 24.2477 25.359 24.2477 25.3347C24.2477 25.3347 24.2416 25.3347 24.2477 25.3286C24.205 24.622 24.2538 23.9154 24.3878 23.2209C24.6863 21.7102 25.4233 20.2726 26.5868 19.0969C26.9097 18.7741 27.2569 18.4817 27.6163 18.2259C27.6163 18.2259 34.0002 13.1333 36.0957 11.4582C38.9953 9.14338 38.7211 4.56256 36.1079 1.91884L34.3109 0.109652C34.2439 0.0426455 34.1464 0 34.0489 0C33.8479 0 33.6895 0.158383 33.6774 0.365496C33.6835 0.395953 33.6835 0.420319 33.6835 0.450777C33.8418 3.0945 33.4398 4.56865 31.3382 6.67632C31.0154 7.00526 30.6681 7.29765 30.3087 7.5474V7.5535C30.2966 7.55959 23.9797 12.6034 21.8232 14.3273Z" fill="white"/>
<path fill-rule="evenodd" clip-rule="evenodd" d="M39.8607 71.161C41.8648 71.161 43.5278 72.6413 43.8141 74.5784C44.076 74.6636 44.3562 74.7246 44.6365 74.755C44.4232 72.294 42.3643 70.3569 39.8607 70.3569C39.7206 70.3569 39.5805 70.363 39.4465 70.3752C39.4586 70.5031 39.4647 70.631 39.4647 70.759C39.4647 70.8991 39.4586 71.0392 39.4465 71.1793C39.5805 71.161 39.7206 71.161 39.8607 71.161ZM43.8506 75.4251C44.1126 75.4921 44.3684 75.5408 44.6486 75.5652C44.4476 78.0505 42.3826 79.9998 39.8607 79.9998C37.2109 79.9998 35.0605 77.8434 35.0605 75.1753C35.0605 72.9275 36.5834 71.0453 38.6546 70.5092C38.6546 70.5884 38.6606 70.6737 38.6606 70.759C38.6606 70.96 38.6424 71.161 38.618 71.362C37.0159 71.8859 35.8646 73.3966 35.8646 75.1814C35.8646 77.3987 37.6555 79.2018 39.8607 79.2018C41.9866 79.1957 43.7227 77.5267 43.8506 75.4251Z" fill="white"/>
<path fill-rule="evenodd" clip-rule="evenodd" d="M49.8573 70.7588C49.8573 73.4208 47.707 75.5772 45.0572 75.5772C42.5475 75.5772 40.4947 73.6462 40.2754 71.1791C40.5617 71.2096 40.8358 71.2705 41.1038 71.3558C41.3901 73.2868 43.0531 74.767 45.0572 74.767C47.2623 74.767 49.0593 72.97 49.0593 70.7527C49.0593 68.5293 47.2684 66.7323 45.0572 66.7323C42.9313 66.7323 41.1952 68.4014 41.0673 70.503C40.8114 70.436 40.5495 70.3872 40.2754 70.3629C40.4703 67.8775 42.5354 65.9282 45.0572 65.9282C47.7131 65.9343 49.8573 68.0907 49.8573 70.7588Z" fill="white"/>
<path fill-rule="evenodd" clip-rule="evenodd" d="M29.0592 70.7595C29.0592 68.0914 26.9089 65.9351 24.2591 65.9351C21.6093 65.9351 19.459 68.0914 19.459 70.7595C19.459 73.4215 21.6093 75.5779 24.2591 75.5779C24.3992 75.5779 24.5393 75.5719 24.6733 75.5597C24.6672 75.4317 24.6612 75.3038 24.6612 75.1698C24.6612 75.0297 24.6672 74.8896 24.6794 74.7434C24.5454 74.7556 24.3992 74.7617 24.2591 74.7617C22.054 74.7617 20.2631 72.9647 20.2631 70.7474C20.2631 68.524 22.054 66.727 24.2591 66.727C26.4703 66.727 28.2612 68.524 28.2612 70.7474C28.2612 72.5261 27.1039 74.0429 25.5079 74.5667C25.4774 74.7617 25.4591 74.9627 25.4591 75.1637C25.4591 75.249 25.4652 75.3343 25.4652 75.4135C27.5363 74.8896 29.0592 73.0012 29.0592 70.7595Z" fill="white"/>
<path fill-rule="evenodd" clip-rule="evenodd" d="M34.659 65.9346C32.1371 65.9346 30.066 67.89 29.8711 70.3692C30.1452 70.3936 30.4071 70.4362 30.663 70.5093C30.7909 68.4077 32.527 66.7387 34.6529 66.7387C36.8642 66.7387 38.649 68.5356 38.649 70.7591C38.649 72.5378 37.4916 74.0546 35.8956 74.5785C35.8651 74.7734 35.853 74.9744 35.853 75.1754C35.853 75.2546 35.853 75.346 35.8591 75.4252C37.9241 74.883 39.4531 73.0007 39.4531 70.7591C39.4653 68.091 37.3088 65.9346 34.659 65.9346ZM34.659 74.7734C34.7991 74.7734 34.9392 74.7673 35.0793 74.7551C35.0672 74.8952 35.0611 75.0353 35.0611 75.1754C35.0611 75.3094 35.0672 75.4313 35.0793 75.5592C34.9392 75.5714 34.7991 75.5775 34.6651 75.5775C32.1615 75.5775 30.0965 73.6464 29.8833 71.1794C30.1696 71.2098 30.4437 71.2707 30.7117 71.356C30.9919 73.287 32.6549 74.7734 34.659 74.7734Z" fill="white"/>
<path fill-rule="evenodd" clip-rule="evenodd" d="M29.0417 71.1793C29.0539 71.0392 29.06 70.8991 29.06 70.759C29.06 70.631 29.0539 70.5031 29.0478 70.3752C29.1818 70.363 29.3219 70.3569 29.462 70.3569C31.9717 70.3569 34.0307 72.2879 34.2439 74.755C33.9576 74.7246 33.6834 74.6636 33.4154 74.5784C33.1291 72.6413 31.4661 71.161 29.462 71.161C29.3219 71.161 29.1818 71.161 29.0417 71.1793ZM34.2439 75.5652C33.9697 75.5408 33.7078 75.4921 33.452 75.4251C33.324 77.5267 31.5879 79.1957 29.462 79.1957C27.2569 79.1957 25.466 77.3926 25.466 75.1753C25.466 73.3966 26.6233 71.8798 28.2254 71.3559C28.2559 71.161 28.2681 70.9539 28.2681 70.7529C28.2681 70.6676 28.2681 70.5884 28.262 70.5031C26.1969 71.0392 24.668 72.9276 24.668 75.1692C24.668 77.8373 26.8122 79.9937 29.462 79.9937C31.9839 79.9998 34.055 78.0505 34.2439 75.5652Z" fill="white"/>
</svg>
