<svg width="18" height="23" viewBox="0 0 18 23" fill="none" xmlns="http://www.w3.org/2000/svg">
<path d="M17.5313 4.93206L12.8578 0.140381C12.7702 0.0505371 12.6516 0 12.5274 0H2.71311C1.68213 0 0.84375 0.85958 0.84375 1.91668V21.0834C0.84375 22.1404 1.68213 23 2.71315 23H15.7989C16.8299 23 17.6682 22.1404 17.6682 21.0833V5.27082C17.6682 5.14355 17.6189 5.02191 17.5313 4.93206ZM12.9948 1.63592L16.0727 4.79168H13.9294C13.4142 4.79168 12.9948 4.36164 12.9948 3.83336V1.63592ZM16.7336 21.0833C16.7336 21.6116 16.3141 22.0416 15.7989 22.0416H2.71315C2.1979 22.0416 1.77847 21.6116 1.77847 21.0833V1.91668C1.77847 1.3884 2.1979 0.958363 2.71315 0.958363H12.0601V3.83336C12.0601 4.89042 12.8984 5.75 13.9295 5.75H16.7336V21.0833Z" fill="#F5483A"/>
<path d="M11.6394 14.0667C11.2068 13.7176 10.7956 13.3587 10.5217 13.078C10.1657 12.713 9.84852 12.3592 9.57289 12.0223C10.0028 10.6602 10.1913 9.95781 10.1913 9.58343C10.1913 7.99293 9.63086 7.66675 8.78928 7.66675C8.14986 7.66675 7.38724 8.00739 7.38724 9.62929C7.38724 10.3443 7.76925 11.2123 8.5264 12.2212C8.34111 12.801 8.1234 13.4697 7.87879 14.2235C7.76102 14.5852 7.63326 14.9202 7.49813 15.23C7.38816 15.2801 7.28134 15.3311 7.17821 15.384C6.80671 15.5744 6.45392 15.7457 6.12668 15.9048C4.63425 16.6291 3.64844 17.1083 3.64844 18.0545C3.64844 18.7414 4.3764 19.1667 5.05048 19.1667C5.91944 19.1667 7.23157 17.9768 8.19 15.9721C9.18492 15.5697 10.4218 15.2716 11.398 15.0849C12.1802 15.7016 13.0442 16.2917 13.4627 16.2917C14.6215 16.2917 14.8648 15.6048 14.8648 15.0288C14.8648 13.8959 13.6024 13.8959 12.9954 13.8959C12.8069 13.8959 12.3012 13.953 11.6394 14.0667ZM5.05048 18.2084C4.78348 18.2084 4.60274 18.0793 4.58312 18.0545C4.58312 17.7147 5.5712 17.2347 6.52691 16.7705C6.5876 16.741 6.64924 16.7115 6.71176 16.6811C6.00982 17.7246 5.31564 18.2084 5.05048 18.2084ZM8.32192 9.62929C8.32192 8.62511 8.6259 8.62511 8.78928 8.62511C9.11973 8.62511 9.25664 8.62511 9.25664 9.58343C9.25664 9.78558 9.1252 10.2909 8.88466 11.0799C8.51768 10.5006 8.32192 10.0041 8.32192 9.62929ZM8.68019 14.7794C8.70941 14.6961 8.73771 14.6119 8.7651 14.5267C8.93851 13.9933 9.09462 13.5141 9.23382 13.0827C9.42778 13.3017 9.63682 13.5258 9.86092 13.7555C9.94855 13.8454 10.1658 14.0475 10.4552 14.3007C9.87911 14.4294 9.26619 14.5889 8.68019 14.7794ZM13.9301 15.0288C13.9301 15.2441 13.9301 15.3334 13.4965 15.3363C13.3692 15.3082 13.0748 15.1304 12.7115 14.8767C12.8434 14.8618 12.9406 14.8543 12.9954 14.8543C13.6859 14.8543 13.8817 14.9235 13.9301 15.0288Z" fill="#F5483A"/>
</svg>
