<svg width="18" height="18" viewBox="0 0 18 18" fill="none" xmlns="http://www.w3.org/2000/svg">
<path d="M9 0.875C4.51992 0.875 0.875 4.51992 0.875 9C0.875 13.4801 4.51992 17.125 9 17.125C13.4801 17.125 17.125 13.4801 17.125 9C17.125 4.51992 13.4801 0.875 9 0.875ZM11.9207 9.36328L7.45 12.0641C7.38592 12.1025 7.31278 12.1231 7.23808 12.1239C7.16338 12.1247 7.08982 12.1056 7.02493 12.0686C6.96004 12.0316 6.90617 11.978 6.86884 11.9133C6.83151 11.8486 6.81207 11.7751 6.8125 11.7004V6.29961C6.81207 6.22491 6.83151 6.15144 6.86884 6.08673C6.90617 6.02203 6.96004 5.96842 7.02493 5.9314C7.08982 5.89439 7.16338 5.8753 7.23808 5.87609C7.31278 5.87689 7.38592 5.89755 7.45 5.93594L11.9207 8.63672C11.983 8.67468 12.0345 8.72804 12.0703 8.79166C12.106 8.85528 12.1248 8.92703 12.1248 9C12.1248 9.07297 12.106 9.14472 12.0703 9.20834C12.0345 9.27196 11.983 9.32532 11.9207 9.36328Z" fill="white"/>
</svg>
