<svg width="13" height="13" viewBox="0 0 13 13" fill="none" xmlns="http://www.w3.org/2000/svg">
<g clip-path="url(#clip0)">
<path d="M12.8412 12.076L9.14432 8.37915C9.8604 7.49463 10.2916 6.37067 10.2916 5.14652C10.2916 2.3093 7.98299 0.000732422 5.14577 0.000732422C2.30854 0.000732422 0 2.30928 0 5.1465C0 7.98372 2.30857 10.2923 5.14579 10.2923C6.36994 10.2923 7.49389 9.86114 8.37842 9.14505L12.0753 12.8419C12.1809 12.9475 12.3195 13.0006 12.4582 13.0006C12.5969 13.0006 12.7356 12.9475 12.8412 12.8419C13.053 12.6301 13.053 12.2878 12.8412 12.076ZM5.14579 9.20896C2.90547 9.20896 1.08333 7.38682 1.08333 5.1465C1.08333 2.90618 2.90547 1.08404 5.14579 1.08404C7.38611 1.08404 9.20825 2.90618 9.20825 5.1465C9.20825 7.38682 7.38609 9.20896 5.14579 9.20896Z" fill="white"/>
</g>
<defs>
<clipPath id="clip0">
<rect width="13" height="13" fill="white"/>
</clipPath>
</defs>
</svg>
