<svg width="22" height="22" viewBox="0 0 22 22" fill="none" xmlns="http://www.w3.org/2000/svg">
<g clip-path="url(#clip0)">
<path d="M10.1172 16.4481L6.571 15.2217L5.78859 15.3014L4.09764 20.1597C4.04375 20.3144 4.16914 20.4727 4.33212 20.4556L6.7024 20.2074C6.76862 20.2005 6.83445 20.2234 6.88206 20.2699L8.58598 21.9362C8.70311 22.0508 8.89965 22.0046 8.95349 21.8498L10.6555 16.9598L10.1172 16.4481Z" fill="#98DB7C"/>
<path d="M10.6559 16.9596L10.9999 15.9716L6.13195 14.3162L5.78906 15.3013C7.17136 16.2877 8.84508 16.8915 10.6559 16.9596Z" fill="#82D361"/>
<path d="M11.881 16.4481L15.4272 15.2217L16.2096 15.3014L17.9006 20.1597C17.9545 20.3144 17.8291 20.4727 17.6661 20.4556L15.2959 20.2074C15.2296 20.2005 15.1638 20.2234 15.1162 20.2699L13.4123 21.9362C13.2952 22.0508 13.0986 22.0046 13.0448 21.8498L11.3428 16.9598L11.881 16.4481Z" fill="#98DB7C"/>
<path d="M11.3439 16.9596L11 15.9716L15.8679 14.3162L16.2108 15.3013C14.8285 16.2877 13.1548 16.8915 11.3439 16.9596Z" fill="#82D361"/>
<path d="M10.9996 15.4446C3.02379 15.4446 3.01717 7.71667 3.02379 7.58334C3.23343 3.3599 6.72417 0 10.9996 0C15.2723 0 18.7612 3.35543 18.9751 7.57487C18.982 7.711 18.9751 15.4446 10.9996 15.4446Z" fill="#E0E0E0"/>
<path d="M10.9995 15.1668C6.72402 15.1668 3.23341 11.8069 3.02373 7.5835C3.01711 7.71683 3.01367 7.85102 3.01367 7.98599C3.01367 12.3964 6.58906 15.9718 10.9995 15.9718C15.4099 15.9718 18.9853 12.3964 18.9853 7.98599C18.9853 7.85098 18.9819 7.71683 18.9753 7.5835C18.7656 11.8069 15.275 15.1668 10.9995 15.1668Z" fill="#CECECE"/>
<path d="M10.9998 13.7772C4.70863 13.7772 4.71288 7.71655 4.7213 7.58343C4.92888 4.2965 7.66049 1.69482 10.9998 1.69482C14.339 1.69482 17.0707 4.2965 17.2782 7.58343C17.2867 7.71655 17.2782 13.7772 10.9998 13.7772Z" fill="#9E9E9E"/>
<path d="M10.9991 13.4719C7.65992 13.4719 4.92878 10.8701 4.7212 7.58325C4.71278 7.71637 4.70801 7.85052 4.70801 7.98574C4.70801 11.4602 7.52465 14.2769 10.9991 14.2769C14.4736 14.2769 17.2903 11.4602 17.2903 7.98574C17.2903 7.85048 17.2855 7.71637 17.2771 7.58325C17.0695 10.8701 14.3384 13.4719 10.9991 13.4719Z" fill="#898989"/>
<path d="M12.8103 11.7226H9.20432C8.76754 11.7226 8.43028 10.9623 8.46315 10.7885C8.55437 10.306 8.76909 9.85126 9.08968 9.47232L11.6269 6.47362C11.8643 6.19303 11.7584 5.8907 11.7203 5.80468C11.6739 5.70013 11.5297 5.45569 11.1939 5.44434C11.1842 5.444 11.1741 5.44383 11.164 5.44383C10.6922 5.44383 10.3085 5.82762 10.3085 6.29938C10.3085 6.73615 9.95438 7.09026 9.5176 7.09026C9.08083 7.09026 8.72672 6.7362 8.72672 6.29938C8.72672 4.95549 9.82006 3.86206 11.164 3.86206C11.1918 3.86206 11.2195 3.86253 11.247 3.86348C12.0879 3.89184 12.8232 4.39002 13.1662 5.1635C13.5143 5.94854 13.3872 6.84203 12.8344 7.49533L10.2972 10.494C10.2879 10.5051 10.2787 10.5162 10.2698 10.5276H12.8104C13.1 10.5276 13.3532 10.6833 13.491 10.9155C13.561 11.0335 13.2471 11.7226 12.8103 11.7226Z" fill="#E0E0E0"/>
<path d="M12.811 11.3045H9.20495C8.86506 11.3045 8.5761 11.0897 8.46425 10.7888C8.43138 10.9626 8.41406 11.1399 8.41406 11.3187C8.41406 11.7555 8.76817 12.1096 9.20495 12.1096H12.811C13.2477 12.1096 13.6019 11.7555 13.6019 11.3187C13.6019 11.1715 13.5609 11.0342 13.4909 10.9162C13.3531 11.1484 13.1006 11.3045 12.811 11.3045Z" fill="#CECECE"/>
</g>
<defs>
<clipPath id="clip0">
<rect width="22" height="22" fill="white"/>
</clipPath>
</defs>
</svg>
