<svg width="18" height="17" viewBox="0 0 18 17" fill="none" xmlns="http://www.w3.org/2000/svg">
<path d="M15.0489 2.45857C11.7757 -0.820217 6.46954 -0.81943 3.19731 2.46037C-0.0749253 5.74018 -0.0741395 11.0569 3.19911 14.3357C6.47235 17.6145 11.7785 17.6137 15.0507 14.3339C16.6222 12.7588 17.5049 10.6226 17.5044 8.39534C17.5039 6.16846 16.6207 4.03297 15.0489 2.45857ZM13.4354 11.6971C13.4351 11.6975 13.4347 11.6979 13.4343 11.6982V11.6955L13.0097 12.1181C12.4605 12.6753 11.6608 12.9045 10.9006 12.7227C10.1348 12.5173 9.40672 12.1903 8.74408 11.7542C8.12846 11.36 7.55794 10.8991 7.04287 10.3799C6.56896 9.9085 6.1432 9.3909 5.77184 8.83482C5.36566 8.23645 5.04416 7.58463 4.81648 6.89787C4.55548 6.09108 4.77177 5.20581 5.37518 4.61106L5.87241 4.11284C6.01065 3.97369 6.23528 3.9732 6.37411 4.11172C6.37447 4.11208 6.37487 4.11244 6.37523 4.11284L7.94514 5.68589C8.084 5.82441 8.08449 6.04949 7.94625 6.1886C7.94589 6.18896 7.94553 6.18932 7.94514 6.18972L7.0233 7.1134C6.75879 7.37555 6.72553 7.79213 6.94509 8.09308C7.2785 8.55158 7.64747 8.98301 8.04851 9.38345C8.49565 9.83342 8.98175 10.2427 9.5011 10.6066C9.80119 10.8164 10.208 10.781 10.4676 10.5227L11.3587 9.61578C11.497 9.47664 11.7216 9.47615 11.8604 9.61467C11.8608 9.61503 11.8611 9.61539 11.8615 9.61578L13.4343 11.1944C13.5732 11.3329 13.5737 11.558 13.4354 11.6971Z" fill="#01499B"/>
</svg>
