<svg width="16" height="16" viewBox="0 0 16 16" fill="none" xmlns="http://www.w3.org/2000/svg">
<g clip-path="url(#clip0)">
<path d="M9.81752 7.71721L6.9727 5.90687C6.89304 5.85644 6.79218 5.85307 6.70916 5.89833C6.62666 5.94385 6.5752 6.03075 6.5752 6.12514V9.74583C6.5752 9.84023 6.62666 9.92713 6.70942 9.97264C6.74821 9.99385 6.79088 10.0045 6.83382 10.0045C6.88218 10.0045 6.93054 9.99075 6.9727 9.96411L9.81752 8.15376C9.892 8.10618 9.93726 8.02394 9.93726 7.93549C9.93726 7.84704 9.892 7.7648 9.81752 7.71721ZM7.09244 9.27488V6.59609L9.19683 7.93549L7.09244 9.27488Z" fill="black"/>
<path d="M15.1095 1.98718H12.5233H3.21299H0.626785C0.484026 1.98718 0.368164 2.10279 0.368164 2.2458V5.09063V7.93546V10.7803V13.6251C0.368164 13.7681 0.484026 13.8837 0.626785 13.8837H3.21299H12.5233H15.1095C15.2523 13.8837 15.3682 13.7681 15.3682 13.6251V10.7803V7.93546V5.09063V2.2458C15.3682 2.10279 15.2523 1.98718 15.1095 1.98718ZM2.95437 7.67684H0.885405V5.34925H2.95437V7.67684ZM0.885405 8.19408H2.95437V10.5217H0.885405V8.19408ZM3.47161 10.7803V7.93546V5.09063V2.50442H12.2647V5.09063V7.93546V10.7803V13.3665H3.47161V10.7803ZM14.8509 7.67684H12.782V5.34925H14.8509V7.67684ZM12.782 8.19408H14.8509V10.5217H12.782V8.19408ZM14.8509 2.50442V4.83201H12.782V2.50442H14.8509ZM0.885405 2.50442H2.95437V4.83201H0.885405V2.50442ZM0.885405 13.3665V11.0389H2.95437V13.3665H0.885405ZM14.8509 13.3665H12.782V11.0389H14.8509V13.3665Z" fill="black"/>
</g>
<defs>
<clipPath id="clip0">
<rect width="15" height="15" fill="white" transform="translate(0.368164 0.435425)"/>
</clipPath>
</defs>
</svg>
