<svg width="136" height="136" viewBox="0 0 136 136" fill="none" xmlns="http://www.w3.org/2000/svg">
<path d="M0 68C0 30.4 30.4 0 68 0C105.6 0 136 30.4 136 68C136 105.6 105.6 136 68 136C30.4 136 0 105.6 0 68Z" fill="#004A9A"/>
<path d="M107.6 99.4004C105.4 99.4004 103.6 100 103.6 100.8V101.2V102.4C103.8 103.2 105.4 103.8 107.6 103.8C109.8 103.8 111.6 103.2 111.8 102.4V101.2V100.8C111.6 100 109.8 99.4004 107.6 99.4004Z" fill="white"/>
<path d="M87.2 35.2001C89.8 32.6001 88.6 27.4001 84.6 23.6001C80.6 19.6001 75.8 18.8001 73.6 21.2001C71.2 23.6001 72 28.4002 75.8 32.4002C79.8 36.2002 84.8 37.6001 87.2 35.2001Z" fill="white"/>
<path d="M117.8 57C117.4 56.6 116.8 56.6 116.4 57L110.2 63.2C95.7999 37.2 75.9999 33.2 65.9999 41.4C54.9999 50.6 58.6 70.4 32.8 100C31.8 101 32.8 101.8 33.8 101.2C56 88.4 61.3999 73.1999 66.9999 72.7999C76.9999 71.9999 85.1999 75.8 87.3999 85.6L74.9999 98C74.3999 98.4 73.9999 98.6 72.9999 98.6C68.5999 98.6 59.5999 98.6 57.5999 98.6C56.5999 98.6 56.3999 99 56.1999 99.6C55.9999 100.2 55.5999 102 55.3999 102.4C55.1999 103 55.5999 103.6 56.3999 103.6C58.1999 103.6 65.7999 103.6 68.5999 103.6C71.5999 103.6 72.3999 103.2 77.1999 98.4C77.5999 98 77.7999 97.8 77.9999 97.4L87.5999 87.7999C87.9999 91.3999 87.8 95.6 86.8 100.4C86.6 101.4 87.7999 101.8 88.3999 100.6C91.1999 94.4 93.1999 88.2 92.9999 82.4L117.2 58.2C118.2 58.2 118.2 57.4 117.8 57ZM80.9999 63.6C72.3999 58.8 78.1999 49.4 85.3999 50.2C96.5999 51.6 104.6 59 109.2 64.2L93.3999 80C92.5999 73.8 88.7999 68 80.9999 63.6Z" fill="white"/>
<path d="M98.1998 99.2002C97.5998 99.2002 97.1998 99.6002 97.1998 100.2C97.1998 101 96.7998 101.8 95.7998 102C95.5998 102 95.1998 102.2 94.3998 102.2H79.7998C79.1998 102.2 78.7998 102.6 78.7998 103.2C78.7998 103.8 79.1998 104.2 79.7998 104.2H94.3998C95.1998 104.2 95.9998 104.2 96.3998 104C98.1998 103.6 99.1998 102 99.3998 100.2C99.1998 99.6002 98.5998 99.2002 98.1998 99.2002Z" fill="white"/>
<path d="M43.4 99.2002C42.8 99.2002 42.4 99.6002 42.4 100.2C42.4 101 42 101.8 41 102C40.8 102 40.4 102.2 39.6 102.2H25C24.4 102.2 24 102.6 24 103.2C24 103.8 24.4 104.2 25 104.2H39.6C40.4 104.2 41.2 104.2 41.6 104C43.4 103.6 44.4 102 44.6 100.2C44.2 99.6002 43.8 99.2002 43.4 99.2002Z" fill="white"/>
</svg>
