<svg width="136" height="136" viewBox="0 0 136 136" fill="none" xmlns="http://www.w3.org/2000/svg">
<path d="M136 68C136 30.4 105.6 0 68 0C30.4 0 0 30.4 0 68C0 105.6 30.4 136 68 136C105.6 136 136 105.6 136 68Z" fill="#004A9A"/>
<path d="M85.1999 44.6009C88.1999 43.0009 88.3999 38.0009 85.7999 33.6009C83.1999 29.0009 79.1999 27.2009 76.5999 28.6009C73.7999 30.2009 73.3999 34.6009 75.7999 39.2009C78.1999 43.6009 82.3999 46.2009 85.1999 44.6009Z" fill="white"/>
<path d="M84.3997 86.8006C84.5997 86.8006 84.7997 87.0006 84.9997 87.0006C85.3997 87.0006 85.5997 86.8005 85.7997 86.6005L108.4 48.8005C108.6 48.4005 108.6 47.8005 108 47.4005C107.6 47.2005 107 47.2005 106.6 47.8005L104.6 51.2006C88.5997 52.8006 81.1997 47.2006 76.7997 44.0006C72.1997 40.6006 67.7997 42.6005 65.1997 46.8005C63.5997 49.4005 61.9997 52.2006 60.3997 55.2006C56.1997 62.6006 53.1997 68.6006 48.5997 78.0006C43.5997 87.8006 37.1997 95.0005 29.9997 103.601C29.1997 104.401 29.9997 105.201 30.9997 104.601C34.1997 102.601 37.3997 100.601 40.1997 98.4005H98.1997C101 98.4005 103.2 97.2006 104.8 95.0006C105.2 94.6006 105 94.0005 104.6 93.6005C104.2 93.2005 103.6 93.4006 103.2 93.8006C102 95.6006 100.4 96.4005 98.1997 96.4005H42.7997C54.7997 87.0005 62.5997 77.8006 62.5997 77.8006C79.5997 77.2006 77.5997 84.4006 69.7997 95.0006C68.9997 96.0006 69.9997 96.6006 70.7997 96.0006C87.9998 82.4006 85.7997 71.4006 73.1997 69.2006C68.9997 68.4006 76.1997 58.4006 77.7997 55.8006C82.5997 57.4006 94.5997 58.2006 103.2 54.0006L83.9997 85.8006C83.7997 85.8006 83.7997 86.4006 84.3997 86.8006Z" fill="white"/>
<path d="M46.0005 72.4004C46.6005 73.2004 47.2005 74.0004 48.0005 74.0004C48.6005 74.0004 49.0006 73.6004 49.4006 72.8004C51.8006 67.2004 53.6006 63.2004 55.8006 58.6004C56.2006 57.8004 56.0006 57.0004 55.8006 56.4004C57.2006 53.8004 58.4005 51.8004 59.2005 50.2004C60.2005 48.6004 60.8005 47.4004 61.2005 46.6004C61.4005 46.0004 61.4006 45.4004 61.4006 45.0004C61.4006 44.8004 61.2005 44.4004 61.0005 44.0004L71.4006 26.6004C71.6006 26.2004 71.6005 25.6004 71.0005 25.2004C70.6005 25.0004 70.0006 25.0004 69.6006 25.6004L51.0005 56.6004C50.8005 57.0004 50.8005 57.6004 51.2005 58.0004C49.0005 61.8004 46.8005 65.6004 45.0005 68.6004C44.2005 70.0004 44.8006 71.0004 45.6006 72.0004L46.0005 72.4004Z" fill="white"/>
<path d="M65.0001 101.8C64.6001 101.4 64.0002 101.6 63.6002 102C62.4002 103.8 60.8002 104.6 58.6002 104.6H10.8002C11.2002 105.2 11.6001 106 12.2001 106.6H58.8002C61.6002 106.6 63.8001 105.4 65.4001 103.2C65.6001 102.8 65.4001 102.2 65.0001 101.8Z" fill="white"/>
</svg>
