<svg width="136" height="136" viewBox="0 0 136 136" fill="none" xmlns="http://www.w3.org/2000/svg">
<path d="M136 68C136 30.4 105.6 0 68 0C30.4 0 0 30.4 0 68C0 105.6 30.4 136 68 136C105.4 136 136 105.6 136 68Z" fill="#004A9A"/>
<path d="M64.1991 101.4C63.7991 101 63.1991 101.2 62.7991 101.6C61.3991 103.6 59.3992 104.6 56.9992 104.6H10.5992C10.9992 105.2 11.3992 106 11.9992 106.6H56.9992C59.9992 106.6 62.5991 105.2 64.3991 102.6C64.5991 102.2 64.5991 101.6 64.1991 101.4Z" fill="white"/>
<path d="M87.199 35.7999C90.599 33.9999 90.799 28.1999 87.999 23.1999C84.999 17.9999 80.3989 15.7999 77.3989 17.5999C74.1989 19.3999 73.799 24.5999 76.599 29.5999C79.399 34.5999 84.199 37.5999 87.199 35.7999Z" fill="white"/>
<path d="M86.3994 83.7999C86.5994 83.7999 86.7995 84 86.9995 84C87.3995 84 87.5994 83.7999 87.7994 83.5999L113.599 40.3999C113.799 39.9999 113.799 39.4 113.199 39C112.799 38.8 112.199 38.7999 111.799 39.3999L109.399 43.2H109.199C90.9995 45 82.3995 38.6 77.5995 35C72.1995 31 64.7994 33.1999 61.7994 40.7999C56.9994 52.3999 49.7994 72.8 30.7994 95.2L30.5995 95.3999C28.3995 97.9999 26.1994 100.4 23.7994 103C22.7994 104 23.7994 104.8 24.7994 104.2C28.5994 102 32.1994 99.4 35.3994 97H101.599C104.599 97 107.2 95.6 109 93C109.4 92.6 109.199 91.9999 108.799 91.5999C108.399 91.1999 107.799 91.3999 107.399 91.7999C105.999 93.7999 103.999 94.7999 101.599 94.7999H38.1995C52.1995 83.9999 60.9995 73.3999 60.9995 73.3999C80.5995 72.5999 78.1995 81 69.1995 93C68.3995 94.2 69.3994 94.8 70.3994 94C90.1994 78.4 87.5995 66 73.1995 63.2C68.1995 62.2 76.5994 50.9999 78.3994 47.7999C83.9994 49.7999 97.7994 50.5999 107.799 45.5999L85.7994 82.2C85.7994 83 85.9994 83.5999 86.3994 83.7999Z" fill="white"/>
</svg>
