<svg width="136" height="136" viewBox="0 0 136 136" fill="none" xmlns="http://www.w3.org/2000/svg">
<path d="M136 68C136 30.4 105.6 0 68 0C30.4 0 0 30.4 0 68C0 105.6 30.4 136 68 136C105.6 136 136 105.6 136 68Z" fill="#004A9A"/>
<path d="M80.7996 1.19983C79.7996 0.999829 78.7995 0.799805 77.9995 0.799805L23.1995 35.1998C20.5995 36.7998 18.9995 39.3998 18.9995 42.5998C18.9995 43.1998 19.3995 43.5998 19.9995 43.5998C20.5995 43.5998 20.9995 43.1998 20.9995 42.5998C20.9995 39.9998 22.1995 38.1998 24.3995 36.7998L80.7996 1.19983Z" fill="white"/>
<path d="M114.399 86.3996C107.799 80.9996 99.3992 76.3996 82.3992 74.7996C77.7992 74.3996 73.9992 64.1996 72.1992 54.5996C70.1992 43.7996 70.5992 27.5996 71.7992 20.5996C71.9992 19.3996 70.9992 19.1996 70.3992 20.1996C64.9992 28.9996 60.9992 41.7996 61.7992 58.1996C57.9992 53.7996 54.3992 42.3996 53.3992 29.7996L93.3992 4.79962C92.5992 4.39962 91.7992 4.19963 91.1992 3.99963L53.3992 27.7996C53.1992 25.3996 53.1992 23.1996 53.3992 20.7996C53.3992 19.7996 52.1992 19.7996 51.7992 20.7996C50.3992 24.1996 49.3992 27.3996 48.7992 30.7996L41.7992 35.1996C39.1992 36.7996 37.5992 39.3996 37.5992 42.5996C37.5992 43.1996 37.9992 43.5996 38.5992 43.5996C39.1992 43.5996 39.5992 43.1996 39.5992 42.5996C39.5992 39.9996 40.7992 38.1996 42.9992 36.7996L48.3992 33.3996C45.9992 47.9996 49.5992 61.9996 56.1992 72.9996C60.5992 80.5996 61.5992 82.3996 60.3992 91.5996C59.3992 99.5996 59.3992 113.2 64.7992 123.4C64.9992 123.6 65.3992 124 65.9992 123.8C66.1992 123.6 66.3992 123.2 66.3992 123C66.7992 115.2 66.7992 106.8 69.3992 99.3996C75.5992 82.3996 95.7992 83.1996 114.399 88.1996C114.599 88.1996 114.999 88.1996 115.199 87.9996C114.799 87.3996 114.799 86.7996 114.399 86.3996Z" fill="white"/>
<path d="M81.6006 89.7995C76.8006 90.1995 73.2006 92.7995 73.4006 95.7995C73.8006 98.9995 78.0006 100.999 82.6006 100.599C87.6006 99.9995 90.6006 97.1995 90.4006 94.5995C90.0006 91.3995 86.4006 89.3995 81.6006 89.7995Z" fill="white"/>
</svg>
