<svg width="136" height="136" viewBox="0 0 136 136" fill="none" xmlns="http://www.w3.org/2000/svg">
<path d="M136 68C136 30.4 105.6 0 68 0C30.4 0 0 30.4 0 68C0 105.6 30.4 136 68 136C105.6 136 136 105.6 136 68Z" fill="#004A9A"/>
<path d="M71.2004 45.4003C70.4004 45.4003 69.2005 46.6003 71.0005 47.0003C81.0005 49.2003 97.4004 61.0003 92.2004 63.6003C81.0004 69.6003 70.0005 67.4002 69.6005 75.8002C68.8005 93.6002 65.4004 96.4003 43.4004 100.4C42.4004 100.6 42.4004 101.8 43.4004 102C71.4004 104.2 77.2005 95.4002 79.0005 86.8002C91.6005 93.6002 95.4004 100.8 76.4004 116.4C75.6004 117.2 75.8004 118.2 77.2004 117.8C95.0004 109.6 109 98.0002 89.4004 79.8002C103.6 78.4002 112.6 76.0003 107.2 63.6003C102.6 54.2003 84.0004 44.8003 71.2004 45.4003Z" fill="white"/>
<path d="M118.801 57.5999C115.001 53.7999 110.601 53.1999 108.601 55.1999C106.401 57.3999 107.201 61.7999 110.601 65.5999C114.001 69.1999 118.801 70.6 121.001 68.4C123.401 66 122.401 60.9999 118.801 57.5999Z" fill="white"/>
<path d="M86.4005 116.8C85.8005 116.4 85.2005 116.6 84.8005 117.2C84.2005 118 83.6006 118.4 82.6006 118.4H67.8005C67.2005 118.4 66.6006 119 66.6006 119.6C66.6006 120.2 67.2005 120.8 67.8005 120.8H82.8005C84.6005 120.8 86.0006 120 87.0006 118.6C87.0006 117.8 87.0005 117.2 86.4005 116.8Z" fill="white"/>
<path d="M48.7996 107C47.7996 107.2 46.9996 107 46.3996 106.2L35.9997 95.5998C35.5997 95.1998 34.7996 95.1998 34.3996 95.5998C33.9996 95.9998 33.9996 96.7998 34.3996 97.1998L44.7996 107.8C45.7996 108.8 46.9997 109.2 48.1997 109.2C48.5997 109.2 48.7997 109.2 49.1997 109C49.7997 108.8 50.1997 108.2 50.1997 107.6C50.1997 107.2 49.5996 106.8 48.7996 107Z" fill="white"/>
<path d="M47.5999 48.4001C57.3999 53.6001 60.1999 59.2001 45.5999 71.4001C44.9999 72 45.1999 72.8001 46.1999 72.4001C59.9999 66 70.7999 57 55.5999 43C66.5999 41.8 73.3998 40 69.3998 30.6C66.1998 23.2 51.7998 16 41.7998 16.6C41.1998 16.6 40.1999 17.4 41.5999 17.8C49.3999 19.4 61.9999 28.6 57.9999 30.6C49.3999 35.2 40.7999 33.6 40.5999 40C39.9999 53.6 37.1998 55.8 20.3998 59C19.5998 59.2 19.5998 60.2 20.3998 60.2C41.7998 62 46.1999 55.2001 47.5999 48.4001Z" fill="white"/>
<path d="M80.2003 34.1997C82.0003 32.3997 81.2002 28.5996 78.4002 25.7996C75.6002 22.9996 72.2002 22.3997 70.4002 23.9997C68.6002 25.7997 69.2003 29.1997 72.0003 31.9997C74.8003 34.9997 78.4003 35.9997 80.2003 34.1997Z" fill="white"/>
<path d="M51.9999 71.7997C51.5999 72.3997 50.9998 72.5997 50.3998 72.5997H38.7998C38.1998 72.5997 37.7998 72.9997 37.7998 73.5997C37.7998 74.1997 38.1998 74.5997 38.7998 74.5997H50.3998C51.7998 74.5997 52.9999 73.9997 53.5999 72.7997C53.9999 72.3997 53.7998 71.7998 53.3998 71.3998C52.9998 71.1998 52.3999 71.3997 51.9999 71.7997Z" fill="white"/>
<path d="M24.4001 64C23.6001 64.2 23.2002 64 22.6002 63.4L14.4001 55.1999C14.0001 54.7999 13.4002 54.7999 13.0002 55.1999C12.6002 55.5999 12.6002 56.1999 13.0002 56.5999L21.2001 64.7999C22.0001 65.5999 23.0002 66 24.0002 66C24.2002 66 24.6001 66 24.8001 66C25.4001 65.8 25.6002 65.3999 25.6002 64.7999C25.4002 64.1999 25.0001 63.8 24.4001 64Z" fill="white"/>
</svg>
