<svg width="136" height="136" viewBox="0 0 136 136" fill="none" xmlns="http://www.w3.org/2000/svg">
<path d="M0 68C0 30.4 30.4 0 68 0C105.6 0 136 30.4 136 68C136 105.6 105.6 136 68 136C30.4 136.2 0 105.6 0 68Z" fill="#004A9A"/>
<path d="M98.8011 63.4C93.0011 62.8 88.4011 63 80.8011 62.4C64.2011 61.2 42.2011 58 21.8011 54.4C19.8011 54 19.8011 55.2 20.8011 56C25.6011 59.2 67.801 79 86.201 79.8C106.401 80.8 113.001 64.8 98.8011 63.4Z" fill="white"/>
<path d="M101.601 85.5999C99.2009 87.5999 96.2009 88.2 93.2009 87.2L13.6009 62.3999C12.8009 62.1999 12.2009 62.6 11.8009 63.2C11.6009 64 12.0009 64.6 12.6009 65L92.2009 89.7999C93.4009 90.1999 94.601 90.3999 95.801 90.3999C98.401 90.3999 100.801 89.5999 103.001 87.7999C103.601 87.3999 103.601 86.3999 103.201 85.7999C103.001 85.1999 102.201 84.9999 101.601 85.5999Z" fill="white"/>
<path d="M119.801 62.6002C116.201 58.0002 111.401 56.6002 108.801 58.6002C106.001 60.8002 106.201 65.8001 109.601 70.4001C112.801 75.0001 118.001 77.2002 120.801 75.0002C123.801 72.8002 123.201 67.2002 119.801 62.6002Z" fill="white"/>
</svg>
