<svg width="136" height="136" viewBox="0 0 136 136" fill="none" xmlns="http://www.w3.org/2000/svg">
<path d="M136 68C136 30.4 105.6 0 68 0C30.4 0 0 30.4 0 68C0 105.6 30.4 136 68 136C105.6 136.2 136 105.6 136 68Z" fill="#004A9A"/>
<path d="M68 0C30.4 0 0 30.4 0 68C0 105.6 30.4 136 68 136C105.6 136 136 105.6 136 68C136 30.6 105.6 0 68 0Z" fill="#004A9A"/>
<path d="M115 52.8003C118.2 51.0003 118.4 45.8003 115.8 41.2003C113 36.4003 108.8 34.4003 106 35.8003C103 37.4003 102.6 42.2003 105.2 47.0003C107.6 51.6003 112.2 54.4003 115 52.8003Z" fill="white"/>
<path d="M87.6 107C85.2 108.2 82.6 108 80.4 106.6L13.4 67.0002C13 66.8002 12.4 66.8002 12 67.4002C11.6 68.0002 11.8 68.4002 12.4 68.8002L79.4 108.4C81 109.4 82.6 109.8 84.4 109.8C85.8 109.8 87.2 109.4 88.6 108.8C89 108.6 89.4 108 89 107.4C88.6 106.8 88 106.6 87.6 107Z" fill="white"/>
<path d="M118.8 70.2006C119 69.8006 119 69.2006 118.4 68.8006L101.8 58.8005C102 56.8005 102.4 54.2005 103.2 51.4005C105 44.8005 98.5995 40.4005 90.9995 40.4005C86.3995 40.4005 81.1995 41.6005 76.5995 43.6005L65.7995 37.2006C65.3995 37.0006 64.7995 37.0005 64.3995 37.6005C64.1995 38.0005 64.1995 38.6005 64.7995 39.0005L74.3995 44.8005C72.1995 46.0005 70.1995 47.2005 68.3995 48.6005C65.5995 51.2005 64.1995 53.6005 64.1995 57.4005C64.1995 68.8005 61.1995 73.4006 48.3995 78.0006L29.5995 67.0006C29.1995 66.8006 28.5995 66.8005 28.1995 67.4005C27.9995 67.8005 27.9995 68.4006 28.5995 68.8006L45.7995 79.0006C43.9995 79.6006 41.7995 80.2006 39.5995 81.0006C38.7995 81.2006 38.5995 82.4005 39.7995 82.4005C43.3995 82.2005 46.7995 82.0005 49.9995 81.4005L95.5995 108.401C97.1995 109.401 98.7995 109.801 100.6 109.801C102 109.801 103.4 109.401 104.8 108.801C105.4 108.601 105.6 108.001 105.2 107.401C105 106.801 104.4 106.601 103.8 107.001C101.4 108.201 98.7995 108.001 96.5995 106.601L52.9995 80.8006C63.9995 78.8006 71.7995 74.6005 74.5995 64.4005C77.7995 65.6005 80.9995 67.2006 81.9995 69.2006C83.5995 72.6006 78.7995 78.0005 60.7995 83.6005C59.9995 83.8005 59.7995 85.2006 60.9995 85.0006C89.7995 81.4006 94.9995 72.2006 92.3995 65.0006C91.3995 61.8006 88.5995 59.4005 85.9995 57.8005C82.5995 55.6005 86.1995 54.0005 89.1995 53.8005L92.3995 55.6005C92.3995 56.2005 92.1995 57.2006 92.3995 58.2006C93.1995 63.6006 95.5995 74.6006 118.2 70.8005C118.4 70.8005 118.6 70.6005 118.8 70.6005C118.6 70.4005 118.6 70.4006 118.8 70.2006C118.8 70.4006 118.8 70.4006 118.8 70.2006ZM103 64.8005C102.4 63.8005 102 62.6006 101.8 61.2006L114.6 69.0006C108.6 68.4006 104.6 67.0005 103 64.8005Z" fill="white"/>
</svg>
