<svg width="136" height="136" viewBox="0 0 136 136" fill="none" xmlns="http://www.w3.org/2000/svg">
<path d="M0 68C0 30.4 30.4 0 68 0C105.6 0 136 30.4 136 68C136 105.6 105.6 136 68 136C30.6 136.2 0 105.6 0 68Z" fill="#004A9A"/>
<path d="M124.4 64.0001C124.2 63.6001 123.6 63.6001 123.4 63.6001C115.4 64.4001 109 65.4001 100.8 63.8001C82.6 60.2001 80.2 40.6001 82.2001 21.2001C82.2001 20.8001 82 20.6 81.8 20.4C81.6 20.2 81 20.2001 80.8 20.6001C76.6 27.2001 73.6 38.0001 75 53.8001C75.6 60.0001 71.4 61.8001 66 61.2001C63.2 60.8001 59.8 59.4001 55 56.2001C45 49.8001 39.2 43.2001 34.8 37.6001C34.4 37.2001 34.2 37.0001 33.8 37.2001C33.6 37.4001 33.4 37.8001 33.4 38.2001C35.6 45.4001 40 54.4 50.4 64.4C55.4 69.4001 57.4 70.4001 60.8 76.0001C65.8 84.2001 67 104.6 65.4 120.2C65.4 120.6 65.8 121 66.2 121C66.6 121 67 120.8 67.2 120.4C76.6 104 74.2 88.4001 75.2 79.6001C76.2 71.2001 87.4 71.4001 98 71.6001C104 71.6001 115 71.0001 124.2 64.8001C124.4 65.0001 124.6 64.6001 124.4 64.0001Z" fill="white"/>
<path d="M93.8001 58.0001C98.2001 60.4001 103.2 60.2001 104.6 57.2001C106.2 54.2001 103.4 50.0001 99.0001 47.8001C94.4001 45.4001 90.0001 46.2001 88.6001 48.8001C87.0001 51.8001 89.2001 55.6001 93.8001 58.0001Z" fill="white"/>
<path d="M72.0002 116.6C71.4002 116.6 71.0002 117 71.0002 117.6C71.0002 118.2 71.4002 118.6 72.0002 118.6C73.8002 118.6 74.2003 120 74.2003 120.4C74.4003 121.2 74.0003 122.2 72.8003 122.6C72.6003 122.6 72.2002 122.8 71.4002 122.8H57.2003C56.6003 122.8 56.2003 123.2 56.2003 123.8C56.2003 124.4 56.6003 124.8 57.2003 124.8H71.4002C72.2002 124.8 72.8002 124.8 73.4002 124.6C75.6002 124 76.4003 122 76.2003 120.2C76.0003 118.2 74.6002 116.6 72.0002 116.6Z" fill="white"/>
<path d="M27.5999 40.2001C25.7999 40.2001 25.4 38.8001 25.4 38.4001C25.2 37.6001 25.6 36.6001 26.8 36.2001C27 36.2001 27.4 36.0001 28.2 36.0001H42.4C43 36.0001 43.4 35.6001 43.4 35.0001C43.4 34.4001 43 34.0001 42.4 34.0001H28.2C27.4 34.0001 26.8 34.0001 26.2 34.2001C24 34.8001 23.2 36.8001 23.4 38.6001C23.6 40.4001 24.9999 42.0001 27.5999 42.0001C28.1999 42.0001 28.5999 41.6001 28.5999 41.0001C28.5999 40.6001 28.1999 40.2001 27.5999 40.2001Z" fill="white"/>
</svg>
