<svg width="136" height="136" viewBox="0 0 136 136" fill="none" xmlns="http://www.w3.org/2000/svg">
<path d="M136 68C136 30.4 105.6 0 68 0C30.4 0 0 30.4 0 68C0 105.6 30.4 136 68 136C105.6 136 136 105.6 136 68Z" fill="#004A9A"/>
<path d="M58.4004 25.7997C57.6004 25.7997 56.2004 26.9998 58.2004 27.5998C69.6004 29.9998 88.2004 43.3998 82.4004 46.5998C69.6004 53.3998 57.0004 50.9998 56.8004 60.3998C56.0004 80.5998 52.0004 83.7998 26.8004 88.5998C25.6004 88.7998 25.6004 90.1998 26.8004 90.3998C58.8004 92.9998 65.2004 82.7998 67.2004 72.9998C81.6004 80.7998 85.8004 88.9997 64.2004 106.8C63.2004 107.6 63.6004 109 65.0004 108.2C85.2004 98.7998 101.2 85.5998 78.8004 64.9998C95.0004 63.1998 105.2 60.5998 99.0004 46.5998C94.4004 35.7998 73.0004 25.1997 58.4004 25.7997Z" fill="white"/>
<path d="M112.801 39.5998C108.601 35.3998 103.601 34.5998 101.201 36.9998C98.6007 39.5998 99.6007 44.5997 103.601 48.7997C107.601 52.9997 113.001 54.5998 115.601 51.9998C118.001 49.3998 116.801 43.5998 112.801 39.5998Z" fill="white"/>
<path d="M75.8 107.2C75.2 106.8 74.4 107 74 107.6C73.4 108.6 72.6 109 71.4 109H54.4C53.6 109 53 109.6 53 110.4C53 111.2 53.6 111.8 54.4 111.8H71.4C73.4 111.8 75.0001 111 76.2001 109.2C76.6001 108.4 76.4 107.6 75.8 107.2Z" fill="white"/>
<path d="M33.0002 96.0001C32.0002 96.2001 31.0002 96 30.2002 95.2L18.2002 83.2C17.6002 82.6 16.8002 82.6 16.4002 83.2C15.8002 83.8 15.8002 84.6 16.4002 85.0001L28.4002 97.0001C29.6002 98.2001 30.8002 98.6 32.4002 98.6C32.8002 98.6 33.2002 98.6001 33.6002 98.4001C34.4002 98.2001 34.8002 97.6 34.6002 96.8C34.4002 96.4 33.8002 95.8001 33.0002 96.0001Z" fill="white"/>
</svg>
