<svg width="75" height="75" viewBox="0 0 75 75" fill="none" xmlns="http://www.w3.org/2000/svg">
<path d="M35.7864 64.6915L35.9548 64.5364L43.0774 57.9783C43.3724 57.7065 43.5272 57.3157 43.4965 56.9148L43.4965 56.9141C43.467 56.5146 43.2558 56.1509 42.9226 55.9267L42.9221 55.9263L36.7318 51.7409L36.5569 51.6227L36.6441 51.4305L40.6312 42.6432C40.8465 42.1676 40.7594 41.6101 40.4107 41.223C40.4107 41.223 40.4107 41.223 40.4107 41.223L28.9744 28.5309L28.8795 28.4256L28.9211 28.2901L30.6529 22.6507L35.7864 64.6915ZM35.7864 64.6915L35.9261 64.8729M35.7864 64.6915L35.9261 64.8729M35.9261 64.8729L39.2463 69.1834L39.2465 69.1836C39.5284 69.5487 39.5975 70.0342 39.4284 70.4635L39.4281 70.4641C39.2604 70.8932 38.88 71.2021 38.4246 71.2791L18.3296 74.6617C17.984 74.7191 17.6391 74.7484 17.301 74.7484C14.4314 74.7484 11.8796 72.7402 11.358 69.9131L11.1121 69.9585L11.358 69.9131L0.345898 10.2644C0.345891 10.2644 0.345884 10.2644 0.345877 10.2643C0.0667454 8.74822 0.401074 7.21561 1.29205 5.94431L1.29221 5.94408M35.9261 64.8729L1.29221 5.94408M30.1325 21.1778L30.1325 21.1778L24.1862 17.1586L23.972 17.0139L24.1238 16.8047L30.7993 7.6024L30.1325 21.1778ZM30.1325 21.1778C30.6105 21.5008 30.8221 22.098 30.653 22.6506L30.1325 21.1778ZM1.29221 5.94408C2.2141 4.62545 3.61176 3.75079 5.23034 3.47777C5.23036 3.47777 5.23039 3.47776 5.23041 3.47776L24.2932 0.267753C24.2936 0.267686 24.2941 0.267619 24.2945 0.267552M1.29221 5.94408L24.2945 0.267552M3.44137 7.44887L3.44143 7.44878C3.95912 6.70941 4.75166 6.22101 5.66615 6.06699L5.70767 6.31352L5.66615 6.06699L23.9322 2.99086L24.06 2.96934L24.1513 3.06141L27.8698 6.81356L28.0192 6.9644L27.8946 7.13631L21.0511 16.5723L21.0508 16.5726C20.8421 16.8593 20.7589 17.2206 20.8216 17.5701L20.8217 17.5709C20.8832 17.9207 21.0843 18.2307 21.3789 18.4292L21.3792 18.4294L27.7053 22.7049L27.8586 22.8085L27.8043 22.9854L26.1518 28.3656C26.0159 28.8081 26.1223 29.2872 26.4311 29.6292L26.4312 29.6293L37.776 42.2192L37.8856 42.3408L37.8179 42.4899L33.7074 51.5471L3.44137 7.44887ZM3.44137 7.44887C2.95955 8.13766 2.77619 8.96851 2.92739 9.78748L13.9395 69.4361C13.9395 69.4362 13.9395 69.4362 13.9395 69.4363C14.2667 71.2135 16.0345 72.3882 17.8938 72.0726L35.4224 69.1219L35.8331 69.0528L35.5789 68.7228L32.9744 65.3417C32.9744 65.3417 32.9744 65.3416 32.9743 65.3416C32.5589 64.8017 32.6245 64.0354 33.1242 63.5755L33.1242 63.5755L39.8455 57.3866L40.078 57.1726L39.8162 56.9956L34.1691 53.1763L34.1687 53.1761M3.44137 7.44887L34.1687 53.1761M34.1687 53.1761C33.6383 52.8186 33.4434 52.1307 33.7074 51.5473L34.1687 53.1761ZM30.6683 5.90764L30.6685 5.90782C31.1212 6.36573 31.1761 7.08208 30.7994 7.60225L30.6683 5.90764ZM30.6683 5.90764L25.446 0.638112L30.6683 5.90764ZM24.2945 0.267552C24.7216 0.200823 25.1465 0.337725 25.4456 0.637678L24.2945 0.267552Z" fill="#04B400" stroke="#E6F7E5" stroke-width="0.5"/>
<path d="M46.7484 7.64587L46.6035 7.79078L38.1349 16.2594C37.6221 16.7721 37.6221 17.6026 38.1349 18.1152L38.1349 18.1152L43.5883 23.5686L43.7157 23.696L43.6351 23.8572L41.0138 29.0998L46.7484 7.64587ZM46.7484 7.64587L46.6347 7.47535M46.7484 7.64587L46.6347 7.47535M46.6347 7.47535L43.1787 2.2906C42.9107 1.88794 42.8852 1.37003 43.1133 0.943267C43.3414 0.516651 43.786 0.25 44.2706 0.25H57.8126C58.1613 0.25 58.4944 0.388362 58.7406 0.634534L74.3654 16.2594C74.6116 16.5056 74.75 16.8387 74.7498 17.1871V17.1872V68.749C74.7498 72.058 72.0587 74.749 68.7499 74.749H45.3127C44.8154 74.749 44.3617 74.4685 44.1384 74.0232L41.0137 67.7736C40.7175 67.1811 40.9087 66.4609 41.4595 66.0946L41.4597 66.0945L49.2492 60.902L49.503 60.7328L49.2873 60.5172L44.3847 55.6146C43.9425 55.1724 43.8734 54.4789 44.2206 53.9588L44.2207 53.9586L49.9228 45.4063L50.0106 45.2746M46.6347 7.47535L50.0106 45.2746M50.0106 45.2746L49.9291  45.139L41.0624 30.3626C40.8319 29.9783 40.8137 29.5014 41.0136 29.1001L49.9291 45.139ZM59.5519 5.15767L59.1251 4.7309V5.33445V12.4999C59.1251 14.3606 60.6394 15.8748 62.5001 15.8748H69.6655H70.2691L69.8423 15.4481L59.5519 5.15767ZM46.0551 71.9859L46.1243 72.1241H46.2787H68.75C70.5266 72.1241 71.9874 70.7436 72.1158 68.9992H72.1251V68.7492V18.7499V18.4999H71.8751H62.5002C59.1913 18.4999 56.5002 15.8087 56.5002 12.4999V3.12505V2.87505H56.2502H47.1897H46.7225L46.9817 3.26377L49.5299 7.08447L49.53 7.08455C49.8772 7.60467 49.8082 8.29802 49.3659 8.74034L41.0958 17.0104L40.919 17.1872L41.0958 17.364L46.241 22.5092C46.6409 22.9091 46.7396 23.5193 46.4871 24.0242C46.4871 24.0242 46.4871 24.0242 46.4871 24.0242L43.7451 29.5066L43.6837 29.6294L43.7543 29.7471L52.6883 44.6364L52.6885 44.6367C52.9498 45.071 52.937 45.6182 52.6552 46.0396L52.655 46.0399L47.116 54.3497L47.0024 54.5202L47.1473 54.6651L52.4908 60.0086C52.4908 60.0086 52.4908 60.0087 52.4908 60.0087C52.7688 60.2869 52.9074 60.6753 52.8689 61.0662C52.8304 61.4569 52.6177 61.8107 52.2909 62.0287L44.0634 67.5142L43.8797 67.6366L43.9785 67.834L46.0551 71.9859Z" fill="#2B2B2B" stroke="#E6F7E5" stroke-width="0.5"/>
</svg>
