<svg width="596" height="81" viewBox="0 0 596 81" fill="none" xmlns="http://www.w3.org/2000/svg">
<path d="M83.2657 11.6445H82.3242V78.7692H83.2657V11.6445Z" fill="#231F20"/>
<path d="M118.495 39.8774C118.495 48.4784 113.785 52.9658 106.815 52.9658C99.8445 52.9658 95.1348 48.4784 95.1348 39.8774V24.1714C95.1348 15.5705 99.8445 11.083 106.815 11.083C113.785 11.083 118.495 15.5705 118.495 24.1714V39.8774ZM110.583 24.9193C110.583 20.0579 109.264 18.0012 106.627 18.0012C103.989 18.0012 102.67 19.8709 102.67 24.9193V39.3165C102.67 44.1779 103.989 46.2346 106.627 46.2346C109.264 46.2346 110.583 44.3649 110.583 39.3165V24.9193Z" fill="#EE4034"/>
<path d="M126.03 11.8315H148.072V52.4055H140.159V18.7497H133.754V43.0567C133.754 50.5357 130.74 52.9664 124.146 52.9664H121.697V46.0483H123.581C125.277 46.0483 125.842 45.1134 125.842 42.6827V11.8315H126.03Z" fill="#EE4034"/>
<path d="M161.071 52.4055H154.289V11.8315H161.825V35.3906L170.867 11.8315H177.649V52.4055H170.114V28.8464L161.071 52.4055Z" fill="#EE4034"/>
<path d="M191.401 30.7162V52.4055H183.865V11.8315H190.27L197.994 33.1469L205.718 11.8315H212.124V52.4055H204.588V30.7162L200.444 42.4957H195.545L191.401 30.7162Z" fill="#EE4034"/>
<path d="M233.035 18.7497H226.253V52.4055H218.529V11.8315H240.948V52.4055H233.224V18.7497H233.035Z" fill="#EE4034"/>
<path d="M253.948 52.4055H247.166V11.8315H254.702V35.3906L263.744 11.8315H270.526V52.4055H262.991V28.8464L253.948 52.4055Z" fill="#EE4034"/>
<path d="M283.524 52.4055H276.742V11.8315H284.278V35.3906L293.32 11.8315H300.103V52.4055H292.567V28.8464L283.524 52.4055Z" fill="#EE4034"/>
<path d="M329.304 39.8774C329.304 48.4784 324.594 52.9658 317.624 52.9658C310.653 52.9658 305.943 48.4784 305.943 39.8774V24.1714C305.943 15.5705 310.653 11.083 317.624 11.083C324.594 11.083 329.304 15.5705 329.304 24.1714V25.6672L321.58 26.0412V24.9193C321.58 20.0579 320.261 18.0012 317.624 18.0012C314.986 18.0012 313.667 19.8709 313.667 24.9193V39.3165C313.667 44.1779 314.986 46.2346 317.624 46.2346C320.261 46.2346 321.58 44.3649 321.58 39.3165V38.1946L329.304 38.5686V39.8774Z" fill="#EE4034"/>
<path d="M356.431 15.7581C356.431 21.9283 355.301 26.2288 351.345 30.3422L359.069 52.4055H350.78L345.316 35.7646L342.302 38.5692V52.4055H334.578V11.8315H342.302V28.8464L344.374 26.9767C347.577 23.985 348.519 21.1804 348.519 15.7581V12.0185H356.431V15.7581Z" fill="#EE4034"/>
<path d="M379.603 45.1134H371.314L369.995 52.4055H361.895L371.314 11.8315H379.415L388.834 52.4055H380.733L379.603 45.1134ZM372.633 38.1953H378.096L375.27 23.985L372.633 38.1953Z" fill="#EE4034"/>
<path d="M397.312 35.5776C394.486 33.7078 392.602 30.1553 392.602 24.546C392.602 15.3841 397.877 11.8315 404.094 11.8315H414.832V52.4055H406.92V37.4474H404.282L399.572 52.4055H391.283L397.312 35.5776ZM405.036 30.5292H406.731V18.7497H405.036C401.645 18.7497 400.326 20.8064 400.326 24.7329C400.326 28.4725 401.833 30.5292 405.036 30.5292Z" fill="#EE4034"/>
<path d="M454.958 39.8774C454.958 48.4784 450.248 52.9658 443.278 52.9658C436.307 52.9658 431.598 48.4784 431.598 39.8774V24.1714C431.598 15.5705 436.307 11.083 443.278 11.083C450.248 11.083 454.958 15.5705 454.958 24.1714V25.6672L447.234 26.0412V24.9193C447.234 20.0579 445.915 18.0012 443.278 18.0012C440.64 18.0012 439.322 19.8709 439.322 24.9193V39.3165C439.322 44.1779 440.64 46.2346 443.278 46.2346C445.915 46.2346 447.234 44.3649 447.234 39.3165V38.1946L454.958 38.5686V39.8774Z" fill="#EE4034"/>
<path d="M458.161 11.8311H480.956V18.7492H473.421V52.405H465.508V18.7492H457.973V11.8311H458.161Z" fill="#EE4034"/>
<path d="M493.578 38.3818V52.405H485.854V11.8311H496.592C502.809 11.8311 508.084 15.7576 508.084 25.1064C508.084 34.4552 502.809 38.3818 496.592 38.3818H493.578ZM495.273 18.7492H493.578V31.4636H495.273C498.664 31.4636 499.983 29.0329 499.983 25.1064C500.171 21.1799 498.664 18.7492 495.273 18.7492Z" fill="#EE4034"/>
<path d="M526.734 45.1129H518.445L517.126 52.405H509.025L518.445 11.8311H526.546L535.965 52.405H527.864L526.734 45.1129ZM519.952 38.1948H525.415L522.589 23.9845L519.952 38.1948Z" fill="#EE4034"/>
<path d="M555.558 35.0162H548.776V52.405H540.863V11.8311H548.776V28.098H555.558V11.8311H563.47V52.405H555.558V35.0162Z" fill="#EE4034"/>
<path d="M585.888 45.1129H577.599L576.28 52.405H568.18L577.599 11.8311H585.7L595.119 52.405H587.019L585.888 45.1129ZM578.918 38.1948H584.381L581.555 23.9845L578.918 38.1948Z" fill="#EE4034"/>
<path d="M290.87 0.23877C290.682 2.48249 290.117 3.79133 288.421 3.79133C286.726 3.79133 286.161 2.66947 285.972 0.23877H281.074C281.451 6.03505 284.465 8.27877 288.421 8.27877C292.378 8.27877 295.392 6.03505 295.769 0.23877H290.87Z" fill="#EE4034"/>
<path d="M103.611 66.9895H97.7708V78.5821H96.2637V65.6807H104.93V78.5821H103.611V66.9895Z" fill="#231F20"/>
<path d="M109.452 73.3467V78.5821H107.945V65.6807H112.467C114.539 65.6807 116.611 66.9895 116.611 69.6072C116.611 72.2248 114.539 73.5337 112.467 73.5337H109.452V73.3467ZM112.278 66.9895H109.452V72.0379H112.278C113.974 72.0379 115.104 71.29 115.104 69.4202C115.104 67.7374 113.974 66.9895 112.278 66.9895Z" fill="#231F20"/>
<path d="M127.914 73.7206C127.914 76.7123 126.218 78.769 123.392 78.769C120.567 78.769 118.871 76.7123 118.871 73.7206V70.542C118.871 67.5504 120.567 65.4937 123.392 65.4937C126.218 65.4937 127.914 67.5504 127.914 70.542V73.7206ZM126.407 70.729C126.407 68.1113 125.276 66.6155 123.392 66.6155C121.509 66.6155 120.378 68.1113 120.378 70.729V73.5337C120.378 76.1513 121.509 77.6471 123.392 77.6471C125.276 77.6471 126.407 76.1513 126.407 73.5337V70.729Z" fill="#231F20"/>
<path d="M138.84 66.9895H132.058V78.5821H130.551V65.6807H138.84V66.9895Z" fill="#231F20"/>
<path d="M142.419 73.3467V78.5821H140.912V65.6807H145.433C147.506 65.6807 149.578 66.9895 149.578 69.6072C149.578 72.2248 147.506 73.5337 145.433 73.5337H142.419V73.3467ZM145.245 66.9895H142.419V72.0379H145.245C146.941 72.0379 148.071 71.29 148.071 69.4202C148.071 67.7374 146.941 66.9895 145.245 66.9895Z" fill="#231F20"/>
<path d="M155.795 65.6807L160.316 78.5821H158.809L157.679 75.4035H152.593L151.462 78.5821H149.955L154.476 65.6807H155.795ZM152.969 74.0946H157.302L155.23 67.5504L152.969 74.0946Z" fill="#231F20"/>
<path d="M167.475 75.0295L163.896 68.6723V78.5821H162.389V65.6807H163.707L168.04 73.5337L172.373 65.6807H173.692V78.5821H172.185V68.6723L168.606 75.0295H167.475Z" fill="#231F20"/>
<path d="M181.794 75.0295L178.214 68.6723V78.5821H176.707V65.6807H178.026L182.359 73.5337L186.692 65.6807H188.01V78.5821H186.503V68.6723L182.924 75.0295H181.794Z" fill="#231F20"/>
<path d="M195.922 65.6807L200.443 78.5821H198.936L197.806 75.4035H192.719L191.589 78.5821H190.082L194.603 65.6807H195.922ZM193.096 74.0946H197.429L195.357 67.5504L193.096 74.0946Z" fill="#231F20"/>
<path d="M208.734 70.729V73.5337C208.734 76.1513 209.864 77.6471 211.748 77.6471C213.443 77.6471 214.574 76.7123 214.762 74.6555L216.269 74.8425C215.892 77.2732 214.197 78.769 211.748 78.769C208.922 78.769 207.227 76.7123 207.227 73.7206V70.542C207.227 67.5504 208.922 65.4937 211.748 65.4937C214.197 65.4937 215.892 66.9895 216.269 69.6071L214.762 69.7941C214.385 67.9244 213.255 66.8025 211.748 66.8025C209.864 66.8025 208.734 68.2983 208.734 70.729Z" fill="#231F20"/>
<path d="M227.572 73.7206C227.572 76.7123 225.876 78.769 223.051 78.769C220.225 78.769 218.529 76.7123 218.529 73.7206V70.542C218.529 67.5504 220.225 65.4937 223.051 65.4937C225.876 65.4937 227.572 67.5504 227.572 70.542V73.7206ZM226.065 70.729C226.065 68.1113 224.935 66.6155 223.051 66.6155C221.167 66.6155 220.036 68.1113 220.036 70.729V73.5337C220.036 76.1513 221.167 77.6471 223.051 77.6471C224.935 77.6471 226.065 76.1513 226.065 73.5337V70.729Z" fill="#231F20"/>
<path d="M230.585 78.5821V80.8258H229.078V77.2732H230.208C230.774 75.2165 231.15 72.9728 231.15 70.729V65.6807H238.309V77.2732H239.628V80.8258H238.121V78.5821H230.585ZM236.802 77.2732V66.9895H232.658V70.916C232.658 73.1597 232.281 75.4035 231.716 77.4602H236.802V77.2732Z" fill="#231F20"/>
<path d="M241.889 78.5821V65.6807H249.613V66.9895H243.396V71.29H248.859V72.5988H243.396V77.2732H249.613V78.5821H241.889Z" fill="#231F20"/>
<path d="M252.062 78.5818V65.6804H253.57V75.9641L259.975 65.6804H261.294V78.5818H259.786V68.2981L253.381 78.5818H252.062ZM253.946 61.9409L255.077 61.7539C255.265 62.8758 255.83 63.2497 256.772 63.2497C257.526 63.2497 258.091 62.6888 258.468 61.7539L259.598 61.9409C259.221 63.6237 258.279 64.3716 256.772 64.3716C255.265 64.3716 254.323 63.6237 253.946 61.9409Z" fill="#231F20"/>
<path d="M265.439 70.729V73.5337C265.439 76.1513 266.569 77.6471 268.453 77.6471C270.148 77.6471 271.09 76.7123 271.467 74.6555L272.974 74.8425C272.598 77.2732 270.902 78.769 268.453 78.769C265.627 78.769 263.932 76.7123 263.932 73.7206V70.542C263.932 67.5504 265.627 65.4937 268.453 65.4937C270.902 65.4937 272.598 66.9895 272.974 69.6071L271.467 69.7941C271.09 67.9244 269.96 66.8025 268.453 66.8025C266.569 66.8025 265.439 68.2983 265.439 70.729Z" fill="#231F20"/>
<path d="M283.523 65.6807V66.9895H279.755V78.5821H278.248V66.9895H274.48V65.6807H283.523Z" fill="#231F20"/>
<path d="M285.596 78.5821V65.6807H289.74C291.813 65.6807 293.885 66.6155 293.885 69.2332C293.885 70.729 293.131 71.6639 292.001 72.0379C293.32 72.4118 294.262 73.5337 294.262 75.2165C294.262 77.8341 292.378 78.956 290.305 78.956H285.596V78.5821ZM289.74 71.29C291.436 71.29 292.378 70.5421 292.378 69.2332C292.378 67.5504 291.247 66.9895 289.552 66.9895H287.103V71.29H289.74ZM289.929 72.5988H287.103V77.2732H289.929C291.624 77.2732 292.754 76.5253 292.754 74.8425C292.754 73.3467 291.624 72.5988 289.929 72.5988Z" fill="#231F20"/>
<path d="M296.711 78.5821V65.6807H298.218V75.9644L304.623 65.6807H305.942V78.5821H304.435V68.2983L298.03 78.5821H296.711Z" fill="#231F20"/>
<path d="M312.912 73.1597L309.709 78.5821H308.014L311.216 72.9728C309.709 72.5988 308.39 71.29 308.39 69.4202C308.39 66.8025 310.463 65.6807 312.535 65.6807H317.056V78.5821H315.549V73.1597H312.912ZM315.738 71.8509V66.9895H312.912C311.216 66.9895 310.086 67.7374 310.086 69.4202C310.086 71.103 311.216 71.8509 312.912 71.8509H315.738Z" fill="#231F20"/>
<path d="M327.04 73.3467V78.5821H325.533V65.6807H330.055C332.127 65.6807 334.199 66.9895 334.199 69.6072C334.199 72.2248 332.127 73.5337 330.055 73.5337H327.04V73.3467ZM329.866 66.9895H327.04V72.0379H329.866C331.562 72.0379 332.692 71.29 332.692 69.4202C332.692 67.7374 331.562 66.9895 329.866 66.9895Z" fill="#231F20"/>
<path d="M340.605 65.6807L345.126 78.5821H343.619L342.489 75.4035H337.214L336.083 78.5821H334.576L339.098 65.6807H340.605ZM337.59 74.0946H341.923L339.851 67.5504L337.59 74.0946Z" fill="#231F20"/>
<path d="M353.605 75.2164C353.605 73.3467 352.286 72.5988 350.402 72.5988H349.272V71.2899H350.402C352.098 71.2899 353.04 70.542 353.04 69.0462C353.04 67.7374 352.286 66.8025 350.779 66.8025C349.272 66.8025 348.33 67.7374 347.953 69.0462L346.446 68.8592C347.011 66.8025 348.518 65.4937 350.591 65.4937C352.851 65.4937 354.359 66.9895 354.359 69.0462C354.359 70.3551 353.793 71.4769 352.475 72.0378C353.793 72.5988 354.924 73.5337 354.924 75.4034C354.924 77.4602 353.605 79.143 350.779 79.143C348.518 79.143 346.823 77.8341 346.258 75.4034L347.765 75.2164C348.142 76.7123 349.272 77.8341 350.968 77.8341C352.475 77.6472 353.605 76.5253 353.605 75.2164Z" fill="#231F20"/>
<path d="M357.371 78.5821V65.6807H361.516C363.588 65.6807 365.66 66.6155 365.66 69.2332C365.66 70.729 364.907 71.6639 363.776 72.0379C365.095 72.4118 366.037 73.5337 366.037 75.2165C366.037 77.8341 364.153 78.956 362.081 78.956H357.371V78.5821ZM361.327 71.29C363.023 71.29 363.965 70.5421 363.965 69.2332C363.965 67.5504 362.834 66.9895 361.139 66.9895H358.69V71.29H361.327ZM361.704 72.5988H358.878V77.2732H361.704C363.4 77.2732 364.53 76.5253 364.53 74.8425C364.53 73.3467 363.4 72.5988 361.704 72.5988Z" fill="#231F20"/>
<path d="M368.299 78.5821V65.6807H369.806V75.9644L376.211 65.6807H377.53V78.5821H376.023V68.2983L369.618 78.5821H368.299Z" fill="#231F20"/>
<path d="M388.834 65.6807V66.9895H385.066V78.5821H383.559V66.9895H379.791V65.6807H388.834Z" fill="#231F20"/>
<path d="M390.906 78.5821V65.6807H392.413V75.9644L398.819 65.6807H400.137V78.5821H398.63V68.2983L392.225 78.5821H390.906Z" fill="#231F20"/>
<path d="M415.207 73.7206C415.207 76.7123 413.512 78.769 410.686 78.769C407.86 78.769 406.165 76.7123 406.165 73.7206V72.7858H404.658V78.582H403.15V65.6806H404.658V71.4769H406.165V70.542C406.165 67.5504 407.86 65.4937 410.686 65.4937C413.512 65.4937 415.207 67.5504 415.207 70.542V73.7206ZM413.7 70.729C413.7 68.1113 412.57 66.6155 410.686 66.6155C408.802 66.6155 407.672 68.1113 407.672 70.729V73.5337C407.672 76.1513 408.802 77.6471 410.686 77.6471C412.57 77.6471 413.7 76.1513 413.7 73.5337V70.729Z" fill="#231F20"/>
<path d="M428.583 75.0295L425.003 68.6723V78.5821H423.496V65.6807H424.815L429.148 73.5337L433.481 65.6807H434.799V78.5821H433.292V68.6723L429.713 75.0295H428.583Z" fill="#231F20"/>
<path d="M442.901 65.6807L447.422 78.5821H445.915L444.784 75.4035H439.698L438.568 78.5821H437.061L441.582 65.6807H442.901ZM440.075 74.0946H444.408L442.335 67.5504L440.075 74.0946Z" fill="#231F20"/>
<path d="M450.247 70.729V73.5337C450.247 76.1513 451.378 77.6471 453.262 77.6471C454.957 77.6471 455.899 76.7123 456.276 74.6555L457.783 74.8425C457.406 77.2732 455.711 78.769 453.262 78.769C450.436 78.769 448.74 76.7123 448.74 73.7206V70.542C448.74 67.5504 450.436 65.4937 453.262 65.4937C455.711 65.4937 457.406 66.9895 457.783 69.6071L456.276 69.7941C455.899 67.9244 454.769 66.8025 453.262 66.8025C451.378 66.8025 450.247 68.2983 450.247 70.729Z" fill="#231F20"/>
<path d="M461.55 70.729V73.5337C461.55 76.1513 462.68 77.6471 464.564 77.6471C466.26 77.6471 467.202 76.7123 467.579 74.6555L469.086 74.8425C468.709 77.2732 467.013 78.769 464.564 78.769C461.738 78.769 460.043 76.7123 460.043 73.7206V70.542C460.043 67.5504 461.738 65.4937 464.564 65.4937C467.013 65.4937 468.709 66.9895 469.086 69.6071L467.579 69.7941C467.202 67.9244 466.071 66.8025 464.564 66.8025C462.68 66.8025 461.55 68.2983 461.55 70.729Z" fill="#231F20"/>
<path d="M480.39 73.7206C480.39 76.7123 478.695 78.769 475.869 78.769C473.043 78.769 471.348 76.7123 471.348 73.7206V70.542C471.348 67.5504 473.043 65.4937 475.869 65.4937C478.695 65.4937 480.39 67.5504 480.39 70.542V73.7206ZM479.072 70.729C479.072 68.1113 477.941 66.6155 476.057 66.6155C474.173 66.6155 473.043 68.1113 473.043 70.729V73.5337C473.043 76.1513 474.173 77.6471 476.057 77.6471C477.941 77.6471 479.072 76.1513 479.072 73.5337V70.729Z" fill="#231F20"/>
<path d="M483.027 78.5821V65.6807H487.172C489.244 65.6807 491.316 66.6155 491.316 69.2332C491.316 70.729 490.563 71.4769 489.433 72.0379C490.751 72.4118 491.693 73.5337 491.693 75.2165C491.693 77.8341 489.809 78.956 487.737 78.956H483.027V78.5821ZM487.172 71.29C488.867 71.29 489.809 70.5421 489.809 69.2332C489.809 67.5504 488.679 66.9895 486.984 66.9895H484.534V71.29H487.172ZM487.549 72.5988H484.723V77.2732H487.549C489.244 77.2732 490.374 76.5253 490.374 74.8425C490.186 73.3467 489.056 72.5988 487.549 72.5988Z" fill="#231F20"/>
<path d="M502.996 73.7206C502.996 76.7123 501.3 78.769 498.474 78.769C495.649 78.769 493.953 76.7123 493.953 73.7206V70.542C493.953 67.5504 495.649 65.4937 498.474 65.4937C501.3 65.4937 502.996 67.5504 502.996 70.542V73.7206ZM501.489 70.729C501.489 68.1113 500.358 66.6155 498.474 66.6155C496.591 66.6155 495.46 68.1113 495.46 70.729V73.5337C495.46 76.1513 496.591 77.6471 498.474 77.6471C500.358 77.6471 501.489 76.1513 501.489 73.5337V70.729Z" fill="#231F20"/>
<path d="M513.922 66.9895H507.14V78.5821H505.633V65.6807H513.922V66.9895Z" fill="#231F20"/>
<path d="M524.472 73.7206C524.472 76.7123 522.777 78.769 519.951 78.769C517.125 78.769 515.43 76.7123 515.43 73.7206V70.542C515.43 67.5504 517.125 65.4937 519.951 65.4937C522.777 65.4937 524.472 67.5504 524.472 70.542V73.7206ZM522.965 70.729C522.965 68.1113 521.835 66.6155 519.951 66.6155C518.067 66.6155 516.937 68.1113 516.937 70.729V73.5337C516.937 76.1513 518.067 77.6471 519.951 77.6471C521.835 77.6471 522.965 76.1513 522.965 73.5337V70.729Z" fill="#231F20"/>
<path d="M533.515 70.729V73.5337C533.515 76.1513 534.645 77.6471 536.529 77.6471C538.225 77.6471 539.167 76.7123 539.543 74.6555L541.05 74.8425C540.674 77.2732 538.978 78.769 536.529 78.769C533.703 78.769 532.008 76.7123 532.008 73.7206V70.542C532.008 67.5504 533.703 65.4937 536.529 65.4937C538.978 65.4937 540.674 66.9895 541.05 69.6071L539.543 69.7941C539.167 67.9244 538.036 66.8025 536.529 66.8025C534.645 66.8025 533.515 68.2983 533.515 70.729Z" fill="#231F20"/>
<path d="M550.847 66.9895H545.007V78.5821H543.5V65.6807H552.166V78.5821H550.659V66.9895H550.847Z" fill="#231F20"/>
<path d="M564.035 73.7206C564.035 76.7123 562.339 78.769 559.514 78.769C556.688 78.769 554.992 76.7123 554.992 73.7206V70.542C554.992 67.5504 556.688 65.4937 559.514 65.4937C562.339 65.4937 564.035 67.5504 564.035 70.542V73.7206ZM562.528 70.729C562.528 68.1113 561.397 66.6155 559.514 66.6155C557.63 66.6155 556.499 68.1113 556.499 70.729V73.5337C556.499 76.1513 557.63 77.6471 559.514 77.6471C561.397 77.6471 562.528 76.1513 562.528 73.5337V70.729Z" fill="#231F20"/>
<path d="M568.179 73.3467V78.5821H566.672V65.6807H571.193C573.266 65.6807 575.338 66.9895 575.338 69.6072C575.338 72.2248 573.266 73.5337 571.193 73.5337H568.179V73.3467ZM571.005 66.9895H568.179V72.0379H571.005C572.7 72.0379 573.831 71.29 573.831 69.4202C573.831 67.7374 572.512 66.9895 571.005 66.9895Z" fill="#231F20"/>
<path d="M585.699 65.6807V66.9895H581.931V78.5821H580.424V66.9895H576.656V65.6807H585.699Z" fill="#231F20"/>
<path d="M591.352 65.6807L595.873 78.5821H594.366L593.236 75.4035H588.149L587.019 78.5821H585.512L590.033 65.6807H591.352ZM588.526 74.0946H592.859L590.787 67.5504L588.526 74.0946Z" fill="#231F20"/>
<path d="M37.1112 30.3422C37.2996 32.7729 35.9808 36.1385 31.6479 40.252C27.3149 44.3655 21.0981 48.479 21.8516 53.7143C22.6052 58.3888 28.2569 61.1934 28.2569 61.1934L32.0247 58.0148C32.0247 58.0148 27.1265 54.4622 31.0827 49.9748C37.6763 42.3088 43.5164 40.252 42.7628 33.8948C42.0093 27.5376 34.6621 24.9199 34.6621 24.9199C34.6621 24.9199 36.7344 27.1636 37.1112 30.3422Z" fill="url(#paint0_linear)"/>
<path fill-rule="evenodd" clip-rule="evenodd" d="M28.068 23.0503C28.068 23.0503 30.1403 25.668 29.5751 29.5945C29.01 33.521 21.6628 36.3256 19.5905 40.6261C17.5182 44.9266 20.7208 49.414 20.7208 49.414C20.7208 49.414 20.3441 47.1703 24.1118 43.8047C29.3867 38.9433 35.2268 35.2038 34.85 30.9033C34.4733 25.107 28.068 23.0503 28.068 23.0503ZM26.7493 40.8131C25.8074 41.748 24.677 42.4959 23.7351 43.4308C21.6628 45.3005 20.7208 46.7963 20.3441 47.9182C19.5905 46.4224 18.6486 43.4308 19.9673 40.8131C20.9092 38.9433 22.9815 37.2605 25.0538 35.5777C27.5029 33.708 29.7635 31.8382 30.1403 29.5945C30.5171 27.1638 29.9519 25.294 29.3867 24.1722C31.2706 25.107 34.2849 27.1638 34.4733 31.0903C34.4733 34.0819 30.8939 37.2605 26.7493 40.8131Z" fill="url(#paint1_linear)"/>
<path d="M38.996 61.1934C38.996 61.1934 32.4023 58.2018 32.4023 54.2753C32.4023 50.1618 35.9817 48.2921 40.6915 43.2437C42.5754 41.1869 44.6476 38.9432 44.836 35.3907C44.836 35.3907 44.836 35.3907 44.836 35.2037C44.836 32.96 43.3289 30.3423 43.3289 30.3423C43.3289 30.3423 49.169 32.586 49.9225 37.6344C50.1109 38.1953 50.1109 38.5693 50.1109 39.1302C50.1109 42.3088 48.0387 45.3004 42.9521 49.4139C40.6915 51.2837 39.9379 52.9665 39.9379 54.2753C39.9379 56.706 42.1986 58.0148 42.1986 58.0148L38.996 61.1934Z" fill="url(#paint2_linear)"/>
<path d="M28.0684 69.4207C28.2567 69.4207 28.4451 69.4207 28.4451 69.4207C30.7058 69.4207 32.4013 71.1035 32.7781 73.1602C33.1549 73.3472 33.3433 73.3472 33.72 73.3472C33.5316 70.7296 31.271 68.4858 28.4451 68.4858C28.2567 68.4858 28.0684 68.4858 28.0684 68.4858C28.0684 68.6728 28.0684 68.6728 28.0684 68.8598C28.0684 69.2337 28.0684 69.2337 28.0684 69.4207Z" fill="#FAB31E"/>
<path d="M32.9672 74.0952C32.7788 76.3389 30.895 78.2087 28.6343 78.2087C26.1852 78.2087 24.3013 76.1519 24.3013 73.9082C24.3013 72.0385 25.62 70.3557 27.3156 69.7947C27.3156 69.6078 27.3156 69.4208 27.3156 69.0468V68.8599C25.0549 69.4208 23.3594 71.4775 23.3594 73.9082C23.3594 76.8999 25.8084 79.1436 28.6343 79.1436C31.4601 79.1436 33.7208 77.0868 33.9092 74.2822C33.5324 74.2822 33.1556 74.0952 32.9672 74.0952Z" fill="#FAB31E"/>
<path d="M23.1712 73.9083C23.1712 73.7213 23.1712 73.5343 23.1712 73.5343C22.9828 73.5343 22.7944 73.5343 22.7944 73.5343C20.3454 73.5343 18.4615 71.6645 18.4615 69.2338C18.4615 66.8031 20.5338 64.9334 22.7944 64.9334C25.2435 64.9334 27.1274 66.8031 27.1274 69.2338C27.1274 71.1036 25.8087 72.7864 24.1132 73.3473C24.1132 73.5343 24.1132 73.7213 24.1132 73.9083V74.0952C26.3738 73.5343 28.0693 71.4776 28.0693 69.0469C28.0693 66.0552 25.6203 63.8115 22.7944 63.8115C19.7802 63.8115 17.5195 66.2422 17.5195 69.0469C17.5195 72.0385 19.9686 74.2822 22.7944 74.2822C22.9828 74.2822 23.1712 74.2822 23.1712 74.2822C23.1712 74.0952 23.1712 73.9083 23.1712 73.9083Z" fill="#0079C2"/>
<path d="M29.7642 68.6728C29.9526 66.4291 31.8365 64.5594 34.0972 64.5594C36.5462 64.5594 38.4301 66.4291 38.4301 68.8598C38.4301 70.7296 37.1114 72.4124 35.4159 72.9733C35.4159 73.1603 35.4159 73.3473 35.4159 73.5342V73.7212C37.6766 73.1603 39.3721 71.1035 39.3721 68.6728C39.3721 65.6812 36.923 63.4375 34.0972 63.4375C31.2713 63.4375 29.0107 65.4942 28.8223 68.2989C29.199 68.6728 29.5758 68.6728 29.7642 68.6728Z" fill="#1D1D1B"/>
<path d="M34.6614 73.9079C34.6614 73.7209 34.6614 73.5339 34.6614 73.5339C34.4731 73.5339 34.2847 73.5339 34.2847 73.5339C32.024 73.5339 30.1401 71.8511 29.9517 69.7944C29.5749 69.6074 29.3865 69.6074 29.0098 69.6074C29.1982 72.2251 31.4588 74.4688 34.2847 74.4688C34.473 74.4688 34.6614 74.4688 34.6614 74.4688C34.6614 74.0949 34.6614 73.9079 34.6614 73.9079Z" fill="#1D1D1B"/>
<path d="M45.7788 63.8115C42.953 63.8115 40.6923 65.8683 40.5039 68.6729C40.8807 68.6729 41.0691 68.6729 41.4459 68.8599C41.6342 66.6162 43.5181 64.7464 45.7788 64.7464C48.2279 64.7464 50.1118 66.6162 50.1118 69.0469C50.1118 71.4776 48.0395 73.3473 45.7788 73.3473C43.5181 73.3473 41.8226 71.6645 41.4459 69.6078C41.0691 69.4208 40.8807 69.4208 40.5039 69.4208C40.6923 72.0385 42.953 74.2822 45.7788 74.2822C48.793 74.2822 51.0537 71.8515 51.0537 69.0469C51.0537 66.0552 48.6046 63.8115 45.7788 63.8115Z" fill="#E62644"/>
<path d="M39.5605 69.4207C39.7489 69.4207 39.9373 69.4207 39.9373 69.4207C42.198 69.4207 43.8935 71.1035 44.2703 73.1602C44.6471 73.3472 44.8354 73.3472 45.2122 73.3472C45.0238 70.7296 42.7632 68.4858 39.9373 68.4858C39.7489 68.4858 39.5605 68.4858 39.5605 68.4858C39.5605 68.6728 39.5605 68.6728 39.5605 68.8598C39.5605 69.2337 39.5605 69.2337 39.5605 69.4207Z" fill="#009640"/>
<path d="M44.4594 74.0952C44.271 76.3389 42.3871 78.2087 40.1265 78.2087C37.6774 78.2087 35.7935 76.1519 35.7935 73.9082C35.7935 72.0385 37.1122 70.3557 38.8077 69.7947C38.8077 69.6078 38.8077 69.4208 38.8077 69.0468V68.8599C36.5471 69.4208 34.8516 71.4775 34.8516 73.9082C34.8516 76.8999 37.3006 79.1436 40.1265 79.1436C42.9523 79.1436 45.213 77.0868 45.4014 74.2822C45.0246 74.2822 44.6478 74.0952 44.4594 74.0952Z" fill="#009640"/>
<path d="M6.96951 60.4454C5.4624 61.3803 4.70884 62.8761 5.65079 64.185C6.59273 65.4938 8.09985 65.4938 9.60696 64.5589C11.3025 63.4371 11.6792 61.9412 10.9257 60.8194C10.1721 59.5105 8.66502 59.3236 6.96951 60.4454ZM9.23018 63.811C7.91146 64.5589 6.96951 64.5589 6.40434 63.811C5.83918 63.0631 6.40435 61.9412 7.53468 61.1933C8.85341 60.2584 9.79535 60.2584 10.3605 61.1933C10.9257 61.9412 10.3605 63.0631 9.23018 63.811ZM8.66502 58.7626L9.41857 58.3887C8.85341 56.8929 7.53468 57.2668 4.70884 58.3887L3.7669 58.9496L3.20173 57.4538L8.09985 55.3971L7.72307 54.6491L2.07139 56.8929L3.39012 59.8845L4.89723 59.3236C6.96951 58.3887 8.47663 58.0147 8.66502 58.7626ZM7.1579 52.5924L2.07139 51.0966L6.78112 50.1617L6.59273 49.2268L0.564276 50.5357L0.752666 51.4705L5.83918 52.9664L1.12945 53.9012L1.31784 54.8361L7.34629 53.5273L7.1579 52.5924ZM6.21595 47.3571H1.883L4.52045 46.0482V45.3003L1.883 44.1785H6.21595V43.2436H0.1875V44.1785L3.39012 45.6743L0.1875 47.1701V48.105H6.21595V47.3571ZM6.59273 41.1868L1.31784 40.065L1.69461 37.8212L6.96951 38.9431L7.1579 38.0082L1.12945 36.8864L0.37589 40.8129L6.40434 41.9347L6.59273 41.1868ZM7.91146 36.1385L4.52045 32.025L8.85341 33.8947L9.23018 33.1468L3.57851 30.9031L3.20173 31.838L6.59273 35.9515L2.25978 34.0817L1.883 34.8296L7.53468 37.0733L7.91146 36.1385ZM6.59273 25.8547L9.23018 30.5291L5.27401 27.9115L4.70884 28.6594L9.79535 32.025L10.3605 31.2771L7.72307 26.6026L11.6792 29.2203L12.2444 28.4724L7.1579 25.1068L6.59273 25.8547ZM5.65079 26.7896C6.02757 26.2287 6.02757 25.6678 5.4624 25.2938L5.08562 25.8547C5.4624 26.0417 5.27401 26.4157 5.27401 26.6026C5.08562 26.9766 4.89723 26.9766 4.52045 26.7896L4.14368 27.3505C4.70884 27.5375 5.08562 27.3505 5.65079 26.7896ZM14.1283 25.4808C13.3747 26.2287 12.2444 26.0417 11.1141 25.1068C9.98374 23.985 9.79535 23.0501 10.5489 22.3022C10.7373 22.1152 11.1141 21.7412 11.4909 21.7412L10.9257 21.1803C10.5489 21.3673 10.1721 21.5543 9.98374 21.9282C8.8534 23.0501 9.23019 24.7329 10.5489 26.0417C11.8676 27.3505 13.3748 27.5375 14.5051 26.4157C14.8819 26.0417 15.0703 25.6678 15.2586 25.2938L14.6935 24.7329C14.6935 24.7329 14.3167 25.2938 14.1283 25.4808ZM15.2586 17.4408L14.5051 18.0017L14.8819 20.9933L14.5051 21.1803L12.8096 19.1236L12.056 19.6845L15.8238 24.5459L16.5774 23.985L15.0703 21.9282L15.447 21.7412L18.2729 23.0501L19.0264 22.4891L15.6354 20.9933L15.2586 17.4408ZM19.9684 15.0101V20.2454L17.8961 16.1319L16.9541 16.5059L19.78 21.9282L20.7219 21.5543V16.3189L22.7942 20.4324L23.5478 20.0584L20.7219 14.4491L19.9684 15.0101ZM25.0549 12.7664C25.8084 12.5794 26.1852 12.2054 25.9968 11.4575L25.4317 11.6445C25.6201 12.0184 25.2433 12.2054 25.0549 12.3924C24.6781 12.3924 24.4897 12.3924 24.3013 12.0184L23.7362 12.2054C23.7362 12.7664 24.1129 12.9533 25.0549 12.7664ZM26.1852 12.7664L25.0549 18.0017L23.7362 13.5143L22.9826 13.7012L24.6781 19.4975L25.62 19.3105L26.7504 14.0752L28.0691 18.5626L28.8227 18.3757L27.1272 12.5794L26.1852 12.7664ZM35.7931 11.8315H34.8511L33.344 14.4491H32.9672V11.8315H32.0253V17.8147H32.9672V15.1971H33.344L34.8511 17.8147H35.7931L33.9092 14.8231L35.7931 11.8315ZM39.3725 12.0184C37.8654 11.8315 36.735 12.9533 36.5466 14.8231C36.1699 16.8798 37.1118 18.1887 38.4305 18.3757C39.9376 18.5626 41.068 17.6278 41.2564 15.571C41.6331 13.8882 41.068 12.3924 39.3725 12.0184ZM40.5028 15.384C40.3144 16.8798 39.5609 17.6278 38.6189 17.4408C37.677 17.2538 37.3002 16.3189 37.4886 14.8231C37.677 13.3273 38.4305 12.5794 39.3725 12.7664C40.3144 12.9533 40.6912 14.0752 40.5028 15.384ZM47.6616 14.6361L45.0242 17.0668L44.6474 13.5143L43.7054 13.1403L41.6331 18.7496L42.3867 19.1236L43.8938 15.0101L44.0822 17.8147L44.6474 18.0017L46.7197 15.945L45.2125 20.0584L45.9661 20.4324L48.0384 14.8231L47.6616 14.6361ZM53.5017 17.8147L48.9803 20.4324L51.6178 16.5059L50.8642 16.1319L47.6616 21.1803L48.4152 21.7412L53.1249 19.1236L50.6758 23.0501L51.4294 23.611L54.632 18.5626L53.5017 17.8147ZM58.023 22.4891L58.5882 21.9282L55.7623 19.4975L55.1972 20.0584L56.1391 20.9933L52.7481 24.7329L53.3133 25.2938L56.8927 21.3673L58.023 22.4891ZM57.4578 28.6594L56.1391 26.9766L57.6462 25.8547L58.5882 26.9766L59.1533 26.4157L58.2114 25.2938L59.7185 24.1719L61.0372 25.8547L61.6024 25.2938L59.7185 23.0501L55.0088 26.9766L56.8927 29.2203L57.4578 28.6594ZM58.023 30.9031L58.3998 31.651L62.9211 28.8464L63.6747 29.9682L64.4282 29.5943L62.5443 26.6026L61.7908 26.9766L62.5443 28.0984L58.023 30.9031ZM60.6605 36.3254L62.5443 35.7645L62.9211 36.6994C63.1095 37.4473 64.2399 37.8212 65.3702 37.4473C66.3121 37.0733 67.0657 36.3254 66.8773 35.3905L66.3121 33.7078L60.4721 35.5775L60.6605 36.3254ZM65.747 34.8296L65.9354 35.5775C66.1237 36.1384 65.5586 36.5124 64.9934 36.6994C64.4282 36.8864 63.6747 36.8864 63.4863 36.3254L63.2979 35.5775L65.747 34.8296ZM64.6166 38.9431C62.5443 39.3171 61.6024 40.4389 61.7908 41.7478C61.9792 43.2436 63.2979 43.9915 65.1818 43.6175C66.8773 43.4305 68.196 42.4957 68.0076 40.8129C67.8193 39.504 66.5005 38.7561 64.6166 38.9431ZM67.2541 40.9998C67.4425 41.9347 66.5005 42.6826 65.1818 42.8696C63.6747 43.0566 62.7327 42.6826 62.5443 41.7478C62.356 40.8129 63.2979 40.065 64.805 39.878C66.1238 39.691 67.0657 40.065 67.2541 40.9998ZM65.1818 45.1133C63.2979 45.1133 61.9792 45.8612 61.9792 47.544C61.9792 48.105 61.9792 48.4789 62.1676 48.8529H62.9211C62.7327 48.4789 62.7327 48.105 62.7327 47.731C62.7327 46.6091 63.6747 46.0482 65.1818 46.0482C66.6889 46.0482 67.6309 46.7961 67.4425 47.918C67.4425 48.2919 67.2541 48.6659 67.0657 49.0398H67.8193C68.0076 48.6659 68.0076 48.2919 68.196 47.918C68.3844 46.0482 67.0657 45.1133 65.1818 45.1133ZM64.9934 49.7878C63.2979 49.4138 61.7908 49.9747 61.414 51.6575C61.2256 52.2185 61.2256 52.5924 61.414 52.9664L62.1676 53.1533C61.9792 52.7794 61.9792 52.2185 62.1676 52.0315C62.356 50.9096 63.4863 50.5357 64.805 50.7226C66.3121 51.0966 67.0657 51.8445 66.8773 52.7794C66.8773 53.1533 66.6889 53.5273 66.3121 53.9012L67.0657 54.0882C67.2541 53.7143 67.4425 53.3403 67.6309 52.9664C67.8193 51.2836 66.6889 50.1617 64.9934 49.7878ZM60.6605 54.6491L64.0515 58.5757L59.7185 56.8929L59.3417 57.6408L64.9934 59.8845L65.3702 58.9496L61.9792 55.0231L66.3121 56.7059L66.6889 55.958L61.0372 53.7143L60.6605 54.6491ZM58.3998 59.5105L61.0372 64.185L57.0811 61.5673L56.5159 62.3152L61.6024 65.4938L62.1676 64.7459L59.5301 60.0715L63.4863 62.6891L64.0515 61.9412L58.965 58.7626L58.3998 59.5105Z" fill="#706F6F"/>
<defs>
<linearGradient id="paint0_linear" x1="44.8952" y1="30.0238" x2="20.0621" y2="55.0446" gradientUnits="userSpaceOnUse">
<stop offset="0.092" stop-color="#6981BF"/>
<stop offset="0.3558" stop-color="#004B9C"/>
<stop offset="0.9632" stop-color="#6981BF"/>
</linearGradient>
<linearGradient id="paint1_linear" x1="33.6182" y1="27.0224" x2="15.9004" y2="44.8741" gradientUnits="userSpaceOnUse">
<stop stop-color="#6981BF"/>
<stop offset="0.2577" stop-color="#004B9C"/>
<stop offset="1" stop-color="#6981BF"/>
</linearGradient>
<linearGradient id="paint2_linear" x1="51.3421" y1="35.8226" x2="26.5012" y2="60.8511" gradientUnits="userSpaceOnUse">
<stop offset="0.0920245" stop-color="#E63329"/>
<stop offset="0.3497" stop-color="#A0271D"/>
<stop offset="0.6687" stop-color="#E63329"/>
</linearGradient>
</defs>
</svg>
