<svg width="30" height="30" viewBox="0 0 30 30" fill="none" xmlns="http://www.w3.org/2000/svg">
<circle cx="15" cy="15" r="15" fill="#01499B"/>
<path d="M11.973 13.9058L10.949 16.2308C10.9238 16.2886 10.8604 16.3255 10.7908 16.3255H10.2665C10.197 16.3255 10.1336 16.288 10.109 16.2308L9.62284 15.1212C9.57546 15.0117 9.53238 14.9071 9.49177 14.8031C9.44684 14.9175 9.40069 15.024 9.35453 15.1261L8.84192 16.2338C8.81607 16.2898 8.7533 16.3255 8.685 16.3255H8.16069C8.08869 16.3255 8.02592 16.2868 8.0013 16.2283L7.04315 13.9028C7.02469 13.8572 7.03207 13.8068 7.06407 13.7668C7.09607 13.7268 7.14715 13.7034 7.20253 13.7034H7.79269C7.86715 13.7034 7.93238 13.7458 7.95453 13.8074L8.37546 14.9889C8.41053 15.0886 8.44315 15.1828 8.4733 15.2726C8.51023 15.1828 8.55023 15.088 8.59269 14.9877L9.11084 13.7988C9.13607 13.7415 9.19884 13.7034 9.26838 13.7034H9.75577C9.82653 13.7034 9.8893 13.7421 9.91453 13.8L10.4056 14.9631C10.4499 15.0677 10.4893 15.1655 10.5256 15.2578C10.5558 15.1705 10.5908 15.0757 10.6308 14.9717L11.0844 13.8037C11.1078 13.7434 11.1724 13.7028 11.2444 13.7028H11.8142C11.8702 13.7028 11.9219 13.7268 11.9539 13.7668C11.9865 13.8086 11.9927 13.8597 11.973 13.9058ZM17.4635 13.9058L16.4395 16.2308C16.4142 16.2886 16.3508 16.3255 16.2819 16.3255H15.7564C15.6868 16.3255 15.6241 16.288 15.5988 16.2308L15.1133 15.1212C15.0653 15.0117 15.0222 14.9071 14.9816 14.8031C14.9367 14.9175 14.8905 15.024 14.8444 15.1261L14.3318 16.2338C14.3059 16.2898 14.2438 16.3255 14.1748 16.3255H13.6499C13.5785 16.3255 13.5152 16.2868 13.4905 16.2283L12.5324 13.9028C12.5139 13.8572 12.5213 13.8068 12.5533 13.7668C12.5853 13.7274 12.637 13.7034 12.6918 13.7034H13.2819C13.3564 13.7034 13.4216 13.7458 13.4438 13.8074L13.8641 14.9889C13.8991 15.0886 13.9318 15.1828 13.9632 15.2726C13.9995 15.1828 14.0388 15.088 14.0813 14.9877L14.6001 13.7988C14.6247 13.7415 14.6875 13.7034 14.7576 13.7034H15.245C15.3158 13.7034 15.3792 13.7421 15.4038 13.8L15.8955 14.9631C15.9391 15.0677 15.9785 15.1655 16.0142 15.2578C16.0456 15.1705 16.0795 15.0757 16.1201 14.9717L16.5736 13.8037C16.597 13.7434 16.6622 13.7028 16.7342 13.7028H17.3041C17.3607 13.7028 17.413 13.7268 17.4438 13.7668C17.4764 13.8086 17.4838 13.8597 17.4635 13.9058ZM22.9533 13.9058L21.9299 16.2308C21.9041 16.2886 21.8413 16.3255 21.7718 16.3255H21.2468C21.1773 16.3255 21.1139 16.288 21.0893 16.2308L20.6038 15.1212C20.5558 15.0117 20.5127 14.9071 20.4721 14.8031C20.4272 14.9175 20.3804 15.024 20.3342 15.1261L19.8216 16.2338C19.7958 16.2898 19.733 16.3255 19.6647 16.3255H19.1404C19.0684 16.3255 19.005 16.2868 18.9804 16.2283L18.0222 13.9028C18.0044 13.8572 18.0105 13.8068 18.0425 13.7668C18.0745 13.7268 18.1262 13.7034 18.1816 13.7034H18.7724C18.8468 13.7034 18.9121 13.7458 18.9336 13.8074L19.3545 14.9889C19.3896 15.0886 19.4222 15.1828 19.453 15.2726C19.4893 15.1828 19.5287 15.088 19.5712 14.9877L20.0899 13.7988C20.1152 13.7415 20.1779 13.7034 20.2481 13.7034H20.7348C20.8056 13.7034 20.869 13.7421 20.8936 13.8L21.3847 14.9631C21.429 15.0677 21.469 15.1655 21.5053 15.2578C21.5355 15.1705 21.5705 15.0757 21.6105 14.9717L22.0647 13.8037C22.0875 13.7434 22.1521 13.7028 22.2247 13.7028H22.7945C22.8512 13.7028 22.9028 13.7268 22.9342 13.7668C22.9656 13.8086 22.973 13.8597 22.9533 13.9058Z" fill="white"/>
<path d="M8.66717 12.5385C8.84133 12.0966 9.05917 11.6763 9.31764 11.2849C9.35579 11.2923 9.39148 11.3077 9.43148 11.3077H10.5884C10.4659 11.6978 10.3699 12.1132 10.2869 12.5385H11.5515C11.6469 12.1083 11.7576 11.6917 11.8973 11.3077H18.0426C18.1823 11.6917 18.293 12.1083 18.3884 12.5385H19.653C19.5699 12.1132 19.4739 11.6978 19.3515 11.3077H20.5084C20.5484 11.3077 20.5841 11.2923 20.6229 11.2849C20.8801 11.6763 21.0986 12.0966 21.2727 12.5385H22.5779C21.5373 9.32862 18.5219 7 14.9699 7C11.4179 7 8.40256 9.32862 7.36133 12.5385H8.66717ZM19.6013 10.0769H18.8703C18.7115 9.74277 18.5367 9.43077 18.3466 9.14215C18.8019 9.40554 19.2216 9.71938 19.6013 10.0769ZM14.9699 8.23077C15.9244 8.23077 16.8056 8.94092 17.4696 10.0769H12.4703C13.1343 8.94092 14.0155 8.23077 14.9699 8.23077ZM11.5921 9.14215C11.4026 9.43077 11.2278 9.74277 11.069 10.0769H10.3386C10.7183 9.71938 11.1379 9.40554 11.5921 9.14215Z" fill="white"/>
<path d="M21.2727 17.4615C21.0986 17.904 20.8801 18.3231 20.6223 18.7151C20.5841 18.7077 20.5484 18.6923 20.5084 18.6923H19.3509C19.4733 18.3022 19.5693 17.8868 19.6524 17.4615H18.3878C18.293 17.8917 18.1816 18.3089 18.0419 18.6923H11.8973C11.7576 18.3089 11.6469 17.8917 11.5515 17.4615H10.2875C10.3706 17.8868 10.4666 18.3022 10.589 18.6923H9.43148C9.39148 18.6923 9.35579 18.7077 9.31764 18.7151C9.05979 18.3231 8.84133 17.904 8.66717 17.4615H7.36133C8.40256 20.6714 11.4179 23 14.9699 23C18.5219 23 21.5373 20.6714 22.5779 17.4615H21.2727ZM10.3386 19.9231H11.0696C11.2284 20.2572 11.4032 20.5699 11.5927 20.8579C11.1379 20.5945 10.7183 20.2806 10.3386 19.9231ZM14.9699 21.7692C14.0155 21.7692 13.1343 21.0591 12.4703 19.9231H17.469C16.8056 21.0591 15.9244 21.7692 14.9699 21.7692ZM18.3472 20.8579C18.5373 20.5699 18.7121 20.2572 18.8709 19.9231H19.6019C19.2216 20.2806 18.8019 20.5945 18.3472 20.8579Z" fill="white"/>
</svg>
